<?xml version="1.0" standalone="no"?>
<!DOCTYPE svg PUBLIC "-//W3C//DTD SVG 20010904//EN"
 "http://www.w3.org/TR/2001/REC-SVG-20010904/DTD/svg10.dtd">
<svg version="1.0" xmlns="http://www.w3.org/2000/svg"
 width="824.000000pt" height="824.000000pt" viewBox="0 0 824.000000 824.000000"
 preserveAspectRatio="xMidYMid meet">
<metadata>
Created by potrace 1.11, written by Peter Selinger 2001-2013
</metadata>
<g transform="translate(0.000000,824.000000) scale(0.100000,-0.100000)"
fill="#000000" stroke="none">
<path d="M0 4120 l0 -2610 263 0 262 0 0 785 0 785 40 1 c22 0 83 0 135 -1 52
-1 102 -1 110 -1 8 0 62 0 120 0 58 0 112 0 120 0 8 0 62 0 120 0 58 0 112 0
120 0 8 0 62 0 120 0 58 0 112 0 120 0 8 0 62 0 120 0 58 0 112 0 120 0 8 0
62 0 120 0 58 0 112 0 120 0 8 0 62 0 120 0 58 0 112 0 120 0 8 0 62 0 120 0
58 0 114 0 125 1 11 0 45 2 75 3 l55 2 3 1554 c1 932 6 1557 11 1561 5 3 238
5 518 5 l508 0 3 -1563 2 -1562 68 -1 c37 -1 71 -1 77 1 5 1 45 1 90 1 96 -1
161 -1 235 2 l55 2 1 1553 c0 853 4 1555 8 1560 4 4 235 7 512 7 l504 0 0
-1563 0 -1562 103 0 c56 -1 111 -1 122 -1 11 0 84 1 162 1 l142 0 0 1825 0
1825 -2875 0 -2874 0 0 -2610z m2102 788 l-2 -1298 -788 0 -787 0 0 1292 c0
711 3 1295 6 1298 4 3 360 5 791 5 l783 0 -3 -1297z"/>
<path d="M6100 6721 c0 -6 17 -38 37 -73 20 -35 37 -65 36 -68 0 -3 7 -16 17
-30 9 -14 43 -72 75 -130 32 -58 61 -107 64 -110 3 -3 14 -21 23 -40 10 -19
32 -60 49 -90 17 -30 44 -77 59 -105 35 -64 87 -156 100 -175 6 -8 13 -22 17
-30 4 -8 59 -107 123 -220 64 -113 129 -227 145 -255 15 -27 55 -99 90 -160
34 -60 76 -136 94 -168 17 -31 76 -135 130 -230 128 -225 161 -285 161 -291 0
-4 -267 -6 -594 -6 -638 0 -633 0 -607 -49 11 -19 21 -20 604 -20 325 0 605 0
620 0 22 -1 31 -8 43 -33 8 -18 21 -42 27 -53 7 -11 41 -72 76 -135 35 -63 70
-122 77 -130 7 -8 13 -19 14 -25 1 -5 20 -41 42 -80 23 -38 48 -83 57 -100 9
-16 18 -32 21 -35 3 -3 18 -30 33 -60 16 -30 53 -95 82 -145 30 -49 54 -96 54
-102 1 -7 6 -13 11 -13 6 0 10 -5 10 -11 0 -6 18 -41 39 -77 70 -118 102 -176
114 -204 6 -16 15 -28 19 -28 4 0 8 -4 8 -9 0 -12 90 -170 101 -177 5 -3 19
-2 30 1 28 9 20 50 -21 110 -16 24 -30 46 -30 50 0 3 -36 69 -80 147 -44 77
-80 144 -80 149 0 4 -3 9 -7 11 -5 2 -18 23 -31 48 -13 25 -34 63 -48 85 -14
22 -32 57 -41 78 -9 20 -20 37 -25 37 -4 0 -8 4 -8 9 0 5 -22 48 -50 96 -27
48 -50 88 -50 90 0 2 -27 49 -60 105 -33 56 -60 105 -60 109 0 4 -6 13 -12 19
-7 7 -13 16 -13 20 0 4 -21 41 -45 82 -24 41 -45 78 -45 82 0 4 -6 13 -12 20
-7 6 -13 15 -13 18 0 4 -40 78 -90 164 -49 87 -90 160 -90 162 0 3 -11 21 -23
42 -13 20 -41 69 -62 107 -21 39 -45 78 -53 88 -8 9 -12 17 -8 17 4 0 -2 12
-13 26 -12 15 -21 33 -21 40 0 8 -4 14 -10 14 -5 0 -10 5 -10 11 0 6 -22 48
-50 95 -27 47 -50 86 -50 88 0 2 -22 41 -48 87 -48 83 -68 118 -132 234 -18
33 -44 77 -57 97 -12 21 -23 39 -23 41 0 5 -264 474 -280 497 -6 8 -14 25 -20
38 -5 12 -26 48 -46 80 -20 31 -36 58 -35 60 1 1 -5 12 -12 25 -8 12 -49 84
-91 160 -76 134 -78 137 -112 137 -19 0 -34 -4 -34 -9z"/>
</g>
</svg>
