<?xml version="1.0" encoding="utf-8"?>
<!-- Generator: Adobe Illustrator 21.1.0, SVG Export Plug-In . SVG Version: 6.00 Build 0)  -->
<svg version="1.1" id="Calque_1" xmlns="http://www.w3.org/2000/svg" xmlns:xlink="http://www.w3.org/1999/xlink" x="0px" y="0px"
	 viewBox="0 0 769.9 119.7" style="enable-background:new 0 0 769.9 119.7;" xml:space="preserve">
<style type="text/css">
	.st0{fill:#010202;}
</style>
<g>
	<path class="st0" d="M406.5,119.7l-8.4-6.2l-0.2-30.2l-7.5-27.2l-7.3,26.2l0.8,26.6v2.2l-9.5,2.9l-0.8-2.6l7.6-2.3l-0.8-27.2
		l0.1-0.2l8.6-31.1l0.2-24L381,41.4l-5.4,14.3c3.1,1.2,3.8,5.3,3.9,7.1h0.8v15.7H367V62.8h0.8c0-1.4,0.3-4,1.9-5.8
		c0.9-0.9,1.9-1.5,3.2-1.6l5.7-15.2l10.7-19.1l0.1-5.8c-3.2-0.4-5.7-3.2-5.6-6.5V7.6c0.1-3.5,3.1-6.2,6.6-6.1h1.2
		c3.5,0.1,6.2,3.1,6.1,6.6v1.2c-0.1,3.1-2.6,5.7-5.6,6.1l-0.1,5.2l9.9,18.1l5.9,16.8c3.9,0.7,4.7,5.6,4.9,7.3h0.9v15.7h-13.4V62.8
		h0.7c0-1.4,0.3-4,1.9-5.8c0.6-0.7,1.4-1.2,2.3-1.4l-5.6-15.9L392.1,26l-0.2,25.1l8.8,31.8V83l0.2,29.2l7.3,5.4L406.5,119.7z
		 M403.7,62.8h6.5c-0.2-1.6-0.8-4.8-3.1-4.8c-0.9,0-1.6,0.3-2.1,0.8C403.9,59.9,403.7,61.8,403.7,62.8z M370.5,62.8h6.5
		c-0.2-1.6-0.8-4.8-3.1-4.8c-0.9,0-1.6,0.3-2.1,0.8C370.7,59.9,370.5,61.8,370.5,62.8z"/>
</g>
<g>
	<path class="st0" d="M64.9,112l-1.9-1.2l4.2-6.4l-11.1,1.3l-0.3-2.1v-0.2l0,0l0.3-0.2L76,89.5l-20.8-11l1.9,17.3l-8.8-0.4
		l-3.8,12.9l-2.5-0.7l3.6-12.3l-5.4-0.2l2.1,3.4l-2.2,1.4l-9.7-15.4l-2.8,1.7L27.4,86c-2.2-1.5-2.6-3.9-2.6-4v-0.3l7.6-4.7l0.2,0.1
		c0.1,0,2.1,1,2.7,4.1l0.1,0.3l-2.6,1.6l5.9,9.4l7.7,0.3l4.8-16.4l-3.7-2c-0.9,2.3-3.1,3.9-5.6,3.9c-0.4,0-0.8,0-1.1-0.1l-1.9-0.4
		c-3.2-0.6-5.3-3.8-4.7-7l0.4-1.9c0.5-2.8,3-4.8,5.9-4.8c0.4,0,0.8,0,1.1,0.1l1.9,0.4c3.2,0.6,5.3,3.8,4.7,7l-0.1,0.3l32.2,17
		l-8,12.3l10.9-1.3l-0.4,3.9l8.9-2.8l-1.3,10l-2.5-0.3l0.7-6.1l-6.2,1.9l-0.4,3.7l-2.5-0.3l0.3-2.6L64.9,112z M49,92.9l5.2,0.2
		l-1.4-13.2L49,92.9z M70.5,103.9l-2.9,4.5l12.6-3.9l0.2-1.8L70.5,103.9z M73.9,94l-12.3,8.4l7.4-0.9L73.9,94z"/>
</g>
<g>
	<path class="st0" d="M724,114.8h-3.1l-4.9-2.2l1-1.4l-10.3-1.1l-2.8,4.6h-1.5l-1.1-0.7l4-6.7l13.5,1.4l1.8-2.4l-12-9.2l9.9-33.9
		c-1.3-0.8-2.3-2-2.7-3.5s-0.3-3.1,0.5-4.5l0.9-1.7c1-1.9,3.1-3.1,5.2-3.1c1,0,2,0.3,2.9,0.7L727,52c2.9,1.6,3.9,5.2,2.4,8.1
		l-0.9,1.7c-1,1.9-3.1,3.1-5.2,3.1c-0.8,0-1.7-0.2-2.4-0.5l-1.8,6.3l0.2,0.6l9.1,9l15.4,4.9l-0.8,2.4l-16-5.1l-6.3-6.3l2.7,9.6
		l17.6,5.3l-0.7,2.4l-18.9-5.7l-3.6-12.6L712,95l20.2-2.5l0.3,2.3l-8.1,10.8l6,4.6l-1.4,1.9l-8.8-1l0,0l4.6,2L724,114.8z
		 M721.8,109.1l2.7,0.3l-1.8-1.4L721.8,109.1z M713.3,97.7l8.8,6.7l6.5-8.6L713.3,97.7z"/>
</g>
<path class="st0" d="M234.2,84l-8-30.9l0.4-1.2l6.4-23.2l6.4,14.8l-0.1,19.8h2.5l0.1-20.2v-0.4l-7.7-17.9l1.5-5.6
	c0.6,0.2,1.3,0.3,1.9,0.3c2.3,0,4.3-1.2,5.4-3.2l1-1.8c0.8-1.4,1-3.1,0.5-4.7s-1.5-2.9-2.9-3.7l-1.8-1c-0.9-0.5-1.9-0.8-3-0.8
	c-2.3,0-4.3,1.2-5.4,3.2l-0.7,1.2c0-0.1-0.1-0.1-0.1-0.2c-0.3-0.7-0.7-1.4-1.2-2.1c-0.5-0.8-1.1-1.5-2-2.3c-0.8-0.7-1.7-1.4-2.6-2
	c-1.1-0.6-2.2-1.1-3.4-1.4c-1-0.3-1.9-0.4-2.9-0.5c-1.5-0.1-3,0.1-4.5,0.5s-2.8,1.1-4,1.9c-1.1,0.8-2.1,1.8-3,3
	c-0.7,1-1.3,2.1-1.7,3.3c-0.5,1.5-0.8,3.1-0.7,4.8c0.1,1.4,0.4,2.8,0.9,4s1.2,2.2,1.9,3l0.1,0.1c0.4,0.5,0.9,0.9,1.4,1.3
	c1,0.8,2.1,1.5,3.4,1.9c1,0.3,1.9,0.5,2.9,0.6c0.9,0.1,1.8,0.1,2.8-0.1c0.9-0.1,1.9-0.4,2.8-0.9c1-0.5,2-1.2,2.8-1.9
	c0.6-0.6,1.1-1.3,1.6-2.1c1-1.7,1.5-3.7,1.4-5.7c-0.1-1.1-0.3-2.2-0.8-3.2c-0.5-1.2-1.2-2.2-2.1-3c-1-0.9-2.1-1.6-3.5-2
	c-0.9-0.3-1.9-0.4-2.9-0.4c-0.9,0-1.9,0.3-2.8,0.6c-0.8,0.3-1.4,0.7-1.9,1.2c-0.4,0.4-0.8,0.8-1.2,1.3c-0.5,0.6-0.9,1.4-1.1,2.2
	c-0.3,1-0.5,2.1-0.3,3.1c0.1,1.1,0.5,2.1,1.1,3c0.5,0.7,1,1.2,1.6,1.6c1.3,0.9,2.6,1.2,4.1,1.1c1.3-0.1,2.4-0.6,3.2-1.5
	c1.1-1.2,1.6-2.6,1.4-4.1c-0.1-0.9-0.5-1.6-1.1-2.2c-0.8-0.8-1.8-1.2-2.9-1.1c-0.7,0-1.5,0.4-1.9,1.1c-0.4,0.6-0.6,1.2-0.4,1.9
	c0.2,1.1,1.1,1.7,2.1,1.5c0.6-0.1,1.1-0.7,1.1-1.3c0-0.2,0-0.4-0.1-0.6c0.4,0.2,0.7,0.6,0.7,1c0.1,0.7-0.1,1.3-0.5,1.8
	c-0.5,0.5-1.1,0.9-1.9,0.9c-1.7,0.1-3.2-0.9-3.8-2.6c-0.4-1.4-0.2-2.7,0.7-4.1c0.3-0.4,0.6-0.8,1.1-1.1c0.7-0.5,1.4-0.8,2.2-1
	s1.6-0.1,2.5,0.1c1.3,0.3,2.4,1,3.4,2.1c0.5,0.6,0.9,1.3,1.2,2.1c0.6,1.8,0.4,3.6-0.4,5.3c-0.7,1.5-1.8,2.8-3.3,3.6
	c-1.3,0.7-2.7,1-4.2,0.9c-1.3-0.1-2.5-0.4-3.6-1c-0.7-0.4-1.3-0.8-1.8-1.2c-0.4-0.3-0.7-0.7-1-1.1c-0.1-0.2-0.3-0.3-0.4-0.5
	c-0.6-0.7-1-1.6-1.3-2.3c-0.6-1.7-0.7-3.5-0.3-5.5c0.4-1.7,1.1-3.2,2.3-4.6c0.8-0.9,1.7-1.7,2.8-2.2c1.3-0.7,2.7-1.2,4.2-1.3
	c1.6-0.1,3.2,0.1,4.7,0.6c0.9,0.3,1.7,0.7,2.4,1.1c0.5,0.3,1,0.7,1.4,1s0.7,0.7,1.1,1c0.4,0.5,0.9,1,1.2,1.6c0.4,0.6,0.7,1.3,1,2
	c0.5,1.1,0.8,2.4,0.8,4c0,1.2-0.1,2.4-0.4,3.5c-0.4,1.4-0.9,2.8-1.7,4c-0.7,1-1.4,1.9-2.3,2.7c-0.4,0.4-0.9,0.7-1.5,1.1
	c-0.2,0.1-0.4,0.2-0.5,0.4c-0.8,0.6-1.7,0.9-2.5,1.1c-1,0.3-2.1,0.6-3.3,0.6c-1.9,0.1-3.7-0.1-5.5-0.7c-2-0.7-3.8-1.7-5.3-3.2
	c-0.2-0.2-0.5-0.5-0.7-0.7l-4.1-5.5l-2.1,1.6L211,34l19.6-6.3l-6.4,23.4l-9.6,30.6v28h-7.7v2.6h10.3V82.1l7.7-24.3l7,27.2l13.7,22.7
	l-6.5,3.9l1.3,2.3l8.8-5.2L234.2,84z M210.3,28.8c0.9,0.3,1.9,0.6,3,0.8c0.7,0.1,1.4,0.2,2.1,0.3L212,31L210.3,28.8z M226.3,26.4
	c0.6-0.5,1.1-1,1.6-1.6c0.7-0.8,1.3-1.6,1.8-2.4c1-1.6,1.7-3.4,2-5.3c0-0.1,0-0.2,0.1-0.3c0.3,0.3,0.7,0.5,1,0.7l0.5,0.3l-1.9,6.9
	L226.3,26.4z"/>
<g>
	<g>
		<path class="st0" d="M517.7,115.7l-7.5-5.5l5.9-25.9l-4.5-25.9l-0.1-0.6l8.2-36.2c-3-1.5-4.3-5.1-2.9-8.1l0.5-1.1
			c1-2.3,3.3-3.8,5.9-3.8c0.9,0,1.7,0.2,2.5,0.5l1.1,0.5c1.6,0.7,2.8,1.9,3.4,3.5c0.6,1.6,0.6,3.3-0.1,4.9l-0.5,1.1
			c-1,2.3-3.3,3.8-5.8,3.8c-0.5,0-1-0.1-1.5-0.2l-1,4.4l9.1,18.3L544,57.8l-1.8,2l-14-12.8l-6.5-13.1l0.8,14.3l19.1,12.3l-1.4,2.2
			l-20.2-13l-1-13.1l-4.8,21l17.4,23.2l3.3,27.1l7.2-0.2l0.1,2.7l-9.7,0.3L529,81.8l-14-18.6l3.7,21.3l-0.1,0.3l-5.5,24.4l6.1,4.4
			L517.7,115.7z"/>
	</g>
	<g>
		<path class="st0" d="M563.4,116.6c-1.9,0-3.1,0-3.1,0H559v-1.3c0-10.8,2.9-15.2,3-15.3l0.4-0.6h0.8c0.7,0,4.5-0.1,8.8-1.8
			c-2.7-4.9-14.3-24.7-29.6-35.7l-0.4-0.3l1.6-2.2l0.4,0.3c15.9,11.4,27.8,31.8,30.5,36.7c3-1.6,5.3-3.8,7.1-6.5l0.4-0.6h0.8
			c13.9,0.4,19.5,7.7,19.7,8l0.3,0.4v0.5c-0.2,3.3-1,14.1-2.2,16.1C599.9,115.2,599,116.6,563.4,116.6z M561.7,113.9
			c0.5,0,1,0,1.7,0c21.6,0,32.9-0.6,34.9-1.3c0.6-1.6,1.3-8.3,1.7-14.1c-1.2-1.3-6.2-6.1-16.6-6.6c-6.1,8.9-16.7,9.9-19.4,10
			C563.3,103.3,561.9,107,561.7,113.9z"/>
	</g>
</g>
<path class="st0" d="M769.9,98.2c-0.3-2-0.9-3.9-1.8-5.6c-0.7-1.3-1.5-2.4-2.5-3.4c-1.2-1.3-2.6-2.3-4.1-3c-0.7-0.4-1.5-0.7-2.3-1
	c-0.9-0.3-1.9-0.5-3.1-0.6c-1.1-0.1-2.3-0.1-3.4,0.1c-1.3,0.2-2.5,0.5-3.7,1.1c-1,0.4-1.9,0.9-2.7,1.5c-1.3,0.9-2.4,2-3.3,3.3
	c-0.9,1.3-1.6,2.7-2,4.1s-0.6,2.9-0.5,4.4c0.1,1.3,0.3,2.5,0.8,3.8c0.5,1.6,1.4,3.1,2.6,4.4c1,1.1,2.1,2,3.4,2.7
	c1.2,0.7,2.4,1.1,3.5,1.2h0.1c0.6,0.1,1.3,0.2,2,0.2c1.3,0,2.7-0.2,4-0.6c1-0.3,1.9-0.8,2.8-1.4c0.8-0.5,1.5-1.1,2.2-1.9
	c0.7-0.7,1.2-1.6,1.7-2.5c0.5-1.1,0.9-2.2,1-3.4c0.1-0.9,0.1-1.8,0-2.7c-0.3-2.1-1.1-4-2.6-5.6c-0.8-0.9-1.7-1.6-2.7-2.1
	c-1.2-0.6-2.4-1-3.7-1.1c-1.4-0.1-2.7,0.1-4.2,0.6c-0.9,0.3-1.8,0.9-2.6,1.6c-0.7,0.7-1.4,1.4-1.8,2.3c-0.4,0.8-0.7,1.5-0.8,2.2
	c-0.1,0.6-0.2,1.2-0.2,1.8c0,0.8,0.2,1.7,0.5,2.5c0.4,1.1,1,2,1.7,2.8c0.8,0.8,1.8,1.4,2.9,1.7c0.9,0.3,1.6,0.4,2.4,0.3
	c1.6-0.2,3-0.7,4-1.8c1-0.9,1.5-2,1.7-3.3c0.2-1.7-0.3-3.2-1.5-4.3c-0.7-0.6-1.4-1-2.3-1.1c-1.2-0.1-2.2,0.2-3.2,1
	c-0.6,0.5-0.9,1.4-0.9,2.2c0,0.5,0.2,1.3,0.9,1.9c0.9,0.7,2.1,0.7,2.8-0.2c0.4-0.5,0.5-1.3,0.1-1.9c-0.1-0.1-0.1-0.2-0.2-0.2l0,0
	c0.3,0,0.6,0.1,0.9,0.4c0.5,0.5,0.7,1,0.7,1.7s-0.3,1.4-0.9,1.9c-0.7,0.6-1.5,1-2.4,1c-0.8,0-1.5-0.2-2.2-0.7
	c-1.2-0.8-1.9-2-2.1-3.7c0-0.5,0-1,0.1-1.6c0.2-0.8,0.6-1.5,1.1-2.2c0.5-0.6,1.2-1.1,2-1.5c1.2-0.6,2.5-0.7,4-0.5
	c0.8,0.1,1.5,0.5,2.3,0.9c1.6,1.1,2.6,2.6,3.1,4.5c0.4,1.7,0.3,3.4-0.4,5c-0.6,1.3-1.5,2.5-2.8,3.4c-1.1,0.8-2.2,1.3-3.5,1.5
	c-0.8,0.1-1.4,0.2-2,0.2h-0.2c-0.5,0-1-0.1-1.5-0.2H751c-0.2,0-0.4-0.1-0.6-0.1c-0.9-0.2-1.8-0.6-2.4-1c-1.6-1-2.8-2.4-3.7-4.1
	c-0.8-1.6-1.1-3.3-1.1-5.1c0-1.2,0.3-2.4,0.8-3.6c0.6-1.4,1.5-2.7,2.6-3.7c1.2-1.1,2.6-2,4.1-2.5c1-0.3,1.8-0.5,2.6-0.6
	c0.6,0,1.2-0.1,1.7-0.1h0.1c0.5,0,1,0.1,1.5,0.2c0.8,0.1,1.4,0.3,2,0.5c0.7,0.2,1.4,0.6,2.1,1c1.1,0.6,2.2,1.4,3.2,2.6
	c0.8,0.9,1.4,1.9,1.9,3.1c0.6,1.4,1,2.8,1.2,4.3c0.1,1.2,0.1,2.4-0.1,3.6c-0.1,0.6-0.3,1.2-0.5,1.8v0.1c-0.1,0.2-0.1,0.4-0.2,0.6
	c-0.3,1-0.8,1.8-1.2,2.5c-0.6,0.9-1.3,1.8-2.2,2.6c-1.4,1.3-3,2.3-4.8,2.9c-2.1,0.7-4.2,1-6.3,0.9c-1.1-0.1-1.8-0.1-2.9-0.1h-0.4
	c-0.1,0-0.1,0-0.2,0c-0.1,0-0.3,0-0.4,0H34.2h-0.4H8.6l2.7-1.8h8.4l5.2-3.8h9.9l4.4-3.4h9.9l3-2.6H38.3l-4.4,3.4h-9.8l-5.2,3.8h-8.4
	L0,116.5h33.7h715.9h0.1c0.3,0,0.6,0.1,1,0.1c0.5,0.1,1,0.1,1.5,0.1c0.1,0,0.2,0,0.3,0c0.8,0,1.7,0,2.5-0.1h0.1
	c2-0.2,3.9-0.8,6.2-1.9c1.1-0.6,2.1-1.3,3-2c1.2-1,2.3-2.2,3.1-3.5s1.5-2.7,2-4.2c0.4-1.2,0.6-2.4,0.7-3.6
	C770.1,100.2,770,99.2,769.9,98.2z"/>
</svg>
