<?xml version="1.0" encoding="utf-8"?>
<!-- Generator: Adobe Illustrator 21.1.0, SVG Export Plug-In . SVG Version: 6.00 Build 0)  -->
<svg version="1.1" id="Calque_1" xmlns="http://www.w3.org/2000/svg" xmlns:xlink="http://www.w3.org/1999/xlink" x="0px" y="0px"
	 viewBox="0 0 487.7 594.7" style="enable-background:new 0 0 487.7 594.7;" xml:space="preserve">
<style type="text/css">
	.st0{fill:#FFFFFF;}
	.st1{fill:#A8D3AF;}
</style>
<g>
	<rect x="355.2" y="0" class="st0" width="47.3" height="444.9"/>
	<rect x="440.4" y="0.1" class="st0" width="47.3" height="444.9"/>
	<polygon class="st1" points="201,211.6 66.9,0 -0.6,0 171.1,261.9 171.1,445 230.9,445 230.9,261.7 231,261.8 260.6,216.5 
		260.6,117.7 	"/>
	<g>
		<g id="XMLID_1_">
			<g>
				<path class="st0" d="M316.5,330.3c-0.3-3.8,0.5-7.6,0.8-11.4h0.1v85.6c-0.5-6.9-0.3-13.5-0.1-20.7c0-5.7-0.5-11.4-0.5-16.9
					c0-0.9,0-1.8,0-2.7c0-2.7-0.1-5.5-0.1-8.2c0-0.9,0-1.8-0.1-2.8c0-0.7,0-1.3,0-2C317,344,316.5,337.4,316.5,330.3z"/>
				<path class="st0" d="M316.5,285.7c0.1-0.9,0.1-1.7,0.1-2.5c0-0.8,0.1-1.6,0.1-2.4c0-2.4,0-4.6,0-6.9c0-0.7,0-1.4,0-2.1
					c0-5.8,0-11.5-0.1-17.3c0-0.9,0-1.9-0.1-2.8c-0.1-3.6-0.1-7.2-0.1-10.8c0-0.9,0-1.8,0-2.7c0-0.9,0-1.8,0-2.7
					c0-0.9,0-1.8,0.1-2.7c0.1-3.7,0.2-7.4,0.3-11.2c0-0.7,0-1.5,0.1-2.2c0.1-2.1,0.2-4.2,0.3-6.3v105.8h-0.1
					c0-5.2-0.5-10.4-0.3-16.1C317.6,297.1,316.3,291.4,316.5,285.7z"/>
				<path class="st0" d="M317.4,0v5.1c0-1.7-0.2-3.4-0.3-5.1H317.4z"/>
				<path class="st0" d="M316,120.9c0.2-5.1,0.7-10.2,0.9-15.2c0-0.7,0.1-1.4,0.1-2.2c0-0.8,0-1.7,0-2.5c-0.2-2.2-0.3-4.5-0.4-6.7
					c-0.1-0.8-0.1-1.5-0.2-2.3c-0.4-2.9-0.4-5.8,0.1-8.8c0.1-0.9,0.2-1.8,0.4-2.7c0.2-0.9,0.3-1.8,0.5-2.8v40.9c0,1.4,0,2.8,0,4.1
					v17.9c-0.3,2.7-0.6,5.6-0.2,8.3c0,0.7,0.1,1.5,0.1,2.2c0,0.2,0,0.4,0.1,0.7V199c-0.1-1.7-0.2-3.4-0.3-5.2c0-0.7,0-1.4-0.1-2
					c0-0.7-0.1-1.4-0.1-2V188v-3.6v-1.8c-0.1-2.9-0.1-6.3,0.1-9c0-0.9,0.1-1.8,0.1-2.7c0.2-4.4,0.3-8.8,0.2-13.2
					c0-0.9-0.1-1.8-0.1-2.6c-0.5-2.3-0.7-4.6-0.7-6.9c0-0.8,0-1.5,0-2.3c0-0.9,0.1-1.9,0.2-2.9c0-0.8,0-2.2,0.2-3.1
					c0-0.5,0.1-1,0.1-1.5c0-0.5,0-1,0.1-1.5c0-0.8,0.1-1.5,0.1-2.3c0-0.7,0-1.5,0-2.2c0-0.7-0.1-1.3-0.2-2
					C316.5,127.2,315.8,124.1,316,120.9z"/>
				<path class="st0" d="M316.7,444.9c-0.6-7.8-1.9-15.9,0.3-23.2c0.1-0.6,0.2-1.1,0.3-1.7v4.7c-0.9,5-0.4,10.4,0,15.6v4.6H316.7z"
					/>
				<path class="st0" d="M316,40.5c-0.8-8.3-0.3-15.8,1.1-23.3c0-0.8,0.1-1.9,0.2-2.9c0-1.7,0.1-3.3,0.1-5v11
					c-0.9,6.3-2,11.9-0.1,18.2c0,0.8,0.1,1.9,0.1,2.8c0,0.6,0,1.2,0.1,1.8v21.6c-0.6-5.1-0.4-10.3-0.6-15.8
					c-0.3-1.9-0.8-4.3-0.8-5.7C316,42.3,316,41.4,316,40.5z"/>
				<path class="st0" d="M312.6,258.3c-0.3-1.9,0.3-4.3,0.7-6.3c0-0.9,0-1.9,0-2.8c0.1-10.3,0.2-20.6,0.3-30.9c0-1,0.1-2.1,0.1-3
					c0.9-5.8,1.4-11,0.1-16.5c0-0.5,0-1-0.1-1.6c0-16.4-0.1-32.8-0.3-49.2c0-1,0-1.9,0-2.9c0-1.4,0-2.4,0.2-3.9
					c0-0.7,0.1-1.4,0.2-2.1c0.2-2.1,0.3-4.2,0.2-6.3c-0.5-5.2-1.6-9.9-1.3-15.2c0.5-4.6,0.9-8.8,1-13c0-0.7,0.1-1.4,0.1-2.1
					c0-0.7,0-1.4-0.1-2c0-0.7,0-1.4-0.1-2.1c-1-3.7-1.4-7.3-1.3-10.7c0.2-3.5,0.9-6.8,2.4-9.8c0.1-0.7,0.3-1.3,0.4-1.9
					c0.2-1.3,0.2-2.5-0.1-3.8c-0.8-2.8-1.6-6.2-1.3-9c0.5-7.6-1.3-14.7-0.8-21.8c0-0.5,0.1-0.9,0.1-1.4c0.1-0.6,0.1-1.1,0.2-1.7
					c1.8-7.8,1.3-15.4,0.8-23.6c0-0.9,0-1.8,0-2.7C313.8,8,313.7,4,313.4,0h1.3c0.5,5,0.8,9.9,0.8,14.9c0,0.7,0,1.3,0,1.8
					c-0.2,8-1,16-1.5,24.1c0,0.7,0,1.4,0,2.1c0,2.1,0.2,4.3,0.6,6.4c0.8,7.1-0.3,14.2,1.3,20.9c0.5,2.4,0.3,4.6-0.1,6.9
					c-0.2,0.9-0.4,1.8-0.6,2.6c-3.4,5.2-2.4,11.3-0.8,17.3c0,0.6,0.1,1.4,0.2,2.1c0,0.6,0.1,1.3,0.1,1.9c0,0.8,0,1.6,0,2.4
					c-0.2,6.4-1.1,12.9-1.1,19.3c0.3,3.3,1.3,6.6,1.6,9.9c0,0.6,0,1.3-0.1,1.9c0,0.6-0.1,1.3-0.1,2c-0.6,4.1-0.8,8.9-0.8,12.9
					c0.1,0.8,0.1,1.7,0.2,2.5c0.3,4.2,0.8,8.3,0.5,12.4c-0.5,10.1-0.1,20.1,0.2,30c0.1,1,0.1,2,0.2,3c0.9,2.7,1.2,5.4,1.2,8.2
					c0,4.2-0.8,8.4-1.5,12.5c0,0.8,0,1.6-0.1,2.4c-0.4,10.6-0.7,21.3-0.5,31.9c0,0.9,0,1.6-0.1,2.2c-0.7,5.6,1.4,10.8,0.2,16.4
					c0,0.5,0,1.1,0,1.6c0,2.1,0,4.1-0.1,5.9c0,0.8,0,1.5,0,2.3c0,1.5-0.1,3.1-0.1,4.6c0,0.8,0,1.6-0.1,2.4
					c1.3,20.3,0.3,41.2,0.5,61.6c0,0.8,0,1.7,0,2.5c0.1,10,0.4,20,0.8,30.2c0.3,3.8-1.3,7.1-1,10.9c0.6,9.1,0.9,17.5,0.6,26.4
					c0,0.9-0.1,1.8-0.1,2.7c-0.5,7.3-0.8,14.9-0.3,22c0,0.3,0,0.6,0,0.9h-0.8c0-0.1,0-0.3,0-0.4c-0.2-7.7,0-15.7,0.2-23.4
					c0-0.8,0-1.6,0-2.5c0.1-9-0.4-17.8-0.8-27.3c0-1.9,0.8-4.7,0.8-6.6c-0.1-11.7-0.2-23.3-0.2-35c0-0.9,0-1.8,0-2.6
					c-0.4-19.3,0.7-39.2-0.7-58.4c0-0.7-0.1-1.4-0.1-2c-0.1-1.3-0.1-2.6,0-3.9c0.1-3.3,0.1-6.6,0.2-9.8c0-0.4,0.1-0.8,0.2-1.3
					c0-0.1,0-0.3,0.1-0.5C313.9,267.3,313.4,262.5,312.6,258.3z"/>
				<path class="st0" d="M312.1,74c0.1,0.7,0,1.6-0.1,2.3c-0.7,3.8-1,7.6-1.2,11.4c-0.1,3.9,0,7.8,0,11.8c0,0.8,0,1.5,0,2.2
					c0,1.5-0.1,3-0.1,4.4c0,0.9,0,1.8,0,2.7c-0.1,3.6-0.2,7.1-0.3,10.7c-0.5,19.4,1.6,39.8,0.8,59.7c-0.5,12.8,1,25.6,0,38.4
					c0,2.4-0.8,4.3-0.8,6.6c0,8.4,0,16.7,0,25c0,0.9-0.2,1.8-0.6,2.7c-0.2,1.1-0.7,2.1-0.7,3c0,6.3,3.2,11,2.2,16.7
					c-0.1,0.8-0.4,1.6-0.7,2.4c-0.2,1-0.2,1.9-0.2,2.8c0,4.6,0.1,9.1,0.2,13.7c0,7.6,0.5,15.2,0.5,22.7c-0.5,23.7,0.5,46.9,0,70.6
					c0,1.9-0.5,4.3-0.8,6.1c-0.8,9,2.1,17,1.3,25.6c-0.1,1.7-0.2,3.3-0.3,4.9c0,0.8-0.1,1.6-0.1,2.5c0.4,7.3,0.2,14.4-0.3,21.5
					c0,0.1,0,0.3,0,0.5H310c0-0.5,0-1.1,0-1.6c0.5-6,1.3-12.6,0.4-18.6c0-0.9,0-1.9,0-2.7c0.1-3.6,0.1-7.1,0.1-10.7
					c0-9-1.1-18.5-0.8-28c1-24.6,0-48.8,0.3-73.4c0-1.4,0.1-2.8,0-4.2c0-1.1,0-2.2-0.1-3.8c0-0.4,0-0.9-0.1-1.4
					c-0.1-1.2-0.1-1.8-0.1-3.2c-0.2-4.1-0.4-8.3-0.3-12.6c0.1-2.8,0.2-5.6,0.2-8.3c0-0.9,0.1-1.9,0.3-2.8c2.3-5,0-10.2-1.6-14.4
					c-0.8-2.4,0.3-5.2,0.6-7.8c0.3-1,0.3-1.9,0.3-2.9c-0.1-8.4-0.2-16.9,0.1-25.4c0.3-2.4,0.8-4.7,0.8-7.1c0.3-18.9,0-37.9,0-56.9
					c0-1.4-0.3-3.8-0.3-5.2c-0.3-12.8-0.5-25.6-0.8-38.4c0-2.8,0.7-5.8,1-9c0-0.6,0.1-1.3,0.1-1.9c0-0.8,0-1.5,0-2.3
					c0-0.8,0-1.5,0-2.3c0.1-3.8,0.2-7.6,0.3-11.4c0.1-4.3,0.3-8.7,0.8-13c-0.1-0.8-0.2-1.9-0.2-2.9c-0.9-12-0.9-23.7-0.8-35.4
					c0.1-1,0.1-2,0.3-3c2-5.1,0.7-10.3-0.1-15.8c0-0.9,0-1.8,0-2.7c0-4.5-0.1-9-0.2-13.6c0-0.8-0.1-1.6-0.1-2.4h0.9
					c0.4,5.4,0.6,10.8,0.6,16.1c0,0.6,0.1,1.1,0.1,1.6c1.7,7.4,1.7,13.1-0.6,20.4c0,0.9-0.1,1.8-0.1,2.8
					C310.8,51.8,310.7,62.8,312.1,74z"/>
				<path class="st0" d="M308.4,298.9c0.2,0.4,0.3,0.8,0.4,1.2c0,0,0,0,0,0c0,0,0,0,0,0c0,0.4,0.1,0.8,0,1.2
					C308.9,300.5,308.7,299.7,308.4,298.9z"/>
				<path class="st0" d="M308.4,298.9C308.4,298.9,308.4,298.9,308.4,298.9C308.4,298.9,308.4,298.9,308.4,298.9z"/>
				<path class="st0" d="M308.4,303c0,0,0,0.1,0,0.1C308.4,303,308.4,303,308.4,303z"/>
				<path class="st0" d="M308.3,303.1c0,0.1,0,0.3,0,0.5C308.3,303.4,308.3,303.2,308.3,303.1z"/>
				<path class="st0" d="M308.1,305.4c-0.1,0.5-0.2,0.9-0.3,1.4c0.2-0.9,0.4-1.9,0.5-2.8C308.2,304.5,308.2,305,308.1,305.4z"/>
				<path class="st0" d="M307.7,286.2c0,1.5-0.1,2.9-0.6,4.2C307.5,289.1,307.6,287.7,307.7,286.2z"/>
				<path class="st0" d="M307,284c0,0,0,0.1,0,0.1C307,284.1,307,284.1,307,284z"/>
				<path class="st0" d="M306.8,296.9c0.4,0.2,0.7,0.5,0.9,0.8c0.2,0.2,0.3,0.4,0.4,0.6c0,0.1,0.1,0.1,0.1,0.2
					c0.3,0.5,0.5,1.1,0.6,1.7c-0.1-0.4-0.3-0.9-0.4-1.2c0,0,0,0,0,0c0,0,0,0,0-0.1C308,298.1,307.5,297.4,306.8,296.9z"/>
				<path class="st0" d="M307.7,286.2c-0.1-3.3-1-7-1.2-10.7C307.2,279,307.8,282.7,307.7,286.2z"/>
				<path class="st0" d="M307.2,300.5c-0.4-1.6-1.4-2.9-3.8-3.2c2.7-0.9,4.5,0.4,5,3.2c0,0.7,0,1.5,0,2.2c0-1.8-0.4-3.5-1.8-4.9
					C307,298.6,307.1,299.5,307.2,300.5z"/>
				<path class="st0" d="M306.7,303.6c0.1-1.1,0-2.3-0.4-3.4c0.5,0.5,0.8,1.1,0.8,2C307,302.7,306.8,303.1,306.7,303.6z"/>
				<path class="st0" d="M307.1,284.4c0.7,3.3,0.6,6.1-1.4,7.7C307.3,289.9,307.5,287.3,307.1,284.4z"/>
				<path class="st0" d="M306.3,409.4c-1-5.7-1-11.4-1.3-17.5c-0.1-1.3-0.1-2.6-0.1-3.9c0.2-3.9,1.1-7.8,1.1-11.7
					c0-11.4-0.6-22.2-0.6-33.3c0-0.9,0-1.9,0-2.8c0.1-7.7-0.3-15.4,0.5-23c0-0.6,0-1.3,0-1.9c1.1-1.8,1.8-3.6,2.2-5.4
					c0.1-0.6,0.3-1.3,0.4-1.9c0-0.5,0-1,0-1.5c0,0,0-0.1,0-0.1c0-0.1,0-0.2,0-0.3c0.1-1.6,0.4-3.3,0.3-4.9c0-0.4,0-0.8-0.1-1.2
					c0,0,0-0.1,0-0.1c-0.1-0.6-0.2-1.2-0.4-1.7c0.6,1.1,0.9,2.5,1,3.9c0.1,1.8-0.2,3.8-0.6,5.6c-0.1,0.6-0.2,1.2-0.4,1.8
					c-0.1,0.6-0.3,1.2-0.5,1.7c-0.5,1.5-0.8,2.5-1,3.3c-0.2,0.8-0.3,1.4-0.5,2c-0.9,8,0.5,15.6-0.4,23.6c0,0.9-0.1,1.8-0.1,2.6
					c-0.3,11.5,1,22.1,0.5,33.6c-0.8,10.9-1.6,22.3,0.8,33.2c0.3,1.4,0.3,3.8,0,5.2c-2,9.9-1.4,20.1-1.1,30.3h-0.6
					c-0.2-5-0.5-10-0.1-15c0-0.9,0-1.8,0-2.6c0-0.9,0-1.8,0-2.6C305.3,419.4,307.4,414.6,306.3,409.4z"/>
				<path class="st0" d="M305.6,301c0,0,0-0.1,0.1-0.1c0,0.1,0,0.3,0.1,0.4C305.7,301.2,305.7,301.1,305.6,301z"/>
				<path class="st0" d="M306.1,314.3c-0.1,0.3-0.3,0.5-0.5,0.8c0-0.1,0-0.1,0-0.2c0.4-0.8,0.8-1.5,1.1-2.4c0.3-0.6,0.5-1.3,0.8-2
					c0.2-0.7,0.4-1.4,0.6-2.1c0.2-0.6,0.4-1.3,0.5-2c-0.1,0.7-0.2,1.3-0.2,1.9c-0.1,0.7-0.3,1.4-0.6,2
					C307.4,311.7,306.8,313,306.1,314.3z"/>
				<path class="st0" d="M305.2,308.7c1.2-2.7,2.2-5.5,1.9-8.3C307.7,303,306.5,306.4,305.2,308.7z"/>
				<path class="st0" d="M305.2,77.4c0.4-8.2,0.4-16.7,0.1-24.8c0-0.9,0-1.8,0-2.7c-0.1-6.3-0.2-12.6,0.1-18.8v-8.8
					c0-0.7,0-1.4,0-2.1c0.1-6.8,0.5-13.5,0.4-20.2h0.9c0.1,7.4-0.8,14.7-0.6,22.2c0,0.7,0,1.4,0,2.1v6.7c-0.3,6.8-0.1,13.7,0,20.6
					c0,0.9,0,1.7,0,2.6c0.5,7.8,0.2,15.9,0,23.6c0,0.9,0,1.8,0.2,2.8c1,2.5,1.4,5.3,1.3,8c-0.1,2.2-0.5,4.4-1.2,6.5
					c-0.1,0.9-0.1,1.8-0.1,2.6c0,1.6,0,3.3,0.1,4.9c0,0.8,0,1.7-0.1,2.5c-0.1,3.3-0.3,6.6-0.6,10c-0.5,4.3,0.5,9,0.4,13.2
					c0,0.9,0,1.8-0.1,2.7c0,0.9-0.1,1.8-0.1,2.7v1.8c-0.2,8.5,0.6,17.1,0.6,25.6c0.3,17.5-0.5,34.6,0,52.1c0,2.4-0.5,5.2-1,8.1
					c-0.1,1.7-0.2,3.4-0.3,5h0c0.1-3.9,0.2-7.8,0.3-11.7c0.8-18,0.8-36.5,0.5-55c-0.3-7.6-1.3-15.2-0.7-23.4v-2.6c0-0.6,0-1.2,0-1.8
					c0-0.9,0-1.8,0-2.6c0-3.2-0.6-7-0.3-10.3c0.3-4.8,0.4-9.7,0.4-14.5c0-0.8,0-1.6,0-2.4c0-2.2,0-4.3-0.1-6.4c0-0.7,0-1.5,0-2.2
					c0.2-3.8,0.5-7.1,0-10.7c-0.1-0.8-0.1-1.7-0.1-2.5C305.2,79.2,305.2,78.3,305.2,77.4z"/>
				<path class="st0" d="M307,284c-0.5-2.3-1.3-4.8-1.9-7.2C305.8,279.3,306.6,281.7,307,284z"/>
				<path class="st0" d="M306.3,267.8c-0.8-5.2-1.3-9.9-0.7-15.3c0-0.9,0-1.8,0-2.7c0-0.5,0-1,0-1.5c0-0.5,0-1-0.1-1.5
					c-0.5-6.7-0.5-13.6-0.4-20.3h0c-0.1,6.7,0.6,13.2,0.8,19.8c0,0.9,0,1.9,0,2.8c0,0.9,0,1.9-0.1,2.8c-1.5,6,0.9,11.2,1.2,17.4
					c0,0.7-0.1,1.4-0.3,2.1c-0.3,1.3-0.3,2.7-0.3,4.1c-0.2-1.2-0.5-2.4-0.6-3.6c0-0.8,0.1-1.5,0.3-2.3
					C306.3,269.1,306.3,268.5,306.3,267.8z"/>
				<path class="st0" d="M305,314.6c0.4-0.6,0.7-1.2,1.1-1.9c0.4-0.7,0.7-1.4,1-2.2c0.3-0.8,0.5-1.5,0.8-2.3
					c0.1-0.9,0.3-1.8,0.5-2.8c0.3-1.4,0.6-2.8,0.6-4.1c0-0.4,0-0.8,0-1.2c0.1,0.3,0.1,0.5,0.1,0.8c0,1.6-0.2,3.3-0.3,4.9
					c-0.2,0.9-0.4,1.7-0.7,2.5c-0.2,0.8-0.5,1.5-0.8,2.2c-0.3,0.7-0.7,1.5-1.1,2.1C305.8,313.4,305.4,314,305,314.6z"/>
				<path class="st0" d="M305.7,292.1c-0.2,0.2-0.3,0.4-0.5,0.6c-0.1,0.1-0.2,0.1-0.2,0.2c0.2-0.2,0.3-0.4,0.5-0.6
					C305.5,292.2,305.6,292.2,305.7,292.1z"/>
				<path class="st0" d="M305,276.6C305,276.6,305,276.6,305,276.6C305,276.6,305,276.6,305,276.6z"/>
				<path class="st0" d="M306.7,303.6c-0.2,2.1-1,4.2-2.6,6c0,0,0,0,0,0C304.7,307.5,306,305.6,306.7,303.6z"/>
				<path class="st0" d="M303.3,185.3c-0.5-7.1-0.5-13.7,0-20.4c0.5-12.3-0.8-24.2-0.2-36.5c0-0.8,0-1.7,0-2.5s0-1.7,0-2.5
					c0-0.8,0-1.7,0-2.5c0.7-9,0.7-18.5,0-27.3c0-0.8,0-1.6,0-2.3c0.7-13.5-0.1-27.2,0-40.3c0-0.9,0-1.7,0-2.6c0-0.7,0-1.4,0-2.1
					c-0.4-9.7-0.2-19.2,0.6-28.2c0.8-6.1,0-12-0.6-18h0.8c0.5,5.7,1,11.3,0.6,16.6c-0.5,10.4-1.3,20.9-1,31.7c0,0.9,0,1.7-0.1,2.6
					c0,13.1,0.8,26.8,0.1,40.3c0,0.8,0,1.5,0,2.3c0,0.6,0,1.2,0,1.8c0.9,8.5,0.4,17-0.1,25.6c0,0.8,0,1.7,0,2.5c0,0.8,0,1.7,0,2.5
					c0,0.8,0,1.7,0,2.5c0.1,11.9,0.6,23.8,0.3,35.1c0,7.1-0.8,14.2-0.2,21.8c0,0.8,0,1.7-0.1,2.5c0,0.8,0,1.6,0,2.5
					c0,0.8,0,1.7,0,2.5c0.1,7.3,0.1,13.9,0.2,21.1c0,0.9,0,1.8,0,2.7c0,10.9,0,21.9,0,32.8c0,1,0,1.9,0,2.9c0.2,4.4,0.1,8.9,0,13.4
					c0,0.9,0,1.8,0,2.7c0,0.8,0,1.6,0.1,2.4c0.1,1.8,0.6,3.7,1.1,5.8c-0.6-2-1.2-3.9-1.5-5.8c-0.1-0.8-0.2-1.5-0.2-2.3
					c0-0.9,0-1.8,0-2.7c0-4.5,0-8.9,0-13.4c0-1,0-1.9,0-2.9c0-10.9,0-21.9,0-32.8c0-0.9,0-1.8,0-2.7c-0.1-7.3-0.1-13.9,0-21.1
					c0-0.8,0-1.7,0-2.5c0-0.8,0-1.7,0.1-2.5C303.3,187,303.3,186.1,303.3,185.3z"/>
				<path class="st0" d="M307,296.3c-0.5-0.3-1-0.5-1.6-0.7c-0.7-0.2-1.4-0.3-2.1-0.4c1.1,0,2.3,0.2,3.2,0.6c1,0.5,1.6,1.3,1.9,2.2
					C308.2,297.4,307.7,296.8,307,296.3C307.1,296.3,307,296.3,307,296.3z"/>
				<path class="st0" d="M305.6,315c-2.6,8.5-1.3,17.5-1.7,26.5c0,0.9,0,1.7,0,2.6c0,4.4-0.1,8.8-0.1,13.2c0,0.9,0,1.8,0,2.6
					c-0.4,9.3-0.6,17.3,0.7,26.3c0,0.6,0,1.2,0,1.7c-0.1,2.3-0.8,4.5-0.6,6.8c0,0.7,0,1.5,0,2.2c0,1.5,0,2.9,0,4.4v2.9
					c0.1,3.4,0.3,7.1,0.3,10.5c0,0.8,0,1.7,0,2.5c0,0.8,0,1.6,0,2.5c-0.3,8.2-1.1,16.9-0.9,25.3h-0.8c-0.2-9,0.8-18.1,1.1-26.9
					c0-0.9,0-1.9,0-2.8c0-3.7-0.1-7.4-0.4-11.1c0-1,0-1.9,0-2.9v-4.4c0-0.7,0-1.5,0-2.2c0.5-2.4,0.5-4.3,0.2-6.6c0-0.8,0-1.6,0-2.4
					c0-0.8,0-1.6,0-2.3c-0.1-1.1-0.1-2.2-0.2-3.2c0-0.5-0.1-1-0.1-1.5c-0.4-2.4-0.2-4.3-0.1-6.9c0-0.6,0-1.3,0-1.9
					c0-3.3,0-6.5,0.3-9.9c0-0.9,0-1.8,0.1-2.6c0.1-4.4,0.2-8.8,0.2-13.1c0-0.9,0-1.8,0-2.6c0.5-8.6-0.4-16.8,1.6-25.5
					C305.2,315.7,305.4,315.4,305.6,315z"/>
				<path class="st0" d="M304.8,299.9c0.4,0.3,0.6,0.7,0.9,1c-0.8,1.6-1.6,4-2.9,5.5C304.1,304.8,304.5,301.9,304.8,299.9z"/>
				<path class="st0" d="M306.1,292.7c-0.7,1.2-2.2,1.9-3.9,2.4c1.1-0.6,2.2-1.2,3-2c0.7-0.6,1.2-1.3,1.5-2
					C306.6,291.7,306.4,292.2,306.1,292.7z"/>
				<path class="st0" d="M302.1,294c0.3-0.1,0.5-0.3,0.8-0.4c-0.2,0.1-0.4,0.2-0.6,0.3C302.2,294,302.2,294,302.1,294z"/>
				<path class="st0" d="M301.4,293.7c1-0.7,1.8-1.4,2.4-2.3c0.7-1.1,1-2.2,1-3.3c0.6,2.4,0.4,4.4-1.9,5.1
					C302.5,293.3,301.9,293.5,301.4,293.7z"/>
				<path class="st0" d="M306.3,311.5c-0.3,0.6-0.7,1.3-1.1,1.8c-1.1,1.4-2.4,2.8-3.5,4.1c0.4-0.6,0.9-1.3,1.4-1.9
					c0.2-0.2,0.4-0.5,0.6-0.8c0,0,0,0,0,0c0.6-0.7,1.2-1.4,1.7-2.1c0.5-0.7,0.8-1.4,1.2-2.2c0.3-0.7,0.6-1.4,0.8-2.1
					c0.2-0.4,0.3-0.9,0.4-1.3c-0.2,0.9-0.4,1.7-0.6,2.4C306.9,310.1,306.6,310.8,306.3,311.5z"/>
				<path class="st0" d="M306.6,296.8c-1.5-1.1-4-0.6-6.4,0.3C302.4,295.8,305,295.6,306.6,296.8z"/>
				<path class="st0" d="M301.3,314.1c0.9-0.5,1.5-1.5,2.1-2.4c0.5-0.7,1-1.4,1.4-2.1c0.1-0.2,0.3-0.5,0.4-0.7
					c-0.3,0.6-0.6,1.3-0.9,1.9c-0.5,0.9-1,1.8-1.7,2.5C302.3,313.7,301.8,313.9,301.3,314.1z"/>
				<path class="st0" d="M301.2,279.6c1.8,2.9,3.6,5.7,3.6,8.4C304.2,285.5,302.5,282.3,301.2,279.6z"/>
				<path class="st0" d="M303.9,309.9c-0.2,0.9-0.8,1.6-1.5,2c-0.4,0.3-0.9,0.5-1.4,0.6c0.3-0.2,0.7-0.4,1-0.7
					c0.7-0.6,1.4-1.3,2-2.1C304,309.7,303.9,309.8,303.9,309.9z"/>
				<path class="st0" d="M304.8,292.3c4.5-5-1.8-13.5-3.5-20.7c-0.2-0.9-0.4-1.7-0.5-2.5c-0.1-0.9-0.2-1.7-0.3-2.6
					c0-0.7,0-1.5,0-2.2c0-3.7,0-7.4,0.1-11.2c0-0.7,0-1.3,0-2c0-0.7,0-1.3,0-2c0-1.6,0-2.6-0.1-4c0-0.7,0-1.3-0.1-2
					c0-0.7-0.1-1.3-0.1-2v-1.5c0.2-11.6,0.7-22.9-0.2-34.2c0-0.7-0.1-1.4-0.1-2.1c-0.2-4.1-0.3-8.3,0-12.4c0-0.9,0-1.7,0.1-2.6
					c0-0.8,0-1.7,0.1-2.6c-0.1-1.3-0.1-2.6-0.1-4c0-5.6,0.4-11,0.6-16.8c0.3-8.5-1-17.5-0.8-26.5c0.1-3.7,0.1-7.4,0.2-11
					c0.1-6.2,0.2-12.4,0.3-18.7c0-0.9,0-1.8,0-2.7c0.1-1.7,0.1-3.6,0.1-5.4c0-0.9,0-1.8,0.1-2.7c0.1-4.5,0.1-9,0.2-13.5
					c0-0.6,0.1-1.3,0.1-1.9c0.1-1.9,0.1-3.8,0-5.7c0-2.9-0.3-5.6-0.6-8.3c0-0.7-0.2-1.5-0.2-2.2c-0.6-1.5-0.8-3.1-0.8-4.8
					c0.1-2.9,0.9-5.9,1.1-9c0-0.9,0-1.8,0-2.7c0-11.8,0.7-23.7,0.5-35.6c-0.2-4.6,0-9.4-0.2-14.3h0.9c0.6,6.1,1.2,12.1,0.6,18
					c-0.8,9.5-0.5,18.9-0.4,28.3c0,0.8,0,1.5-0.1,2.3c-0.1,1.6-0.1,3.1-0.2,4.7c0,0.9-0.1,1.8-0.1,2.7c0,1.9,0,3.3,0,5.2
					c0,0.9,0,1.7,0.1,2.6c0.2,7.8,0.6,15.5,0.5,23.4c0,0.9-0.1,1.8-0.1,2.6c-0.1,4.9,0.2,10.1,0.2,14.8c0,19.4-0.5,39.3,0,58.8
					c0,7.1-1,14.2-0.3,22c0,0.9,0,1.7-0.1,2.6c0,0.9,0,1.7-0.1,2.6c-0.4,4.5-0.3,9.2-0.1,13.9c0,0.8,0,1.6,0.1,2.3
					c0.1,9.3,0.1,18.3,0.1,27.9c0,0.8,0,1.5,0,2.3c0,2.3,0,4.6,0,6.9c0,1,0,1.9,0,2.9c0,1.8,0.1,3.6,0.1,5.4c0,0.6,0,1.2,0,1.8
					c0,3.3-0.1,6.6-0.1,9.9c0,0.8,0,1.6,0,2.5c0,0.9,0,1.7,0.1,2.6c0.1,0.9,0.3,1.7,0.5,2.6c1.7,6.3,7,15.1,3.4,20.6
					c-0.1,0.2-0.3,0.4-0.5,0.6c-0.1,0.1-0.1,0.2-0.2,0.3c-0.1,0.1-0.3,0.2-0.5,0.3c-0.6,0.3-1.2,0.4-2,0.5c0.2-0.1,0.4-0.2,0.6-0.3
					c0,0,0,0,0.1,0C303.6,293.2,304.3,292.8,304.8,292.3z"/>
				<path class="st0" d="M300.8,303.1C300.8,303.1,300.7,303.1,300.8,303.1c-0.1,0-0.1-0.1-0.1-0.1C300.7,303,300.8,303,300.8,303.1
					z"/>
				<path class="st0" d="M301.3,314.1c-0.3,0.1-0.5,0.2-0.8,0.2C300.8,314.4,301.1,314.3,301.3,314.1z"/>
				<path class="st0" d="M306.2,300.2c-1.1-1-3-1.1-4.6,0.2c-0.8,0.8-1.3,1.7-0.9,2.5c-0.7-0.9-0.9-2,0-3c1.8-1.4,4.5-1.8,5.4,0
					C306.2,300,306.2,300.1,306.2,300.2z"/>
				<path class="st0" d="M300.3,314.4c0.1,0,0.1,0,0.2,0C300.5,314.4,300.4,314.4,300.3,314.4z"/>
				<path class="st0" d="M300.2,314.4c0.1,0,0.1,0,0.1,0C300.3,314.4,300.3,314.4,300.2,314.4C300.2,314.4,300.2,314.4,300.2,314.4z
					"/>
				<path class="st0" d="M299.8,314.4c-0.1,0-0.2-0.1-0.3-0.1c0.2,0,0.4,0.1,0.6,0.1C300,314.4,299.9,314.4,299.8,314.4z"/>
				<path class="st0" d="M300.5,385.8c-1.7-3.9-2.4-7.4-2.4-11.1c0-3.1,0.6-6.3,1.6-9.8c0-0.7,0.1-1.5,0.1-2.2
					c0.1-2.7,0.3-5.4,0.5-8c0-0.9,0-1.8,0.1-2.6c0-1.8,0.1-3.5,0.1-5.3c0-0.9,0-1.8,0.1-2.7c1.5-9.4-1.2-20.7,4.2-29
					c0.1-0.1,0.2-0.3,0.3-0.4c0,0.1-0.1,0.1-0.1,0.2c-4.2,9.1-2.4,19.5-3.3,28.8c0,0.8,0,1.6,0,2.5c-0.1,3.3-0.1,6.6-0.2,10
					c0,0.9,0,1.9-0.1,2.8c-0.2,1.5-0.3,3-0.4,4.4c0,0.7,0,1.5-0.1,2.2c-1.4,7.5-3.5,13.2,0.4,19.2c0.2,0.7,0.5,1.5,0.7,2.2
					c0,0.6,0,1.1,0,1.6c-0.1,2.1-0.4,4.1-0.5,6.5c0,0.7,0,1.5,0,2.2c0,1.5,0,2.9,0,4.4c0,1,0,1.9,0,2.9c0.2,1.8,0.3,3.6,0.4,5.5
					c0,0.9,0.1,1.8,0.1,2.7c0,10.7-0.9,21.6-0.9,32.3h-1.1c0-11.9,0.7-23.6,0.9-35.6c0-0.9,0-1.8-0.1-2.6c-0.1-1.8-0.1-3.5-0.3-5.2
					v-2.9c0-0.7,0-1.3,0-1.9c0-0.7,0-1.3,0-2c0-0.6,0.1-1.3,0.1-1.9s0.1-1.2,0.2-1.9c0.2-0.8,0.3-1.7,0.3-2.5
					C300.9,387.6,300.7,386.7,300.5,385.8z"/>
				<path class="st0" d="M298.3,316.8c0.2,0,0.3,0.1,0.5,0.1c0.2,0.2,0.4,0.5,0.6,0.7C298.9,317.4,298.6,317.1,298.3,316.8z"/>
				<path class="st0" d="M301.2,306.7c-1.2,0-2.1-0.5-2.9-1.2c1.5,1,3.9,1.2,4.6-1c-0.8-0.2-1.6-0.7-2.2-1.4
					c0.9-0.4,1.8-0.9,2.2-0.4C304.8,304,303,306.3,301.2,306.7z"/>
				<path class="st0" d="M298.4,310.7C298.4,310.7,298.4,310.7,298.4,310.7C298.4,310.8,298.5,310.8,298.4,310.7
					C298.4,310.8,298.4,310.7,298.4,310.7C298.4,310.7,298.4,310.7,298.4,310.7z"/>
				<path class="st0" d="M298.4,310.7L298.4,310.7C298.4,310.7,298.4,310.7,298.4,310.7z"/>
				<path class="st0" d="M298.8,307.4c-0.2-0.2-0.4-0.4-0.6-0.7c0.2,0.2,0.4,0.4,0.7,0.5c1.4,0.6,2.5,0.3,3.4-0.4
					C301.4,307.6,300.3,307.9,298.8,307.4z"/>
				<path class="st0" d="M298.7,316.9c-0.6-0.6-1.1-1.2-1.6-1.8c0.5,0.5,1.1,0.9,1.8,1.2c2.3,1.4,3.6-1.8,5.4-3.2
					c-0.2,0.6-0.5,1.1-0.7,1.6c0,0,0,0,0,0c-0.2,0.3-0.4,0.6-0.6,0.8C301.8,316.8,300.3,317.2,298.7,316.9z"/>
				<path class="st0" d="M297.6,299.5c-0.6,1-0.9,1.9-1,2.7c0-1.7,0.8-3.8,2.3-4.5c0.4-0.2,0.9-0.4,1.3-0.6
					C299.2,297.7,298.3,298.5,297.6,299.5z"/>
				<path class="st0" d="M296.6,302.2c0,0.3,0,0.6,0.1,0.9c0.4,0.9,1,1.7,1.7,2.4c-0.3-0.2-0.6-0.4-0.8-0.6
					C296.8,304.2,296.5,303.3,296.6,302.2z"/>
				<path class="st0" d="M296.3,305.7c0.7,1.9,1.8,3.8,3.6,4.2c0.6,0.2,1.3,0.2,2.1-0.1c-0.3,0.3-0.7,0.9-1.2,1.2
					c-0.2,0.1-0.4,0.2-0.6,0.2c-0.1,0-0.1,0-0.2,0c-0.6,0-1.2-0.2-1.7-0.5c0,0,0,0,0,0c-0.9-1.3-1.3-2.6-1.7-3.8
					C296.6,306.5,296.5,306.1,296.3,305.7z"/>
				<path class="st0" d="M305.5,295.7c0.6,0.2,1.1,0.4,1.6,0.7c0,0,0,0,0,0c1,0.9,1.6,2.1,1.9,3.4c0,0,0,0.1,0,0.1
					c0,0.4,0.1,0.8,0.1,1.2c0-0.3-0.1-0.6-0.1-0.8c0,0,0,0,0,0c0,0,0,0,0,0c-0.1-0.6-0.3-1.2-0.6-1.7c0-0.1-0.1-0.1-0.1-0.2
					c-0.1-0.2-0.3-0.4-0.4-0.6c-0.4-0.6-0.9-1-1.6-1.4c-4.1-1.8-11.3,1.4-9.6,7.5c0.2,0.7,0.4,1.4,0.6,2.1c0.4,0.3,0.7,0.6,1,0.9
					c-0.3-0.2-0.6-0.4-0.9-0.7c-0.5-0.5-0.8-1.1-1.1-1.6C294.2,298.5,301.1,294.6,305.5,295.7z"/>
				<path class="st0" d="M296.2,305.4C296.2,305.4,296.2,305.3,296.2,305.4c0,0,0.1,0.2,0.1,0.3
					C296.3,305.6,296.2,305.5,296.2,305.4z"/>
				<path class="st0" d="M298.4,310.7c-1-0.5-1.8-1.5-2.3-2.5C296.8,309.1,297.8,309.8,298.4,310.7z"/>
				<path class="st0" d="M297,410.4c-0.8-5.7-2.1-10.9-0.8-16.6c0-0.9,0-1.8,0-2.8c0-11.9,0.1-23.8,0.5-35.6c0.2-4,0.1-7.6-0.2-11.5
					c0-0.8-0.1-1.6-0.2-2.4c-0.6-6.3,2.6-11.7,2.1-18c0-2.1,1.4-4.1,3.1-6.1c-1.1,1.6-2,3.1-2.2,4.3c-0.5,6.8-2.7,14-2.3,21.1
					c0,0.9,0.1,1.8,0.1,2.6c0.4,9.8,0.2,19.6,0,29.4c-0.1,5.7-0.3,11.3-0.4,17c0,0.9,0,1.8-0.2,2.8c-1.2,5.5,0.1,10.7,1.1,16.4
					c0.3,2.4-0.3,4.7-0.6,7.2c0,0.7,0,1.3,0.1,2c0.2,4.1,0.5,8.2,0.3,12.1c-0.1,4.2-0.3,8.5-0.4,12.8h-0.8v-1.5
					c0.4-3.6,0.4-7.4,0.4-11.2c-0.1-3.6-0.1-7.3-0.2-11c0-0.9,0-1.8,0-2.7C297,415.6,297.2,413.2,297,410.4z"/>
				<path class="st0" d="M300.6,294.2c-1.6,1-3.3,2-4.8,3.1c1.1-1.2,2.5-2.2,4.1-3c0.5-0.2,1-0.5,1.5-0.6
					C301.2,293.9,300.9,294,300.6,294.2z"/>
				<path class="st0" d="M299.8,313.1c-2.4,0.7-3.5-1.3-4.3-3.3c1.1,1.6,2.7,2.8,4.8,2.8c0.2,0,0.5-0.1,0.7-0.1
					C300.6,312.7,300.2,312.9,299.8,313.1z"/>
				<path class="st0" d="M295.3,0h0.8c0,0.7,0,1.5,0,2.2c0,0.7,0,1.4-0.1,2.2c0,1.4,0,2.3-0.3,3.7c0,4.3,2.9,7.1,2.6,11.4
					c0,11.4-1.3,22.7-0.6,34c0,0.7-0.1,1.3-0.1,2c-0.1,2-0.2,4-0.3,6c-0.5,12.1-0.7,23.9-0.1,35.8c0,0.6,0,1.3,0,1.9s0,1.3,0,1.9
					c-0.9,8.4,0.2,16,1.5,24c0.1,0.7,0.2,1.5,0.2,2.2c0,3.1-1.1,6.1-1.4,9.3c-0.1,0.8-0.1,1.6-0.1,2.5c0,5.1-0.1,10.2-0.1,15.3
					c0,0.8,0,1.7,0,2.5c-0.1,2.1-0.1,4.3-0.1,6.4c0,0.7,0,1.4,0,2.1c-0.2,5.4,0.9,10.9,0.9,16.3c0,0.4,0,0.7,0,1.1
					c0,0.8-0.1,1.5-0.3,2.2c-1.2,5,0.1,10.7-0.6,16.5c0,0.8-0.1,1.6-0.1,2.4c0,1.2,0,2.3,0,3.5c0,0.6,0,1.2,0,1.8
					c-1.2,13.5,0.7,27.3,0.3,41c0,0.8,0,1.7,0,2.5c0,0.8,0,1.6,0,2.5c0,0.9,0,1.8,0,2.7c0.3,1.9,0.6,3.9,0.8,5.9
					c0.1,0.7,0.1,1.3,0.1,2c0,0.9,0.1,1.7,0.2,2.6c0.1,0.9,0.2,1.7,0.3,2.6c0.1,2.1,1,4.3,1.5,6.6c0.3,0.7,0.6,1.5,1,2.3
					c-1.3-2.1-2.7-4.3-3.4-6.6c-0.2-0.8-0.4-1.6-0.5-2.4c-0.1-0.8-0.2-1.6-0.2-2.4c0-0.6,0-1.2-0.1-1.8c0-1.8-0.1-3.5-0.4-5.1
					c-0.1-0.9-0.1-1.8-0.2-2.8c-0.1-3.7-0.2-7.5-0.3-11.2c0-0.8-0.1-1.5-0.1-2.3c0-1.4,0-2.8-0.1-4.5c0-0.7,0-1.5-0.1-2.2
					c-0.1-3.7-0.2-7.5-0.2-11.2c0-0.8,0-1.5,0-2.3c-0.1-4.9-0.1-9.7,0.2-14.5c0-0.6,0-1.1,0-1.7c0-1.1,0-2.3,0-3.4
					c0-0.9,0-1.7,0-2.7c0.6-6.8-1-14.3,0.8-20.6c0-0.8,0.1-1.6,0-2.4c-0.1-4.8-1-9.5-1.1-14.3c0-0.8,0.1-1.6,0.1-2.5
					c0-0.8,0-1.7,0-2.5c0.1-6.7,0.5-13.5,0.6-20.3c0-0.8,0-1.7,0-2.5c0.2-3.7,1.3-7,1.3-10.3c-0.3-9-2.3-17-1.3-26.5
					c0-0.9-0.1-1.8-0.1-2.7c-0.3-9.9-0.4-19.8,0-29.8c0-0.6,0-1.1,0-1.7c0-0.5,0-1.1,0-1.7c0.2-2.1,0.4-4.2,0.5-6.3
					c0-0.7,0.1-1.4,0.1-2.2c0.1-11.6,1.1-23.9,0.6-35.8c-0.5-5.7-2.9-11.4-2-18C295.4,1.6,295.4,0.8,295.3,0z"/>
				<path class="st0" d="M298.3,316.8c-1.7-0.4-3.5-1.6-4.8-3.3h0c0-0.6,0-1.2,0-1.8C295.8,312.5,296.5,315.1,298.3,316.8z"/>
				<path class="st0" d="M298.6,295.8c-1.6,0.9-3.1,1.9-4,3.2c0.4-0.6,0.8-1.2,1.3-1.7c1.5-1.1,3.2-2.1,4.8-3.1
					c0.5-0.1,1-0.1,1.4-0.2c0.1,0,0.1,0,0.2,0C301.1,294.6,299.8,295.2,298.6,295.8z"/>
				<path class="st0" d="M295,307.7c-0.3-0.6-0.5-1.2-0.6-1.9c0.2,0.6,0.5,1.2,0.8,1.8c0.8,2.4,2.8,3.7,4.9,3.6c0,0,0,0,0,0
					c0.1,0,0.1,0,0.2,0c0.2,0,0.5-0.1,0.6-0.2c0.4-0.1,0.9-0.3,1.3-0.5c1.6-2.4,4.5-5.4,3.5-9.3c1.2,2.6-1.2,5.9-2.2,8.3
					c-0.3,0.6-0.7,1.1-1.2,1.6c-0.5,0.4-1,0.8-1.7,1C297.6,312.6,295.8,309.9,295,307.7z"/>
				<path class="st0" d="M294.5,302.3c-0.1-1.5,0.1-2.7,0.7-3.5c0,0,0,0,0,0c0.3-0.4,0.6-0.8,1-1.1c0,0,0,0,0.1,0c0,0,0,0,0,0
					c0-0.1,0.1-0.1,0.2-0.1c0.2-0.1,0.4-0.3,0.6-0.4c0,0,0.1,0,0.1-0.1c1.5-0.8,3.4-1.3,5-1.8c-0.2,0.1-0.4,0.2-0.6,0.3
					c0.4-0.1,0.8-0.1,1.1-0.1c-0.4,0-0.9,0.1-1.3,0.2c-1.4,0.7-2.7,1.3-3.9,2.1c-1.3,1.3-2.1,3.2-1.8,5.7c0.1,0.7,0.2,1.3,0.4,2
					c0-0.1-0.1-0.2-0.1-0.3c-0.2-0.6-0.3-1.3-0.4-2c-0.3-2.1,0.4-3.8,1.5-5.1C295.7,298.9,294.6,300.3,294.5,302.3z"/>
				<path class="st0" d="M294.6,304.6c-0.2-0.8-0.2-1.6-0.1-2.3c0,0.4,0.1,0.8,0.2,1.2c0.1,0.5,0.2,1,0.3,1.5
					c0.2,0.9,0.5,1.7,0.8,2.6c0.1,0.2,0.2,0.3,0.3,0.5c-0.3-0.4-0.6-0.8-0.8-1.3C295,306.2,294.7,305.4,294.6,304.6z"/>
				<path class="st0" d="M294.3,305.7c0,0,0,0.1,0,0.1C294.4,305.8,294.4,305.7,294.3,305.7z"/>
				<path class="st0" d="M295.2,298.8c-0.9,1.2-1.4,2.7-1.2,4.8c0,0.7,0.2,1.4,0.4,2.1c0,0,0,0.1,0,0.1c-0.1-0.2-0.2-0.4-0.3-0.6
					c-0.1-0.5-0.3-1.1-0.3-1.7c-0.4-3.7,1.9-5.9,4.8-7.6c1.2-0.6,2.5-1.2,3.7-1.8c0.8-0.1,1.5-0.3,2-0.5c-1.9,1.3-4.8,2.1-7,3.6
					c0,0-0.1,0-0.1,0.1c-0.2,0.1-0.4,0.3-0.6,0.4c-0.1,0-0.1,0.1-0.2,0.1c0,0,0,0,0,0c0,0,0,0-0.1,0
					C295.8,298,295.5,298.3,295.2,298.8C295.2,298.8,295.2,298.8,295.2,298.8z"/>
				<path class="st0" d="M297.1,315c-1.8-1.6-2.8-4.1-3.6-6.6C294.4,311,295.6,313.1,297.1,315z"/>
				<path class="st0" d="M294.1,305.6c0.2,0.9,0.5,1.7,0.8,2.6c0.2,0.5,0.4,1,0.6,1.6c-0.6-0.8-1-1.7-1.4-2.7c0,0,0-0.1-0.1-0.1
					c0,0,0,0,0,0c0-0.1-0.1-0.1-0.1-0.2c-0.1-0.2-0.1-0.4-0.2-0.6c-0.2-0.7-0.3-1.4-0.4-2c-0.1-0.3-0.1-0.5-0.1-0.8
					c0-1,0.2-1.9,0.6-2.8c-0.3,1-0.4,2.1-0.1,3.4C293.8,304.5,293.9,305,294.1,305.6z"/>
				<path class="st0" d="M293.3,300.2c0.3-1.1,0.8-2.2,1.5-3.2c0.5-0.5,1-1,1.5-1.5c1.1-0.6,2.3-0.9,3.5-1.1c-1.5,0.8-2.9,1.7-4.1,3
					C294.8,298.1,293.9,299.1,293.3,300.2z"/>
				<path class="st0" d="M293.3,299.3L293.3,299.3C293.3,299.3,293.3,299.3,293.3,299.3z"/>
				<path class="st0" d="M293.3,299.5C293.3,299.4,293.3,299.4,293.3,299.5C293.3,299.4,293.3,299.4,293.3,299.5z"/>
				<path class="st0" d="M294.1,306.9C294.1,306.9,294.1,306.9,294.1,306.9c0,0.1,0,0.1,0.1,0.2c1,3.1,2,6.3,5.3,7.2
					c-2.9-0.6-5.1-4-6-7.4c-0.2-0.8-0.4-1.5-0.5-2.2c-0.4-1.8-0.1-3.3,0.5-4.5c0.6-1.2,1.5-2.1,2.5-2.9c-0.5,0.5-0.9,1.1-1.3,1.7
					c0,0,0,0,0,0c-0.3,0.5-0.5,1-0.7,1.5v0c-0.3,0.9-0.5,1.8-0.6,2.8c0,0.5-0.1,1,0,1.5c0.3,0.6,0.5,1.3,0.7,2
					C294,306.8,294,306.8,294.1,306.9z"/>
				<path class="st0" d="M294.1,425.1c0.1,5,0.1,10.1-0.3,15.2c0,0.5,0,1.1,0,1.6v3.1H293v-4.7c0.1-3.3,0.6-7.1,0.3-10.5
					c0-0.9,0-1.7,0-2.6c0-0.9,0-1.8,0.2-2.9c0.2-2.2,0.1-4.4-0.1-6.5c-0.1-0.7-0.1-1.4-0.2-2c-0.3-4.7-0.6-9-0.6-13.4
					c0-1.5,0-3,0.1-4.6c0.1-0.8,0.1-1.5,0.1-2.2c0-4.2,0.1-8.3,0.3-12.5v-15.2c0-0.6,0-1.2,0-1.8c0.5-8.4,0.6-16.4,0.2-24.7
					c0-0.8-0.1-1.6-0.1-2.5c1.6-8.5,0.1-17,0.3-25.4h0c2.7,9,1.4,18.1,0.4,27.3c0,0.8,0.1,1.7,0.1,2.5c0.3,8.2,0.2,16.2-0.2,24.5
					v13.6c0,4.3-0.1,8.8-0.2,13c0,0.6,0,1.2-0.1,1.9c-1.3,7.1,0.6,14.2,0.6,21.1c0.1,0.7,0.1,1.3,0.2,2c0.1,1.4,0.1,2.7-0.1,4.1
					C294.1,424,294.1,424.6,294.1,425.1z"/>
				<path class="st0" d="M294.1,202.3c-0.1,0.9-0.2,1.7-0.2,2.6c-0.1,4.2-0.2,8.5-0.2,12.8c0,0.9,0,1.9,0,2.8
					c-0.1,11,0.1,22,0.5,33.1c0.3,3.3-0.3,7.1-0.3,10.3c0,0.6,0,1.2,0.1,1.9s0.1,1.2,0.1,1.8c0.1,0.6,0.1,1.2,0.2,1.8
					c0.2,0.9,0.4,1.7,0.5,2.6c0.6,6.9,6.5,10.9,8.3,17.2c0.5,0.9,0,2.3-0.4,2.7c-2.2,1-4.3,2.2-6.1,3.7c-0.6,0.5-1.1,1-1.5,1.5
					c-0.5,0.6-1,1.2-1.3,1.9c1.4-3.1,4.2-5.7,6.3-8.4c3.6-5-4.5-10.4-5.8-16.4c-0.2-0.8-0.2-1.5-0.3-2.3c-0.1-1.6-0.3-3.1-0.5-4.7
					c0-0.9-0.1-1.7-0.1-2.6c0-0.9-0.1-1.7-0.1-2.6c0-4.1,0.8-7.9,0.3-12.2c-0.7-9.7-0.7-19.3-0.6-28.9c0-0.9,0-1.7,0.1-2.6
					c0.1-3.6,0.1-7.3,0.2-11c0-0.9,0-1.9,0.1-2.8c1.5-8.3-0.8-16.8,0.3-25.1c0-0.9,0-1.9,0-2.8c-0.1-2.8-0.1-5.5-0.3-8.3v-2.5
					c0-7.6,0-15.3-0.1-22.9c0-0.7,0-1.4,0-2.1v-4.1c0-0.7,0-1.4,0-2c0-3,0.8-5.8,0.8-8.7c0-3.3-0.2-6.5-0.4-9.8
					c-0.3-4.6-0.6-9.3-0.3-14.2c0-0.8-0.1-1.6-0.1-2.4c-0.1-2.4-0.3-4.9-0.5-7.3c-0.1-1.4-0.1-2.8,0-4.3c0-1.5,0.1-2.9,0.1-4.4
					c0.3-4.1,0.3-8.8,0.4-13.2v-3.3v-3.3c0-0.6,0-1.1,0-1.7c0.8-14.8,1.8-29,0.5-43.7c-0.5-4.3-0.8-8.5-0.8-12.7
					c0-0.8-0.1-1.6-0.1-2.3c-0.1-1.1-0.1-2.3-0.2-3.4h0.7c0.1,1.3,0.3,2.5,0.4,3.8c0,0.5,0,1,0,1.6c-0.9,5.6,0.9,11.3,1.1,16.9
					c0,13.3,0.3,26.5-0.7,39.8c0,0.6-0.1,1.2-0.1,1.8v6.7c0,1.5,0,2.9,0,4.4c0.1,2.9-0.9,5.7-0.4,8.6c0,1.5,0,2.9,0,4.4
					c0.1,4.4,0.3,8.8,0.4,13.1c0,0.8,0,1.7,0.1,2.5c-0.8,11.2,2.1,21.7-0.1,32.5c0,0.6,0,1.2,0,1.8v2.4c0.2,7.9,0,16-0.1,24
					c0,0.9,0,1.8,0,2.7c0.2,3.4,0.3,6.8,0.4,10.2c0,0.8,0,1.7,0,2.5C293.1,187.2,295.1,194.8,294.1,202.3z"/>
				<path class="st0" d="M293,300.1c-0.4,1.2-0.6,2.4-0.5,3.8c0.1,0.8,0.2,1.5,0.4,2.3c0.1,0.5,0.3,1,0.4,1.5
					c-0.2-0.7-0.4-1.4-0.7-2.1c-0.1-0.9-0.2-1.7-0.2-2.6c0-0.5,0.1-1,0.2-1.5C292.7,301,292.9,300.5,293,300.1z"/>
				<path class="st0" d="M293.9,284.1c0.5,1.8,1.4,3.6,0.9,5.4c-1.4,3.8-3.2,7.5-4,11.5c-0.3,1.3-0.4,2.7-0.4,4.1c0,0.6,0,1.3,0,1.9
					c0,0.6,0,1.3,0,1.9c0,0.9,0,1.7,0,2.5c0.2,7.5-0.7,15.2-0.5,22.9c0,1.1,0.1,2.1,0.2,3.1c0,0.9,0,1.8,0,2.7c0,3.3,0,6.7,0,10
					c0,0.8,0,1.7,0,2.5c-0.2,3.3-0.2,6.6,0,10c0,0.8,0,1.7,0,2.5c0,6.7,0,13.4,0,20.1c0,0.9,0,1.9-0.1,2.8c0,4.7,0,9.4,0,14.2
					c0.1,12.8,0.3,25.6-0.4,38.4c-0.1,1.4-0.1,2.8,0,4.2h-0.9c-0.1-13,0.9-25.8,0.9-38.8c-0.3-3.8-0.5-8.1-0.5-11.9
					c0.3-3.3,0.5-6.6,0.5-10.2c0-0.7,0-1.4,0-2.1c-0.1-5-0.2-10-0.2-14.9c0-0.7,0-1.4,0-2.1c-0.8-4.7-1.6-9.5-0.4-14.2
					c0-0.8,0.1-1.7,0.1-2.5c0-2.4,0-4.8,0-7.2c0-0.9,0-1.8,0-2.7c-0.2-1.8-0.3-3.5-0.3-5.2c0-0.9,0-1.8,0-2.6
					c-0.4-6.5,0.6-12.4,0.7-18.6c0-0.9,0-1.8,0-2.7c0-0.7,0-1.4,0-2c0-0.7,0-1.4,0-2.1c-0.6-6.4,4.4-11.3,3.9-17.2
					c-0.5-4.5-4.1-9-4.4-13.9c0-0.8,0-1.6,0-2.3c0-0.8,0-1.6,0-2.4c0-6.1,0-11.7,0.2-17.7c0-0.6,0-1.3,0-2c0-1.4,0-2.7,0-4.1
					c0-0.7,0-1.4,0-2.1c-0.1-3.9-0.1-7.2,0-11c0-0.9,0-1.7,0-2.6s0-1.8,0-2.8c0.1-11.2-0.1-22.6,0.2-33.9c0-0.7,0-1.4,0-2.1
					c0-0.7,0-1.4-0.1-2.2c0-0.7,0-1.4,0-2.2c0.1-5.9,0.1-12.6,0.2-18.6c0-0.8,0-1.5,0-2.3c0-0.8,0-1.5,0-2.3
					c0.1-4.5-0.2-8.8,0.5-13.3c0.1-0.7,0.2-1.4,0.3-2.2s0.2-1.5,0.3-2.3c0.1-0.8,0.1-1.6,0.1-2.3c0-0.7-0.1-1.5-0.2-2.2
					c-0.2-3.1-1.5-6.4-1.5-9.7c0-0.8,0-1.7-0.1-2.5c0-0.8,0-1.7,0-2.5c0.1-0.8,0.3-1.6,0.4-2.4c0.2-5,0.7-9.2-0.2-14.2
					c-0.1-0.8-0.1-1.6-0.2-2.4c-0.3-3.5-0.6-7-0.5-10.5c0-1.2,0.1-2.3,0.2-3.5c0-2.8,1-5.2,0.3-8.2c0-1.3,0.1-2.7,0.3-4.1
					c0-0.8,0-1.7,0-2.5c0-2.5-0.1-5-0.2-7.5c0-0.7,0-1.5,0.1-2.3c0-0.7,0-1.5,0-2.2c0-0.8,0.1-1.5,0.1-2.2
					c-0.4-8.9-0.7-17.9-0.1-27.2c0-0.8,0-1.5-0.1-2.3c0.2-0.5,0.4-1.1,0.6-1.6c0.2-0.6,0.4-1.1,0.5-1.7c-0.8-3.9-1.6-7.3-2.1-10.6
					l0.3,0c0.3,3.1,1.4,6.1,3.1,9c0.3,0.9,0.1,1.7-0.2,2.3c-0.3,0.6-0.7,1.2-0.9,1.8c-0.4,0.6-0.3,1.4-0.3,2.2
					c-0.3,6.7-0.4,13.8,0,20.7c0.1,1.7,0.2,3.4,0.3,5.2c0.3,4.7,0.4,9.4,0.5,14.1c0,0.7,0,1.4,0,2c0.2,6.6-0.7,12.8-0.9,19.6
					c0,0.7,0.1,1.5,0.1,2.2c0,0.7,0.1,1.5,0.2,2.2c0.6,4.8,1.7,9.5,2,14.2c0.1,2,0.1,3.9-0.2,5.9c-1,4.3-1.4,8.5-1.1,12.7
					c0,0.5,0,0.9,0,1.3c0,0.9,0,1.7,0,2.8c0,0.9,0.1,1.9,0.1,2.8c0,0.9,0.1,1.8,0.1,2.8c0.1,3,0,6.1-0.2,9.3c0,0.8-0.1,1.6-0.1,2.4
					c0,0.8-0.1,1.6-0.1,2.4c0,0.8-0.1,1.6-0.1,2.4c-0.1,2.4-0.1,4.8-0.1,7.2c0,0.9-0.1,1.9-0.1,2.8c0.1,4.4-0.1,8.7,0,13.1
					c0,0.8,0,1.6,0,2.4c0.1,3.2,0.2,6.4,0.1,9.7c0,0.8,0,1.6-0.1,2.5c0.1,1.3,0.1,3.2,0,4.6c0,0.6,0,1.3,0,1.9c0,2.5,0,4.9,0,7.4
					c0,0.9,0,1.8,0,2.8c-0.1,2.6-0.1,5.5-0.1,8.4c0,1.4,0,2.8-0.1,4.2c0,1.4,0,2.8-0.1,4.2c0,0.9,0,1.8,0,2.7c0,3,0,6.1,0,9.1
					c0,0.6,0,1.2,0,1.8c0,0.9,0,1.8,0,2.7c0,1.6-0.1,3.2-0.1,4.8c-0.1,4.9-0.2,9.9-0.2,14.8c0,0.8,0,1.6,0,2.5c0,0.8,0,1.6,0,2.4
					C289.9,276.9,292.6,280.5,293.9,284.1z"/>
				<path class="st0" d="M290.1,9.6c-1.4,3.9-1.9,7.7-1.6,11.2l-0.3,0c-0.4-3.4-0.4-6.9,0.6-10.9c0-0.9,0.1-1.8,0.1-2.7
					c0.1-2.4,0.3-4.9,0.5-7.3h1.4c0,0.2,0,0.3,0,0.5c-0.1,2.6-0.4,5.1-0.6,7.6C290.2,8.6,290.2,9.1,290.1,9.6z"/>
				<path class="st0" d="M288.6,8.3c-0.1,4.2-1,8.3-1.2,12.2h-0.1c0-3.7,0-7.4,0-11.1c0-0.8,0-1.8,0.1-2.6c0-0.7,0-1.4,0-2.1
					c0-0.7,0-1.5,0-2.2c0-0.9,0.1-1.7,0.1-2.6h1.3c0,2,0,3.9-0.1,5.9C288.7,6.7,288.7,7.5,288.6,8.3z"/>
				<path class="st0" d="M288,128.5c0,5.2,2.4,9.5,2.1,15.4c0,0.9,0,1.7-0.1,2.6c0,0.9-0.1,1.7-0.1,2.5c-1.1,13.2-1.6,26-1.3,39.3
					c0,0.7,0.1,1.4,0.1,2.2c0,0.7,0,1.4,0.1,2.1c0,0.7,0,1.4,0,2.1c0.1,25.4-0.4,51-0.4,76.5c0,0.9,0,1.9,0,2.8
					c-0.3,4.9,2.9,9,3.3,13.5c0.9,6.3-3.6,12.2-2.9,18.6c0,0.6,0,1.2,0,1.8c0,0.6,0,1.2,0,1.8c0,0.8,0,1.5,0,2.3
					c0.1,6.3-0.8,12.2-0.4,18.6c0,0.7,0,1.4,0,2.1c0.1,2.1,0.2,4.3,0.3,6.5c0,0.9,0,1.9,0,2.8c0,1.6,0,3.3,0,4.9c0,0.8,0,1.6,0,2.5
					c-1.4,6.3-1.4,11,0,17.2c0,0.8,0,1.6,0,2.5c0,4.1,0,8.2-0.1,12.3c0,1,0,1.9,0,2.9c0,2.7-0.3,6-0.5,8.8
					c-0.3,4.7,0.5,9.5,0.5,14.2c0.2,12.6-0.7,25.2-0.6,37.9h-1.1c-0.1-11.1,0.3-22.1,0.9-33.1c0.3-6.6-1-13.7-0.8-20.9
					c0.3-2.4,0.3-4.7,0.4-7c0-0.9,0-1.9,0-2.8c0-3.4,0-6.8,0-10.2c0-0.8,0-1.7,0-2.6c-1-4.4-1.6-8.4-1.5-12.3
					c0.1-2.6,0.5-5.1,1.3-7.7c0-1,0.1-2,0.1-2.8c0-1.7,0-3.4,0-5.1c0-0.9,0-1.8,0-2.7c0-1.8-0.5-3.7-0.5-5.6c0-1.7,0.1-3.3,0.2-4.9
					c0.1-1.6,0.2-3.3,0.2-4.9c0.1-1.3,0.1-2.6,0.2-3.8c0-0.3,0-0.7,0-1c0-1.6,0.1-3.3,0.1-4.9c0-2.7-0.1-5.5-0.4-8.3
					c0-0.6-0.1-1.1-0.1-1.7c1.5-8.6,2.4-16.7,0.1-25.2c0-1-0.1-2-0.1-3c1.3-44.7-0.9-89.2,1.7-133.7c0-2.4-1-5.7-1.3-8.1
					c-0.1-1.7-0.1-3.4-0.2-5c0-0.8-0.1-1.7-0.1-2.5c0.1-1.6,0.1-3.2,0.2-4.7c0-3.4,0-6.2,0-9.4c0-1.6-0.1-3.1-0.1-4.7
					c-0.2-7.8-0.4-15.5,0.2-23.3c0-0.8,0.1-1.6,0.1-2.5c0.1-4.1,0.3-8.2,0.4-12.2c0-0.8,0-1.5,0-2.3c0-0.9-0.1-1.7-0.1-2.6
					c-1.1-7.6-1.3-15.6-0.7-23.6c0-0.9,0-1.7,0-2.6c0-0.9-0.1-1.7-0.1-2.5c0-0.8,0-2,0-2.6c0.3-3.9,0.4-7.8,0.4-11.6h0.1
					c0,0.3,0,0.5,0,0.8c0.3,3.8,2.1,7.6,0.9,11.2c-0.2,0.5-0.1,1.3-0.1,2.1c0,0.8,0.1,1.6,0.1,2.4c0.2,9-0.4,17.5,0.4,26.4
					c0,0.8,0,1.6-0.1,2.4c0,0.8,0,1.6,0,2.4c0,0.8,0,1.6-0.1,2.3c0,3.3,0,6.5,0,9.8c0,0.8,0,1.6,0,2.4c-0.2,1.4-0.3,2.7-0.4,4
					c-0.1,1.3-0.1,2.7-0.1,4.1c0,1.3,0,2.7,0,4c0.1,4.1,0.4,8.1,0.6,12.1c0,0.8,0.1,1.6,0.1,2.4c0.4,4-0.1,8.3-0.2,12
					c-0.1,0.8-0.2,1.6-0.3,2.4c-0.1,0.8-0.2,1.6-0.4,2.4C288,126.8,288,127.6,288,128.5z"/>
				<path class="st0" d="M282.7,42.7c-0.4-2.4-0.2-4.8-0.2-7.3c0-0.8,0-1.6,0.1-2.4c0-0.7,0-1.4,0.1-2.1c0-0.7,0-1.4,0.1-2.1
					c1.6-6,1.9-11.7,0.6-17.9c0-0.9,0-1.7,0.1-2.6c-0.1-2.7-0.1-5.5-0.1-8.3h1.3c0,0.2,0,0.3,0,0.5c0,0.9,0,1.8,0,2.6
					c0,2,0,3.9-0.1,5.9c0,0.7,0,1.4,0,2.1c1.9,6.5,0.9,12.2-0.7,18.7c0,0.6-0.1,1.4,0,2.1c0,2.5,0.2,5.1,0.3,7.7
					c0,0.7,0.1,1.4,0.1,2.2c-0.1,7.3,0.1,14.2,0.4,21.2c0.1,1.7,0.2,3.5,0.2,5.3c-0.5,5-0.7,9.9-0.8,14.9c0,0.8,0,1.7-0.1,2.5
					c-0.3,12.1,0.6,24.9,0.5,37.3c0,0.8,0,1.7,0,2.5c0,2.5,0,4.9-0.1,7.4c0,2.4,1,4.7,1.3,7.1c0.3,5.2-0.5,9.9-1,14.7
					c-0.6,14.2-0.6,28.3-0.5,42.4c0,0.9,0,1.9,0,2.8c-0.4,4.6-0.9,9.3,0.1,14c0,0.9,0,1.9,0,2.8c0,7.5,0,14.9-0.2,22.4
					c-0.3,8.1,0.3,16.1,0.3,24.2c0,3.6,0,7.4-0.3,11.4c0,0.8-0.1,1.6-0.2,2.4c0.1,8.7,1,17.3,0.4,25.7c0,0.8,0,1.6,0.1,2.3
					c0,0.8,0.1,1.6,0.2,2.3c0.1,2.3,0.8,4.3,0.9,6.7c0.1,0.8,0.1,1.5,0.2,2.3s0,1.5,0,2.3c-0.2,2.5-0.5,4.9-0.7,7.3
					c-0.1,0.8-0.1,1.6-0.2,2.4c-0.4,4.5-0.4,9.7-0.4,14.3c0,0.7,0,1.4,0,2c0,0.7,0,1.4,0,2.3c0.1,3.1,0,6.2,0,9.3
					c-0.1,4.3-0.3,8.6,0,12.8c0,0.5,0,1,0,1.7c0,0.5,0,0.9,0,1.4c0,0.9,0,1.8,0,2.7c0,0.9,0,1.8,0,2.7c0,0.9,0,1.8,0,2.7
					c-0.5,14.8,0,30-0.5,44.7c-0.2,6.8-0.3,13.6-0.1,20.3h-0.8c-0.3-13.2,0.4-26.2,0.2-39.3v-8.5c-0.3-2.9,0-5.2,0.5-8
					c0.3-3.3-0.5-6.6-0.4-10.1c0-0.8,0-1.6,0-2.5c0-1.6,0-3.3,0-4.9c0-0.8,0-1.8,0-2.6c0.5-7.5,1.3-15,0-21.9c0-0.9,0-1.7,0-2.5
					c0-6.8-0.5-13.6,0.7-20.1c0.1-0.6,0.2-1.4,0.3-2c0.1-0.7,0.1-1.4,0.2-2.1c0.3-1.4,0.5-2.8,0.3-4.3c-0.9-5.9-1.5-11.7-1.8-17.5
					c0-0.8-0.1-1.7-0.1-2.5c-0.1-5.1-0.1-10.1-0.2-14.9c0.1-1.8,0.2-3.6,0.3-5.4c0.6-14.5,0.2-29.2,0.2-43.5c0-1.4,0-3.3,0.3-5.2
					c0.5-3.3,0-6.3-0.3-9.4c-0.1-0.7-0.1-1.4-0.2-2.1c-1.3-6,0-12.2,0.5-18.3c0-0.8,0-1.6,0-2.5c0-0.8,0-1.7,0.1-2.5
					c0-0.8,0-1.6,0.1-2.3c0-0.8,0-1.5,0-2.2c-0.2-5.7-0.4-10.9-0.4-16.6c-0.3-1.9,0.3-4.3,0.3-6.2c0-7.6,1.1-14.7,1.1-22.3
					c0.3-3.8-1.3-7.6-1.3-10.9c0-2.5,0-5,0-7.5c0-0.8,0-1.7,0-2.5c0.1-11.8,0.1-23.2,0.2-34.8c0-0.8,0-1.7,0-2.5
					c0.1-5.8,0.4-11.6,0.7-17.4c-0.1-0.7-0.2-1.5-0.3-2.2c-0.8-5.8-1.3-11.4-1.2-17.4C282.5,45.9,282.6,44.3,282.7,42.7z"/>
				<path class="st0" d="M279.6,410.4c0.1,3.5-0.3,6.9-0.8,10.1c-0.1,0.8-0.3,1.7-0.4,2.6c-1.7,6.7-0.4,14.3-0.1,21.2
					c0,0.2,0,0.5,0,0.7h-1c-0.6-7.8-1.9-15.9,0.3-23.2c0.1-0.6,0.3-1.3,0.4-1.9c0.6-3.3,0.9-6.8,0.4-9.9c-1-9-0.8-17.1-0.5-26
					c0-5.7-0.5-11.4-0.5-16.9c0-0.9,0-1.8,0-2.7c0-2.7-0.1-5.5-0.1-8.2c0-0.9,0-1.8,0-2.8c0-0.7,0-1.3-0.1-2
					c0.5-7.2-0.1-13.9-0.1-21c-0.3-3.8,0.5-7.6,0.8-11.4c0-5.2-0.5-10.4-0.3-16.1c0.5-5.7-0.8-11.4-0.5-17.2
					c0.1-0.9,0.1-1.7,0.1-2.5c0-0.8,0.1-1.6,0.1-2.4c0-2.4,0-4.6,0-6.9c0-0.7,0-1.4,0-2.1c0-5.8,0-11.5-0.1-17.3
					c0-0.9,0-1.9-0.1-2.8c-0.1-3.6-0.1-7.2-0.1-10.8c0-0.9,0-1.8,0-2.7c0-0.9,0-1.8,0-2.7c0-0.9,0-1.8,0-2.7
					c0.1-3.7,0.2-7.4,0.3-11.2c0-0.7,0-1.5,0.1-2.2c0.3-4.6,0.5-9.1,0.5-13.7c0-3.9-0.1-7.9-0.5-11.8c0-0.7-0.1-1.4-0.1-2
					s-0.1-1.4-0.1-2V188v-3.6c0-0.6,0-1.2,0-1.8c-0.1-2.9-0.1-6.3,0.1-9c0-0.9,0.1-1.8,0.1-2.7c0.2-4.4,0.3-8.8,0.1-13.2
					c0-0.9,0-1.8-0.1-2.6c-0.5-2.3-0.7-4.6-0.7-6.9c0-0.8,0-1.5,0-2.3c0-0.9,0.1-1.9,0.2-2.9c0-0.8,0-2.2,0.2-3.1
					c0-0.5,0.1-1,0.1-1.5c0-0.5,0.1-1,0.1-1.5c0-0.8,0.1-1.5,0.1-2.3c0-0.7,0-1.5,0-2.2c0-0.7-0.1-1.3-0.2-2c-0.4-3.2-1-6.3-0.9-9.6
					c0.2-5.1,0.7-10.2,0.9-15.2c0-0.7,0-1.4,0.1-2.2c0-0.8,0-1.7,0-2.5c-0.2-2.2-0.3-4.5-0.4-6.7c-0.1-0.8-0.1-1.5-0.2-2.3
					c-0.4-2.9-0.4-5.8,0.1-8.8c0.1-0.9,0.2-1.8,0.4-2.7c0.6-4.2,1.7-8.5,0.9-12.8c-1.3-6.2-0.8-12.3-1-19c-0.3-1.9-0.8-4.3-0.8-5.7
					c0-0.9,0-1.7,0-2.6c-0.8-8.3-0.3-15.8,1.1-23.3c0-0.8,0.1-1.9,0.1-2.9c0.2-4.8,0.1-9.6-0.2-14.3h0.4c0.4,4.4,0.6,8.9,0.5,13.4
					c0,0.8,0,1.7,0,2.5c-0.9,8.2-3,14.9-0.7,22.5c0,0.8,0.1,1.9,0.1,2.8c0.3,12.3,2.3,26,0.8,38.5c-0.1,0.9-0.2,1.7-0.2,2.6
					c-0.5,9-0.2,18.1-0.4,27.4c0,0.8,0,1.6-0.1,2.4c0,0.8,0,1.6,0,2.4c0,0.8,0,1.6,0,2.4c-0.1,2.6-0.1,5,0,7.1c0,0.8,0,1.6,0,2.4
					c0,1.6,0,3.2,0.1,4.8c0,0.8,0,1.6,0,2.4c0,0.7,0,1.4,0,2.2c0,0.7,0,1.4,0,2.1c0,0.7-0.1,1.4-0.1,2.2c-0.3,2.9-0.7,6-0.3,9
					c0,0.7,0.1,1.5,0.1,2.2c0.1,0.7,0.1,1.5,0.3,2.2c1.1,2.6,0.3,5.4,0.7,8.3c0,0.7,0,1.3,0,2c0,4-0.2,8-0.4,11.9v12
					c0,1,0,1.9,0,2.9c0,0.8,0.1,1.6,0.1,2.3c0,0.8,0.1,1.9,0.1,2.4c0.7,7.6-0.1,15.7,0.1,23.1c0,0.5,0,1.2,0,1.8
					c0,1.6,0,3.2-0.1,4.8c0,0.7,0,1.4,0,2.2c0,0.7,0,1.5,0,2.2c-0.1,4.9,0.2,9.1-0.3,13.7c0,0.7,0,1.4,0,2.2s0.1,1.5,0.1,2.3
					c0,0.8,0,1.5,0.1,2.3c-0.2,9.1,0.1,18.1-0.2,27.3c0,0.8,0,1.5,0,2.3c-0.1,3.8-0.1,7.5,0,11.3c0.3,14.7,0,29.9,0.3,44.5
					c0,5.2,0,10-0.2,15.1c0,0.6,0,1.3,0,1.9c1,4.4,0.2,8.6,0.2,13c0,0.9,0,1.9,0,2.8c0.2,10.9,0.2,20.8,0,31.7
					C278.3,403.3,279.4,406.6,279.6,410.4z"/>
				<path class="st0" d="M273.4,258.3c-0.3-1.9,0.3-4.3,0.7-6.3c0-0.9,0-1.9,0.1-2.8c0.1-10.3,0.2-20.6,0.3-30.9c0-1,0.1-2.1,0.1-3
					c0.9-5.8,1.4-11,0.1-16.5c0-0.5,0-1-0.1-1.6c0-16.4-0.1-32.8-0.3-49.2c0-1,0-1.9-0.1-2.9c0-1.4,0-2.4,0.2-3.9
					c0-0.7,0.1-1.4,0.2-2.1c0.2-2.1,0.3-4.2,0.2-6.3c-0.5-5.2-1.6-9.9-1.3-15.2c0.5-4.6,0.9-8.8,1-13c0-0.7,0-1.4,0.1-2.1
					c0-0.7-0.1-1.4-0.1-2c0-0.7-0.1-1.4-0.1-2.1c-1-3.7-1.4-7.3-1.3-10.7c0.2-3.5,1-6.8,2.4-9.8c0.1-0.7,0.3-1.3,0.3-1.9
					c0.2-1.3,0.2-2.5-0.1-3.8c-0.8-2.8-1.6-6.2-1.3-9c0.5-7.6-1.3-14.7-0.8-21.8c0-0.5,0.1-0.9,0.1-1.4c0.1-0.6,0.1-1.1,0.2-1.7
					c1.8-7.8,1.3-15.4,0.8-23.6c0-0.9,0-1.8,0-2.7C274.6,8,274.4,4,274.2,0h1.3c0.5,5,0.8,9.9,0.8,14.9c0,0.7,0,1.3,0,1.8
					c-0.2,8-1,16-1.5,24.1c0,0.7,0,1.4,0,2.1c0,2.1,0.2,4.3,0.6,6.4c0.8,7.1-0.3,14.2,1.3,20.9c0.5,2.4,0.3,4.6-0.1,6.9
					c-0.2,0.9-0.4,1.8-0.6,2.6c-3.5,5.2-2.4,11.3-0.8,17.3c0,0.6,0.1,1.4,0.2,2.1c0,0.6,0.1,1.3,0.1,1.9c0,0.8,0,1.6,0,2.4
					c-0.2,6.4-1.2,12.9-1.2,19.3c0.3,3.3,1.3,6.6,1.6,9.9c0,0.6,0,1.3-0.1,1.9c0,0.6-0.1,1.3-0.2,2c-0.6,4.1-0.8,8.9-0.7,12.9
					c0,0.8,0.1,1.7,0.2,2.5c0.3,4.2,0.8,8.3,0.5,12.4c-0.5,10.1-0.1,20.1,0.2,30c0.1,1,0.1,2,0.2,3c0.9,2.7,1.2,5.4,1.2,8.1
					c0,4.2-0.8,8.4-1.5,12.5c0,0.8-0.1,1.6-0.1,2.4c-0.4,10.6-0.7,21.3-0.5,31.9c0,0.9,0,1.6-0.2,2.2c-0.7,5.6,1.4,10.8,0.2,16.4
					c0,0.5,0,1.1,0,1.6c0,2.1,0,4.1,0,5.9c0,0.8,0,1.5-0.1,2.3c0,1.5-0.1,3.1-0.1,4.6c0,0.8-0.1,1.6-0.1,2.4
					c1.4,20.3,0.3,41.2,0.5,61.6c0,0.8,0,1.7,0,2.5c0.1,10,0.4,20,0.8,30.2c0.3,3.8-1.3,7.1-1,10.9c0.6,9.1,0.9,17.5,0.6,26.4
					c0,0.9-0.1,1.8-0.1,2.7c-0.5,7.3-0.8,14.9-0.3,22c0,0.3,0,0.6,0,0.9h-0.8c0-0.1,0-0.3,0-0.4c-0.2-7.7,0-15.7,0.2-23.4
					c0-0.8,0-1.6,0-2.5c0.1-9-0.4-17.8-0.8-27.3c0-1.9,0.8-4.7,0.8-6.6c-0.1-11.7-0.2-23.3-0.2-35c0-0.9,0-1.8,0-2.6
					c-0.4-19.3,0.7-39.2-0.7-58.4c0-0.7-0.1-1.4-0.1-2c-0.1-1.3-0.1-2.6-0.1-3.9c0.1-3.3,0.1-6.6,0.2-9.8c0-0.4,0.1-0.8,0.2-1.3
					c0-0.1,0.1-0.3,0.1-0.5C274.7,267.3,274.2,262.5,273.4,258.3z"/>
				<path class="st0" d="M271.8,313.2c-0.5,23.7,0.5,46.9,0,70.6c0,1.9-0.5,4.3-0.8,6.1c-0.8,9,2.1,17,1.3,25.6
					c-0.1,1.7-0.3,3.3-0.3,4.9c0,0.8-0.1,1.6-0.1,2.5c0.5,7.3,0.2,14.4-0.3,21.5c0,0.1,0,0.3,0,0.5h-0.9c0-0.5,0-1.1,0-1.6
					c0.5-6,1.3-12.6,0.4-18.6c0-0.9,0-1.9,0-2.7c0.1-3.6,0.1-7.1,0.1-10.7c0-9-1-18.5-0.8-28c1.1-24.6,0-48.8,0.3-73.4
					c0.2-7.6-0.6-14.8-0.6-22.3c0-1,0-1.9,0-2.9c0.1-2.8,0.2-5.6,0.2-8.3c0-0.9,0.1-1.9,0.3-2.8c1.9-4.1,0.7-8.3-0.7-12.1v-3
					c0.8,4.6,2.7,8.6,1.9,13.1c-0.1,0.8-0.4,1.6-0.7,2.4c-0.2,1-0.2,1.9-0.2,2.8c0,4.6,0.1,9.1,0.2,13.7
					C271.3,298.1,271.8,305.7,271.8,313.2z"/>
				<path class="st0" d="M271.8,40.8c-0.3,11-0.3,22,1,33.1c0.1,0.7,0,1.6-0.1,2.3c-0.7,3.8-1,7.6-1.2,11.4c-0.1,3.9-0.1,7.8,0,11.8
					c0,0.8,0,1.5,0,2.2c0,1.5-0.1,3-0.1,4.4c0,0.9,0,1.8,0,2.7c-0.1,3.6-0.2,7.1-0.3,10.7c-0.5,19.4,1.6,39.8,0.8,59.7
					c-0.5,12.8,1,25.6,0,38.4c0,2.4-0.8,4.3-0.8,6.6c0,8.4,0,16.7-0.1,25c0,0.9-0.2,1.8-0.5,2.7c-0.1,0.5-0.2,0.9-0.4,1.3v-3.1
					c0-0.5,0.1-1,0.1-1.5c0-2.2,0-4.3-0.1-6.5v-9.5c0-3.1,0-6.3,0.2-9.4c0.3-2.4,0.8-4.7,0.8-7.1c0.3-18.9,0-37.9,0-56.9
					c0-1.4-0.3-3.8-0.3-5.2c-0.2-11.2-0.5-22.5-0.7-33.7v-6.4c0.2-2.3,0.7-4.8,0.9-7.3c0-0.6,0.1-1.3,0.1-1.9c0-0.8,0-1.5,0-2.3
					c0-0.8,0-1.5,0-2.3c0.3-8.2,0.3-16.3,1.1-24.3c-0.1-0.8-0.2-1.9-0.2-2.9c-0.9-12-0.9-23.7-0.8-35.4c0.1-1,0.1-2,0.3-3
					c2-5.1,0.7-10.3-0.1-15.8c0-0.9,0-1.8,0-2.7c0-4.5-0.1-9-0.2-13.6c0-0.8-0.1-1.6-0.1-2.4h0.9c0.4,5.4,0.6,10.8,0.6,16.1
					c0,0.6,0.1,1.1,0.1,1.6c1.7,7.4,1.7,13.1-0.5,20.4C271.9,39,271.9,39.9,271.8,40.8z"/>
			</g>
			<g>
			</g>
		</g>
	</g>
</g>
<polygon class="st0" points="22.8,536.9 13.3,536.9 13.3,508.3 0,473.8 10.1,473.8 18.1,496.2 18.3,496.2 26,473.8 35.9,473.8 
	22.8,508.4 "/>
<polygon class="st0" points="47.2,536.9 36.6,473.8 46.3,473.8 53.4,521.9 53.6,521.9 60.7,473.8 70.2,473.8 59.6,536.9 "/>
<g>
	<path class="st0" d="M106.4,488.9v33c0,9.9-5.9,15.9-15.4,15.9c-9.6,0-15.4-6-15.4-15.9v-33c0-9.9,5.9-15.9,15.4-15.9
		C100.6,472.9,106.4,479,106.4,488.9 M85.2,489v32.8c0,4.7,2.1,7.2,5.9,7.2c3.8,0,5.9-2.5,5.9-7.2V489c0-4.7-2.1-7.2-5.9-7.2
		C87.2,481.8,85.2,484.3,85.2,489"/>
	<polygon class="st0" points="137.4,536.9 124.9,495.1 124.7,495.1 124.7,536.9 115.7,536.9 115.7,473.8 126.3,473.8 137.6,511.4 
		137.8,511.4 137.8,473.8 146.8,473.8 146.8,536.9 	"/>
	<polygon class="st0" points="205.1,536.9 205.1,493.1 204.9,493.1 197,527.9 191.3,527.9 183.4,493.1 183.2,493.1 183.2,536.9 
		174.2,536.9 174.2,473.8 186.7,473.8 194.2,507.7 194.4,507.7 201.8,473.8 214.6,473.8 214.6,536.9 	"/>
	<path class="st0" d="M245.7,536.9l-2.1-14.3h-10.5l-2.1,14.3h-9.6l10.9-63.1h12.2l10.9,63.1H245.7z M234.4,513.9h8l-3.9-26.6h-0.3
		L234.4,513.9z"/>
	<path class="st0" d="M275.6,473.8c9.9,0,15.2,5.6,15.2,15.9v1.2c0,7-2.1,11.2-7.1,12.9v0.2c5.9,1.8,8.5,6.5,8.5,14.8v2.2
		c0,10.4-5.6,15.9-15.9,15.9h-14.1v-63.1H275.6z M271.9,499.9h3c4.6,0,6.5-2.3,6.5-7.7v-2.1c0-5.1-1.9-7.5-6-7.5h-3.4V499.9z
		 M271.9,528.1h4.1c4.6,0,6.7-2.4,6.7-7.8v-3.5c0-5.6-2.1-8.1-7.1-8.1h-3.7V528.1z"/>
	<rect x="299.9" y="473.8" class="st0" width="9.5" height="63.1"/>
	<polygon class="st0" points="345.2,527.9 345.2,536.9 319.7,536.9 319.7,473.8 329.2,473.8 329.2,527.9 	"/>
	<polygon class="st0" points="376.8,527.9 376.8,536.9 351.3,536.9 351.3,473.8 360.9,473.8 360.9,527.9 	"/>
	<path class="st0" d="M403.8,536.9l-2.1-14.3h-10.5l-2.1,14.3h-9.6l10.9-63.1h12.2l10.9,63.1H403.8z M392.4,513.9h8l-3.9-26.6h-0.3
		L392.4,513.9z"/>
	<path class="st0" d="M433.4,510.2H429v26.7h-9.6v-63.1h13.8c10.3,0,15.9,5.6,15.9,15.9v4.5c0,6.7-2.3,11.4-6.8,13.9l8.7,28.7H441
		L433.4,510.2z M429,501.4h3.9c4.6,0,6.7-2.4,6.7-7.7v-3.2c0-5.3-2.1-7.8-6.7-7.8H429V501.4z"/>
	<path class="st0" d="M471.7,473.8c10.3,0,15.9,5.6,15.9,15.9V521c0,10.4-5.6,15.9-15.9,15.9H458v-63.1H471.7z M467.6,528.1h3.8
		c4.6,0,6.7-2.4,6.7-7.8v-29.9c0-5.3-2.1-7.7-6.7-7.7h-3.8V528.1z"/>
	<path class="st0" d="M14.1,569.4v0.2c0,3-1.2,4.9-4.9,8.7l3.3,5.1h0.1v-4.7l4.2,0.2v5.2c0,1.8-0.2,3.4-0.7,4.7l3.9,5.8h-5.7
		l-0.9-1.5c-1.4,1.3-3.2,1.9-5.4,1.9c-4.8,0-7.9-2.7-7.9-7.7v-1.1c0-2.9,0.9-5.3,3.5-8.2c-2.2-3.6-2.9-5.7-2.9-8.2v-0.3
		c0-4.6,2.4-7,6.8-7C11.8,562.5,14.1,565.1,14.1,569.4 M6,582c-0.9,1.7-1.2,2.9-1.2,4.3v0.7c0,2.6,1.4,3.8,3.3,3.8
		c1.1,0,2.1-0.4,2.8-1.1L6,582L6,582z M5.3,569.7v0.2c0,1.3,0.4,2.5,1.6,4.8h0.1c2-2.3,2.7-3.4,2.7-4.9v-0.2c0-1.6-0.8-2.6-2.2-2.6
		C6.1,567,5.3,567.9,5.3,569.7"/>
	<polygon class="st0" points="35.9,567.4 35.9,576.4 42.7,576.4 42.7,580.9 35.9,580.9 35.9,594.7 31.1,594.7 31.1,563 44.4,563 
		44.4,567.4 	"/>
	<rect x="47.6" y="563" class="st0" width="4.8" height="31.7"/>
	<polygon class="st0" points="70.4,590.2 70.4,594.7 57.5,594.7 57.5,563 62.3,563 62.3,590.2 	"/>
	<path class="st0" d="M86.3,569.7v0.8l-4.6,0.5v-1.2c0-1.8-0.9-2.8-2.4-2.8c-1.6,0-2.4,1-2.4,2.8v0.4c0,1.9,0.8,3.4,4,6.2
		c4.4,3.7,6,6.3,6,10.2v1.6c0,4.5-2.7,7.1-7.4,7.1c-4.8,0-7.4-2.6-7.4-7.1v-2.1l4.6-0.5v2.3c0,2,0.9,3,2.7,3c1.8,0,2.7-1,2.7-3v-1
		c0-2-1-3.6-4.2-6.3c-4.4-3.7-5.9-6.3-5.9-10.1v-0.7c0-4.5,2.6-7.1,7.2-7.1C83.7,562.5,86.3,565.1,86.3,569.7"/>
	<path class="st0" d="M110.2,569.7v0.8l-4.6,0.5v-1.2c0-1.8-0.9-2.8-2.4-2.8c-1.6,0-2.4,1-2.4,2.8v0.4c0,1.9,0.8,3.4,4,6.2
		c4.4,3.7,6,6.3,6,10.2v1.6c0,4.5-2.7,7.1-7.4,7.1c-4.8,0-7.4-2.6-7.4-7.1v-2.1l4.6-0.5v2.3c0,2,0.9,3,2.7,3c1.8,0,2.7-1,2.7-3v-1
		c0-2-1-3.6-4.2-6.3c-4.4-3.7-5.9-6.3-5.9-10.1v-0.7c0-4.5,2.6-7.1,7.2-7.1C107.7,562.5,110.2,565.1,110.2,569.7"/>
	<path class="st0" d="M124.2,594.7l-1-7.2h-5.3l-1,7.2H112l5.5-31.7h6.1l5.5,31.7H124.2z M118.5,583.2h4l-1.9-13.4h-0.1L118.5,583.2
		z"/>
	<path class="st0" d="M172.1,581.3h-2.2v13.5h-4.8v-31.8h7c5.2,0,8,2.8,8,8v2.3c0,3.4-1.2,5.7-3.4,7l4.4,14.5h-5.1L172.1,581.3z
		 M169.9,576.8h2c2.3,0,3.4-1.2,3.4-3.9v-1.6c0-2.7-1-3.9-3.4-3.9h-2V576.8z"/>
	<polygon class="st0" points="189.3,567.4 189.3,576.4 196.4,576.4 196.4,580.8 189.3,580.8 189.3,590.3 198.1,590.3 198.1,594.7 
		184.5,594.7 184.5,562.9 198.1,562.9 198.1,567.4 	"/>
	<polygon class="st0" points="205.8,594.7 200.4,562.9 205.3,562.9 208.9,587.2 209,587.2 212.6,562.9 217.4,562.9 212,594.7 	"/>
	<polygon class="st0" points="225.7,567.4 225.7,576.4 232.7,576.4 232.7,580.8 225.7,580.8 225.7,590.3 234.4,590.3 234.4,594.7 
		220.8,594.7 220.8,562.9 234.4,562.9 234.4,567.4 	"/>
	<polygon class="st0" points="246.3,567.4 246.3,594.7 241.5,594.7 241.5,567.4 236.3,567.4 236.3,562.9 251.4,562.9 251.4,567.4 	
		"/>
	<polygon class="st0" points="259.3,567.4 259.3,576.4 266.3,576.4 266.3,580.8 259.3,580.8 259.3,590.3 268,590.3 268,594.7 
		254.5,594.7 254.5,562.9 268,562.9 268,567.4 	"/>
	<polygon class="st0" points="287.7,594.7 287.7,572.6 287.6,572.6 283.6,590.2 280.7,590.2 276.7,572.6 276.6,572.6 276.6,594.7 
		272.1,594.7 272.1,562.9 278.4,562.9 282.2,580 282.3,580 286,562.9 292.5,562.9 292.5,594.7 	"/>
	<polygon class="st0" points="302.5,567.4 302.5,576.4 309.5,576.4 309.5,580.8 302.5,580.8 302.5,590.3 311.2,590.3 311.2,594.7 
		297.7,594.7 297.7,562.9 311.2,562.9 311.2,567.4 	"/>
	<polygon class="st0" points="326.3,594.7 319.9,573.6 319.9,573.6 319.9,594.7 315.3,594.7 315.3,562.9 320.7,562.9 326.4,581.9 
		326.4,581.9 326.4,562.9 331,562.9 331,594.7 	"/>
	<polygon class="st0" points="344,567.4 344,594.7 339.2,594.7 339.2,567.4 334,567.4 334,562.9 349.1,562.9 349.1,567.4 	"/>
	<path class="st0" d="M364.9,569.6v0.8l-4.6,0.5v-1.2c0-1.8-0.9-2.8-2.5-2.8c-1.6,0-2.5,1-2.5,2.8v0.4c0,1.9,0.8,3.5,4,6.2
		c4.4,3.7,6,6.4,6,10.2v1.6c0,4.5-2.7,7.1-7.5,7.1c-4.8,0-7.5-2.6-7.5-7.1v-2.1l4.6-0.5v2.3c0,2,0.9,3,2.7,3s2.7-1,2.7-3v-1
		c0-2-1-3.6-4.2-6.3c-4.4-3.7-5.9-6.4-5.9-10.1v-0.7c0-4.5,2.6-7.1,7.2-7.1C362.3,562.5,364.9,565,364.9,569.6"/>
	<path class="st0" d="M383.5,562.9c5.2,0,8,2.8,8,8v15.7c0,5.2-2.8,8-8,8h-6.9v-31.8H383.5z M381.4,590.3h1.9c2.3,0,3.4-1.2,3.4-3.9
		v-15.1c0-2.7-1-3.9-3.4-3.9h-1.9V590.3z"/>
	<polygon class="st0" points="401,567.4 401,576.4 408,576.4 408,580.8 401,580.8 401,590.3 409.7,590.3 409.7,594.7 396.2,594.7 
		396.2,562.9 409.7,562.9 409.7,567.4 	"/>
	<path class="st0" d="M434.8,569.6v0.8l-4.6,0.5v-1.2c0-1.8-0.9-2.8-2.5-2.8c-1.6,0-2.5,1-2.5,2.8v0.4c0,1.9,0.8,3.5,4,6.2
		c4.4,3.7,6,6.4,6,10.2v1.6c0,4.5-2.7,7.1-7.5,7.1c-4.8,0-7.5-2.6-7.5-7.1v-2.1l4.6-0.5v2.3c0,2,0.9,3,2.7,3c1.8,0,2.7-1,2.7-3v-1
		c0-2-1-3.6-4.2-6.3c-4.4-3.7-5.9-6.4-5.9-10.1v-0.7c0-4.5,2.6-7.1,7.2-7.1C432.2,562.5,434.8,565,434.8,569.6"/>
	<path class="st0" d="M453.5,570.5v16.6c0,5-3,8-7.8,8c-4.8,0-7.8-3-7.8-8v-16.6c0-5,3-8,7.8-8C450.5,562.5,453.5,565.5,453.5,570.5
		 M442.7,570.5v16.5c0,2.4,1,3.6,3,3.6c1.9,0,3-1.3,3-3.6v-16.5c0-2.4-1-3.6-3-3.6C443.8,566.9,442.7,568.2,442.7,570.5"/>
	<polygon class="st0" points="471,590.2 471,594.7 458.1,594.7 458.1,562.9 463,562.9 463,590.2 	"/>
	<path class="st0" d="M487,569.6v0.8l-4.6,0.5v-1.2c0-1.8-0.9-2.8-2.5-2.8c-1.6,0-2.5,1-2.5,2.8v0.4c0,1.9,0.8,3.5,4,6.2
		c4.4,3.7,6,6.4,6,10.2v1.6c0,4.5-2.7,7.1-7.5,7.1c-4.8,0-7.5-2.6-7.5-7.1v-2.1l4.6-0.5v2.3c0,2,0.9,3,2.7,3c1.8,0,2.7-1,2.7-3v-1
		c0-2-1-3.6-4.2-6.3c-4.4-3.7-5.9-6.4-5.9-10.1v-0.7c0-4.5,2.6-7.1,7.2-7.1C484.4,562.5,487,565,487,569.6"/>
	<rect x="145.2" y="563" class="st0" width="2.9" height="31.7"/>
</g>
</svg>
