<?xml version="1.0" encoding="utf-8"?>
<!-- Generator: Adobe Illustrator 21.1.0, SVG Export Plug-In . SVG Version: 6.00 Build 0)  -->
<svg version="1.1" id="Calque_1" xmlns="http://www.w3.org/2000/svg" xmlns:xlink="http://www.w3.org/1999/xlink" x="0px" y="0px"
	 viewBox="0 0 573.3 105.4" style="enable-background:new 0 0 573.3 105.4;" xml:space="preserve">
<style type="text/css">
	.st0{fill:#1E1E1C;}
	.st1{fill:#A8D3AF;}
	.st2{fill:#010202;}
	.st3{fill:none;}
</style>
<rect x="84.3" y="0" class="st0" width="11.2" height="105.4"/>
<rect x="104.5" y="0" class="st0" width="11.2" height="105.4"/>
<polygon class="st1" points="47.8,50.1 16,0 0,0 40.7,62 40.7,105.4 54.8,105.4 54.8,62 54.9,62 61.9,51.3 61.9,27.9 "/>
<polygon class="st2" points="168,55 159.7,55 159.7,30.1 148.2,0 157,0 164,19.5 164.1,19.5 170.8,0 179.4,0 168,30.2 "/>
<polygon class="st2" points="189.3,55 180.1,0 188.5,0 194.8,42 194.9,42 201,0 209.4,0 200.1,55 "/>
<g>
	<path class="st2" d="M241,13.1v28.8c0,8.6-5.1,13.9-13.4,13.9c-8.3,0-13.4-5.3-13.4-13.9V13.1c0-8.6,5.1-13.9,13.4-13.9
		C235.8-0.8,241,4.5,241,13.1 M222.4,13.2v28.6c0,4.1,1.8,6.3,5.1,6.3c3.3,0,5.1-2.2,5.1-6.3V13.2c0-4.1-1.8-6.3-5.1-6.3
		C224.2,6.9,222.4,9.1,222.4,13.2"/>
	<polygon class="st2" points="268,55 257.1,18.5 256.9,18.5 256.9,55 249,55 249,0 258.3,0 268.1,32.8 268.3,32.8 268.3,0 276.1,0 
		276.1,55 	"/>
	<polygon class="st2" points="327,55 327,16.8 326.8,16.8 319.9,47.1 315,47.1 308,16.8 307.9,16.8 307.9,55 300,55 300,0 311,0 
		317.5,29.5 317.6,29.5 324.1,0 335.3,0 335.3,55 	"/>
	<path class="st2" d="M362.4,55l-1.8-12.5h-9.2L349.6,55h-8.3l9.5-55h10.6l9.5,55H362.4z M352.5,35h7l-3.4-23.2h-0.2L352.5,35z"/>
	<path class="st2" d="M388.5,0c8.6,0,13.3,4.9,13.3,13.9v1c0,6.1-1.8,9.7-6.2,11.2v0.2c5.2,1.6,7.4,5.7,7.4,12.9v1.9
		c0,9-4.9,13.9-13.8,13.9h-12.3V0H388.5z M385.2,22.7h2.6c4,0,5.7-2,5.7-6.7v-1.8c0-4.5-1.7-6.5-5.3-6.5h-3V22.7z M385.2,47.3h3.6
		c4,0,5.8-2.1,5.8-6.8v-3.1c0-4.9-1.8-7.1-6.2-7.1h-3.2V47.3z"/>
	<rect x="409.6" y="0" class="st2" width="8.3" height="55"/>
	<polygon class="st2" points="449.2,47.1 449.2,55 426.9,55 426.9,0 435.2,0 435.2,47.1 	"/>
	<polygon class="st2" points="476.7,47.1 476.7,55 454.5,55 454.5,0 462.8,0 462.8,47.1 	"/>
	<path class="st2" d="M500.2,55l-1.8-12.5h-9.2L487.4,55h-8.3l9.5-55h10.6l9.5,55H500.2z M490.3,35h7l-3.4-23.2h-0.2L490.3,35z"/>
	<path class="st2" d="M526.1,31.7h-3.9V55h-8.3V0h12c9,0,13.8,4.9,13.8,13.9v3.9c0,5.8-2,9.9-5.9,12.1l7.6,25.1h-8.8L526.1,31.7z
		 M522.2,24h3.4c4,0,5.8-2.1,5.8-6.8v-2.8c0-4.6-1.8-6.8-5.8-6.8h-3.4V24z"/>
	<path class="st2" d="M559.5,0c9,0,13.8,4.9,13.8,13.9v27.2c0,9-4.9,13.9-13.8,13.9h-11.9V0H559.5z M555.8,47.3h3.3
		c4,0,5.8-2.1,5.8-6.8V14.5c0-4.6-1.8-6.8-5.8-6.8h-3.3V47.3z"/>
	<path class="st2" d="M160.5,83.4v0.2c0,2.6-1,4.3-4.3,7.5l2.8,4.4h0.1v-4.1l3.6,0.2v4.5c0,1.6-0.2,3-0.6,4.1l3.4,5.1h-5l-0.8-1.3
		c-1.2,1.1-2.8,1.7-4.7,1.7c-4.2,0-6.9-2.4-6.9-6.8v-1c0-2.5,0.8-4.6,3-7.2c-1.9-3.2-2.5-5-2.5-7.2v-0.2c0-4,2.1-6.1,5.9-6.1
		C158.4,77.4,160.5,79.6,160.5,83.4 M153.4,94.3c-0.8,1.5-1.1,2.5-1.1,3.7v0.6c0,2.3,1.2,3.3,2.9,3.3c1,0,1.8-0.3,2.4-1L153.4,94.3
		L153.4,94.3z M152.7,83.6v0.2c0,1.1,0.4,2.2,1.4,4.2h0.1c1.8-2,2.3-3,2.3-4.3v-0.2c0-1.4-0.7-2.3-1.9-2.3
		C153.4,81.2,152.7,82,152.7,83.6"/>
	<polygon class="st2" points="179.5,81.6 179.5,89.5 185.4,89.5 185.4,93.3 179.5,93.3 179.5,105.4 175.3,105.4 175.3,77.8 
		186.9,77.8 186.9,81.6 	"/>
	<rect x="189.6" y="77.8" class="st2" width="4.2" height="27.7"/>
	<polygon class="st2" points="209.5,101.5 209.5,105.4 198.3,105.4 198.3,77.8 202.5,77.8 202.5,101.5 	"/>
	<path class="st2" d="M223.4,83.6v0.7l-4,0.4v-1c0-1.6-0.8-2.4-2.1-2.4c-1.4,0-2.1,0.8-2.1,2.4V84c0,1.6,0.7,3,3.5,5.4
		c3.8,3.2,5.3,5.5,5.3,8.9v1.4c0,4-2.3,6.2-6.5,6.2c-4.1,0-6.5-2.3-6.5-6.2v-1.9l4-0.4v2c0,1.7,0.8,2.6,2.4,2.6
		c1.6,0,2.4-0.9,2.4-2.6v-0.9c0-1.7-0.8-3.1-3.6-5.5c-3.8-3.2-5.1-5.5-5.1-8.8v-0.6c0-4,2.3-6.2,6.2-6.2
		C221.2,77.4,223.4,79.6,223.4,83.6"/>
	<path class="st2" d="M244.3,83.6v0.7l-4,0.4v-1c0-1.6-0.8-2.4-2.1-2.4c-1.4,0-2.1,0.8-2.1,2.4V84c0,1.6,0.7,3,3.5,5.4
		c3.8,3.2,5.3,5.5,5.3,8.9v1.4c0,4-2.3,6.2-6.5,6.2c-4.1,0-6.5-2.3-6.5-6.2v-1.9l4-0.4v2c0,1.7,0.8,2.6,2.4,2.6
		c1.6,0,2.4-0.9,2.4-2.6v-0.9c0-1.7-0.8-3.1-3.6-5.5c-3.8-3.2-5.1-5.5-5.1-8.8v-0.6c0-4,2.3-6.2,6.2-6.2
		C242,77.4,244.3,79.6,244.3,83.6"/>
	<path class="st2" d="M256.4,105.4l-0.9-6.3h-4.6l-0.9,6.3h-4.2l4.8-27.7h5.3l4.8,27.7H256.4z M251.5,95.3h3.5l-1.7-11.7h-0.1
		L251.5,95.3z"/>
	<path class="st2" d="M298.2,93.7h-1.9v11.7h-4.2V77.7h6.1c4.5,0,7,2.5,7,7v2c0,2.9-1,5-3,6.1l3.8,12.6h-4.4L298.2,93.7z
		 M296.3,89.8h1.7c2,0,2.9-1.1,2.9-3.4V85c0-2.3-0.9-3.4-2.9-3.4h-1.7V89.8z"/>
	<polygon class="st2" points="313.3,81.6 313.3,89.4 319.4,89.4 319.4,93.3 313.3,93.3 313.3,101.5 320.9,101.5 320.9,105.4 
		309,105.4 309,77.7 320.9,77.7 320.9,81.6 	"/>
	<polygon class="st2" points="327.6,105.4 322.9,77.7 327.2,77.7 330.3,98.8 330.4,98.8 333.5,77.7 337.7,77.7 333,105.4 	"/>
	<polygon class="st2" points="344.9,81.6 344.9,89.4 351.1,89.4 351.1,93.3 344.9,93.3 344.9,101.5 352.5,101.5 352.5,105.4 
		340.7,105.4 340.7,77.7 352.5,77.7 352.5,81.6 	"/>
	<polygon class="st2" points="362.9,81.6 362.9,105.4 358.7,105.4 358.7,81.6 354.2,81.6 354.2,77.7 367.4,77.7 367.4,81.6 	"/>
	<polygon class="st2" points="374.2,81.6 374.2,89.4 380.4,89.4 380.4,93.3 374.2,93.3 374.2,101.5 381.8,101.5 381.8,105.4 
		370,105.4 370,77.7 381.8,77.7 381.8,81.6 	"/>
	<polygon class="st2" points="399,105.4 399,86.2 398.9,86.2 395.4,101.5 392.9,101.5 389.5,86.2 389.4,86.2 389.4,105.4 
		385.4,105.4 385.4,77.7 390.9,77.7 394.2,92.6 394.3,92.6 397.5,77.7 403.2,77.7 403.2,105.4 	"/>
	<polygon class="st2" points="411.9,81.6 411.9,89.4 418.1,89.4 418.1,93.3 411.9,93.3 411.9,101.5 419.5,101.5 419.5,105.4 
		407.7,105.4 407.7,77.7 419.5,77.7 419.5,81.6 	"/>
	<polygon class="st2" points="432.6,105.4 427.1,87 427.1,87 427.1,105.4 423.1,105.4 423.1,77.7 427.8,77.7 432.7,94.2 432.8,94.2 
		432.8,77.7 436.8,77.7 436.8,105.4 	"/>
	<polygon class="st2" points="448.1,81.6 448.1,105.4 443.9,105.4 443.9,81.6 439.4,81.6 439.4,77.7 452.6,77.7 452.6,81.6 	"/>
	<path class="st2" d="M466.4,83.5v0.7l-4,0.4v-1c0-1.6-0.8-2.4-2.1-2.4c-1.4,0-2.1,0.8-2.1,2.4v0.4c0,1.6,0.7,3,3.5,5.4
		c3.8,3.2,5.3,5.5,5.3,8.9v1.4c0,4-2.3,6.2-6.5,6.2c-4.2,0-6.5-2.3-6.5-6.2v-1.9l4-0.4v2c0,1.7,0.8,2.6,2.4,2.6
		c1.6,0,2.4-0.9,2.4-2.6v-0.9c0-1.7-0.8-3.1-3.6-5.5c-3.8-3.3-5.2-5.5-5.2-8.8v-0.6c0-4,2.3-6.2,6.3-6.2
		C464.1,77.3,466.4,79.5,466.4,83.5"/>
	<path class="st2" d="M482.5,77.7c4.5,0,7,2.5,7,7v13.7c0,4.6-2.5,7-7,7h-6V77.7H482.5z M480.7,101.5h1.7c2,0,2.9-1.1,2.9-3.4V85
		c0-2.3-0.9-3.4-2.9-3.4h-1.7V101.5z"/>
	<polygon class="st2" points="497.8,81.6 497.8,89.4 503.9,89.4 503.9,93.3 497.8,93.3 497.8,101.5 505.4,101.5 505.4,105.4 
		493.6,105.4 493.6,77.7 505.4,77.7 505.4,81.6 	"/>
	<path class="st2" d="M527.3,83.5v0.7l-4,0.4v-1c0-1.6-0.8-2.4-2.1-2.4c-1.4,0-2.1,0.8-2.1,2.4v0.4c0,1.6,0.7,3,3.5,5.4
		c3.8,3.2,5.3,5.5,5.3,8.9v1.4c0,4-2.3,6.2-6.5,6.2c-4.2,0-6.5-2.3-6.5-6.2v-1.9l4-0.4v2c0,1.7,0.8,2.6,2.4,2.6
		c1.6,0,2.4-0.9,2.4-2.6v-0.9c0-1.7-0.8-3.1-3.6-5.5c-3.8-3.3-5.2-5.5-5.2-8.8v-0.6c0-4,2.3-6.2,6.3-6.2
		C525,77.3,527.3,79.5,527.3,83.5"/>
	<path class="st2" d="M543.6,84.3v14.5c0,4.4-2.6,7-6.8,7c-4.2,0-6.8-2.7-6.8-7V84.3c0-4.4,2.6-7,6.8-7
		C541,77.3,543.6,79.9,543.6,84.3 M534.2,84.3v14.4c0,2.1,0.9,3.2,2.6,3.2c1.7,0,2.6-1.1,2.6-3.2V84.3c0-2.1-0.9-3.2-2.6-3.2
		C535.1,81.2,534.2,82.3,534.2,84.3"/>
	<polygon class="st2" points="558.8,101.5 558.8,105.4 547.6,105.4 547.6,77.7 551.8,77.7 551.8,101.5 	"/>
	<path class="st2" d="M572.8,83.5v0.7l-4,0.4v-1c0-1.6-0.8-2.4-2.1-2.4s-2.1,0.8-2.1,2.4v0.4c0,1.6,0.7,3,3.5,5.4
		c3.8,3.2,5.3,5.5,5.3,8.9v1.4c0,4-2.3,6.2-6.5,6.2c-4.2,0-6.5-2.3-6.5-6.2v-1.9l4-0.4v2c0,1.7,0.8,2.6,2.4,2.6
		c1.6,0,2.4-0.9,2.4-2.6v-0.9c0-1.7-0.8-3.1-3.6-5.5c-3.8-3.3-5.2-5.5-5.2-8.8v-0.6c0-4,2.3-6.2,6.3-6.2
		C570.5,77.3,572.8,79.5,572.8,83.5"/>
	<rect x="274.8" y="77.7" class="st2" width="2.5" height="27.7"/>
</g>
<g>
	<path class="st3" d="M72,99c0-0.2,0-0.4,0-0.7c0-0.9,0-1.7-0.1-2.6c0-0.2,0-0.5,0-0.7v-1c0-0.2,0-0.3,0-0.5c0.1-0.6,0.1-1,0-1.6
		c0-0.2,0-0.4,0-0.6c0-0.2,0-0.4,0-0.6c0-0.3,0-0.5,0-0.8c0-0.1,0-0.2,0-0.4c-0.1-0.6,0-1,0-1.6c0-0.2,0-0.3,0-0.5
		c0-0.8,0-1.5,0.1-2.3c0-0.2,0-0.4,0-0.6c0-1,0-2.1,0-3.1c0-0.2,0-0.4,0-0.6c0.1-2-0.1-4,0.4-6c0.1-0.1,0.1-0.2,0.2-0.3c0,0,0,0,0,0
		c0.1-0.2,0.2-0.4,0.3-0.6c0.1-0.2,0.1-0.3,0.2-0.5c0.1-0.2,0.1-0.3,0.1-0.5c0-0.2,0.1-0.3,0.1-0.5c0,0,0,0,0,0c0,0,0-0.1,0-0.1
		c0,0.2-0.1,0.4-0.2,0.6c-0.1,0.2-0.1,0.4-0.2,0.5c-0.1,0.2-0.2,0.3-0.3,0.5c-0.1,0.1-0.2,0.3-0.3,0.4c0,0,0,0,0,0
		c-1,2.1-0.6,4.6-0.8,6.8c0,0.2,0,0.4,0,0.6c0,0.8,0,1.6-0.1,2.4c0,0.2,0,0.4,0,0.7c0,0.4-0.1,0.7-0.1,1c0,0.2,0,0.3,0,0.5
		c-0.3,1.8-0.8,3.1,0.1,4.5c0.1,0.2,0.1,0.4,0.2,0.5c0,0.1,0,0.3,0,0.4c0,0.5-0.1,1-0.1,1.5c0,0.2,0,0.3,0,0.5c0,0.3,0,0.7,0,1
		c0,0.2,0,0.5,0,0.7c0,0.4,0.1,0.9,0.1,1.3c0,0.2,0,0.4,0,0.6c0,2.5-0.2,5.1-0.2,7.7h0.3C71.7,103.3,72,101.1,72,99z"/>
	<path class="st3" d="M72.5,101.8c0-0.2,0-0.4,0-0.6c0-0.2,0-0.4,0-0.6c-0.1-1.2,0.4-2.4,0.2-3.6c-0.2-1.3-0.2-2.7-0.3-4.2
		c-0.1-1.2,0.2-2.5,0.2-3.7c0-2.7-0.1-5.3-0.1-7.9c0-0.2,0-0.4,0-0.7c0-1.8-0.1-3.6,0.1-5.5c0-0.1,0-0.3,0-0.5
		c0.2-0.4,0.4-0.8,0.5-1.3c0-0.1,0.1-0.3,0.1-0.4c0-0.1,0-0.2,0-0.4c0,0,0,0,0,0c0,0.2,0,0.3-0.1,0.5c0,0.2-0.1,0.3-0.1,0.5
		c-0.1,0.3-0.2,0.6-0.4,0.9c0,0.1-0.1,0.1-0.1,0.2c-0.6,2-0.3,4.1-0.4,6.3c0,0.2,0,0.4,0,0.6c0,1,0,2.1,0,3.1c0,0.2,0,0.4,0,0.6
		c-0.1,2.2-0.1,4.1,0.2,6.2c0.1,0.7-0.2,1.3-0.1,2c0,0.2,0,0.3,0,0.5c0,0.3,0,0.7,0,1v0.7c0,0.8,0.1,1.7,0.1,2.5c0,0.2,0,0.4,0,0.6
		s0,0.4,0,0.6c-0.1,2-0.3,4-0.2,6h0.6C72.5,104.2,72.4,103,72.5,101.8z"/>
	<path class="st3" d="M71.2,73.7C71.2,73.7,71.2,73.7,71.2,73.7c-0.1,0-0.3-0.1-0.4-0.1c0,0,0,0,0,0c0,0,0,0,0,0
		c-0.2-0.1-0.4-0.3-0.5-0.6c-0.1-0.1-0.1-0.2-0.2-0.3c-0.1-0.2-0.1-0.4-0.2-0.5c0-0.2,0-0.4,0-0.5c0-0.4,0-0.6,0.2-0.9
		c-0.2,0.3-0.4,0.6-0.3,1.1c0,0.2,0,0.3,0.1,0.5c0,0,0,0,0,0c0.1,0.1,0.1,0.3,0.2,0.4C70.2,73.4,70.7,73.7,71.2,73.7z"/>
	<path class="st3" d="M75.3,104.3v-3.7C75.1,101.8,75.2,103.1,75.3,104.3z"/>
	<path class="st3" d="M74.8,4c0,1.9-0.2,3.8-0.4,5.7c0,0.2,0,0.3,0,0.5c0,0.5,0,1,0.1,1.5c0.2,1.7-0.1,3.4,0.3,4.9
		c0.1,0.6,0.1,1.1,0,1.6c0,0.2-0.1,0.4-0.2,0.6c-0.8,1.2-0.6,2.7-0.2,4.1c0,0.1,0,0.3,0,0.5c0,0.1,0,0.3,0,0.4c0,0.2,0,0.4,0,0.6
		c0,1.5-0.3,3.1-0.3,4.6c0.1,0.8,0.3,1.6,0.4,2.4c0,0.1,0,0.3,0,0.5c0,0.2,0,0.3,0,0.5c-0.1,1-0.2,2.1-0.2,3.1c0,0.2,0,0.4,0,0.6
		c0.1,1,0.2,2,0.1,2.9c-0.1,2.4,0,4.8,0,7.1c0,0.2,0,0.5,0,0.7c0.5,1.6,0.2,3.3-0.1,4.9c0,0.2,0,0.4,0,0.6c-0.1,2.5-0.2,5.1-0.1,7.6
		c0,0.2,0,0.4,0,0.5c-0.2,1.3,0.3,2.6,0,3.9c0,0.1,0,0.3,0,0.4c0,0.5,0,1,0,1.4c0,0.2,0,0.4,0,0.5c0,0.4,0,0.7,0,1.1
		c0,0.2,0,0.4,0,0.6c0.3,4.8,0.1,9.7,0.1,14.6c0,0.2,0,0.4,0,0.6c0,2.4,0.1,4.7,0.2,7.1c0.1,0.9-0.3,1.7-0.2,2.6
		c0.1,2.2,0.2,4.2,0.1,6.3c0,0.2,0,0.4,0,0.6c-0.1,1.7-0.2,3.5-0.1,5.2c0,0.1,0,0.1,0,0.2h0.5c-0.1-1.8-0.5-3.8,0.1-5.5
		c0-0.1,0.1-0.3,0.1-0.4v-3.7c-0.1-1.6-0.1-3.2,0-4.9c0-1.3-0.1-2.7-0.1-4c0-0.2,0-0.4,0-0.6c0-0.7,0-1.3,0-1.9c0-0.2,0-0.4,0-0.7
		c0-0.2,0-0.3,0-0.5c0.1-1.7,0-3.3,0-5c-0.1-0.9,0.1-1.8,0.2-2.7c0-1.2-0.1-2.5-0.1-3.8c0.1-1.3-0.2-2.7-0.1-4.1c0-0.2,0-0.4,0-0.6
		c0-0.2,0-0.4,0-0.6c0-0.6,0-1.1,0-1.6c0-0.2,0-0.3,0-0.5c0-1.4,0-2.7,0-4.1c0-0.2,0-0.4,0-0.7c0-0.9,0-1.7,0-2.6c0-0.2,0-0.4,0-0.6
		c0-0.2,0-0.4,0-0.6c0-0.2,0-0.4,0-0.6c0-0.9,0-1.8,0.1-2.6c0-0.2,0-0.4,0-0.5c0-0.5,0.1-1,0.1-1.5v-3.3c0-0.4,0-0.8-0.1-1.2
		c0-0.2,0-0.3,0-0.5c0-0.2,0-0.3,0-0.5v-0.4v-0.9v-0.4c0-0.7,0-1.5,0-2.1c0-0.2,0-0.4,0-0.6c0-1,0.1-2.1,0-3.1c0-0.2,0-0.4,0-0.6
		c-0.1-0.5-0.2-1.1-0.2-1.6c0-0.2,0-0.4,0-0.5c0-0.2,0-0.5,0-0.7c0-0.2,0-0.5,0-0.7c0-0.1,0-0.2,0-0.4c0-0.1,0-0.2,0-0.4
		c0-0.2,0-0.4,0-0.5c0-0.2,0-0.4,0-0.5c0-0.2,0-0.3,0-0.5c-0.1-0.8-0.2-1.5-0.2-2.3c0-1.2,0.2-2.4,0.2-3.6c0-0.2,0-0.3,0-0.5
		c0-0.2,0-0.4,0-0.6c0-0.5-0.1-1.1-0.1-1.6c0-0.2,0-0.4,0-0.5c-0.1-0.7-0.1-1.4,0-2.1c0-0.2,0.1-0.4,0.1-0.6c0-0.2,0.1-0.4,0.1-0.7
		v-3.1c-0.1-1.2-0.1-2.4-0.1-3.7c-0.1-0.4-0.2-1-0.2-1.3c0-0.2,0-0.4,0-0.6c-0.2-2-0.1-3.8,0.3-5.5c0-0.2,0-0.5,0-0.7
		c0-0.5,0-1.1,0-1.6V1.2c0-0.4,0-0.8-0.1-1.2h-0.6c0.1,1.2,0.2,2.4,0.2,3.5C74.9,3.7,74.9,3.8,74.8,4z"/>
	<path class="st3" d="M75.3,9.1c0,0.2,0,0.5,0,0.7c0,0.1,0,0.3,0,0.4V4.8C75.1,6.3,74.8,7.6,75.3,9.1z"/>
	<path class="st3" d="M75.3,29.1v-1C75.3,28.4,75.3,28.8,75.3,29.1z"/>
	<path class="st3" d="M73.1,70.7C73.1,70.7,73.2,70.7,73.1,70.7C73.2,70.7,73.1,70.7,73.1,70.7z"/>
	<path class="st3" d="M74,4.2C74.4,6,74.4,7.3,73.8,9c0,0.2,0,0.4,0,0.7c-0.1,2.6-0.1,5.2,0.2,7.8c0,0.2,0,0.4,0,0.5
		c-0.4,1.8-0.3,3.6-0.3,5.5c0,0.2,0,0.4,0,0.5c0,0.3,0,0.7,0,1.1c0,0.2,0,0.4,0,0.6c0,0.8,0,1.7-0.1,2.5c-0.1,4.6,0.4,9.4,0.2,14.1
		c-0.1,3,0.2,6.1,0,9.1c0,0.6-0.2,1-0.2,1.6c0,2,0,4,0,5.9c0,0.2-0.1,0.4-0.1,0.6c0,0.3-0.2,0.5-0.2,0.7c0,1.7,1,2.9,0.4,4.5
		c0,0.2,0,0.4,0,0.7c0,1.1,0,2.2,0.1,3.2c0,1.8,0.1,3.6,0.1,5.4c-0.1,5.6,0.1,11.1,0,16.7c0,0.4-0.1,1-0.2,1.5
		c-0.2,2.1,0.5,4,0.3,6.1c0,0.4-0.1,0.8-0.1,1.2c0,0.2,0,0.4,0,0.6c0.1,1.7,0,3.4-0.1,5.1c0,0,0,0.1,0,0.1h0.7c0,0,0-0.1,0-0.1
		c-0.1-1.8,0-3.7,0.1-5.5c0-0.2,0-0.4,0-0.6c0-2.1-0.1-4.2-0.2-6.5c0-0.4,0.2-1.1,0.2-1.6c0-2.8,0-5.5,0-8.3c0-0.2,0-0.4,0-0.6
		c-0.1-4.6,0.2-9.3-0.2-13.8c0-0.2,0-0.3,0-0.5c0-0.3,0-0.6,0-0.9c0-0.8,0-1.6,0-2.3c0-0.1,0-0.3,0.1-0.4c0.1-1,0-2.1-0.2-3.1
		c-0.1-0.4,0.1-1,0.2-1.5c0-0.2,0-0.4,0-0.7c0-2.4,0.1-4.9,0.1-7.3c0-0.2,0-0.5,0-0.7c0.2-1.4,0.3-2.6,0-3.9c0-0.1,0-0.2,0-0.4
		c0-3.9,0-7.8-0.1-11.7c0-0.2,0-0.5,0-0.7c0-0.3,0-0.6,0-0.9c0-0.2,0-0.3,0-0.5c0-0.5,0.1-1,0-1.5c-0.1-1.2-0.4-2.4-0.3-3.6
		c0.1-1.1,0.2-2.1,0.2-3.1c0-0.2,0-0.3,0-0.5c0-0.2,0-0.3,0-0.5c0-0.2,0-0.3,0-0.5c-0.5-1.7-0.4-3.4,0.3-4.9c0-0.2,0.1-0.3,0.1-0.5
		c0-0.3,0-0.6,0-0.9c-0.2-0.7-0.4-1.5-0.3-2.1c0.1-1.8-0.3-3.5-0.2-5.2c0-0.1,0-0.2,0-0.3c0-0.1,0-0.3,0-0.4
		c0.4-1.9,0.3-3.6,0.2-5.6c0-0.2,0-0.4,0-0.6c0-0.9-0.1-1.9-0.1-2.8h-0.6C73.9,1.3,74,2.6,74,3.8C74,4,74,4.1,74,4.2z"/>
	<path class="st3" d="M72.7,70.2c-1-0.4-2.7,0.3-2.3,1.8c0,0.2,0.1,0.3,0.1,0.5c0.1,0.1,0.2,0.1,0.2,0.2c0.1,0,0.1,0.1,0.2,0.1
		c0.3,0.1,0.6,0.1,0.8-0.1c0,0,0,0,0.1-0.1c0,0,0,0,0,0c0.3-0.4,0.4-1.1,0.5-1.5c0.1,0.1,0.2,0.2,0.2,0.2c0,0,0,0,0,0
		c0,0,0,0.1,0,0.1c0.3,0.6-0.3,1.4-0.5,2c-0.1,0.1-0.2,0.3-0.3,0.4c-0.1,0.1-0.2,0.2-0.4,0.2c-0.7,0.1-1.2-0.5-1.3-1.1
		c-0.1-0.1-0.1-0.3-0.2-0.4c0-0.1-0.1-0.1-0.1-0.2c0-0.1-0.1-0.3-0.1-0.4c-0.1-0.9,0.5-1.4,1.1-1.8c-0.4,0.2-0.7,0.4-1,0.8
		c-0.1,0.1-0.1,0.2-0.2,0.4c-0.1,0.2-0.1,0.5,0,0.8c0,0.1,0,0.3,0.1,0.4c0.1,0.2,0.1,0.4,0.2,0.6c0,0.1,0.1,0.2,0.1,0.4
		c0.3,0.4,0.6,0.7,1.1,0.7c0.1,0,0.1,0,0.2,0c0.1,0,0.2-0.1,0.2-0.2c0.2-0.1,0.3-0.3,0.5-0.5c0.2-0.5,0.5-1,0.6-1.4
		c0-0.3,0-0.5-0.1-0.8c-0.3-0.2-0.7-0.3-1.1,0c-0.2,0.2-0.3,0.4-0.2,0.6c0,0,0,0,0,0c0.2-0.1,0.4-0.2,0.5-0.1c0.4,0.3,0,0.9-0.4,1
		c-0.3,0-0.5-0.1-0.7-0.3c-0.1,0-0.1-0.1-0.2-0.1c-0.2-0.2-0.2-0.4-0.2-0.6c0-0.4,0.2-0.9,0.5-1.1c0.1-0.1,0.2-0.1,0.3-0.1
		c0.5-0.3,1.1-0.4,1.5-0.1c0.1,0.1,0.2,0.1,0.3,0.2C72.9,70.4,72.8,70.3,72.7,70.2z"/>
	<path class="st3" d="M71.3,96.3c0-0.4,0-0.8-0.1-1.2v-0.7c0-0.2,0-0.3,0-0.5s0-0.3,0-0.5c0-0.1,0-0.3,0-0.4c0-0.1,0-0.3,0-0.4
		c0-0.2,0.1-0.4,0.1-0.6c0-0.2-0.1-0.4-0.1-0.6c-0.7-1.7-0.7-3.2-0.2-4.9c0-0.2,0-0.4,0-0.5c0-0.6,0.1-1.3,0.1-1.9
		c0-0.2,0-0.4,0-0.6c0-0.4,0-0.8,0-1.3c0-0.2,0-0.4,0-0.6c0.4-2.2-0.3-4.9,1-6.9c0,0,0-0.1,0.1-0.1c0.1-0.2,0.2-0.3,0.3-0.5
		c0.1-0.2,0.2-0.3,0.2-0.5c0.1-0.2,0.1-0.4,0.2-0.5c0.1-0.5,0.2-1.1,0.3-1.6c0-0.2-0.1-0.4-0.1-0.6c-0.1-0.2-0.2-0.4-0.4-0.5
		c-0.4-0.3-0.9-0.2-1.5,0.1c-0.2,0.1-0.5,0.3-0.6,0.6c-0.1,0.2-0.2,0.4-0.2,0.6c0,0.1,0,0.1,0,0.2c0.1,0.2,0.2,0.4,0.4,0.6
		c0.4,0.2,0.9,0.3,1.1-0.2c-0.2,0-0.4-0.2-0.5-0.3c0,0,0,0,0,0c0,0,0,0,0,0c-0.2-0.2-0.2-0.5,0-0.7c0.4-0.3,1.1-0.4,1.3,0
		c0,0,0,0,0,0.1c0.1,0.1,0.2,0.3,0.2,0.5c0,0.1-0.1,0.2-0.1,0.3c0,0.5-0.2,1-0.6,1.4c0,0,0,0,0,0c0,0,0,0,0,0.1
		c-0.1,0.2-0.2,0.4-0.3,0.5C71.7,74,71.5,74,71.4,74c-0.1,0.1-0.2,0.1-0.3,0.1c-0.6,0.2-0.8-0.3-1-0.8c-0.2-0.3-0.3-0.6-0.4-0.9
		c0-0.2-0.1-0.3-0.1-0.5c0-0.1,0-0.1,0-0.2c0,0.1,0,0.2,0,0.3c0.1,0.2,0.1,0.3,0.2,0.5c0.3,0.8,0.5,1.6,1.3,1.8c0.1,0,0.1,0,0.2,0
		c0,0,0,0,0,0c0.1,0,0.2,0,0.2-0.1c0.2-0.1,0.4-0.4,0.5-0.6c0.1-0.2,0.2-0.3,0.3-0.5c0-0.1,0.1-0.1,0.1-0.2c0.3-0.6,0.5-1.3,0.5-2
		c-0.1-0.4-0.3-0.7-0.9-0.8c0.6-0.2,1.1,0.1,1.2,0.7c0,0.2,0,0.4,0,0.6c0,0.1,0,0.2,0,0.2c0,0.3-0.1,0.5-0.1,0.7
		c0,0.2-0.1,0.4-0.1,0.6c-0.1,0.2-0.1,0.3-0.2,0.5c-0.1,0.2-0.2,0.3-0.3,0.4c-0.3,0.3-0.6,0.7-0.8,1c-0.3,0.4-0.5,0.7-0.5,1
		c-0.1,1.6-0.6,3.3-0.5,5c0,0.2,0,0.4,0,0.6c0.2,3.7-0.1,7.3-0.1,11c0,0.2,0,0.4,0,0.7c-0.3,1.3,0,2.5,0.3,3.9
		c0.1,0.6-0.1,1.1-0.1,1.7c0,0.2,0,0.3,0,0.5c0,1,0.1,1.9,0.1,2.9c0,1-0.1,2-0.1,3h0.6c0-2.8,0.2-5.6,0.2-8.4
		C71.3,96.7,71.3,96.5,71.3,96.3z"/>
	<path class="st3" d="M72.9,70.2c0.3,0.2,0.4,0.5,0.5,0.8c0-0.2-0.1-0.3-0.1-0.4C73.1,70.4,73,70.3,72.9,70.2z"/>
	<path class="st3" d="M70.6,70.5c-0.3,0.3-0.5,0.8-0.4,1.3c0,0.2,0.1,0.3,0.1,0.5c0,0,0,0.1,0,0.1c0.2,0.5,0.4,0.9,0.9,1
		c0.1,0,0.3,0,0.5,0c-0.1,0.1-0.2,0.2-0.3,0.3c0.1,0,0.2-0.1,0.3-0.1c0.4-0.6,1.1-1.3,0.8-2.2c0,0,0,0,0-0.1c-0.2,0.4-0.4,1-0.7,1.3
		c0,0,0,0,0,0c0,0,0,0-0.1,0.1c-0.2,0.2-0.5,0.3-0.8,0.1c-0.1,0-0.1-0.1-0.2-0.2c-0.1-0.1-0.2-0.1-0.2-0.2c-0.1-0.1-0.2-0.3-0.3-0.4
		c-0.5-1.4,1.2-2.3,2.2-2.1c-0.2,0-0.3-0.1-0.5-0.1c0,0,0,0-0.1,0c0,0-0.1,0-0.1,0c-0.1,0-0.2,0-0.3,0
		C71.2,70.2,70.9,70.3,70.6,70.5z"/>
	<path class="st3" d="M70.4,102.4c0-0.9,0-1.7,0-2.6c0-0.2,0-0.4,0-0.6c0.1-0.7,0.2-1.2,0.1-1.9c-0.2-1.3-0.5-2.6-0.2-3.9
		c0-0.2,0-0.4,0-0.7c0-2.8,0-5.6,0.1-8.4c0.1-0.9,0-1.8-0.1-2.7c0-0.2,0-0.4,0-0.6c-0.1-1.5,0.6-2.8,0.5-4.3c0-0.5,0.3-1,0.7-1.4
		c0.1-0.2,0.2-0.3,0.3-0.5c-0.3,0.3-0.6,0.4-1,0.3c0.1,0.1,0.1,0.1,0.2,0.2c-0.1,0-0.2-0.1-0.3-0.2c-0.4-0.1-0.8-0.4-1.1-0.8
		c0.6,2.1,0.3,4.3,0.1,6.5c0,0.2,0,0.4,0,0.6c0.1,1.9,0.1,3.8-0.1,5.8v3.2c0,1,0,2.1,0,3.1c0,0.1,0,0.3,0,0.4
		c-0.3,1.7,0.1,3.4,0.1,5c0,0.2,0,0.3,0,0.5c0,0.3,0,0.6,0,1c0,0.1,0,0.3,0,0.4c0,1.2,0,2.4-0.1,3.6c0,0.1,0,0.2,0,0.4v0.7h0.6V105
		C70.4,104.2,70.4,103.3,70.4,102.4z"/>
	<path class="st3" d="M72.2,74.2c0,0.2-0.1,0.3-0.2,0.4c0.1-0.2,0.3-0.3,0.4-0.5c0.1-0.2,0.2-0.3,0.3-0.5c0.1-0.2,0.1-0.3,0.2-0.5
		c0-0.1,0.1-0.2,0.1-0.3c0.1-0.2,0.1-0.5,0.1-0.7c0-0.1,0-0.2,0-0.2c0-0.4-0.1-0.9-0.4-1.2c0.1,0.2,0.1,0.4,0.1,0.7
		c0.1,0.6-0.2,1.4-0.5,2c-0.1,0.2-0.1,0.3-0.2,0.5c-0.1,0.2-0.2,0.4-0.4,0.6c-0.1,0.1-0.2,0.2-0.3,0.2c-0.1,0-0.2,0.1-0.2,0.1
		c0,0,0,0,0,0c0,0,0,0,0,0c0,0-0.1,0-0.1,0c0,0-0.1,0-0.1,0c-0.7-0.1-1.2-0.9-1.4-1.7c-0.1-0.2-0.1-0.4-0.1-0.5
		c-0.1-0.4,0-0.8,0.1-1.1c0.1-0.3,0.2-0.5,0.4-0.8c-0.1,0.1-0.2,0.3-0.3,0.5c0,0.1-0.1,0.1-0.1,0.2c0,0,0,0,0,0.1
		c-0.1,0.3-0.1,0.6-0.1,0.9c0,0.2,0,0.4,0.1,0.5c0,0.2,0.1,0.3,0.1,0.5c0,0,0,0,0,0c0.2,0.6,0.5,1.1,0.9,1.6
		c0.1,0.1,0.3,0.2,0.4,0.3C71.5,75.2,71.8,74.5,72.2,74.2z"/>
	<path class="st3" d="M70,72.3c0.1,0.2,0.1,0.4,0.2,0.6c0,0,0,0.1,0.1,0.1c0.2,0.2,0.4,0.4,0.5,0.6c0,0,0,0,0,0
		c-0.2-0.3-0.3-0.6-0.4-0.9c0-0.1-0.1-0.2-0.1-0.3c0,0,0-0.1,0-0.1c0,0,0,0,0,0c0,0,0,0,0-0.1c0-0.2-0.1-0.3-0.1-0.5
		c-0.1-0.5,0.1-0.9,0.4-1.2c-0.3,0.2-0.6,0.6-0.6,1.1c0,0.1,0,0.2,0,0.3C69.9,72,70,72.2,70,72.3z"/>
	<path class="st3" d="M64.3,51.2c0.1-4.5,0-9,0-13.5c0-0.3-0.1-0.9-0.1-1.2c-0.1-2.7-0.1-5.3-0.2-8v26.6c0-0.7,0-1.5,0-2.2
		C64.2,52.3,64.3,51.7,64.3,51.2z"/>
	<path class="st3" d="M64.3,24.8c0-0.2,0-0.4,0-0.5c0-0.2,0-0.4,0-0.5c0.1-1.9,0.1-3.9,0.3-5.8c0-0.2,0-0.5-0.1-0.7
		c-0.2-2.8-0.2-5.6-0.2-8.4c0-0.2,0-0.5,0.1-0.7c0.5-1.2,0.2-2.4,0-3.7c0-0.2,0-0.4,0-0.6c0-1.1,0-2.1,0-3.2c0-0.2,0-0.4,0-0.6h-0.2
		v27c0-0.5,0.2-1.1,0.2-1.7C64.3,25.1,64.3,25,64.3,24.8z"/>
	<path class="st3" d="M65.6,4c0,1.9-0.2,3.8-0.4,5.7c0,0.2,0,0.3,0,0.5c0,0.5,0,1,0.1,1.5c0.2,1.7-0.1,3.4,0.3,4.9
		c0.1,0.6,0.1,1.1,0,1.6c0,0.2-0.1,0.4-0.2,0.6c-0.8,1.2-0.6,2.7-0.2,4.1c0,0.1,0,0.3,0,0.5c0,0.1,0,0.3,0,0.4c0,0.2,0,0.4,0,0.6
		c0,1.5-0.3,3.1-0.3,4.6c0.1,0.8,0.3,1.6,0.4,2.4c0,0.1,0,0.3,0,0.5c0,0.2,0,0.3,0,0.5c-0.1,1-0.2,2.1-0.2,3.1c0,0.2,0,0.4,0,0.6
		c0.1,1,0.2,2,0.1,2.9c-0.1,2.4,0,4.8,0,7.1c0,0.2,0,0.5,0,0.7c0.5,1.6,0.2,3.3-0.1,4.9c0,0.2,0,0.4,0,0.6c-0.1,2.5-0.2,5.1-0.1,7.6
		c0,0.2,0,0.4,0,0.5c-0.2,1.3,0.3,2.6,0,3.9c0,0.1,0,0.3,0,0.4c0,0.5,0,1,0,1.4c0,0.2,0,0.4,0,0.5c0,0.4,0,0.7,0,1.1
		c0,0.2,0,0.4,0,0.6c0.3,4.8,0.1,9.7,0.1,14.6c0,0.2,0,0.4,0,0.6c0,2.4,0.1,4.7,0.2,7.1c0.1,0.9-0.3,1.7-0.2,2.6
		c0.1,2.2,0.2,4.2,0.1,6.3c0,0.2,0,0.4,0,0.6c-0.1,1.7-0.2,3.5-0.1,5.2c0,0.1,0,0.1,0,0.2h0.5c-0.1-1.8-0.5-3.8,0.1-5.5
		c0-0.2,0.1-0.3,0.1-0.5c0.1-0.8,0.2-1.6,0.1-2.3c-0.2-2.1-0.2-4-0.1-6.2c0-1.3-0.1-2.7-0.1-4c0-0.2,0-0.4,0-0.6c0-0.7,0-1.3,0-1.9
		c0-0.2,0-0.4,0-0.7c0-0.2,0-0.3,0-0.5c0.1-1.7,0-3.3,0-5c-0.1-0.9,0.1-1.8,0.2-2.7c0-1.2-0.1-2.5-0.1-3.8c0.1-1.3-0.2-2.7-0.1-4.1
		c0-0.2,0-0.4,0-0.6c0-0.2,0-0.4,0-0.6c0-0.6,0-1.1,0-1.6c0-0.2,0-0.3,0-0.5c0-1.4,0-2.7,0-4.1c0-0.2,0-0.4,0-0.7c0-0.9,0-1.7,0-2.6
		c0-0.2,0-0.4,0-0.6c0-0.2,0-0.4,0-0.6c0-0.2,0-0.4,0-0.6c0-0.9,0-1.8,0.1-2.6c0-0.2,0-0.4,0-0.5c0.1-2,0.2-4,0-6c0-0.2,0-0.3,0-0.5
		c0-0.2,0-0.3,0-0.5v-0.4v-0.9c0-0.1,0-0.3,0-0.4c0-0.7,0-1.5,0-2.1c0-0.2,0-0.4,0-0.6c0-1,0.1-2.1,0-3.1c0-0.2,0-0.4,0-0.6
		c-0.1-0.5-0.2-1.1-0.2-1.6c0-0.2,0-0.4,0-0.5c0-0.2,0-0.5,0-0.7c0-0.2,0-0.5,0-0.7c0-0.1,0-0.2,0-0.4c0-0.1,0-0.2,0-0.4
		c0-0.2,0-0.4,0-0.5c0-0.2,0-0.4,0-0.5c0-0.2,0-0.3,0-0.5c-0.1-0.8-0.2-1.5-0.2-2.3c0-1.2,0.2-2.4,0.2-3.6c0-0.2,0-0.3,0-0.5
		c0-0.2,0-0.4,0-0.6c0-0.5-0.1-1.1-0.1-1.6c0-0.2,0-0.4,0-0.5c-0.1-0.7-0.1-1.4,0-2.1c0-0.2,0.1-0.4,0.1-0.6c0.2-1,0.4-2,0.2-3
		c-0.3-1.5-0.2-2.9-0.2-4.5c-0.1-0.4-0.2-1-0.2-1.3c0-0.2,0-0.4,0-0.6c-0.2-2-0.1-3.8,0.3-5.5c0-0.2,0-0.5,0-0.7c0-1.1,0-2.3,0-3.4
		h-0.6c0.1,1.2,0.2,2.4,0.2,3.5C65.6,3.7,65.6,3.8,65.6,4z"/>
	<path class="st3" d="M64.4,64.9c0,0.2,0,0.4,0,0.7c0,1.1,0,2.2,0.1,3.2c0,1.8,0.1,3.6,0.1,5.4c-0.1,5.6,0.1,11.1,0,16.7
		c0,0.4-0.1,1-0.2,1.5c-0.2,2.1,0.5,4,0.3,6.1c0,0.4-0.1,0.8-0.1,1.2c0,0.2,0,0.4,0,0.6c0.1,1.7,0,3.4-0.1,5.1c0,0,0,0.1,0,0.1h0.7
		c0,0,0-0.1,0-0.1c-0.1-1.8,0-3.7,0.1-5.5c0-0.2,0-0.4,0-0.6c0-2.1-0.1-4.2-0.2-6.5c0-0.4,0.2-1.1,0.2-1.6c0-2.8,0-5.5-0.1-8.3
		c0-0.2,0-0.4,0-0.6c-0.1-4.6,0.2-9.3-0.2-13.8c0-0.2,0-0.3,0-0.5c0-0.3,0-0.6,0-0.9c0-0.8,0-1.6,0-2.3c0-0.1,0-0.3,0.1-0.4
		c0.1-1,0-2.1-0.2-3.1c-0.1-0.4,0.1-1,0.2-1.5c0-0.2,0-0.4,0-0.7c0-2.4,0.1-4.9,0.1-7.3c0-0.2,0-0.5,0-0.7c0.2-1.4,0.3-2.6,0-3.9
		c0-0.1,0-0.2,0-0.4c0-3.9,0-7.8-0.1-11.7c0-0.2,0-0.5,0-0.7c0-0.3,0-0.6,0-0.9c0-0.2,0-0.3,0-0.5c0-0.5,0.1-1,0-1.5
		c-0.1-1.2-0.4-2.4-0.3-3.6c0.1-1.1,0.2-2.1,0.2-3.1c0-0.2,0-0.3,0-0.5c0-0.2,0-0.3,0-0.5c0-0.2,0-0.3,0-0.5
		c-0.5-1.7-0.4-3.4,0.3-4.9c0-0.2,0.1-0.3,0.1-0.5c0-0.3,0-0.6,0-0.9c-0.2-0.7-0.4-1.5-0.3-2.1c0.1-1.8-0.3-3.5-0.2-5.2
		c0-0.1,0-0.2,0-0.3c0-0.1,0-0.3,0-0.4c0.4-1.9,0.3-3.6,0.2-5.6c0-0.2,0-0.4,0-0.6c0-0.9-0.1-1.9-0.1-2.8h-0.6
		c0.1,1.3,0.2,2.6,0.2,3.8c0,0.1,0,0.3,0,0.4C65.1,6,65.1,7.3,64.6,9c0,0.2,0,0.4,0,0.7c-0.1,2.6-0.1,5.2,0.2,7.8c0,0.2,0,0.4,0,0.5
		c-0.4,1.8-0.3,3.6-0.3,5.5c0,0.2,0,0.4,0,0.5c0,0.3,0,0.7,0,1.1c0,0.2,0,0.4,0,0.6c0,0.8,0,1.7-0.1,2.5c-0.1,4.6,0.4,9.4,0.2,14.1
		c-0.1,3,0.2,6.1,0,9.1c0,0.6-0.2,1-0.2,1.6c0,2,0,4,0,5.9c0,0.2-0.1,0.4-0.1,0.6c0,0.1-0.1,0.2-0.1,0.3v1.3
		C64.3,62.5,64.9,63.6,64.4,64.9z"/>
	<path class="st3" d="M64.3,105c0.1-1.4,0.3-3,0.1-4.4c0-0.2,0-0.4,0-0.7c0-0.8,0-1.7,0-2.5c0-2.1-0.2-4.4-0.2-6.6
		c0.2-5.8,0-11.6,0.1-17.4c0.1-2-0.2-3.9-0.1-5.9c0-0.7,0-1.3,0-2c0-0.2,0-0.4,0.1-0.7c0.5-1,0.2-2-0.2-2.9v43.4h0.2
		C64.3,105.3,64.3,105.1,64.3,105z"/>
	<path class="st3" d="M72.6,5.3c0,0.2,0,0.3,0,0.5v1.6c-0.1,1.6,0,3.2,0,4.9c0,0.2,0,0.4,0,0.6c0.1,1.9,0.1,3.8,0,5.6
		c0,0.2,0,0.4,0,0.7c0.4,1.1,0.4,2.3,0,3.4c0,0.2,0,0.4,0,0.6c0,0.4,0,0.8,0,1.2c0,0.2,0,0.4,0,0.6c0,0.8-0.1,1.6-0.1,2.4
		c-0.1,1,0.1,2.1,0.1,3.1c0,0.2,0,0.4,0,0.6c0,0.2,0,0.4,0,0.6v0.4c-0.1,2,0.1,4,0.1,6.1c0.1,4.2-0.1,8.2,0,12.3
		c0,0.6-0.1,1.2-0.2,1.9c-0.2,2,0.1,3.9,0.1,5.9c0,0.2,0,0.4,0,0.7c0,0.2,0,0.4,0,0.7c-0.3,1.4,0.2,2.7,0.3,4.1c0,0.2,0,0.3-0.1,0.5
		c-0.1,0.3-0.1,0.6-0.1,1c0.2,0.8,0.3,1.7,0.3,2.6c0,0.4,0,0.7-0.1,1c0,0,0,0,0,0c0,0.1,0,0.1-0.1,0.2c0,0.1-0.1,0.3-0.2,0.4
		c-0.2,0.3-0.5,0.4-0.9,0.6c0,0-0.1,0-0.1,0.1c0.1,0,0.2,0,0.3,0c0,0,0.1,0,0.1,0c0,0,0,0,0.1,0c0.3,0,0.5,0,0.8,0.1
		c0.2,0.1,0.4,0.3,0.5,0.5c0.3,0.6,0.3,1.5,0.1,2.2c0,0.1-0.1,0.3-0.1,0.4c0,0.1-0.1,0.3-0.1,0.4c-0.1,0.4-0.2,0.6-0.2,0.8
		c-0.1,0.2-0.1,0.3-0.1,0.5c-0.2,1.9,0.1,3.7-0.1,5.6c0,0.2,0,0.4,0,0.6c-0.1,2.7,0.2,5.2,0.1,8c-0.2,2.6-0.4,5.3,0.2,7.9
		c0.1,0.3,0.1,0.9,0,1.2c-0.5,2.3-0.3,4.8-0.3,7.2h0.9c0-0.1,0-0.3,0-0.4c0.1-1.4,0.3-3,0.1-4.4c0-0.2,0-0.4,0-0.7
		c0-0.8,0-1.7,0-2.5c0-2.1-0.2-4.4-0.2-6.6c0.2-5.8,0-11.6,0.1-17.4c0-0.3,0-0.7,0-1c0-0.3,0-0.7,0-1.2c0-0.3,0-0.4,0-0.8
		c0-1-0.1-2-0.1-3c0-0.7,0-1.3,0-2c0-0.2,0-0.4,0.1-0.7c0.6-1.2,0-2.4-0.4-3.4c-0.2-0.6,0.1-1.2,0.1-1.8c0.1-0.2,0.1-0.5,0.1-0.7
		c0-2-0.1-4,0-6c0.1-0.6,0.2-1.1,0.2-1.7c0.1-4.5,0-9,0-13.5c0-0.3-0.1-0.9-0.1-1.2c-0.1-3-0.1-6.1-0.2-9.1c0-0.7,0.2-1.4,0.2-2.1
		c0-0.1,0-0.3,0-0.4c0-0.2,0-0.4,0-0.5c0-0.2,0-0.4,0-0.5c0.1-1.9,0.1-3.9,0.3-5.8c0-0.2,0-0.5-0.1-0.7c-0.2-2.8-0.2-5.6-0.2-8.4
		c0-0.2,0-0.5,0.1-0.7c0.5-1.2,0.2-2.4,0-3.7c0-0.2,0-0.4,0-0.6c0-1.1,0-2.1,0-3.2c0-0.2,0-0.4,0-0.6h-0.8
		C72.8,1.8,72.6,3.5,72.6,5.3z"/>
	<path class="st3" d="M66.2,3.8c-0.2,2-0.7,3.5-0.2,5.3c0,0.2,0,0.5,0,0.7c0.1,2.9,0.6,6.2,0.2,9.1c0,0.2,0,0.4-0.1,0.6
		c-0.1,2.1,0,4.3-0.1,6.5c0,0.2,0,0.4,0,0.6c0,0.2,0,0.4,0,0.6c0,0.2,0,0.4,0,0.6c0,0.6,0,1.2,0,1.7c0,0.2,0,0.4,0,0.6
		c0,0.4,0,0.8,0,1.1c0,0.2,0,0.4,0,0.6c0,0.2,0,0.3,0,0.5c0,0.2,0,0.3,0,0.5c0,0.2,0,0.3,0,0.5c-0.1,0.7-0.2,1.4-0.1,2.1
		c0,0.2,0,0.3,0,0.5c0,0.2,0,0.3,0.1,0.5c0.3,0.6,0.1,1.3,0.2,2c0,0.2,0,0.3,0,0.5c0,0.9,0,1.9-0.1,2.8v2.9c0,0.2,0,0.5,0,0.7
		c0,0.2,0,0.4,0,0.6c0,0.2,0,0.4,0,0.6c0.2,1.8,0,3.7,0,5.5c0,0.1,0,0.3,0,0.4c0,0.4,0,0.8,0,1.1c0,0.2,0,0.3,0,0.5
		c0,0.2,0,0.3,0,0.5c0,1.1,0,2.2-0.1,3.2c0,0.2,0,0.3,0,0.5c0,0.2,0,0.4,0,0.5c0,0.2,0,0.4,0,0.5c0,2.2,0,4.3,0,6.5
		c0,0.2,0,0.4,0,0.5c0,0.9,0,1.8,0,2.7c0.1,3.5,0,7.1,0.1,10.5c0,1.2,0,2.4-0.1,3.6c0,0.1,0,0.3,0,0.4c0.2,1,0,2,0,3.1
		c0,0.2,0,0.4,0,0.7c0.1,2.6,0.1,4.9,0,7.5c-0.1,0.9,0.2,1.7,0.2,2.6c0,0.8-0.1,1.6-0.2,2.4c0,0.2-0.1,0.4-0.1,0.6
		c-0.4,1.6-0.1,3.4,0,5c0,0.1,0,0.1,0,0.2h1.1c-0.1-3.1,0.1-6.2,0-9.3v-2c-0.1-0.7,0-1.2,0.1-1.9c0.1-0.8-0.1-1.6-0.1-2.4
		c0-0.2,0-0.4,0-0.6c0-0.4,0-0.8,0-1.2c0-0.2,0-0.4,0-0.6c0.1-1.8,0.3-3.6,0-5.2c0-0.2,0-0.4,0-0.6c0-1.6-0.1-3.2,0.2-4.8
		c0-0.2,0-0.3,0.1-0.5c0-0.2,0-0.3,0.1-0.5c0.1-0.3,0.1-0.7,0.1-1c-0.2-1.4-0.3-2.8-0.4-4.2c0-0.2,0-0.4,0-0.6c0-1.2,0-2.4-0.1-3.5
		c0-0.4,0-0.9,0.1-1.3c0.1-3.4,0.1-6.9,0.1-10.3c0-0.3,0-0.8,0.1-1.2c0.1-0.8,0-1.5-0.1-2.2c0-0.2,0-0.3,0-0.5
		c-0.3-1.4,0-2.9,0.1-4.3c0-0.2,0-0.4,0-0.6c0-0.2,0-0.4,0-0.6c0-0.2,0-0.4,0-0.5c0-0.2,0-0.4,0-0.5c0-1.4-0.1-2.6-0.1-3.9
		c-0.1-0.4,0.1-1,0.1-1.5c0-1.8,0.2-3.5,0.2-5.3c0.1-0.9-0.3-1.8-0.3-2.6c0-0.6,0-1.2,0-1.8c0-0.2,0-0.4,0-0.6c0-2.8,0-5.5,0-8.3
		c0-0.2,0-0.4,0-0.6c0-1.4,0.1-2.8,0.2-4.1c0-0.2,0-0.3-0.1-0.5C67.2,14,67,12.6,67,11.2c0-0.4,0-0.7,0-1.1c-0.1-0.6,0-1.1,0-1.7
		c0-0.2,0-0.4,0-0.6c0-0.2,0-0.3,0-0.5c0-0.2,0-0.3,0-0.5c0.4-1.4,0.4-2.8,0.2-4.2c0-0.2,0-0.4,0-0.6c0-0.6,0-1.3,0-2H66
		c0.1,1,0.1,2.1,0.1,3.2C66.2,3.4,66.2,3.6,66.2,3.8z"/>
	<path class="st3" d="M64.1,57.3v1.9c0-0.1,0-0.2,0-0.4C64.1,58.4,64.1,57.9,64.1,57.3z"/>
	<path class="st3" d="M71.7,4.3c-0.2,2.2-0.1,4.5-0.1,6.7c0,0.2,0,0.4,0,0.6c0,0.4,0,0.7,0,1.1c0,0.2,0,0.4,0,0.6c0,0.4,0,0.8,0,1.2
		c0,0.2,0,0.4,0,0.6c0,1.9,0.1,3.7,0.1,5.6c0,0.2,0,0.4,0,0.6c0,1.2,0,2.4,0,3.5c0,4.6-0.1,9.3,0,13.9c0,1.7-0.2,3.4-0.1,5.2
		c0,0.2,0,0.4,0,0.6c0,0.2,0,0.4,0,0.6c-0.1,1.1-0.1,2.2,0,3.3c0,0.2,0,0.4,0,0.6c0,2.2,0,4.3,0,6.6c0,0.2,0,0.4,0,0.5
		c0,0.5,0,1.1,0,1.6c0,0.2,0,0.5,0,0.7c0,0.4,0,0.9,0,1.3c0,0.1,0,0.3,0,0.4c0,0.8,0,1.6,0,2.3c0,0.2,0,0.4,0,0.6c0,0.2,0,0.4,0,0.6
		c0,0.2,0.1,0.4,0.1,0.6c0.4,1.5,1.7,3.6,0.8,4.9c0,0,0,0,0.1,0c0.4-0.5,0.4-1.2,0.3-1.9c-0.1-0.6-0.3-1.2-0.5-1.7
		c-0.2-0.5-0.3-1-0.4-1.4c0-0.2,0-0.4,0-0.5c0-0.2,0-0.4,0-0.6c0-1.1,0-2.1,0-3.2c0-0.2,0-0.5,0-0.7c0-2.6,0-5.2,0-7.8
		c0-0.2,0-0.4,0-0.6c0-1.7,0-3.3,0-5c0-0.2,0-0.4,0-0.6c0-0.2,0-0.4,0-0.6c0-0.2,0-0.4,0-0.6c-0.1-1.7-0.1-3.3,0-4.8
		c0.1-2.9-0.2-5.7-0.1-8.7c0-0.2,0-0.4,0-0.6c0-0.2,0-0.4,0-0.6c0-0.2,0-0.4,0-0.6c0.2-2.1,0.2-4.4,0-6.5c0-0.2,0-0.4,0-0.6
		c0.2-3.2,0-6.4,0-9.5c0-0.2,0-0.4,0-0.6c0-0.2,0-0.3,0-0.5c-0.1-2.3,0-4.5,0.1-6.7c0.2-1.5,0-2.9-0.2-4.3h-0.4
		C71.7,1.5,71.8,2.9,71.7,4.3z"/>
	<path class="st3" d="M72.3,3.9c-0.1,2.5-0.3,4.9-0.2,7.5c0,0.2,0,0.4,0,0.6c0,3.1,0.2,6.4,0,9.6c0,0.2,0,0.4,0,0.6
		c0,0.1,0,0.3,0,0.4c0.2,2,0.1,4,0,6.1c0,0.2,0,0.4,0,0.6c0,0.2,0,0.4,0,0.6c0,0.2,0,0.4,0,0.6c0,2.8,0.1,5.6,0.1,8.3
		c0,1.7-0.2,3.4-0.1,5.2c0,0.2,0,0.4,0,0.6c0,0.2,0,0.4,0,0.6c0,0.2,0,0.4,0,0.6c0,1.7,0,3.3,0.1,5c0,0.2,0,0.4,0,0.6
		c0,2.6,0,5.2,0,7.8c0,0.2,0,0.5,0,0.7c0,1,0,2.1,0,3.2c0,0.2,0,0.4,0,0.6c0,0.2,0,0.4,0,0.6c0,0.4,0.1,0.9,0.3,1.4
		c0.2,0.6,0.4,1.2,0.5,1.7c0.2,0.8,0.2,1.5-0.3,1.9c0,0-0.1,0.1-0.1,0.1c0,0,0,0-0.1,0c0,0,0,0,0,0.1c0,0-0.1,0-0.1,0.1
		c-0.5,0.3-1.2,0.5-1.7,0.9c0.4-0.2,0.8-0.3,1.2-0.5c0.3-0.1,0.5-0.3,0.7-0.5c0.2-0.1,0.3-0.3,0.4-0.5c0-0.1,0-0.1,0.1-0.2
		c0,0,0,0,0,0c0.1-0.3,0.1-0.6,0.1-1c0-0.8-0.2-1.7-0.3-2.6c-0.1-0.3-0.1-0.6-0.2-0.8c0-0.2,0-0.4,0.1-0.5c0-0.1,0-0.3,0-0.4
		c-0.2-1.2-0.3-2.4-0.2-3.6c0-0.2,0-0.4,0-0.6c0-0.1,0-0.2,0-0.4c0-0.1,0-0.2,0-0.4c-0.2-2.5-0.1-5.1,0-7.6c0.2-4.3,0.2-8.6,0.1-13
		c-0.1-1.8-0.3-3.6-0.2-5.5v-0.6c0-0.1,0-0.3,0-0.4c0-0.2,0-0.4,0-0.6c0-0.8-0.1-1.7-0.1-2.4c0.1-1.1,0.1-2.3,0.1-3.4
		c0-0.2,0-0.4,0-0.6c0-0.5,0-1,0-1.5c0-0.2,0-0.4,0-0.5c0-0.9,0.1-1.7,0-2.5c0-0.2,0-0.4,0-0.6c0-0.2,0-0.4,0-0.7
		c0.1-1.9,0.1-4,0-5.9c0-0.2,0-0.4,0-0.6c0-1.5-0.1-3,0-4.5V5.3c0-0.2,0-0.3,0-0.5c0-1.6,0.1-3.2,0.1-4.8h-0.4
		C72.3,1.3,72.4,2.7,72.3,3.9z"/>
	<path class="st3" d="M70.2,1c0,0.3,0,0.5-0.1,0.9c0,1,0.7,1.7,0.6,2.7c0,2.7-0.3,5.4-0.2,8.1c0,0.2,0,0.3,0,0.5
		c-0.2,3.4-0.2,6.6-0.1,9.9c0,0.2,0,0.3,0,0.5c0,0.2,0,0.3,0,0.5c-0.2,2,0,3.8,0.3,5.7c0.2,0.9-0.2,1.8-0.3,2.7c0,0.2,0,0.4,0,0.6
		c0,1.2,0,2.4,0,3.6c0,0.2,0,0.4,0,0.6c0,0.5,0,1,0,1.5c0,0.2,0,0.3,0,0.5c-0.1,1.4,0.3,2.8,0.2,4.1c0,0.2,0,0.4-0.1,0.5
		c-0.3,1.2,0,2.5-0.1,3.9c0,0.2,0,0.4,0,0.6c0,0.3,0,0.6,0,0.8c0,0.1,0,0.3,0,0.4c-0.3,3.2,0.2,6.5,0.1,9.7c0,0.2,0,0.4,0,0.6
		c0,0.2,0,0.4,0,0.6c0,0.2,0,0.4,0,0.6c0.1,0.5,0.1,0.9,0.2,1.4c0,0.2,0,0.3,0,0.5c0,0.2,0,0.4,0.1,0.6c0,0.2,0,0.4,0.1,0.6
		c0,0.5,0.2,1,0.3,1.6c0.1,0.2,0.1,0.3,0.2,0.5c0.4,0.7,0.9,1.3,0.9,2c0.1,0.6,0.1,1-0.4,1.2c-0.1,0-0.2,0.1-0.4,0.1
		c-0.1,0-0.1,0.1-0.2,0.1c0.1,0,0.2,0,0.3-0.1c0.1,0,0.1-0.1,0.2-0.1c0.2-0.1,0.3-0.2,0.4-0.3c1.1-1.2-0.4-3.2-0.8-4.9
		c-0.1-0.2-0.1-0.4-0.1-0.6c0-0.2-0.1-0.4-0.1-0.6c0-0.2,0-0.4,0-0.5c0-0.9,0-1.8,0-2.7c0-0.2,0-0.3,0-0.5s0-0.3,0-0.5
		c0-0.4,0-0.6,0-1c0-0.2,0-0.3,0-0.5c0-0.2,0-0.3,0-0.5v-0.3c0-2.7,0.2-5.4,0-8.1c0-0.2,0-0.3,0-0.5c0-1-0.1-2,0-3
		c0-0.2,0-0.4,0-0.6c0-0.2,0-0.4,0-0.6c-0.1-1.7,0.1-3.2,0.1-4.9c0.1-2-0.2-4.2-0.2-6.3c0-2.3,0.1-4.7,0.1-7c0-0.2,0-0.4,0-0.6
		c0-0.4,0-0.9,0-1.3c0-0.2,0-0.4,0-0.6c0-1.1,0-2.1,0-3.2c0-0.1,0-0.3,0-0.4c0-0.4,0-0.9,0-1.4c0-0.7-0.1-1.3-0.1-2
		c0-0.2,0-0.3-0.1-0.5c-0.4-1,0-2.1,0.1-3.3c0-0.2,0-0.4,0-0.6c0-2.8,0.2-5.6,0.1-8.4c0-1.1,0-2.2-0.1-3.4h-1.1c0,0.2,0,0.3,0,0.5
		C70.3,0.7,70.3,0.9,70.2,1z"/>
	<path class="st3" d="M67.5,0.7c0,0.5,0,0.9,0,1.4c0,0.2,0,0.3,0,0.5C68,4.2,67.7,5.5,67.4,7c0,0.2,0,0.3,0,0.5c0,0.6,0,1.2,0.1,1.8
		c0,0.2,0,0.3,0,0.5c0,1.7,0,3.4,0.1,5c0,0.4,0,0.8,0,1.2c-0.1,1.2-0.2,2.4-0.2,3.5c0,0.2,0,0.4,0,0.6c-0.1,2.9,0.1,5.9,0.1,8.8
		c0,0.2,0,0.4,0,0.6c0,0.6,0,1.2,0,1.8c0,0.6,0.2,1.1,0.3,1.7c0.1,1.2-0.1,2.4-0.2,3.5c-0.2,3.4-0.1,6.7-0.1,10c0,0.2,0,0.4,0,0.7
		c-0.1,1.1-0.2,2.2,0,3.3c0,0.2,0,0.4,0,0.7c0,1.8,0,3.5-0.1,5.3c-0.1,1.9,0.1,3.8,0.1,5.7c0,0.8,0,1.8-0.1,2.7c0,0.2,0,0.4,0,0.6
		c0,2.1,0.2,4.1,0.1,6.1c0,0.2,0,0.4,0,0.6c0,0.2,0,0.4,0,0.5c0,0.6,0.2,1,0.2,1.6c0,0.2,0,0.4,0,0.5c0,0.2,0,0.4,0,0.6
		c0,0.6-0.1,1.2-0.2,1.7c0,0.2,0,0.4-0.1,0.6c-0.1,1.1-0.1,2.3-0.1,3.4c0,0.2,0,0.3,0,0.5c0,0.2,0,0.3,0,0.5c0.1,1.7-0.1,3.5,0,5.2
		c0,0.1,0,0.2,0,0.4c0,0.1,0,0.2,0,0.3c0,0.2,0,0.4,0,0.6c0,0.2,0,0.4,0,0.6c0,0.2,0,0.4,0,0.6c-0.1,3.5,0,7.1-0.1,10.6
		c0,1.6-0.1,3.2,0,4.8h0.8c0-2.6,0.1-5.2,0.2-7.8c0.1-1.6-0.2-3.3-0.2-4.9c0.1-0.6,0.1-1.1,0.1-1.7c0-0.2,0-0.4,0-0.7
		c0-0.8,0-1.6,0-2.4c0-0.2,0-0.4,0-0.6c-0.4-1.7-0.5-3.2-0.1-4.7c0-0.2,0-0.5,0-0.7c0-0.4,0-0.8,0-1.2c0-0.2,0-0.4,0-0.6
		c0-0.4-0.1-0.9-0.1-1.3c0-0.4,0-0.8,0-1.2c0-0.4,0-0.8,0.1-1.2c0-0.4,0-0.8,0-1.2c0-0.4,0-0.8,0-1.2c0-0.6,0-1.3-0.1-2
		c0-0.1,0-0.3,0-0.4c0.4-2,0.6-4,0-6c0-0.2,0-0.5,0-0.7c0.3-10.6-0.2-21.1,0.4-31.7c0-0.6-0.2-1.3-0.3-1.9c0-0.4,0-0.8,0-1.2
		c0-0.2,0-0.4,0-0.6c0-0.4,0-0.8,0-1.1c0-0.8,0-1.5,0-2.2c0-0.4,0-0.7,0-1.1c0-1.8-0.1-3.7,0-5.5c0-0.2,0-0.4,0-0.6
		c0-1,0.1-1.9,0.1-2.9c0-0.2,0-0.4,0-0.5c0-0.2,0-0.4,0-0.6c-0.3-1.8-0.3-3.7-0.2-5.6c0-0.2,0-0.4,0-0.6c0-0.2,0-0.4,0-0.6
		c0-0.2,0-0.5,0-0.6c0.1-1.8,0.1-3.6,0.1-5.4c0-0.2,0-0.4,0-0.6c0-0.2,0-0.3,0-0.5c0-0.2,0-0.3,0-0.5c0-0.2,0-0.4,0-0.6h-0.7
		c0,0,0,0.1,0,0.1C67.5,0.3,67.5,0.5,67.5,0.7z"/>
	<path class="st3" d="M69.6,1.3c-0.2,1.3,0.2,2.7,0.3,4c0,3.1,0.1,6.3-0.2,9.4c0,0.1,0,0.3,0,0.4v1.6c0,0.3,0,0.7,0,1
		c0,0.7-0.2,1.4-0.1,2c0,0.3,0,0.7,0,1c0,1,0.1,2.1,0.1,3.1c0,0.2,0,0.4,0,0.6c-0.2,2.7,0.5,5.1,0,7.7c0,0.1,0,0.3,0,0.4v0.6
		c0.1,1.9,0,3.8,0,5.7c0,0.2,0,0.4,0,0.6c0,0.8,0.1,1.6,0.1,2.4c0,0.2,0,0.4,0,0.6c-0.2,1.8,0.2,3.6,0,5.4c0,0.2,0,0.4-0.1,0.6
		c0,1,0,2-0.1,3c0,0.2,0,0.4,0,0.7c0,2.6,0,5.2,0.1,7.8c0.1,0.8-0.1,1.7-0.1,2.4c0,0.1,0,0.3,0,0.4c0,0.1,0,0.3,0,0.4
		c0,0.1,0,0.3,0,0.4c0,0.2,0.1,0.4,0.1,0.6c0.1,1.6,1.5,2.6,2,4.1c0.1,0.2,0,0.5-0.1,0.6c-0.5,0.2-1,0.5-1.4,0.9
		c0.3-0.2,0.5-0.2,0.8-0.3c0.1-0.1,0.2-0.1,0.4-0.2c0.2-0.2,0.4-0.3,0.6-0.5c0.2-0.3,0.2-0.5,0.2-0.8c-0.2-0.6-0.6-1.4-0.9-2
		c-0.3-0.5-0.6-1-0.8-1.6c-0.1-0.2-0.1-0.4-0.1-0.6c0-0.2,0-0.4,0-0.6c0-0.1,0-0.3,0-0.4c0-0.4,0-0.8-0.1-1.2c0-0.2,0-0.4,0-0.7
		c0-0.9,0-1.8-0.1-2.7c0-0.2,0-0.4,0-0.5c0-0.3,0-0.7,0-1.1c0-0.2,0-0.4,0-0.5c0-0.9,0-1.8,0-2.7c0-0.2,0-0.4,0-0.5
		c0-1.2,0-2.3,0.1-3.4c0-0.1,0-0.3,0-0.4c0-0.3,0-0.5,0-0.8c0-0.2,0-0.4,0-0.6c0.1-1.6-0.2-3.4,0.2-4.9c0-0.2,0-0.4,0-0.6
		c0-1.1-0.2-2.3-0.3-3.4c0-0.2,0-0.4,0-0.6c0-0.2,0-0.4,0-0.6c0-1.6,0.1-3.2,0.1-4.8c0-0.2,0-0.4,0-0.6c0.1-0.9,0.3-1.7,0.3-2.4
		c-0.1-2.1-0.6-4-0.3-6.3c0-0.2,0-0.4,0-0.6c-0.1-2.3-0.1-4.7,0-7c0-0.1,0-0.3,0-0.4c0-0.1,0-0.3,0-0.4c0.1-0.5,0.1-1,0.1-1.5
		c0-0.2,0-0.3,0-0.5c0-2.8,0.3-5.7,0.1-8.5c-0.1-1.3-0.7-2.7-0.5-4.3c0-0.2,0-0.4,0-0.6h-0.5c0,0.3,0.1,0.6,0.1,0.9
		C69.6,1,69.7,1.1,69.6,1.3z"/>
	<path class="st3" d="M68.5,2c0,1.1-0.3,2.1-0.3,3.1c0.1,0.9,0.5,1.8,0.2,2.7c0,0.1,0,0.3,0,0.5c0,0.2,0,0.4,0,0.6
		c0,2.1-0.1,4.2,0.1,6.3c0,0.2,0,0.4,0,0.6c0,0.2,0,0.4,0,0.6c0,0.2,0,0.4,0,0.5c0,0.8,0,1.5,0,2.3c0,0.2,0,0.4,0,0.6
		c0,0.3-0.1,0.6-0.1,1c0,0.3,0,0.6,0,1c0,0.3,0,0.6,0,1c0,1,0.1,1.9,0.1,2.9c0,0.2,0,0.4,0,0.6c0.1,0.9,0,2-0.1,2.8
		c0,0.2,0,0.4-0.1,0.6c0,0.2-0.1,0.4-0.1,0.6c0,0.2,0,0.4,0,0.6c0,1.2,0.6,2.2,0.5,3.6c0,0.2,0,0.4,0,0.6c0,0.2,0,0.4,0,0.6
		c-0.3,3.1-0.4,6.2-0.3,9.3c0,0.2,0,0.3,0,0.5c0,0.2,0,0.3,0,0.5c0,0.2,0,0.3,0,0.5c0,6-0.1,12.1-0.1,18.1c0,0.2,0,0.4,0,0.7
		C68.4,66,69.1,67,69.2,68c0.2,1.5-0.9,2.9-0.7,4.4c0,0.1,0,0.3,0,0.4c0,0.1,0,0.3,0,0.4c0,0.2,0,0.4,0,0.6c0,1.5-0.2,2.9-0.1,4.4
		c0,0.2,0,0.3,0,0.5c0,0.5,0.1,1,0.1,1.5c0,0.2,0,0.4,0,0.7c0,0.4,0,0.8,0,1.2c0,0.2,0,0.4,0,0.6c-0.3,1.5-0.3,2.6,0,4.1
		c0,0.2,0,0.4,0,0.6c0,1,0,1.9,0,2.9c0,0.2,0,0.5,0,0.7c0,0.6-0.1,1.4-0.1,2.1c-0.1,1.1,0.1,2.2,0.1,3.4c0,3-0.2,6-0.1,9h0.2
		c0-3.1,0.2-6.1,0.2-9.2c-0.1-0.9-0.1-1.9-0.1-2.8c0.1-0.8,0.1-1.6,0.1-2.4c0-0.2,0-0.3,0-0.5c0-1.2,0-2.4-0.1-3.5
		c0-0.2,0-0.3,0-0.5c-0.2-1.1-0.4-2.2-0.1-3.4c0-0.2,0-0.4,0-0.6c0-0.6,0-1.1,0-1.7c0-0.2,0-0.4,0-0.6c0-0.4-0.1-0.8-0.1-1.2
		c0-0.2,0-0.4,0-0.6c-0.1-1.5,0.1-2.9,0.2-4.4c0-0.2,0-0.4,0-0.6c0-0.2,0-0.3,0-0.5c0-0.2,0-0.3,0-0.5c-0.1-1.5,1-2.7,0.9-4.1
		c-0.1-1.1-1-2.1-1-3.3c0-0.2,0-0.4,0-0.6c0-0.2,0-0.4,0-0.6c0-1.4,0-2.8,0.1-4.2c0-0.2,0-0.3,0-0.5c0-0.3,0-0.6,0-1
		c0-0.2,0-0.3,0-0.5c0-0.9,0-1.7,0-2.6c0-0.2,0-0.4,0-0.6c0-0.2,0-0.4,0-0.7c0-2.7,0-5.3,0-8c0-0.2,0-0.3,0-0.5c0-0.2,0-0.3,0-0.5
		c0-0.2,0-0.3,0-0.5c0-1.4,0-3,0-4.4c0-0.2,0-0.4,0-0.5c0-0.2,0-0.4,0-0.5c0-1.1,0-2.1,0.1-3.2c0-0.2,0-0.3,0.1-0.5
		c0-0.2,0.1-0.4,0.1-0.5c0-0.2,0-0.4,0-0.5c0-0.2,0-0.3,0-0.5c0-0.7-0.4-1.5-0.4-2.3c0-0.2,0-0.4,0-0.6c0-0.2,0-0.4,0-0.6
		c0-0.2,0.1-0.4,0.1-0.6c0-1.2,0.2-2.2,0-3.4c0-0.2,0-0.4-0.1-0.6c-0.1-0.8-0.1-1.7-0.1-2.5c0-0.3,0-0.6,0-0.8
		c0-0.7,0.2-1.2,0.1-1.9c0-0.3,0-0.6,0.1-1c0-0.2,0-0.4,0-0.6c0-0.6,0-1.2,0-1.8c0-0.2,0-0.4,0-0.5c0-0.2,0-0.3,0-0.5
		c0-0.2,0-0.4,0-0.5c-0.1-2.1-0.2-4.2,0-6.4c0-0.2,0-0.4,0-0.5c0-0.1,0.1-0.3,0.1-0.4c0-0.1,0.1-0.3,0.1-0.4
		c-0.4-1.8-0.8-3.2-0.4-5.1c0-0.2,0-0.4,0-0.6c0-0.6,0.1-1.2,0.1-1.7h-0.1c0,0.5,0,0.9,0,1.4C68.5,1.6,68.5,1.8,68.5,2z"/>
	<path class="st3" d="M68.9,1.9c0,0.1,0,0.2,0,0.4c-0.6,1.8-0.5,3.3,0.4,4.8c0.1,0.2,0,0.4-0.1,0.5c-0.1,0.2-0.2,0.3-0.2,0.4
		c-0.1,0.1-0.1,0.3-0.1,0.5c-0.1,1.6-0.1,3.3,0,4.9c0,0.4,0,0.8,0.1,1.2c0.1,1.1,0.1,2.2,0.1,3.3c0,0.2,0,0.3,0,0.5
		c0.1,1.6-0.2,3-0.2,4.6c0,0.2,0,0.3,0,0.5c0,0.2,0,0.3,0,0.5c0.2,1.6,0.6,3.2,0.4,4.8c-0.2,1-0.3,2-0.3,3c0,0.1,0,0.2,0,0.3
		c0,0.2,0,0.4,0,0.7c0,0.2,0,0.4,0,0.7c0,0.2,0,0.4,0,0.7c0,0.7,0,1.5,0,2.2c0,0.2,0,0.4,0,0.6c0,0.2,0,0.4,0,0.6c0,0.2,0,0.4,0,0.6
		c0,0.6,0,1.1,0,1.7c0,0.2,0,0.5,0,0.7c0,1,0,2.1,0,3.1c0,0.2,0,0.4,0,0.6c0,0.8,0,1.5,0,2.3c0,0.2,0,0.4,0,0.6c0,0.3,0,0.8,0,1.1
		c0,0.2,0,0.3,0,0.4c0,0.6,0,1.2,0,1.8c0,0.2,0,0.4,0,0.7c0,0.6,0,1.3,0,2c0,0.3,0,0.7,0,1c0,0.3,0,0.7,0,1c0,0.2,0,0.4,0,0.6
		c0,0.7,0,1.4,0,2.2c0,0.1,0,0.3,0,0.4c0,0.2,0,0.4,0,0.6c0,0.4,0,0.8,0,1.1c0,1.2,0,2.3-0.1,3.5c0,0.2,0,0.4,0,0.6
		c0,0.2,0,0.4,0,0.6c-0.1,0.9,0.6,1.8,0.9,2.6c0.1,0.4,0.3,0.9,0.2,1.3c-0.4,1.2-1.1,2.4-1,3.7c0,0.1,0,0.3,0,0.4c0,0.1,0,0.3,0,0.4
		c0,0.2,0,0.4,0,0.6c0.1,1.8-0.2,3.6-0.1,5.4c0,0.3,0,0.5,0.1,0.7c0,0.2,0,0.4,0,0.6c0,0.8,0,1.6,0,2.4c0,0.2,0,0.4,0,0.6
		c0,0.8,0,1.6,0,2.4c0,0.2,0,0.4,0,0.6c0,1.6,0,3.2,0,4.8c0,0.2,0,0.4,0,0.7c0,4.1,0.1,8.3-0.1,12.5c0,0.3,0,0.7,0,1h0.8v-1.1
		c0-0.8,0.1-1.7,0.1-2.5c0-0.2,0-0.4,0-0.6c0-0.2,0-0.4,0-0.7c0-0.5,0-1,0-1.5c0-0.2,0-0.3,0-0.5c-0.1-1.5-0.2-2.8-0.1-4.3
		c0-0.2,0-0.4,0-0.5c0-1,0-2,0.1-2.9v-3.6c0-0.1,0-0.3,0-0.4c0.1-2,0.1-3.9,0.1-5.8c0-0.2,0-0.4,0-0.6c0.4-2.2,0-4.3,0.1-6.4
		c0.5,0.2,0.7,0.8,1.1,1.2c0,0,0.1,0,0.1,0c-0.1-0.1-0.3-0.3-0.4-0.4c-0.4-0.4-0.7-1-0.9-1.6c0,0,0,0,0,0c0,0,0,0,0,0
		c-0.1-0.2-0.1-0.5-0.2-0.7c0-0.2-0.1-0.4,0-0.6c0-0.3,0.1-0.5,0.1-0.7c0,0,0,0,0-0.1c0-0.1,0.1-0.1,0.1-0.2c0.3-0.7,1-1.3,1.5-2
		c0.9-1.2-1.1-2.5-1.4-3.9c0-0.2-0.1-0.4-0.1-0.6c0-0.4-0.1-0.7-0.1-1.1c0-0.2,0-0.4,0-0.6c0-0.2,0-0.4,0-0.6c0-1,0.2-1.9,0.1-2.9
		c-0.2-2.3-0.2-4.6-0.1-6.8c0-0.2,0-0.4,0-0.6c0-0.9,0-1.7,0.1-2.6c0-0.2,0-0.4,0-0.7c0.4-2-0.2-4,0.1-5.9c0-0.2,0-0.4,0-0.7
		c0-0.7,0-1.3-0.1-2v-0.6c0-1.8,0-3.6,0-5.4c0-0.2,0-0.3,0-0.5v-1c0-0.2,0-0.3,0-0.5c0-0.7,0.2-1.4,0.2-2c0-1.9-0.3-3.7-0.2-5.7
		c0-0.2,0-0.4,0-0.6c0-0.6-0.1-1.2-0.1-1.7c0-0.3,0-0.7,0-1c0-0.3,0-0.7,0-1c0.1-1,0.1-2.1,0.1-3.1v-0.8v-0.8c0-0.1,0-0.3,0-0.4
		c0.2-3.5,0.4-6.9,0.1-10.3c-0.1-1-0.2-2-0.2-3c0-0.2,0-0.4,0-0.6c0-0.3,0-0.5-0.1-0.8H69c0,0,0,0.1,0,0.1C69,0.7,68.9,1.3,68.9,1.9
		z"/>
	<path class="st3" d="M75.3,35.3c0,0.2,0,0.3,0,0.5c0,0.1,0,0.1,0,0.2v-2.6C75.3,34,75.2,34.6,75.3,35.3z"/>
	<path class="st3" d="M70.3,70.5C70.3,70.5,70.3,70.5,70.3,70.5C70.3,70.5,70.3,70.5,70.3,70.5z"/>
	<path class="st0" d="M72.9,67.3c-0.1-0.6-0.3-1.1-0.5-1.7C72.6,66.2,72.8,66.8,72.9,67.3z"/>
	<path class="st0" d="M71.8,72.6C71.8,72.6,71.8,72.6,71.8,72.6C71.8,72.6,71.8,72.6,71.8,72.6z"/>
	<path class="st0" d="M71.8,72.6C71.8,72.7,71.8,72.7,71.8,72.6C71.8,72.7,71.8,72.7,71.8,72.6z"/>
	<path class="st0" d="M71.9,69.5c-0.1,0-0.1,0.1-0.2,0.1c0,0,0,0,0,0C71.8,69.6,71.8,69.6,71.9,69.5z"/>
	<path class="st0" d="M69.7,71.9c0,0.1,0,0.3,0.1,0.4c0,0.1,0,0.1,0.1,0.2c0,0,0,0,0,0C69.8,72.2,69.8,72.1,69.7,71.9
		c0-0.5,0.1-0.8,0.3-1.1c0.1-0.1,0.2-0.2,0.2-0.3c0,0,0,0,0.1,0c0,0,0.1-0.1,0.2-0.1c0.5-0.3,1.2-0.5,1.7-0.9
		c-0.1,0.1-0.3,0.1-0.5,0.1c-0.3,0.1-0.6,0.3-0.9,0.4C70.2,70.5,69.6,71,69.7,71.9z"/>
	<path class="st0" d="M72.1,4.3c-0.2,2.1-0.2,4.4-0.1,6.7c0,0.2,0,0.3,0,0.5c0,0.2,0,0.4,0,0.6c0,3.1,0.2,6.4,0,9.5
		c0,0.2,0,0.4,0,0.6c0.2,2.1,0.2,4.3,0,6.5c0,0.2,0,0.4,0,0.6c0,0.2,0,0.4,0,0.6c0,0.2,0,0.4,0,0.6c-0.1,2.9,0.2,5.7,0.1,8.7
		c-0.1,1.6-0.1,3.1,0,4.8c0,0.2,0,0.4,0,0.6c0,0.2,0,0.4,0,0.6c0,0.2,0,0.4,0,0.6c0,1.7,0,3.3,0,5c0,0.2,0,0.4,0,0.6
		c0,2.6,0,5.2,0,7.8c0,0.2,0,0.5,0,0.7c0,1,0,2.1,0,3.2c0,0.2,0,0.4,0,0.6c0,0.2,0,0.4,0,0.5c0.1,0.5,0.2,0.9,0.4,1.4
		c-0.1-0.5-0.3-1-0.3-1.4c0-0.2,0-0.4,0-0.6c0-0.2,0-0.4,0-0.6c0-1.1,0-2.1,0-3.2c0-0.2,0-0.5,0-0.7c0-2.6,0-5.2,0-7.8
		c0-0.2,0-0.4,0-0.6c0-1.7,0-3.3-0.1-5c0-0.2,0-0.4,0-0.6c0-0.2,0-0.4,0-0.6c0-0.2,0-0.4,0-0.6c-0.1-1.8,0.1-3.5,0.1-5.2
		c0.1-2.7-0.1-5.5-0.1-8.3c0-0.2,0-0.4,0-0.6c0-0.2,0-0.4,0-0.6c0-0.2,0-0.4,0-0.6c0.1-2,0.2-4,0-6.1c0-0.1,0-0.3,0-0.4
		c0-0.2,0-0.4,0-0.6c0.1-3.2,0-6.4,0-9.6c0-0.2,0-0.4,0-0.6c-0.1-2.6,0.1-5,0.2-7.5c0.1-1.3,0-2.6-0.1-3.9H72
		C72.1,1.4,72.3,2.8,72.1,4.3z"/>
	<path class="st0" d="M72.9,67.3c0.1,0.7,0.1,1.4-0.3,1.9C73,68.8,73,68.1,72.9,67.3z"/>
	<path class="st0" d="M72.5,69.2C72.5,69.2,72.5,69.2,72.5,69.2c-0.1,0.1-0.1,0.1-0.2,0.2c0,0,0,0,0.1,0
		C72.5,69.3,72.5,69.2,72.5,69.2z"/>
	<path class="st0" d="M70.9,72.8c-0.1,0-0.1-0.1-0.2-0.1C70.8,72.7,70.9,72.8,70.9,72.8c0.4,0.2,0.6,0.1,0.8-0.1
		C71.5,72.9,71.3,72.9,70.9,72.8z"/>
	<path class="st0" d="M71.4,73.9c0.2-0.1,0.3-0.1,0.4-0.2c0.1-0.1,0.2-0.2,0.3-0.4c0.2-0.6,0.8-1.3,0.5-2c0.2,0.9-0.5,1.6-0.8,2.2
		c-0.1,0.1-0.2,0.1-0.3,0.1c0,0-0.1,0-0.1,0c0,0,0,0,0,0c0,0,0,0,0,0c-0.5,0-1-0.3-1.2-0.9c-0.1-0.1-0.1-0.3-0.2-0.4
		c0,0.2,0.1,0.3,0.2,0.4C70.2,73.4,70.6,74,71.4,73.9z"/>
	<path class="st0" d="M71.8,72.6c0.3-0.3,0.5-0.9,0.7-1.3c0-0.1-0.1-0.2-0.2-0.2C72.3,71.5,72.2,72.2,71.8,72.6z"/>
	<path class="st0" d="M72.5,71.3C72.5,71.3,72.6,71.3,72.5,71.3C72.6,71.3,72.6,71.3,72.5,71.3C72.5,71.3,72.5,71.3,72.5,71.3z"/>
	<path class="st0" d="M72.2,99.4c0-0.2,0-0.4,0-0.6s0-0.4,0-0.6c0-0.8-0.1-1.7-0.1-2.5V95c0-0.3,0-0.7,0-1c0-0.2,0-0.3,0-0.5
		c-0.1-0.7,0.2-1.3,0.1-2c-0.3-2.1-0.2-4-0.2-6.2c0-0.2,0-0.4,0-0.6c0-1,0-2.1,0-3.1c0-0.2,0-0.4,0-0.6c0.1-2.1-0.2-4.3,0.4-6.3
		c-0.1,0.1-0.1,0.2-0.2,0.3c-0.5,2.1-0.3,4-0.4,6c0,0.2,0,0.4,0,0.6c0,1,0,2.1,0,3.1c0,0.2,0,0.4,0,0.6c-0.1,0.8-0.1,1.6-0.1,2.3
		c0,0.2,0,0.3,0,0.5c0,0.6-0.1,1.1,0,1.6c0,0.1,0,0.2,0,0.4c0,0.2,0,0.5,0,0.8c0,0.2,0,0.4,0,0.6c0,0.2,0,0.4,0,0.6
		c0.1,0.6,0.1,1,0,1.6c0,0.2,0,0.3,0,0.5v1c0,0.2,0,0.5,0,0.7c0.1,0.9,0.1,1.7,0.1,2.6c0,0.2,0,0.4,0,0.7c-0.1,2.1-0.3,4.2-0.3,6.4
		h0.2C71.9,103.4,72.1,101.3,72.2,99.4z"/>
	<path class="st0" d="M73.2,70.8c0.1,0.2,0.1,0.4,0.1,0.6c0-0.1,0-0.2,0-0.3C73.3,71,73.2,70.9,73.2,70.8z"/>
	<path class="st0" d="M73,73.5c-0.1,0.2-0.1,0.3-0.2,0.5c-0.1,0.2-0.2,0.4-0.3,0.6c0,0,0,0,0,0c0-0.1,0.1-0.1,0.1-0.2
		C72.8,74.1,73,73.8,73,73.5c0.1-0.2,0.2-0.3,0.2-0.5c0-0.1,0-0.3,0.1-0.5c0,0.2-0.1,0.3-0.1,0.5C73.1,73.2,73,73.4,73,73.5z"/>
	<path class="st0" d="M72.9,70.2c-0.1-0.1-0.2-0.1-0.4-0.2c-1-0.3-2.7,0.7-2.2,2.1c0.1,0.1,0.1,0.3,0.3,0.4c0.1,0.1,0.1,0.1,0.2,0.2
		c-0.1-0.1-0.1-0.2-0.2-0.2c-0.1-0.1-0.1-0.3-0.1-0.5c-0.4-1.4,1.3-2.2,2.3-1.8c0.2,0.1,0.3,0.2,0.4,0.3c0,0,0.1,0.1,0.1,0.1
		c0,0,0,0,0,0c0.1,0.1,0.1,0.3,0.1,0.4c0,0.1,0,0.1,0,0.2c0-0.1,0-0.2,0-0.3C73.3,70.7,73.1,70.4,72.9,70.2
		C72.9,70.2,72.9,70.2,72.9,70.2z"/>
	<path class="st0" d="M73.3,72.6C73.3,72.6,73.3,72.6,73.3,72.6C73.3,72.6,73.3,72.6,73.3,72.6C73.2,72.6,73.3,72.6,73.3,72.6z"/>
	<path class="st0" d="M71.7,73.8c-0.1,0.1-0.2,0.1-0.2,0.2C71.5,74,71.7,74,71.7,73.8c0.3-0.1,0.4-0.2,0.4-0.4c0,0,0,0,0-0.1
		C72,73.5,71.9,73.7,71.7,73.8z"/>
	<path class="st0" d="M71.6,97.1c0-0.4,0-0.9-0.1-1.3c0-0.2,0-0.5,0-0.7c0-0.3,0-0.7,0-1c0-0.2,0-0.3,0-0.5c0-0.6,0.1-1,0.1-1.5
		c0-0.1,0-0.2,0-0.4c-0.1-0.2-0.1-0.4-0.2-0.5c-0.9-1.4-0.4-2.8-0.1-4.5c0-0.2,0-0.3,0-0.5c0-0.3,0-0.7,0.1-1c0-0.2,0-0.4,0-0.7
		c0-0.8,0-1.6,0.1-2.4c0-0.2,0-0.4,0-0.6c0.2-2.2-0.2-4.7,0.8-6.8c0,0,0,0,0,0c0,0,0,0.1-0.1,0.1c-1.3,2-0.6,4.7-1,6.9
		c0,0.2,0,0.4,0,0.6c0,0.4,0,0.8,0,1.3c0,0.2,0,0.4,0,0.6c-0.1,0.6-0.1,1.3-0.1,1.9c0,0.2,0,0.4,0,0.5c-0.5,1.8-0.5,3.2,0.2,4.9
		c0,0.2,0.1,0.4,0.1,0.6c0,0.2,0,0.4-0.1,0.6c0,0.1,0,0.3,0,0.4c0,0.1,0,0.3,0,0.4c0,0.2,0,0.3,0,0.5s0,0.3,0,0.5v0.7
		c0,0.4,0.1,0.8,0.1,1.2c0,0.2,0,0.4,0,0.6c0,2.8-0.2,5.6-0.2,8.4h0.3c0-2.5,0.2-5.1,0.2-7.7C71.6,97.5,71.6,97.3,71.6,97.1z"/>
	<path class="st0" d="M69.9,70.8c0.2-0.3,0.6-0.6,1-0.8c0.3-0.2,0.6-0.3,0.9-0.4c0,0,0,0,0,0c-0.1,0-0.2,0-0.3,0.1
		c-0.4,0.2-0.8,0.5-1.1,0.7C70.1,70.5,70,70.7,69.9,70.8z"/>
	<path class="st0" d="M72.8,71.9c0-0.1,0.1-0.2,0.1-0.3c0-0.2-0.1-0.4-0.2-0.5C72.8,71.4,72.8,71.6,72.8,71.9z"/>
	<path class="st0" d="M71.3,70.4c0.6-0.2,1.1-0.3,1.5-0.1C72.4,70,71.8,70.1,71.3,70.4z"/>
	<path class="st0" d="M72.1,73.3c0.4-0.4,0.6-0.9,0.6-1.4C72.6,72.4,72.3,72.8,72.1,73.3C72.1,73.3,72.1,73.3,72.1,73.3z"/>
	<path class="st0" d="M70.4,71.6c0-0.2,0.1-0.4,0.2-0.6c0.2-0.2,0.4-0.4,0.6-0.6c-0.1,0-0.2,0.1-0.3,0.1
		C70.6,70.7,70.4,71.2,70.4,71.6z"/>
	<path class="st0" d="M71.3,11.8c0,0.2,0,0.4,0,0.6c-0.1,1.1-0.5,2.3-0.1,3.3c0,0.2,0,0.3,0.1,0.5c0.1,0.6,0.1,1.3,0.1,2
		c0,0.5,0,0.9,0,1.4c0,0.1,0,0.3,0,0.4c0,1.1,0,2.1,0,3.2c0,0.2,0,0.4,0,0.6c0,0.4,0,0.9,0,1.3c0,0.2,0,0.4,0,0.6
		c0,2.3-0.1,4.7-0.1,7c-0.1,2.1,0.2,4.3,0.2,6.3c-0.1,1.7-0.2,3.3-0.1,4.9c0,0.2,0,0.4,0,0.6c0,0.2,0,0.4,0,0.6c-0.1,1,0,2,0,3
		c0,0.2,0,0.3,0,0.5c0.2,2.7,0.1,5.4,0,8.1v0.3c0,0.2,0,0.3,0,0.5c0,0.2,0,0.3,0,0.5c0,0.3,0,0.6,0,1c0,0.2,0,0.3,0,0.5s0,0.3,0,0.5
		c0,0.9,0,1.8,0,2.7c0,0.2,0,0.4,0,0.5c0,0.2,0,0.4,0.1,0.6c0,0.2,0.1,0.4,0.1,0.6c0.4,1.7,1.9,3.7,0.8,4.9
		c-0.1,0.1-0.3,0.2-0.4,0.3c0,0-0.1,0.1-0.2,0.1c0.2,0,0.3-0.1,0.5-0.1c0,0,0.1,0,0.1-0.1c0,0,0,0,0-0.1c0-0.1,0.1-0.1,0.1-0.2
		c0.9-1.3-0.4-3.4-0.8-4.9c-0.1-0.2-0.1-0.4-0.1-0.6c0-0.2,0-0.4,0-0.6c0-0.2,0-0.4,0-0.6c0-0.8,0-1.6,0-2.3c0-0.1,0-0.3,0-0.4
		c0-0.4,0-0.9,0-1.3c0-0.2,0-0.5,0-0.7c0-0.5,0-1.1,0-1.6c0-0.2,0-0.4,0-0.5c0-2.3,0-4.4,0-6.6c0-0.2,0-0.4,0-0.6
		c0-1.1-0.1-2.2,0-3.3c0-0.2,0-0.4,0-0.6c0-0.2,0-0.4,0-0.6c-0.2-1.9,0.1-3.5,0.1-5.2c-0.1-4.6,0-9.3,0-13.9c0-1.1-0.1-2.4,0-3.5
		c0-0.2,0-0.4,0-0.6c0-1.9-0.1-3.7-0.1-5.6c0-0.2,0-0.4,0-0.6c0-0.5,0-0.8,0-1.2c0-0.2,0-0.4,0-0.6c0-0.4,0-0.7,0-1.1
		c0-0.2,0-0.4,0-0.6c0-2.2-0.1-4.4,0.1-6.7c0.1-1.4,0-2.8-0.1-4.3h-0.2c0,1.2,0,2.3,0.1,3.4C71.4,6.2,71.3,9,71.3,11.8z"/>
	<path class="st0" d="M71.6,71.2c0.4-0.3,0.8-0.3,1.1,0c0,0,0,0,0-0.1c-0.2-0.4-0.9-0.3-1.3,0c-0.2,0.2-0.2,0.5,0,0.7
		C71.3,71.6,71.4,71.4,71.6,71.2z"/>
	<path class="st0" d="M70.6,72.2c0.1,0.1,0.1,0.1,0.2,0.1c-0.2-0.2-0.3-0.4-0.4-0.6c0-0.1,0-0.1,0-0.2C70.4,71.8,70.4,72,70.6,72.2z
		"/>
	<path class="st0" d="M71.4,71.8C71.4,71.8,71.4,71.8,71.4,71.8C71.4,71.8,71.4,71.8,71.4,71.8C71.4,71.8,71.4,71.8,71.4,71.8z"/>
	<path class="st0" d="M70.1,73.4c0.2,0.5,0.4,0.9,1,0.8c0.1,0,0.2-0.1,0.3-0.1c-0.1,0-0.1,0-0.2,0C70.8,74,70.4,73.8,70.1,73.4z"/>
	<path class="st0" d="M69.8,72.4c0-0.1-0.1-0.3-0.1-0.4c-0.1-0.3,0-0.6,0-0.8c-0.1,0.2-0.1,0.4-0.1,0.7c0,0.1,0,0.1,0,0.2
		c0,0.2,0.1,0.3,0.1,0.5c0.1,0.3,0.2,0.6,0.4,0.9C70.1,73.3,70,73.1,70,73C69.9,72.8,69.8,72.6,69.8,72.4z"/>
	<path class="st0" d="M71.5,72.7c0.4-0.1,0.9-0.6,0.4-1c-0.1-0.1-0.3,0-0.5,0.1c0.1,0.2,0.3,0.3,0.5,0.3c-0.2,0.5-0.7,0.5-1.1,0.2
		C71,72.5,71.2,72.7,71.5,72.7z"/>
	<path class="st0" d="M70.2,70.4c0.3-0.3,0.6-0.5,1-0.7c-0.3,0-0.6,0.1-0.8,0.3c-0.1,0.1-0.3,0.2-0.4,0.4c-0.2,0.2-0.3,0.5-0.4,0.8
		C69.8,70.8,70,70.6,70.2,70.4z"/>
	<path class="st0" d="M73.3,71.4c0,0.5-0.2,1.1-0.3,1.6c-0.1,0.2-0.1,0.4-0.2,0.5c-0.1,0.2-0.1,0.3-0.2,0.5
		c-0.1,0.2-0.2,0.3-0.3,0.5c0.1-0.1,0.2-0.3,0.3-0.4c0.1-0.2,0.2-0.3,0.3-0.5c0.1-0.2,0.1-0.4,0.2-0.5c0.1-0.2,0.1-0.4,0.2-0.6
		C73.3,72.1,73.3,71.7,73.3,71.4c0-0.2,0-0.2,0-0.3C73.3,71.2,73.3,71.3,73.3,71.4z"/>
	<path class="st0" d="M73.2,70.7C73.2,70.7,73.1,70.7,73.2,70.7c-0.1-0.1-0.1-0.1-0.1-0.2c-0.1-0.1-0.2-0.2-0.3-0.2
		C73,70.4,73.1,70.6,73.2,70.7c0.1,0.2,0.1,0.3,0.1,0.4C73.3,71,73.2,70.8,73.2,70.7z"/>
	<path class="st0" d="M72.2,73.6c0.1-0.2,0.1-0.3,0.2-0.5c0,0.1-0.1,0.1-0.1,0.2c-0.1,0.2-0.2,0.3-0.3,0.5c-0.1,0.2-0.3,0.5-0.5,0.6
		c0.1,0,0.2-0.1,0.3-0.2C72,74,72.1,73.8,72.2,73.6z"/>
	<path class="st0" d="M71.3,74.5C71.3,74.5,71.3,74.5,71.3,74.5C71.2,74.5,71.3,74.5,71.3,74.5C71.3,74.5,71.3,74.5,71.3,74.5z"/>
	<path class="st0" d="M70.6,4.8c0.1,2.8-0.1,5.7-0.1,8.5c0,0.2,0,0.3,0,0.5c0,0.5-0.1,1-0.1,1.5c0,0.1,0,0.3,0,0.4
		c0,0.1,0,0.3,0,0.4c-0.1,2.4-0.1,4.7,0,7c0,0.2,0,0.4,0,0.6c-0.2,2.2,0.3,4.2,0.3,6.3c0,0.8-0.2,1.6-0.3,2.4c0,0.2,0,0.4,0,0.6
		c0,1.6-0.1,3.2-0.1,4.8c0,0.2,0,0.4,0,0.6c0,0.2,0,0.4,0,0.6c0,1.1,0.2,2.2,0.3,3.4c0,0.2,0,0.4,0,0.6c-0.4,1.5,0,3.3-0.2,4.9
		c0,0.2,0,0.4,0,0.6c0,0.3,0,0.5,0,0.8c0,0.1,0,0.3,0,0.4c-0.1,1.1-0.1,2.3-0.1,3.4c0,0.2,0,0.4,0,0.5c0,0.9,0,1.8,0,2.7
		c0,0.2,0,0.4,0,0.5c0,0.4,0,0.7,0,1.1c0,0.2,0,0.4,0,0.5c0,0.9,0,1.8,0.1,2.7c0,0.2,0,0.4,0,0.7c0.1,0.4,0.1,0.8,0.1,1.2
		c0,0.1,0,0.3,0,0.4c0,0.2,0,0.4,0,0.6c0,0.2,0.1,0.4,0.1,0.6c0.2,0.5,0.5,1.1,0.8,1.6c-0.1-0.2-0.2-0.4-0.2-0.5
		c-0.1-0.5-0.3-1.1-0.3-1.6c0-0.2-0.1-0.4-0.1-0.6c0-0.2,0-0.4-0.1-0.6c0-0.2,0-0.3,0-0.5c0-0.5-0.1-0.9-0.2-1.4c0-0.2,0-0.4,0-0.6
		c0-0.2,0-0.4,0-0.6c0-0.2,0-0.4,0-0.6c0.1-3.3-0.4-6.5-0.1-9.7c0-0.1,0-0.3,0-0.4c0-0.3,0-0.6,0-0.8c0-0.2,0-0.4,0-0.6
		c0.2-1.4-0.1-2.7,0.1-3.9c0-0.2,0.1-0.3,0.1-0.5c0-1.4-0.3-2.8-0.2-4.1c0-0.2,0-0.3,0-0.5c0-0.5,0-1,0-1.5c0-0.2,0-0.4,0-0.6
		c0-1.2,0-2.4,0-3.6c0-0.2,0-0.4,0-0.6c0.1-0.9,0.5-1.8,0.3-2.7c-0.3-1.9-0.6-3.7-0.3-5.7c0-0.2,0-0.3,0-0.5c0-0.2,0-0.3,0-0.5
		c-0.1-3.3-0.1-6.5,0.1-9.9c0-0.2,0-0.3,0-0.5c-0.2-2.7,0.2-5.4,0.2-8.1c0.1-1-0.6-1.7-0.6-2.7c0.1-0.3,0.1-0.6,0.1-0.9
		c0-0.2,0-0.3,0-0.5c0-0.2,0-0.3,0-0.5h-0.2c0,0.2,0,0.4,0,0.6C69.9,2.1,70.5,3.5,70.6,4.8z"/>
	<path class="st0" d="M71.2,74.5c-0.1,0-0.1,0-0.2,0C71.1,74.5,71.1,74.5,71.2,74.5C71.2,74.5,71.2,74.5,71.2,74.5z"/>
	<path class="st0" d="M72.9,71.2c0.1,0.7-0.2,1.3-0.5,2C72.7,72.6,73,71.8,72.9,71.2z"/>
	<path class="st0" d="M73.2,71.7c0,0.1,0,0.2,0,0.2C73.2,71.9,73.2,71.8,73.2,71.7z"/>
	<path class="st0" d="M71.3,74.5c0.1,0,0.2,0,0.2-0.1C71.4,74.4,71.4,74.5,71.3,74.5z"/>
	<path class="st0" d="M72.7,73.5c-0.1,0.2-0.2,0.4-0.3,0.5c-0.1,0.2-0.3,0.3-0.4,0.5c0,0.1-0.1,0.1-0.1,0.2
		c-0.1,0.2-0.2,0.3-0.3,0.5c0.3-0.3,0.6-0.6,0.8-1c0.1-0.1,0.2-0.3,0.3-0.4c0.1-0.2,0.1-0.3,0.2-0.5c0-0.2,0.1-0.4,0.1-0.6
		c0,0.1-0.1,0.2-0.1,0.3C72.9,73.2,72.8,73.4,72.7,73.5z"/>
	<path class="st0" d="M72.3,68.2c0,0.3-0.1,0.5-0.2,0.8c-0.1,0.2-0.4,0.4-0.6,0.5c0.1,0,0.2-0.1,0.4-0.1
		C72.4,69.3,72.5,68.8,72.3,68.2z"/>
	<path class="st0" d="M73.2,72c0,0.3-0.1,0.5-0.1,0.7C73.1,72.5,73.1,72.2,73.2,72z"/>
	<path class="st0" d="M71.5,66.2c0.3,0.6,0.7,1.4,0.9,2C72.3,67.6,71.9,66.9,71.5,66.2z"/>
	<path class="st0" d="M69.9,70.8c0.1-0.1,0.2-0.3,0.3-0.4c-0.3,0.2-0.5,0.4-0.6,0.7c-0.1,0.3-0.2,0.6-0.1,1.1c0,0.2,0.1,0.3,0.1,0.5
		c0.2,0.8,0.7,1.6,1.4,1.7c-0.8-0.2-1-1-1.3-1.8c-0.1-0.2-0.1-0.3-0.2-0.5c0-0.1,0-0.2,0-0.3c0-0.2,0.1-0.4,0.1-0.7
		C69.8,71.1,69.8,70.9,69.9,70.8z"/>
	<path class="st0" d="M73.2,71.7c0-0.2,0-0.4,0-0.6c-0.1-0.6-0.5-1-1.2-0.7c0.6,0.1,0.8,0.4,0.9,0.8c0-0.2-0.1-0.4-0.1-0.7
		C73.1,70.8,73.2,71.3,73.2,71.7z"/>
	<path class="st0" d="M70.5,99.5c0-0.2,0-0.3,0-0.5c0.1-0.6,0.2-1.1,0.1-1.7c-0.2-1.3-0.6-2.6-0.3-3.9c0-0.2,0-0.4,0-0.7
		c0-3.7,0.3-7.3,0.1-11c0-0.2,0-0.4,0-0.6c-0.1-1.7,0.4-3.4,0.5-5c0.1-0.3,0.3-0.6,0.5-1c-0.4,0.5-0.7,0.9-0.7,1.4
		c0.1,1.5-0.6,2.8-0.5,4.3c0,0.2,0,0.4,0,0.6c0.1,0.9,0.1,1.8,0.1,2.7c-0.1,2.8-0.1,5.6-0.1,8.4c0,0.2,0,0.4,0,0.7
		c-0.3,1.3,0,2.6,0.2,3.9c0.1,0.7,0,1.2-0.1,1.9c0,0.2,0,0.4,0,0.6c0,0.9,0,1.7,0,2.6c0,0.9,0,1.8-0.1,2.7v0.4h0.2c0-1,0.1-2,0.1-3
		C70.6,101.4,70.6,100.5,70.5,99.5z"/>
	<path class="st0" d="M71.4,69.7c0.1,0,0.1-0.1,0.2-0.1c-0.1,0-0.2,0.1-0.4,0.2c-0.4,0.2-0.7,0.4-1,0.7C70.6,70.1,71,69.9,71.4,69.7
		z"/>
	<path class="st0" d="M69.6,71c0-0.1,0.1-0.1,0.1-0.2C69.6,70.9,69.6,70.9,69.6,71z"/>
	<path class="st0" d="M71.9,74.7c0.1-0.1,0.1-0.1,0.1-0.2c0.1-0.1,0.1-0.2,0.2-0.4c-0.4,0.3-0.7,1.1-1.3,0.7
		c-0.2-0.1-0.3-0.2-0.4-0.3c0.1,0.1,0.2,0.3,0.4,0.4C71.3,75.1,71.6,75,71.9,74.7z"/>
	<path class="st0" d="M70.5,74.6c-0.4-0.5-0.6-0.9-0.9-1.6C69.9,73.6,70.1,74.2,70.5,74.6z"/>
	<path class="st0" d="M69.4,72c0-0.3,0-0.6,0.1-0.9c-0.1,0.2-0.1,0.4-0.1,0.7c0,0.2,0,0.4,0,0.6c0.1,0.2,0.1,0.4,0.2,0.7
		c-0.1-0.2-0.1-0.3-0.1-0.5C69.5,72.3,69.4,72.2,69.4,72z"/>
	<path class="st0" d="M70.9,75.1c0,0-0.1,0-0.1,0c0.1,0.1,0.2,0.1,0.3,0.2C71,75.2,70.9,75.1,70.9,75.1z"/>
	<path class="st0" d="M69.6,71.1C69.6,71,69.6,71,69.6,71.1C69.6,71,69.6,71,69.6,71.1z"/>
	<path class="st0" d="M69.7,73.1C69.7,73.1,69.7,73.1,69.7,73.1C69.7,73,69.7,73,69.7,73.1C69.7,73,69.7,73,69.7,73.1z"/>
	<path class="st0" d="M69.7,104.3c0.1-1.2,0.1-2.4,0.1-3.6c0-0.1,0-0.3,0-0.4c0-0.3,0-0.6,0-1c0-0.2,0-0.3,0-0.5
		c0-1.7-0.4-3.3-0.1-5c0-0.2,0-0.3,0-0.4c0-1,0.1-2.1,0-3.1v-3.2c0.1-2,0.1-3.9,0.1-5.8c0-0.2,0-0.4,0-0.6c0.2-2.2,0.5-4.3-0.1-6.5
		c0.3,0.4,0.7,0.7,1.1,0.8c-0.4-0.4-0.6-1-1.1-1.2c-0.1,2.1,0.3,4.3-0.1,6.4c0,0.2,0,0.4,0,0.6c0.1,2,0.1,3.8-0.1,5.8
		c0,0.1,0,0.3,0,0.4v3.6c0,1-0.1,2-0.1,2.9c0,0.2,0,0.3,0,0.5c-0.1,1.4,0,2.8,0.1,4.3c0,0.2,0,0.3,0,0.5c0.1,0.5,0.1,1,0,1.5
		c0,0.3,0,0.5,0,0.7c0,0.2,0,0.4,0,0.6c0.1,0.8-0.1,1.7-0.1,2.5v1.1h0.2v-0.7C69.7,104.5,69.7,104.4,69.7,104.3z"/>
	<path class="st0" d="M69.5,1.4c0,1,0.1,2,0.2,3c0.3,3.5,0.1,6.8-0.1,10.3c0,0.1,0,0.3,0,0.4v0.8v0.8c0,1,0,2.2-0.1,3.1
		c0,0.3,0,0.7,0,1c0,0.3,0,0.7,0,1c0,0.6,0.1,1.2,0.1,1.7c0,0.2,0,0.4,0,0.6c-0.1,2,0.2,3.8,0.2,5.7c0,0.7-0.2,1.3-0.2,2
		c0,0.2,0,0.3,0,0.5v1c0,0.2,0,0.3,0,0.5c0,1.8,0,3.6,0,5.4v0.6c0,0.6,0.1,1.3,0.1,2c0,0.2,0,0.4,0,0.7c-0.3,2,0.3,4-0.1,5.9
		c0,0.2,0,0.4,0,0.7c0,0.9,0,1.7-0.1,2.6c0,0.2,0,0.4,0,0.6c0,2.3,0,4.5,0.1,6.8c0.1,1-0.1,1.9-0.1,2.9c0,0.2,0,0.4,0,0.6
		c0,0.2,0,0.4,0,0.6c0,0.4,0.1,0.7,0.1,1.1c0,0.2,0,0.4,0.1,0.6c0.3,1.4,2.2,2.7,1.4,3.9c-0.5,0.6-1.1,1.3-1.5,2
		c0.1-0.2,0.2-0.3,0.3-0.5c0.1-0.1,0.2-0.2,0.4-0.4c0.4-0.4,0.9-0.6,1.4-0.9c0.1-0.1,0.2-0.4,0.1-0.6c-0.4-1.5-1.8-2.5-2-4.1
		c0-0.2-0.1-0.4-0.1-0.6c0-0.1,0-0.3,0-0.4c0-0.1,0-0.3,0-0.4c0-0.1,0-0.3,0-0.4c0-0.8,0.1-1.7,0.1-2.4c-0.1-2.6-0.1-5.2-0.1-7.8
		c0-0.2,0-0.4,0-0.7c0-1,0-2,0.1-3c0-0.2,0-0.4,0.1-0.6c0.2-1.8-0.2-3.6,0-5.4c0-0.2,0-0.4,0-0.6c0-0.8,0-1.6-0.1-2.4
		c0-0.2,0-0.4,0-0.6c0-1.9,0.1-3.8,0-5.7v-0.6c0-0.1,0-0.3,0-0.4c0.5-2.6-0.2-5,0-7.7c0-0.2,0-0.4,0-0.6c0-1-0.1-2.1-0.1-3.1
		c0-0.3,0-0.7,0-1c-0.1-0.7,0.1-1.3,0.1-2c0-0.3,0-0.7,0-1v-1.6c0-0.1,0-0.3,0-0.4c0.2-3.1,0.2-6.3,0.2-9.4c-0.1-1.3-0.5-2.7-0.3-4
		c0-0.1,0-0.2,0-0.4c0-0.3-0.1-0.6-0.1-0.9h-0.2c0,0.3,0,0.5,0.1,0.8C69.5,1,69.5,1.2,69.5,1.4z"/>
	<path class="st0" d="M68.6,2.4c-0.5,1.9,0,3.3,0.4,5.1c0,0.1-0.1,0.3-0.1,0.4c0,0.1-0.1,0.3-0.1,0.4c0,0.2,0,0.4,0,0.5
		c-0.1,2.2-0.1,4.3,0,6.4c0,0.2,0,0.4,0,0.5c0,0.2,0,0.4,0,0.5c0,0.2,0,0.4,0,0.5c0,0.6,0,1.2,0,1.8c0,0.2,0,0.4,0,0.6
		c0,0.3-0.1,0.7-0.1,1c0.2,0.7-0.1,1.3-0.1,1.9c0,0.3,0,0.6,0,0.8c0,0.8,0.1,1.7,0.1,2.5c0,0.2,0,0.4,0.1,0.6c0.2,1.2,0.1,2.2,0,3.4
		c0,0.2,0,0.4-0.1,0.6c0,0.2,0,0.4,0,0.6c0,0.2,0,0.4,0,0.6c0,0.8,0.3,1.6,0.4,2.3c0,0.2,0,0.3,0,0.5c0,0.2,0,0.4,0,0.5
		c0,0.2-0.1,0.4-0.1,0.5c0,0.2,0,0.4-0.1,0.5c-0.2,1.1-0.1,2.1-0.1,3.2c0,0.2,0,0.4,0,0.5c0,0.2,0,0.4,0,0.5c0,1.4,0,3,0,4.4
		c0,0.2,0,0.3,0,0.5c0,0.2,0,0.3,0,0.5c0,0.2,0,0.3,0,0.5c-0.1,2.7,0,5.4,0,8c0,0.2,0,0.4,0,0.7c0,0.2,0,0.4,0,0.6
		c0,0.9,0,1.7,0,2.6c0,0.2,0,0.3,0,0.5c0,0.3,0,0.6,0,1c0,0.2,0,0.3,0,0.5c-0.1,1.4-0.1,2.8-0.1,4.2c0,0.2,0,0.4,0,0.6
		c0,0.2,0,0.4,0,0.6c0.1,1.2,0.9,2.2,1,3.3c0.1,1.4-1.1,2.6-0.9,4.1c0,0.2,0,0.3,0,0.5c0,0.2,0,0.3,0,0.5c0,0.2,0,0.4,0,0.6
		c0,1.5-0.2,2.9-0.2,4.4c0,0.2,0,0.4,0,0.6c0,0.4,0,0.8,0.1,1.2c0,0.2,0,0.4,0,0.6c0,0.6,0,1.1,0,1.7c0,0.2,0,0.4,0,0.6
		c-0.3,1.1-0.1,2.3,0.1,3.4c0,0.2,0,0.3,0,0.5c0,1.2,0,2.4,0.1,3.5c0,0.2,0,0.3,0,0.5c0,0.8-0.1,1.6-0.1,2.4c0,0.9,0.1,1.9,0.1,2.8
		c0,3.1-0.2,6.1-0.2,9.2h0.2c0-0.3,0-0.7,0-1c0.2-4.2,0.1-8.3,0.1-12.5c0-0.2,0-0.4,0-0.7c0-1.6,0-3.2,0-4.8c0-0.2,0-0.4,0-0.6
		c0-0.8,0-1.6,0-2.4c0-0.2,0-0.4,0-0.6c0-0.8,0-1.6,0-2.4c0-0.2,0-0.4,0-0.6c0-0.2,0-0.5-0.1-0.7c0-1.8,0.2-3.7,0.1-5.4
		c0-0.2,0-0.4,0-0.6c0-0.1,0-0.3,0-0.4c0-0.1,0-0.3,0-0.4c0-1.3,0.6-2.5,1-3.7c0.1-0.4-0.1-0.9-0.2-1.3c-0.3-0.9-1-1.7-0.9-2.6
		c0-0.2,0-0.4,0-0.6c0-0.2,0-0.4,0-0.6c0-1.2,0-2.4,0.1-3.5c0-0.4,0-0.8,0-1.1c0-0.2,0-0.4,0-0.6c0-0.1,0-0.3,0-0.4
		c0-0.7,0-1.4,0-2.2c0-0.2,0-0.4,0-0.6c0-0.3,0-0.7,0-1c0-0.3,0-0.7,0-1c0-0.7,0-1.4,0-2c0-0.2,0-0.4,0-0.7c0-0.6,0-1.2,0-1.8
		c0-0.1,0-0.3,0-0.4c0-0.3,0-0.8,0-1.1c0-0.2,0-0.4,0-0.6c0-0.8,0-1.5,0-2.3c0-0.2,0-0.4,0-0.6c0-1,0-2.1,0-3.1c0-0.2,0-0.4,0-0.7
		c0-0.6,0-1.1,0-1.7c0-0.2,0-0.4,0-0.6c0-0.2,0-0.4,0-0.6c0-0.2,0-0.4,0-0.6c0-0.7,0.1-1.5,0-2.2c0-0.2,0-0.4,0-0.7
		c0-0.2,0-0.4,0-0.7c0-0.2,0-0.5,0-0.7c0-0.1,0-0.2,0-0.3c-0.1-1,0-2,0.3-3c0.2-1.6-0.2-3.1-0.4-4.8c0-0.2,0-0.3,0-0.5
		c0-0.2,0-0.3,0-0.5c0-1.6,0.3-3.1,0.2-4.6c0-0.2,0-0.3,0-0.5c0-1.1-0.1-2.2-0.1-3.3c0-0.4-0.1-0.8-0.1-1.2c-0.1-1.6-0.1-3.3,0-4.9
		c0-0.2,0-0.4,0.1-0.5c0-0.2,0.1-0.3,0.2-0.4c0.1-0.1,0.1-0.3,0.1-0.5c-0.9-1.5-1-3-0.4-4.8c0-0.1,0-0.2,0-0.4
		C68.9,1.3,69,0.7,69,0.1c0,0,0-0.1,0-0.1h-0.3c-0.1,0.6-0.1,1.1-0.1,1.7C68.6,1.9,68.6,2.1,68.6,2.4z"/>
	<path class="st0" d="M68.2,1.1c0,0.2,0,0.3,0,0.5c0,0.2,0,0.4,0,0.6c0,1.8,0,3.6-0.1,5.4c0,0.2,0,0.4,0,0.6c0,0.2,0,0.4,0,0.6
		c0,0.2,0,0.4,0,0.6C68,11.3,68,13.3,68.3,15c0,0.2,0,0.4,0,0.6c0,0.2,0,0.4,0,0.5c0,1-0.1,1.9-0.1,2.9c0,0.2,0,0.4,0,0.6
		c-0.1,1.9-0.1,3.7,0,5.5c0,0.4,0,0.7,0,1.1c0,0.8,0,1.4,0,2.2c0,0.4,0,0.7,0,1.1c0,0.2,0,0.4,0,0.6c0,0.4,0,0.8,0,1.2
		c0.1,0.6,0.3,1.3,0.3,1.9c-0.6,10.5-0.1,21.1-0.4,31.7c0,0.2,0,0.5,0,0.7c0.5,2,0.3,3.9,0,6c0,0.1,0,0.3,0,0.4
		c0.1,0.7,0.1,1.3,0.1,2c0,0.4,0,0.8,0,1.2c0,0.4,0,0.8,0,1.2c0,0.4,0,0.8-0.1,1.2c0,0.4,0,0.8,0,1.2c0,0.4,0.1,0.9,0.1,1.3
		c0,0.2,0,0.4,0,0.6c0,0.4,0,0.8,0,1.2c0,0.2,0,0.4,0,0.7c-0.5,1.5-0.4,3,0.1,4.7c0,0.2,0,0.4,0,0.6c0,0.8,0,1.6,0,2.4
		c0,0.2,0,0.4,0,0.7c0,0.5,0,1.1-0.1,1.7c-0.1,1.7,0.2,3.4,0.2,4.9c-0.1,2.6-0.2,5.2-0.2,7.8h0.3c0-3,0.2-6,0.1-9
		c0-1.1-0.2-2.2-0.1-3.4c0.1-0.7,0.1-1.5,0.1-2.1c0-0.2,0-0.5,0-0.7c0-1,0-1.9,0-2.9c0-0.2,0-0.4,0-0.6c-0.3-1.5-0.3-2.6,0-4.1
		c0-0.2,0-0.4,0-0.6c0-0.4,0-0.8,0-1.2c0-0.2,0-0.4,0-0.7c0-0.5-0.1-1-0.1-1.5c0-0.2,0-0.3,0-0.5c-0.1-1.5,0.1-2.9,0.1-4.4
		c0-0.2,0-0.4,0-0.6c0-0.1,0-0.3,0-0.4c0-0.1,0-0.3,0-0.4c-0.2-1.5,0.9-2.9,0.7-4.4c-0.1-1.1-0.9-2-0.8-3.2c0-0.2,0-0.4,0-0.7
		c0-6,0.1-12.1,0.1-18.1c0-0.2,0-0.3,0-0.5c0-0.2,0-0.3,0-0.5c0-0.2,0-0.3,0-0.5c-0.1-3.1,0.1-6.2,0.3-9.3c0-0.2,0-0.4,0-0.6
		c0-0.2,0-0.4,0-0.6c0.1-1.4-0.5-2.4-0.5-3.6c0-0.2,0-0.4,0-0.6c0-0.2,0.1-0.4,0.1-0.6c0-0.2,0-0.4,0.1-0.6c0-0.9,0.1-1.9,0.1-2.8
		c0-0.2,0-0.4,0-0.6c0-1-0.1-1.9-0.1-2.9c0-0.3,0-0.6,0-1c0-0.3,0-0.6,0-1c0-0.3,0-0.6,0.1-1c0-0.2,0-0.4,0-0.6c0-0.8,0-1.5,0-2.3
		c0-0.2,0-0.4,0-0.5c0-0.2,0-0.4,0-0.6c0-0.2,0-0.4,0-0.6c-0.2-2.1-0.1-4.1-0.1-6.3c0-0.2,0-0.4,0-0.6c0-0.2,0-0.4,0-0.5
		c0.3-0.9-0.1-1.8-0.2-2.7c0-1,0.2-2,0.3-3.1c0-0.2,0-0.4,0-0.6c0-0.5,0-0.9,0-1.4h-0.3c0,0.2,0,0.4,0,0.6C68.2,0.8,68.2,1,68.2,1.1
		z"/>
	<path class="st0" d="M67.3,2.6c0.3,1.5,0.2,2.8-0.2,4.2c0,0.2,0,0.3,0,0.5c0,0.2,0,0.3,0,0.5c0,0.2,0,0.4,0,0.6
		c0,0.6-0.1,1.2,0,1.7c0,0.4,0,0.7,0,1.1c0,1.4,0.1,2.7,0.3,4.1c0,0.2,0,0.3,0.1,0.5c-0.1,1.4-0.1,2.8-0.2,4.1c0,0.2,0,0.4,0,0.6
		c0,2.8,0,5.5,0,8.3c0,0.2,0,0.4,0,0.6c0,0.6,0,1.2,0,1.8c0,0.8,0.4,1.7,0.3,2.6c0,1.8-0.2,3.5-0.2,5.3c0,0.4-0.1,1-0.1,1.5
		c0,1.3,0.1,2.6,0.1,3.9c0,0.2,0,0.3,0,0.5c0,0.2,0,0.4,0,0.5c0,0.2,0,0.4,0,0.6c0,0.2,0,0.4,0,0.6c-0.1,1.4-0.4,2.9-0.1,4.3
		c0,0.2,0,0.3,0,0.5c0.1,0.7,0.2,1.5,0.1,2.2c-0.1,0.4-0.1,0.9-0.1,1.2c0,3.4,0.1,6.9-0.1,10.3c0,0.4,0,0.9-0.1,1.3
		c0,1.1,0,2.3,0.1,3.5c0,0.2,0,0.4,0,0.6c0.1,1.4,0.2,2.8,0.4,4.2c0.1,0.3,0,0.7-0.1,1c0,0.2,0,0.3-0.1,0.5c0,0.2,0,0.3-0.1,0.5
		c-0.3,1.5-0.2,3.1-0.2,4.8c0,0.2,0,0.4,0,0.6c0.3,1.6,0.1,3.4,0,5.2c0,0.2,0,0.4,0,0.6c0,0.4,0,0.8,0,1.2c0,0.2,0,0.4,0,0.6
		c0,0.8,0.2,1.6,0.1,2.4c-0.1,0.7-0.2,1.2-0.1,1.9v2c0.1,3.1-0.1,6.2,0,9.3h0.2c0-1.6,0-3.2,0-4.8c0.1-3.5,0-7.1,0.1-10.6
		c0-0.2,0-0.4,0-0.6c0-0.2,0-0.4,0-0.6c0-0.2,0-0.4,0-0.6c0-0.1,0-0.2,0-0.3c0-0.2,0-0.3,0-0.4c-0.1-1.7,0.1-3.5,0-5.2
		c0-0.2,0-0.4,0-0.5c0-0.2,0-0.3,0-0.5c0-1.1,0-2.3,0.1-3.4c0-0.2,0-0.4,0.1-0.6c0.1-0.6,0.1-1.1,0.2-1.7c0-0.2,0-0.4,0-0.6
		c0-0.2,0-0.4,0-0.5c0-0.6-0.2-1-0.2-1.6c0-0.2,0-0.4,0-0.5c0-0.2,0-0.4,0-0.6c0.2-2-0.1-4-0.1-6.1c0-0.2,0-0.4,0-0.6
		c0.1-0.9,0.1-1.9,0.1-2.7c0-1.9-0.1-3.8-0.1-5.7c0-1.8,0.1-3.5,0.1-5.3c0-0.2,0-0.4,0-0.7c-0.2-1.1-0.1-2.2,0-3.3
		c0-0.2,0-0.4,0-0.7c0-3.3,0-6.7,0.1-10c0.1-1.1,0.3-2.2,0.2-3.5c-0.1-0.6-0.3-1.1-0.3-1.7c0-0.6,0-1.2,0-1.8c0-0.2,0-0.4,0-0.6
		c0-2.9-0.2-6-0.1-8.8c0-0.2,0-0.4,0-0.6c0-1.2,0.1-2.4,0.2-3.5c0-0.4,0-0.8,0-1.2c-0.1-1.7-0.1-3.3-0.1-5c0-0.2,0-0.3,0-0.5
		c0-0.6-0.1-1.2-0.1-1.8c0-0.2,0-0.3,0-0.5c0.4-1.5,0.6-2.9,0.2-4.4c0-0.2,0-0.3,0-0.5c0-0.5,0-0.9,0-1.4c0-0.2,0-0.4,0-0.6
		c0,0,0-0.1,0-0.1h-0.3c0,0.7,0,1.3,0,2C67.3,2.2,67.3,2.4,67.3,2.6z"/>
	<path class="st0" d="M66,3.4c0,0.2,0,0.5,0,0.7c-0.3,1.8-0.5,3.6-0.3,5.5c0,0.2,0,0.4,0,0.6c0,0.3,0.1,0.9,0.2,1.3
		c0.1,1.6-0.1,3,0.2,4.5c0.2,1-0.1,2-0.2,3c0,0.2-0.1,0.4-0.1,0.6c-0.1,0.7-0.1,1.4,0,2.1c0,0.2,0,0.4,0,0.5c0,0.5,0.1,1.1,0.1,1.6
		c0,0.2,0,0.4,0,0.6c0,0.2,0,0.3,0,0.5c0,1.2-0.2,2.4-0.2,3.6c0,0.8,0.1,1.5,0.2,2.3c0,0.2,0,0.3,0,0.5c0,0.2,0,0.4,0,0.5
		c0,0.2,0,0.4,0,0.5c0,0.1,0,0.2,0,0.4c0,0.1,0,0.2,0,0.4c-0.1,0.2-0.1,0.5,0,0.7c0,0.2,0,0.5,0,0.7c0,0.2,0,0.4,0,0.5
		c0,0.5,0.1,1.1,0.2,1.6c0,0.2,0,0.4,0,0.6c0,1,0,2.1,0,3.1c0,0.2,0,0.4,0,0.6c0,0.6,0,1.4,0,2.1c0,0.1,0,0.3,0,0.4v0.9V45
		c0,0.2,0,0.3,0,0.5c0,0.2,0,0.3,0,0.5c0.2,2,0.1,4,0,6c0,0.2,0,0.4,0,0.5c0,0.9,0,1.8-0.1,2.6c0,0.2,0,0.4,0,0.6c0,0.2,0,0.4,0,0.6
		c0,0.2,0,0.4,0,0.6c0,0.8,0,1.7,0,2.6c0,0.2,0,0.4,0,0.7c0,1.4,0,2.7,0,4.1c0,0.2,0,0.3,0,0.5c0,0.5,0,1.1,0,1.6c0,0.2,0,0.4,0,0.6
		c0,0.2,0,0.4,0,0.6c-0.1,1.4,0.2,2.7,0.1,4.1c-0.1,1.3,0.1,2.6,0.1,3.8c-0.1,0.9-0.2,1.8-0.2,2.7c0,1.7,0.1,3.3,0,5
		c0,0.2,0,0.3,0,0.5c0,0.2,0,0.4,0,0.7c0,0.6,0,1.3,0,1.9c0,0.2,0,0.4,0,0.6c0,1.3,0.1,2.6,0.1,4c-0.1,2.1-0.1,4,0.1,6.2
		c0.1,0.7,0,1.6-0.1,2.3c0,0.2-0.1,0.3-0.1,0.5c-0.5,1.7-0.2,3.7-0.1,5.5h0.2c0-0.1,0-0.1,0-0.2c-0.1-1.6-0.4-3.4,0-5
		c0-0.2,0.1-0.4,0.1-0.6c0.1-0.8,0.2-1.6,0.2-2.4c-0.1-0.9-0.3-1.7-0.2-2.6c0.1-2.6,0.1-4.9,0-7.5c0-0.2,0-0.4,0-0.7
		c0-1,0.2-2,0-3.1c0-0.1,0-0.3,0-0.4c0.1-1.2,0.1-2.3,0.1-3.6c-0.1-3.5,0-7.1-0.1-10.5c0-0.9,0-1.8,0-2.7c0-0.2,0-0.4,0-0.5
		c0.1-2.2,0-4.3,0-6.5c0-0.2,0-0.4,0-0.5c0-0.2,0-0.4,0-0.5c0-0.2,0-0.4,0-0.5c0.1-1.1,0-2.1,0.1-3.2c0-0.2,0-0.3,0-0.5
		c0-0.2,0-0.3,0-0.5c0-0.4,0-0.8,0-1.1c0-0.1,0-0.3,0-0.4c-0.1-1.8,0.1-3.7,0-5.5c0-0.1,0-0.4,0-0.6c0-0.2,0-0.4,0-0.6
		c0-0.2,0-0.5,0-0.7v-2.9c0.1-0.9,0.1-1.9,0.1-2.8c0-0.2,0-0.3,0-0.5c-0.1-0.7,0.1-1.4-0.2-2c0-0.2,0-0.3-0.1-0.5c0-0.2,0-0.3,0-0.5
		c-0.1-0.7,0-1.4,0.1-2.1c0-0.2,0-0.3,0-0.5c0-0.2,0-0.3,0-0.5c0-0.2,0-0.3,0-0.5c0-0.2,0-0.4,0-0.6c0-0.4,0-0.8,0-1.1
		c0-0.2,0-0.4,0-0.6c0-0.5,0-1.1,0-1.7c0-0.2,0-0.4,0-0.6c0-0.2,0-0.4,0-0.6c0-0.2,0-0.4,0-0.6c0-2.2,0-4.4,0.1-6.5
		c0-0.2,0-0.4,0.1-0.6c0.4-2.9-0.1-6.2-0.2-9.1c0-0.2,0-0.5,0-0.7c-0.5-1.8,0-3.4,0.2-5.3c0-0.2,0-0.4,0-0.6c0-1.1,0-2.1-0.1-3.2H66
		C66,1.1,66,2.3,66,3.4z"/>
	<path class="st0" d="M65.2,3.5C65.3,5.4,65.4,7.2,65,9c0,0.1,0,0.3,0,0.4c0,0.1,0,0.2,0,0.3c-0.1,1.7,0.3,3.4,0.2,5.2
		c-0.1,0.7,0.1,1.5,0.3,2.1c0.1,0.3,0.1,0.6,0,0.9c0,0.2,0,0.3-0.1,0.5c-0.7,1.4-0.7,3.1-0.3,4.9c0,0.2,0,0.3,0,0.5
		c0,0.2,0,0.3,0,0.5c0,0.2,0,0.3,0,0.5c0,1-0.1,2-0.2,3.1c-0.1,1.2,0.2,2.4,0.3,3.6c0,0.5,0,1,0,1.5c0,0.2,0,0.3,0,0.5
		c0,0.4,0,0.6,0,0.9c0,0.2,0,0.5,0,0.7c0.1,3.9,0.1,7.8,0.1,11.7c0,0.2,0,0.3,0,0.4c0.3,1.3,0.2,2.5,0,3.9c0,0.2,0,0.5,0,0.7
		c0,2.4,0,4.9-0.1,7.3c0,0.2,0,0.4,0,0.7c-0.1,0.5-0.2,1-0.2,1.5c0.2,1,0.3,2.1,0.2,3.1c0,0.2,0,0.3-0.1,0.4c0,0.8,0,1.6,0,2.3
		c0,0.3,0,0.6,0,0.9c0,0.2,0,0.3,0,0.5c0.3,4.5,0.1,9.3,0.2,13.8c0,0.2,0,0.4,0,0.6c0,2.8,0,5.5,0.1,8.3c0,0.4-0.2,1.1-0.2,1.6
		c0.1,2.2,0.2,4.3,0.2,6.5c0,0.2,0,0.4,0,0.6c0,1.8-0.1,3.7-0.1,5.5c0,0,0,0.1,0,0.1h0.2c0-0.1,0-0.1,0-0.2
		c-0.1-1.7-0.1-3.5,0.1-5.2c0-0.2,0-0.4,0-0.6c0.1-2.1,0-4.1-0.1-6.3c-0.1-0.9,0.3-1.7,0.2-2.6c-0.1-2.4-0.2-4.8-0.2-7.1
		c0-0.2,0-0.4,0-0.6c0-4.8,0.2-9.8-0.1-14.6c0-0.2,0-0.4,0-0.6c0-0.4,0-0.7,0-1.1c0-0.2,0-0.4,0-0.5c0-0.4,0-0.9,0-1.4
		c0-0.1,0-0.2,0-0.4c0.3-1.3-0.2-2.6,0-3.9c0-0.1,0-0.3,0-0.5c0-2.5,0-5,0.1-7.6c0-0.2,0-0.4,0-0.6c0.3-1.6,0.6-3.3,0.1-4.9
		c0-0.3,0-0.5,0-0.7c-0.1-2.3-0.2-4.7,0-7.1c0.1-1,0-2-0.1-2.9c0-0.2,0-0.4,0-0.6c0-1,0-2.1,0.2-3.1c0-0.2,0-0.3,0-0.5
		c0-0.2,0-0.3,0-0.5c-0.1-0.8-0.3-1.6-0.4-2.4c0-1.5,0.2-3.1,0.3-4.6c0-0.2,0-0.4,0-0.6c0-0.2,0-0.3,0-0.4c0-0.2,0-0.4,0-0.5
		c-0.4-1.4-0.6-2.9,0.2-4.1c0.1-0.2,0.1-0.4,0.2-0.6c0.1-0.5,0.1-1.1,0-1.6c-0.4-1.6-0.1-3.3-0.3-4.9c-0.1-0.5-0.1-1-0.1-1.5
		c0-0.2,0-0.3,0-0.5c0.1-1.9,0.3-3.8,0.4-5.7c0-0.1,0-0.3,0-0.4c0-1.2-0.1-2.4-0.2-3.5h-0.3c0.1,1,0.1,1.9,0.1,2.8
		C65.2,3,65.2,3.2,65.2,3.5z"/>
	<path class="st0" d="M64.3,59c0-2,0-4,0-5.9c0-0.6,0.2-1,0.2-1.6c0.2-3-0.1-6.1,0-9.1c0.2-4.7-0.3-9.5-0.2-14.1
		c0-0.8,0.1-1.7,0.1-2.5c0-0.2,0-0.4,0-0.6c0-0.4,0-0.7,0-1.1c0-0.2,0-0.3,0-0.5c0-1.9-0.1-3.7,0.3-5.5c0-0.2,0-0.4,0-0.5
		c-0.3-2.6-0.3-5.2-0.2-7.8c0-0.2,0-0.4,0-0.7c0.5-1.7,0.5-3.1,0.1-4.8c0-0.1,0-0.2,0-0.4c0-1.3,0-2.5-0.2-3.8h-0.2
		c0,0.2,0,0.4,0,0.6c0,1.1,0,2.2,0,3.2c0,0.2,0,0.4,0,0.6c0.2,1.3,0.5,2.5,0,3.7c0,0.3,0,0.5-0.1,0.7c0,2.8,0,5.5,0.2,8.4
		c0,0.2,0,0.5,0.1,0.7c-0.2,1.9-0.2,3.8-0.3,5.8c0,0.2,0,0.4,0,0.5c0,0.2,0,0.4,0,0.5c0,0.2,0,0.3,0,0.4c0,0.6-0.2,1.2-0.2,1.7v1.5
		c0.1,2.7,0.1,5.3,0.2,8c0,0.3,0.1,0.9,0.1,1.2c0,4.5,0.1,9,0,13.5c0,0.6-0.1,1.1-0.2,1.7c0,0.7,0,1.5,0,2.2v2.2c0,0.5,0,1,0,1.5
		c0,0.1,0,0.2,0,0.4V60c0-0.1,0.1-0.2,0.1-0.3C64.3,59.5,64.3,59.2,64.3,59z"/>
	<path class="st0" d="M64.3,64.8c-0.1,0.2-0.1,0.4-0.1,0.7c0,0.7,0,1.3,0,2c-0.1,2,0.2,3.9,0.1,5.9c-0.1,5.8,0.2,11.6-0.1,17.4
		c-0.1,2.2,0.2,4.5,0.2,6.6c0,0.8,0,1.7,0,2.5c0,0.2,0,0.4,0,0.7c0.2,1.4,0,3-0.1,4.4c0,0.1,0,0.3,0,0.4h0.2c0,0,0-0.1,0-0.1
		c0.1-1.7,0.2-3.4,0.1-5.1c0-0.2,0-0.4,0-0.6c0-0.4,0-0.8,0.1-1.2c0.2-2-0.5-3.9-0.3-6.1c0.1-0.4,0.2-1,0.2-1.5
		c0.1-5.6-0.1-11.1,0-16.7c0-1.8-0.1-3.6-0.1-5.4c0-1.1,0-2.2-0.1-3.2c0-0.2,0-0.4,0-0.7c0.5-1.3-0.1-2.4-0.3-3.7V62
		C64.4,62.8,64.7,63.9,64.3,64.8z"/>
	<path class="st0" d="M75.2,105.4h0.2v-1.1c-0.1-1.2-0.2-2.5,0-3.7v-1.1c0,0.1,0,0.3-0.1,0.4C74.7,101.6,75,103.5,75.2,105.4z"/>
	<path class="st0" d="M75.2,52.5c0,0.9,0,1.8-0.1,2.6c0,0.2,0,0.4,0,0.6c0,0.2,0,0.4,0,0.6c0,0.2,0,0.4,0,0.6c0,0.8,0,1.7,0,2.6
		c0,0.2,0,0.4,0,0.7c0,1.4,0,2.7,0,4.1c0,0.2,0,0.3,0,0.5c0,0.5,0,1.1,0,1.6c0,0.2,0,0.4,0,0.6c0,0.2,0,0.4,0,0.6
		c-0.1,1.4,0.2,2.7,0.1,4.1c-0.1,1.3,0.1,2.6,0.1,3.8c-0.1,0.9-0.2,1.8-0.2,2.7c0,1.7,0.1,3.3,0,5c0,0.2,0,0.3,0,0.5
		c0,0.2,0,0.4,0,0.7c0,0.6,0,1.3,0,1.9c0,0.2,0,0.4,0,0.6c0,1.3,0.1,2.6,0.1,4c0,1.7-0.1,3.3,0,4.9V50.5c0,0.5,0,1-0.1,1.5
		C75.2,52.1,75.2,52.3,75.2,52.5z"/>
	<path class="st0" d="M75.1,19.7c-0.1,0.7-0.1,1.4,0,2.1c0,0.2,0,0.4,0,0.5c0,0.5,0.1,1.1,0.1,1.6c0,0.2,0,0.4,0,0.6
		c0,0.2,0,0.3,0,0.5c0,1.2-0.2,2.4-0.2,3.6c0,0.8,0.1,1.5,0.2,2.3c0,0.2,0,0.3,0,0.5c0,0.2,0,0.4,0,0.5c0,0.2,0,0.4,0,0.5
		c0,0.1,0,0.2,0,0.4c0,0.1,0,0.2,0,0.4c-0.1,0.2-0.1,0.5,0,0.7c0,0.2,0,0.5,0,0.7c0,0.2,0,0.4,0,0.5c0,0.5,0.1,1.1,0.2,1.6
		c0,0.2,0,0.4,0,0.6c0,1,0,2.1,0,3.1c0,0.2,0,0.4,0,0.6c0,0.6,0,1.4,0,2.1v0.4v0.9V45c0,0.2,0,0.3,0,0.5c0,0.2,0,0.3,0,0.5
		c0,0.4,0.1,0.8,0.1,1.2V36c0-0.1,0-0.1,0-0.2c0-0.2,0-0.3,0-0.5c-0.1-0.6,0-1.3,0-2v-4.2c0-0.3,0-0.6,0-1v-9.7
		c0,0.2-0.1,0.4-0.1,0.7C75.2,19.3,75.1,19.5,75.1,19.7z"/>
	<path class="st0" d="M75.3,4.1c-0.3,1.8-0.5,3.6-0.3,5.5c0,0.2,0,0.4,0,0.6c0,0.3,0.1,0.9,0.2,1.3c0.1,1.3,0,2.5,0.1,3.7v-5.1
		c0-0.1,0-0.3,0-0.4c0-0.2,0-0.5,0-0.7c-0.4-1.5-0.2-2.8,0-4.3v-3c0,0.5,0,1.1,0,1.6C75.3,3.6,75.3,3.9,75.3,4.1z"/>
	<path class="st0" d="M75.3,0L75.3,0c0,0.4,0,0.8,0,1.2V0z"/>
	<path class="st0" d="M74.5,3.5c0.1,1.9,0.2,3.7-0.2,5.6c0,0.1,0,0.3,0,0.4c0,0.1,0,0.2,0,0.3c-0.1,1.7,0.3,3.4,0.2,5.2
		c-0.1,0.7,0.1,1.5,0.3,2.1c0.1,0.3,0.1,0.6,0,0.9c0,0.2,0,0.3-0.1,0.5c-0.7,1.4-0.7,3.1-0.3,4.9c0,0.2,0,0.3,0,0.5
		c0,0.2,0,0.3,0,0.5c0,0.2,0,0.3,0,0.5c0,1-0.1,2-0.2,3.1c-0.1,1.2,0.2,2.4,0.3,3.6c0,0.5,0,1,0,1.5c0,0.2,0,0.3,0,0.5
		c0,0.4,0,0.6,0,0.9c0,0.2,0,0.5,0,0.7c0.1,3.9,0.1,7.8,0.1,11.7c0,0.2,0,0.3,0,0.4c0.3,1.3,0.2,2.5,0,3.9c0,0.2,0,0.5,0,0.7
		c0,2.4,0,4.9-0.1,7.3c0,0.2,0,0.4,0,0.7c-0.1,0.5-0.2,1-0.2,1.5c0.2,1,0.3,2.1,0.2,3.1c0,0.2,0,0.3-0.1,0.4c0,0.8,0,1.6,0,2.3
		c0,0.3,0,0.6,0,0.9c0,0.2,0,0.3,0,0.5c0.3,4.5,0.1,9.3,0.2,13.8c0,0.2,0,0.4,0,0.6c0,2.8,0,5.5,0,8.3c0,0.4-0.2,1.1-0.2,1.6
		c0.1,2.2,0.2,4.3,0.2,6.5c0,0.2,0,0.4,0,0.6c-0.1,1.8-0.1,3.7-0.1,5.5c0,0,0,0.1,0,0.1h0.2c0-0.1,0-0.1,0-0.2
		c-0.1-1.7-0.1-3.5,0.1-5.2c0-0.2,0-0.4,0-0.6c0.1-2.1,0-4.1-0.1-6.3c-0.1-0.9,0.3-1.7,0.2-2.6c-0.1-2.4-0.2-4.8-0.2-7.1
		c0-0.2,0-0.4,0-0.6c0-4.8,0.2-9.8-0.1-14.6c0-0.2,0-0.4,0-0.6c0-0.4,0-0.7,0-1.1c0-0.2,0-0.4,0-0.5c0-0.4,0-0.9,0-1.4
		c0-0.1,0-0.2,0-0.4c0.3-1.3-0.2-2.6,0-3.9c0-0.1,0-0.3,0-0.5c0-2.5,0-5,0.1-7.6c0-0.2,0-0.4,0-0.6c0.3-1.6,0.6-3.3,0.1-4.9
		c0-0.3,0-0.5,0-0.7c-0.1-2.3-0.2-4.7,0-7.1c0.1-1,0-2-0.1-2.9c0-0.2,0-0.4,0-0.6c0-1,0-2.1,0.2-3.1c0-0.2,0-0.3,0-0.5
		c0-0.2,0-0.3,0-0.5c-0.1-0.8-0.3-1.6-0.4-2.4c0-1.5,0.2-3.1,0.3-4.6c0-0.2,0-0.4,0-0.6c0-0.2,0-0.3,0-0.4c0-0.2,0-0.4,0-0.5
		c-0.4-1.4-0.6-2.9,0.2-4.1c0.1-0.2,0.1-0.4,0.2-0.6c0.1-0.5,0.1-1.1,0-1.6c-0.4-1.6-0.1-3.3-0.3-4.9c-0.1-0.5-0.1-1-0.1-1.5
		c0-0.2,0-0.3,0-0.5c0.1-1.9,0.3-3.8,0.4-5.7c0-0.1,0-0.3,0-0.4c0-1.2-0.1-2.4-0.2-3.5h-0.3c0.1,1,0.1,1.9,0.1,2.8
		C74.5,3,74.5,3.2,74.5,3.5z"/>
	<path class="st0" d="M73.7,3.8c0,0.2,0,0.4,0,0.6c0.2,1.3,0.5,2.5,0,3.7c0,0.3-0.1,0.5-0.1,0.7c0,2.8,0,5.5,0.2,8.4
		c0,0.2,0,0.5,0.1,0.7c-0.2,1.9-0.2,3.8-0.3,5.8c0,0.2,0,0.4,0,0.5c0,0.2,0,0.4,0,0.5c0,0.2,0,0.3,0,0.4c-0.1,0.7-0.2,1.5-0.2,2.1
		c0.1,3,0.1,6.1,0.2,9.1c0,0.3,0.1,0.9,0.1,1.2c0,4.5,0.1,9,0,13.5c0,0.6-0.1,1.1-0.2,1.7c-0.1,2-0.1,4,0,6c0,0.2,0,0.4-0.1,0.7
		c-0.1,0.6-0.3,1.3-0.1,1.8c0.4,1,0.9,2.2,0.4,3.4c-0.1,0.2-0.1,0.4-0.1,0.7c0,0.7,0,1.3,0,2c0,1,0,2,0.1,3c0,0.3,0,0.5,0,0.8
		c0,0.5,0,0.9,0,1.2c0,0.3,0,0.7,0,1c-0.1,5.8,0.2,11.6-0.1,17.4c-0.1,2.2,0.2,4.5,0.2,6.6c0,0.8,0,1.7,0,2.5c0,0.2,0,0.4,0,0.7
		c0.2,1.4,0,3-0.1,4.4c0,0.1,0,0.3,0,0.4h0.2c0,0,0-0.1,0-0.1c0.1-1.7,0.2-3.4,0.1-5.1c0-0.2,0-0.4,0-0.6c0-0.4,0-0.8,0.1-1.2
		c0.2-2-0.5-3.9-0.3-6.1c0.1-0.4,0.2-1,0.2-1.5c0.1-5.6-0.1-11.1,0-16.7c0-1.8-0.1-3.6-0.1-5.4c0-1.1,0-2.2-0.1-3.2
		c0-0.2,0-0.4,0-0.7c0.6-1.6-0.4-2.8-0.4-4.5c0-0.2,0.1-0.4,0.2-0.7c0.1-0.2,0.1-0.4,0.1-0.6c0-2,0-4,0-5.9c0-0.6,0.2-1,0.2-1.6
		c0.2-3-0.1-6.1,0-9.1c0.2-4.7-0.3-9.5-0.2-14.1c0-0.8,0.1-1.7,0.1-2.5c0-0.2,0-0.4,0-0.6c0-0.4,0-0.7,0-1.1c0-0.2,0-0.3,0-0.5
		c0-1.9-0.1-3.7,0.3-5.5c0-0.2,0-0.4,0-0.5c-0.3-2.6-0.3-5.2-0.2-7.8c0-0.2,0-0.4,0-0.7C74.4,7.3,74.4,6,74,4.2c0-0.1,0-0.2,0-0.4
		c0-1.3-0.1-2.5-0.2-3.8h-0.2c0,0.2,0,0.4,0,0.6C73.7,1.6,73.7,2.7,73.7,3.8z"/>
	<path class="st0" d="M70.1,72.7c0,0.1,0.1,0.2,0.2,0.3c0,0-0.1-0.1-0.1-0.1c-0.1-0.2-0.1-0.4-0.2-0.6c0-0.1-0.1-0.2-0.1-0.4
		c0-0.1,0-0.2,0-0.3c0,0.2,0,0.3,0,0.5C70,72.3,70,72.5,70.1,72.7z"/>
	<path class="st0" d="M73,98.2c0.1-0.3,0.1-0.9,0-1.2c-0.6-2.6-0.4-5.3-0.2-7.9c0.1-2.7-0.2-5.2-0.1-8c0-0.2,0-0.4,0-0.6
		c0.2-1.9-0.1-3.7,0.1-5.6c0-0.1,0.1-0.3,0.1-0.5c0.1-0.2,0.1-0.4,0.2-0.8c0-0.1,0.1-0.3,0.1-0.4c0-0.1,0.1-0.3,0.1-0.4
		c0.2-0.7,0.2-1.6-0.1-2.2c0.1,0.1,0.1,0.3,0.1,0.4c0,0.1,0,0.2,0,0.3c0,0.4-0.1,0.8-0.1,1.2c0,0,0,0.1,0,0.1c0,0,0,0,0,0
		c0,0.1,0,0.2,0,0.4c0,0.1-0.1,0.3-0.1,0.4c-0.1,0.4-0.3,0.9-0.5,1.3c0,0.2,0,0.3,0,0.5c-0.2,1.8-0.1,3.6-0.1,5.5c0,0.2,0,0.4,0,0.7
		c0,2.6,0.1,5.2,0.1,7.9c0,1.2-0.4,2.5-0.2,3.7c0.1,1.5,0.1,2.8,0.3,4.2c0.2,1.2-0.2,2.4-0.2,3.6c0,0.2,0,0.4,0,0.6
		c0,0.2,0,0.4,0,0.6c-0.1,1.2,0,2.4,0,3.6h0.1C72.6,103,72.5,100.6,73,98.2z"/>
	<path class="st0" d="M70.8,73.6c0.1,0.1,0.2,0.1,0.4,0.1c0,0,0,0,0,0c0.1,0,0.1,0,0.1,0c0.1-0.1,0.2-0.2,0.3-0.3
		c-0.2,0.1-0.4,0.1-0.5,0c-0.4-0.1-0.7-0.6-0.9-1c0,0.1,0.1,0.2,0.1,0.3C70.5,73,70.6,73.3,70.8,73.6z"/>
	<path class="st0" d="M70.3,73c0.1,0.2,0.3,0.4,0.5,0.6C70.7,73.4,70.4,73.2,70.3,73z"/>
	<path class="st0" d="M71.9,69.9C72,69.9,72,69.9,71.9,69.9C72,69.9,72,69.9,71.9,69.9z"/>
	<path class="st0" d="M72.5,4.8c0,0.2,0,0.3,0,0.5v2.1c-0.1,1.5,0,3,0,4.5c0,0.2,0,0.4,0,0.6c0.1,1.9,0.1,3.9,0,5.9
		c0,0.2,0,0.4,0,0.7c0,0.2,0,0.4,0,0.6c0.1,0.9,0.1,1.6,0,2.5c0,0.2,0,0.3,0,0.5c0,0.5,0,1,0,1.5c0,0.2,0,0.4,0,0.6
		c0,1.1,0,2.3-0.1,3.4c-0.1,0.8,0.1,1.7,0.1,2.4c0,0.2,0,0.4,0,0.6c0,0.1,0,0.3,0,0.4v0.6c-0.1,2,0.1,3.8,0.2,5.5
		c0.1,4.4,0.1,8.8-0.1,13c-0.1,2.5-0.2,5.1,0,7.6c0,0.1,0,0.2,0,0.4c0,0.1,0,0.2,0,0.4c0,0.2,0,0.4,0,0.6c-0.1,1.3,0,2.4,0.2,3.6
		c0,0.2,0,0.3,0,0.4c0,0.2-0.1,0.4-0.1,0.5c0,0.3,0.1,0.6,0.2,0.8c0-0.3,0-0.7,0.1-1c0-0.2,0.1-0.3,0.1-0.5
		c-0.1-1.5-0.6-2.7-0.3-4.1c0-0.2,0-0.4,0-0.7c0-0.2,0-0.4,0-0.7c-0.1-2-0.3-3.9-0.1-5.9c0.1-0.7,0.2-1.3,0.2-1.9
		c-0.1-4.2,0.1-8.2,0-12.3c0-2-0.2-4-0.1-6.1v-0.4c0-0.2,0-0.4,0-0.6c0-0.2,0-0.4,0-0.6c0-1-0.2-2.1-0.1-3.1
		c0.1-0.8,0.1-1.6,0.1-2.4c0-0.2,0-0.4,0-0.6c0-0.4,0-0.8,0-1.2c0-0.2,0-0.4,0-0.6c0.4-1.1,0.4-2.3,0-3.4c0-0.3,0-0.5,0-0.7
		c0.1-1.8,0.1-3.7,0-5.6c0-0.2,0-0.4,0-0.6c0-1.6-0.1-3.3,0-4.9V5.8c0-0.2,0-0.3,0-0.5c0-1.8,0.2-3.5,0.1-5.3h-0.2
		C72.6,1.6,72.5,3.2,72.5,4.8z"/>
	<path class="st0" d="M70.3,72.4c0,0,0-0.1,0-0.1C70.3,72.3,70.3,72.3,70.3,72.4C70.3,72.4,70.3,72.4,70.3,72.4z"/>
	<path class="st0" d="M70.8,73.6C70.8,73.6,70.8,73.6,70.8,73.6C70.8,73.6,70.8,73.6,70.8,73.6C70.8,73.6,70.8,73.6,70.8,73.6z"/>
	<path class="st0" d="M71.9,70C71.9,70,71.9,69.9,71.9,70C71.9,69.9,71.9,70,71.9,70z"/>
	<path class="st0" d="M72.9,68.8C72.9,68.8,72.9,68.8,72.9,68.8C72.9,68.8,72.9,68.8,72.9,68.8z"/>
	<path class="st0" d="M72.9,68.8c0.1-0.3,0.2-0.6,0.1-1C73,68.1,73,68.5,72.9,68.8z"/>
	<path class="st0" d="M72.7,65.2c0,0.9,0.3,1.8,0.3,2.6C73.1,67,72.9,66.1,72.7,65.2z"/>
	<path class="st0" d="M72.7,69.3c0.1-0.1,0.1-0.2,0.2-0.4c-0.1,0.2-0.2,0.3-0.4,0.5c-0.2,0.2-0.4,0.3-0.7,0.5
		C72.1,69.8,72.5,69.6,72.7,69.3z"/>
	<path class="st0" d="M72.8,69c0-0.1,0-0.1,0.1-0.2C72.9,68.9,72.8,68.9,72.8,69z"/>
	<path class="st0" d="M70.3,70.5c-0.1,0.1-0.2,0.2-0.2,0.3c-0.1,0.2-0.2,0.5-0.2,0.9c0-0.5,0.3-0.8,0.6-1.1
		c-0.3,0.3-0.4,0.7-0.4,1.2c0,0.2,0.1,0.3,0.1,0.5c0,0,0,0,0,0.1c0-0.2-0.1-0.3-0.1-0.5c-0.1-0.6,0.1-1,0.4-1.3
		c0.3-0.2,0.6-0.3,0.9-0.5c0.1,0,0.2,0,0.3,0c-0.1,0-0.2,0-0.3,0c0,0,0.1,0,0.1-0.1c-0.4,0.1-0.9,0.2-1.2,0.5
		C70.5,70.4,70.4,70.4,70.3,70.5C70.3,70.5,70.3,70.5,70.3,70.5z"/>
	<path class="st0" d="M72.9,70.2C72.9,70.2,72.9,70.2,72.9,70.2c0.2,0.1,0.3,0.3,0.4,0.4c-0.1-0.2-0.2-0.4-0.5-0.5
		c-0.2-0.1-0.5-0.1-0.8-0.1c0.2,0,0.3,0,0.5,0.1C72.6,70.1,72.8,70.1,72.9,70.2z"/>
</g>
</svg>
