<?xml version="1.0" encoding="utf-8"?>
<!-- Generator: Adobe Illustrator 21.1.0, SVG Export Plug-In . SVG Version: 6.00 Build 0)  -->
<svg version="1.1" id="Calque_1" xmlns="http://www.w3.org/2000/svg" xmlns:xlink="http://www.w3.org/1999/xlink" x="0px" y="0px"
	 viewBox="0 0 1592 148.5" style="enable-background:new 0 0 1592 148.5;" xml:space="preserve">
<style type="text/css">
	.st0{fill:#FFFFFF;}
	.st1{fill:#A8D3AF;}
</style>
<g>
	<path class="st0" d="M1228.6,119.7l-8.4-6.2l-0.2-30.2l-7.5-27.2l-7.3,26.2l0.8,26.6v2.2l-9.5,2.9l-0.8-2.6l7.6-2.3l-0.8-27.2
		l0.1-0.2l8.6-31.1l0.2-24l-8.3,14.8l-5.4,14.3c3.1,1.2,3.8,5.3,3.9,7.1h0.8v15.7h-13.3V62.8h0.8c0-1.4,0.3-4,1.9-5.8
		c0.9-0.9,1.9-1.5,3.2-1.6l5.7-15.2l10.7-19.1l0.1-5.8c-3.2-0.4-5.7-3.2-5.6-6.5V7.6c0.1-3.5,3.1-6.2,6.6-6.1h1.2
		c3.5,0.1,6.2,3.1,6.1,6.6v1.2c-0.1,3.1-2.6,5.7-5.6,6.1l-0.1,5.2l9.9,18.1l5.9,16.8c3.9,0.7,4.7,5.6,4.9,7.3h0.9v15.7h-13.4V62.8
		h0.7c0-1.4,0.3-4,1.9-5.8c0.6-0.7,1.4-1.2,2.3-1.4l-5.6-15.9l-7.4-13.7l-0.2,25.1l8.8,31.8V83l0.2,29.2l7.3,5.4L1228.6,119.7z
		 M1225.8,62.8h6.5c-0.2-1.6-0.8-4.8-3.1-4.8c-0.9,0-1.6,0.3-2.1,0.8C1226,59.9,1225.8,61.8,1225.8,62.8z M1192.6,62.8h6.5
		c-0.2-1.6-0.8-4.8-3.1-4.8c-0.9,0-1.6,0.3-2.1,0.8C1192.8,59.9,1192.6,61.8,1192.6,62.8z"/>
</g>
<g>
	<path class="st0" d="M887,112l-1.9-1.2l4.2-6.4l-11.1,1.3l-0.3-2.1v-0.2l0,0l0.3-0.2l19.9-13.7l-20.8-11l1.9,17.3l-8.8-0.4
		l-3.8,12.9l-2.5-0.7l3.6-12.3l-5.4-0.2l2.1,3.4l-2.2,1.4l-9.7-15.4l-2.8,1.7l-0.2-0.2c-2.2-1.5-2.6-3.9-2.6-4v-0.3l7.6-4.7l0.2,0.1
		c0.1,0,2.1,1,2.7,4.1l0.1,0.3l-2.6,1.6l5.9,9.4l7.7,0.3l4.8-16.4l-3.7-2c-0.9,2.3-3.1,3.9-5.6,3.9c-0.4,0-0.8,0-1.1-0.1l-1.9-0.4
		c-3.2-0.6-5.3-3.8-4.7-7l0.4-1.9c0.5-2.8,3-4.8,5.9-4.8c0.4,0,0.8,0,1.1,0.1l1.9,0.4c3.2,0.6,5.3,3.8,4.7,7l-0.1,0.3l32.2,17
		l-8,12.3l10.9-1.3l-0.4,3.9l8.9-2.8l-1.3,10l-2.5-0.3l0.7-6.1l-6.2,1.9l-0.4,3.7l-2.5-0.3l0.3-2.6L887,112z M871.1,92.9l5.2,0.2
		l-1.4-13.2L871.1,92.9z M892.6,103.9l-2.9,4.5l12.6-3.9l0.2-1.8L892.6,103.9z M896,94l-12.3,8.4l7.4-0.9L896,94z"/>
</g>
<g>
	<path class="st0" d="M1546.1,114.8h-3.1l-4.9-2.2l1-1.4l-10.3-1.1l-2.8,4.6h-1.5l-1.1-0.7l4-6.7l13.5,1.4l1.8-2.4l-12-9.2l9.9-33.9
		c-1.3-0.8-2.3-2-2.7-3.5s-0.3-3.1,0.5-4.5l0.9-1.7c1-1.9,3.1-3.1,5.2-3.1c1,0,2,0.3,2.9,0.7l1.7,0.9c2.9,1.6,3.9,5.2,2.4,8.1
		l-0.9,1.7c-1,1.9-3.1,3.1-5.2,3.1c-0.8,0-1.7-0.2-2.4-0.5l-1.8,6.3l0.2,0.6l9.1,9l15.4,4.9l-0.8,2.4l-16-5.1l-6.3-6.3l2.7,9.6
		l17.6,5.3l-0.7,2.4l-18.9-5.7l-3.6-12.6l-5.8,19.8l20.2-2.5l0.3,2.3l-8.1,10.8l6,4.6l-1.4,1.9l-8.8-1l0,0l4.6,2L1546.1,114.8z
		 M1543.9,109.1l2.7,0.3l-1.8-1.4L1543.9,109.1z M1535.4,97.7l8.8,6.7l6.5-8.6L1535.4,97.7z"/>
</g>
<path class="st0" d="M1056.3,84l-8-30.9l0.4-1.2l6.4-23.2l6.4,14.8l-0.1,19.8h2.5l0.1-20.2v-0.4l-7.7-17.9l1.5-5.6
	c0.6,0.2,1.3,0.3,1.9,0.3c2.3,0,4.3-1.2,5.4-3.2l1-1.8c0.8-1.4,1-3.1,0.5-4.7s-1.5-2.9-2.9-3.7l-1.8-1c-0.9-0.5-1.9-0.8-3-0.8
	c-2.3,0-4.3,1.2-5.4,3.2l-0.7,1.2c0-0.1-0.1-0.1-0.1-0.2c-0.3-0.7-0.7-1.4-1.2-2.1c-0.5-0.8-1.1-1.5-2-2.3c-0.8-0.7-1.7-1.4-2.6-2
	c-1.1-0.6-2.2-1.1-3.4-1.4c-1-0.3-1.9-0.4-2.9-0.5c-1.5-0.1-3,0.1-4.5,0.5s-2.8,1.1-4,1.9c-1.1,0.8-2.1,1.8-3,3
	c-0.7,1-1.3,2.1-1.7,3.3c-0.5,1.5-0.8,3.1-0.7,4.8c0.1,1.4,0.4,2.8,0.9,4s1.2,2.2,1.9,3l0.1,0.1c0.4,0.5,0.9,0.9,1.4,1.3
	c1,0.8,2.1,1.5,3.4,1.9c1,0.3,1.9,0.5,2.9,0.6c0.9,0.1,1.8,0.1,2.8-0.1c0.9-0.1,1.9-0.4,2.8-0.9c1-0.5,2-1.2,2.8-1.9
	c0.6-0.6,1.1-1.3,1.6-2.1c1-1.7,1.5-3.7,1.4-5.7c-0.1-1.1-0.3-2.2-0.8-3.2c-0.5-1.2-1.2-2.2-2.1-3c-1-0.9-2.1-1.6-3.5-2
	c-0.9-0.3-1.9-0.4-2.9-0.4c-0.9,0-1.9,0.3-2.8,0.6c-0.8,0.3-1.4,0.7-1.9,1.2c-0.4,0.4-0.8,0.8-1.2,1.3c-0.5,0.6-0.9,1.4-1.1,2.2
	c-0.3,1-0.5,2.1-0.3,3.1c0.1,1.1,0.5,2.1,1.1,3c0.5,0.7,1,1.2,1.6,1.6c1.3,0.9,2.6,1.2,4.1,1.1c1.3-0.1,2.4-0.6,3.2-1.5
	c1.1-1.2,1.6-2.6,1.4-4.1c-0.1-0.9-0.5-1.6-1.1-2.2c-0.8-0.8-1.8-1.2-2.9-1.1c-0.7,0-1.5,0.4-1.9,1.1c-0.4,0.6-0.6,1.2-0.4,1.9
	c0.2,1.1,1.1,1.7,2.1,1.5c0.6-0.1,1.1-0.7,1.1-1.3c0-0.2,0-0.4-0.1-0.6c0.4,0.2,0.7,0.6,0.7,1c0.1,0.7-0.1,1.3-0.5,1.8
	c-0.5,0.5-1.1,0.9-1.9,0.9c-1.7,0.1-3.2-0.9-3.8-2.6c-0.4-1.4-0.2-2.7,0.7-4.1c0.3-0.4,0.6-0.8,1.1-1.1c0.7-0.5,1.4-0.8,2.2-1
	c0.8-0.2,1.6-0.1,2.5,0.1c1.3,0.3,2.4,1,3.4,2.1c0.5,0.6,0.9,1.3,1.2,2.1c0.6,1.8,0.4,3.6-0.4,5.3c-0.7,1.5-1.8,2.8-3.3,3.6
	c-1.3,0.7-2.7,1-4.2,0.9c-1.3-0.1-2.5-0.4-3.6-1c-0.7-0.4-1.3-0.8-1.8-1.2c-0.4-0.3-0.7-0.7-1-1.1c-0.1-0.2-0.3-0.3-0.4-0.5
	c-0.6-0.7-1-1.6-1.3-2.3c-0.6-1.7-0.7-3.5-0.3-5.5c0.4-1.7,1.1-3.2,2.3-4.6c0.8-0.9,1.7-1.7,2.8-2.2c1.3-0.7,2.7-1.2,4.2-1.3
	c1.6-0.1,3.2,0.1,4.7,0.6c0.9,0.3,1.7,0.7,2.4,1.1c0.5,0.3,1,0.7,1.4,1c0.4,0.3,0.7,0.7,1.1,1c0.4,0.5,0.9,1,1.2,1.6
	c0.4,0.6,0.7,1.3,1,2c0.5,1.1,0.8,2.4,0.8,4c0,1.2-0.1,2.4-0.4,3.5c-0.4,1.4-0.9,2.8-1.7,4c-0.7,1-1.4,1.9-2.3,2.7
	c-0.4,0.4-0.9,0.7-1.5,1.1c-0.2,0.1-0.4,0.2-0.5,0.4c-0.8,0.6-1.7,0.9-2.5,1.1c-1,0.3-2.1,0.6-3.3,0.6c-1.9,0.1-3.7-0.1-5.5-0.7
	c-2-0.7-3.8-1.7-5.3-3.2c-0.2-0.2-0.5-0.5-0.7-0.7l-4.1-5.5l-2.1,1.6l11.5,15.4l19.6-6.3l-6.4,23.4l-9.6,30.6v28h-7.7v2.6h10.3V82.1
	l7.7-24.3l7,27.2l13.7,22.7l-6.5,3.9l1.3,2.3l8.8-5.2L1056.3,84z M1032.4,28.8c0.9,0.3,1.9,0.6,3,0.8c0.7,0.1,1.4,0.2,2.1,0.3
	l-3.4,1.1L1032.4,28.8z M1048.4,26.4c0.6-0.5,1.1-1,1.6-1.6c0.7-0.8,1.3-1.6,1.8-2.4c1-1.6,1.7-3.4,2-5.3c0-0.1,0-0.2,0.1-0.3
	c0.3,0.3,0.7,0.5,1,0.7l0.5,0.3l-1.9,6.9L1048.4,26.4z"/>
<g>
	<g>
		<path class="st0" d="M1339.8,115.7l-7.5-5.5l5.9-25.9l-4.5-25.9l-0.1-0.6l8.2-36.2c-3-1.5-4.3-5.1-2.9-8.1l0.5-1.1
			c1-2.3,3.3-3.8,5.9-3.8c0.9,0,1.7,0.2,2.5,0.5l1.1,0.5c1.6,0.7,2.8,1.9,3.4,3.5c0.6,1.6,0.6,3.3-0.1,4.9l-0.5,1.1
			c-1,2.3-3.3,3.8-5.8,3.8c-0.5,0-1-0.1-1.5-0.2l-1,4.4l9.1,18.3l13.6,12.4l-1.8,2l-14-12.8l-6.5-13.1l0.8,14.3l19.1,12.3l-1.4,2.2
			l-20.2-13l-1-13.1l-4.8,21l17.4,23.2l3.3,27.1l7.2-0.2l0.1,2.7l-9.7,0.3l-3.5-28.9l-14-18.6l3.7,21.3l-0.1,0.3l-5.5,24.4l6.1,4.4
			L1339.8,115.7z"/>
	</g>
	<g>
		<path class="st0" d="M1385.5,116.6c-1.9,0-3.1,0-3.1,0h-1.3v-1.3c0-10.8,2.9-15.2,3-15.3l0.4-0.6h0.8c0.7,0,4.5-0.1,8.8-1.8
			c-2.7-4.9-14.3-24.7-29.6-35.7l-0.4-0.3l1.6-2.2l0.4,0.3c15.9,11.4,27.8,31.8,30.5,36.7c3-1.6,5.3-3.8,7.1-6.5l0.4-0.6h0.8
			c13.9,0.4,19.5,7.7,19.7,8l0.3,0.4v0.5c-0.2,3.3-1,14.1-2.2,16.1C1422,115.2,1421.1,116.6,1385.5,116.6z M1383.8,113.9
			c0.5,0,1,0,1.7,0c21.6,0,32.9-0.6,34.9-1.3c0.6-1.6,1.3-8.3,1.7-14.1c-1.2-1.3-6.2-6.1-16.6-6.6c-6.1,8.9-16.7,9.9-19.4,10
			C1385.4,103.3,1384,107,1383.8,113.9z"/>
	</g>
</g>
<path class="st0" d="M1592,98.2c-0.3-2-0.9-3.9-1.8-5.6c-0.7-1.3-1.5-2.4-2.5-3.4c-1.2-1.3-2.6-2.3-4.1-3c-0.7-0.4-1.5-0.7-2.3-1
	c-0.9-0.3-1.9-0.5-3.1-0.6c-1.1-0.1-2.3-0.1-3.4,0.1c-1.3,0.2-2.5,0.5-3.7,1.1c-1,0.4-1.9,0.9-2.7,1.5c-1.3,0.9-2.4,2-3.3,3.3
	c-0.9,1.3-1.6,2.7-2,4.1s-0.6,2.9-0.5,4.4c0.1,1.3,0.3,2.5,0.8,3.8c0.5,1.6,1.4,3.1,2.6,4.4c1,1.1,2.1,2,3.4,2.7
	c1.2,0.7,2.4,1.1,3.5,1.2h0.1c0.6,0.1,1.3,0.2,2,0.2c1.3,0,2.7-0.2,4-0.6c1-0.3,1.9-0.8,2.8-1.4c0.8-0.5,1.5-1.1,2.2-1.9
	c0.7-0.7,1.2-1.6,1.7-2.5c0.5-1.1,0.9-2.2,1-3.4c0.1-0.9,0.1-1.8,0-2.7c-0.3-2.1-1.1-4-2.6-5.6c-0.8-0.9-1.7-1.6-2.7-2.1
	c-1.2-0.6-2.4-1-3.7-1.1c-1.4-0.1-2.7,0.1-4.2,0.6c-0.9,0.3-1.8,0.9-2.6,1.6c-0.7,0.7-1.4,1.4-1.8,2.3c-0.4,0.8-0.7,1.5-0.8,2.2
	c-0.1,0.6-0.2,1.2-0.2,1.8c0,0.8,0.2,1.7,0.5,2.5c0.4,1.1,1,2,1.7,2.8c0.8,0.8,1.8,1.4,2.9,1.7c0.9,0.3,1.6,0.4,2.4,0.3
	c1.6-0.2,3-0.7,4-1.8c1-0.9,1.5-2,1.7-3.3c0.2-1.7-0.3-3.2-1.5-4.3c-0.7-0.6-1.4-1-2.3-1.1c-1.2-0.1-2.2,0.2-3.2,1
	c-0.6,0.5-0.9,1.4-0.9,2.2c0,0.5,0.2,1.3,0.9,1.9c0.9,0.7,2.1,0.7,2.8-0.2c0.4-0.5,0.5-1.3,0.1-1.9c-0.1-0.1-0.1-0.2-0.2-0.2l0,0
	c0.3,0,0.6,0.1,0.9,0.4c0.5,0.5,0.7,1,0.7,1.7s-0.3,1.4-0.9,1.9c-0.7,0.6-1.5,1-2.4,1c-0.8,0-1.5-0.2-2.2-0.7
	c-1.2-0.8-1.9-2-2.1-3.7c0-0.5,0-1,0.1-1.6c0.2-0.8,0.6-1.5,1.1-2.2c0.5-0.6,1.2-1.1,2-1.5c1.2-0.6,2.5-0.7,4-0.5
	c0.8,0.1,1.5,0.5,2.3,0.9c1.6,1.1,2.6,2.6,3.1,4.5c0.4,1.7,0.3,3.4-0.4,5c-0.6,1.3-1.5,2.5-2.8,3.4c-1.1,0.8-2.2,1.3-3.5,1.5
	c-0.8,0.1-1.4,0.2-2,0.2h-0.2c-0.5,0-1-0.1-1.5-0.2h-0.1c-0.2,0-0.4-0.1-0.6-0.1c-0.9-0.2-1.8-0.6-2.4-1c-1.6-1-2.8-2.4-3.7-4.1
	c-0.8-1.6-1.1-3.3-1.1-5.1c0-1.2,0.3-2.4,0.8-3.6c0.6-1.4,1.5-2.7,2.6-3.7c1.2-1.1,2.6-2,4.1-2.5c1-0.3,1.8-0.5,2.6-0.6
	c0.6,0,1.2-0.1,1.7-0.1h0.1c0.5,0,1,0.1,1.5,0.2c0.8,0.1,1.4,0.3,2,0.5c0.7,0.2,1.4,0.6,2.1,1c1.1,0.6,2.2,1.4,3.2,2.6
	c0.8,0.9,1.4,1.9,1.9,3.1c0.6,1.4,1,2.8,1.2,4.3c0.1,1.2,0.1,2.4-0.1,3.6c-0.1,0.6-0.3,1.2-0.5,1.8v0.1c-0.1,0.2-0.1,0.4-0.2,0.6
	c-0.3,1-0.8,1.8-1.2,2.5c-0.6,0.9-1.3,1.8-2.2,2.6c-1.4,1.3-3,2.3-4.8,2.9c-2.1,0.7-4.2,1-6.3,0.9c-1.1-0.1-1.8-0.1-2.9-0.1h-0.4
	c-0.1,0-0.1,0-0.2,0s-0.3,0-0.4,0H856.3h-0.4h-25.2l2.7-1.8h8.4l5.2-3.8h9.9l4.4-3.4h9.9l3-2.6h-13.8l-4.4,3.4h-9.8l-5.2,3.8h-8.4
	l-10.5,6.8h33.7h715.9h0.1c0.3,0,0.6,0.1,1,0.1c0.5,0.1,1,0.1,1.5,0.1c0.1,0,0.2,0,0.3,0c0.8,0,1.7,0,2.5-0.1h0.1
	c2-0.2,3.9-0.8,6.2-1.9c1.1-0.6,2.1-1.3,3-2c1.2-1,2.3-2.2,3.1-3.5c0.8-1.3,1.5-2.7,2-4.2c0.4-1.2,0.6-2.4,0.7-3.6
	C1592.2,100.2,1592.1,99.2,1592,98.2z"/>
<g>
	<g>
		<path class="st0" d="M826.2,140.9h-1.3v7.6h-2.7v-17.9h3.9c2.9,0,4.5,1.6,4.5,4.5v1.3c0,1.9-0.7,3.2-1.9,3.9l2.5,8.2h-2.9
			L826.2,140.9z M824.9,138.4h1.1c1.3,0,1.9-0.7,1.9-2.2v-0.9c0-1.5-0.6-2.2-1.9-2.2h-1.1V138.4z"/>
		<path class="st0" d="M841.7,134.8v9.4c0,2.8-1.7,4.5-4.4,4.5s-4.4-1.7-4.4-4.5v-9.4c0-2.8,1.7-4.5,4.4-4.5S841.7,132,841.7,134.8z
			 M835.6,134.9v9.3c0,1.3,0.6,2.1,1.7,2.1c1.1,0,1.7-0.7,1.7-2.1v-9.3c0-1.3-0.6-2.1-1.7-2.1C836.2,132.8,835.6,133.5,835.6,134.9z
			"/>
		<path class="st0" d="M852.5,144.5c0,2.8-1.6,4.3-4.2,4.3c-2.6,0-4.2-1.5-4.2-4.3v-13.9h2.6v13.8c0,1.3,0.6,1.8,1.5,1.8
			c0.9,0,1.5-0.5,1.5-1.8v-13.8h2.7L852.5,144.5L852.5,144.5z"/>
		<path class="st0" d="M859.7,133.1v15.4H857v-15.4h-2.9v-2.6h8.5v2.6H859.7z"/>
		<path class="st0" d="M867.1,133.1v5.1h4v2.5h-4v5.3h4.9v2.5h-7.6v-17.9h7.6v2.5L867.1,133.1L867.1,133.1z"/>
		<path class="st0" d="M883.1,130.5c2.9,0,4.5,1.6,4.5,4.5v8.9c0,2.9-1.6,4.5-4.5,4.5h-3.9v-17.9H883.1z M881.9,146h1.1
			c1.3,0,1.9-0.7,1.9-2.2v-8.5c0-1.5-0.6-2.2-1.9-2.2h-1.1V146z"/>
		<path class="st0" d="M892.9,133.1v5.1h4v2.5h-4v5.3h4.9v2.5h-7.6v-17.9h7.6v2.5L892.9,133.1L892.9,133.1z"/>
		<path class="st0" d="M913.2,134.6v1.6l-2.6,0.1v-1.5c0-1.4-0.5-2.1-1.5-2.1s-1.5,0.6-1.5,1.8v9.8c0,1.2,0.5,1.8,1.5,1.8
			s1.5-0.6,1.5-2.1v-2l2.6,0.1v2.2c0,2.7-1.6,4.3-4.2,4.3s-4.2-1.6-4.2-4.3v-9.8c0-2.7,1.5-4.3,4.2-4.3
			C911.6,130.3,913.2,131.9,913.2,134.6z"/>
		<path class="st0" d="M921.4,148.5v-7.8h-3.2v7.8h-2.7v-17.9h2.7v7.6h3.2v-7.6h2.7v17.9H921.4z"/>
		<path class="st0" d="M933,148.5l-0.6-4.1h-3l-0.6,4.1h-2.7l3.1-17.9h3.5l3.1,17.9H933z M929.7,142h2.3l-1.1-7.6h-0.1L929.7,142z"
			/>
		<path class="st0" d="M943.9,148.5l-3.6-11.9h-0.1v11.9h-2.6v-17.9h3l3.2,10.7h0.1v-10.7h2.6v17.9H943.9z"/>
		<path class="st0" d="M953.4,130.5c2.9,0,4.5,1.6,4.5,4.5v8.9c0,2.9-1.6,4.5-4.5,4.5h-3.9v-17.9H953.4z M952.2,146h1.1
			c1.3,0,1.9-0.7,1.9-2.2v-8.5c0-1.5-0.6-2.2-1.9-2.2h-1.1V146z"/>
		<path class="st0" d="M969,134.8v9.4c0,2.8-1.7,4.5-4.4,4.5c-2.7,0-4.4-1.7-4.4-4.5v-9.4c0-2.8,1.7-4.5,4.4-4.5
			C967.3,130.3,969,132,969,134.8z M962.9,134.9v9.3c0,1.3,0.6,2.1,1.7,2.1c1.1,0,1.7-0.7,1.7-2.1v-9.3c0-1.3-0.6-2.1-1.7-2.1
			C963.5,132.8,962.9,133.5,962.9,134.9z"/>
		<path class="st0" d="M978.9,145.9v2.6h-7.3v-17.9h2.7V146h4.6V145.9z"/>
		<path class="st0" d="M980.6,148.5v-17.9h2.7v17.9H980.6z"/>
		<path class="st0" d="M992.5,148.5l-3.6-11.9h-0.1v11.9h-2.6v-17.9h3l3.2,10.7h0.1v-10.7h2.6v17.9H992.5z"/>
		<path class="st0" d="M1000.8,133.1v5.1h4v2.5h-4v5.3h4.9v2.5h-7.6v-17.9h7.6v2.5L1000.8,133.1L1000.8,133.1z"/>
		<path class="st0" d="M1020.4,134.4v0.7c0,1.7-0.5,3.3-2.2,6l-3,4.8h5.3v2.6h-8.4v-2.3l4-6.5c1.3-2,1.6-3.3,1.6-4.7v-0.4
			c0-1.2-0.5-1.8-1.5-1.8s-1.5,0.6-1.5,2.1v0.9l-2.6-0.1v-1.2c0-2.6,1.6-4.2,4.2-4.2C1018.8,130.3,1020.4,131.8,1020.4,134.4z"/>
		<path class="st0" d="M1024.9,148.5h-2.8l5.1-15.3h-5.6v-2.7h8.4v2.4L1024.9,148.5z"/>
		<path class="st0" d="M1057.8,148.5v-13.8h-3.7v-1.9c2.2-0.2,4-0.9,4.6-2.3h1.9v17.9h-2.8V148.5z"/>
		<path class="st0" d="M1063.2,144.5v-0.8l2.6-0.1v0.6c0,1.4,0.5,2,1.6,2s1.6-0.6,1.6-1.8v-3.7h-0.1c-0.4,0.5-1.2,1-2.4,1
			c-2,0-3.6-1.4-3.6-4.4v-2.4c0-2.8,1.7-4.5,4.4-4.5c2.7,0,4.3,1.7,4.3,4.5v9.6c0,2.7-1.6,4.3-4.3,4.3
			C1064.8,148.7,1063.2,147.2,1063.2,144.5z M1069.1,137.1v-2.2c0-1.3-0.6-2.1-1.6-2.1c-1.1,0-1.6,0.7-1.6,2.1v2.2
			c0,1.3,0.6,2.1,1.6,2.1C1068.5,139.1,1069.1,138.4,1069.1,137.1z"/>
		<path class="st0" d="M1081.8,133.1h-4.9l-0.2,4.2h0.1c0.4-0.4,1.1-0.8,2.1-0.8c2.3,0,3.7,1.6,3.7,4.4v3.4c0,2.8-1.6,4.4-4.3,4.4
			s-4.3-1.6-4.3-4.3v-0.7l2.6-0.1v0.5c0,1.5,0.6,2.1,1.6,2.1c1.1,0,1.7-0.7,1.7-2.1v-3c0-1.3-0.6-2.1-1.7-2.1
			c-0.9,0-1.5,0.5-1.6,1.5v0.4l-2.5-0.1l0.6-10.3h7.3v2.6H1081.8z"/>
		<path class="st0" d="M1093.2,134.8v9.4c0,2.8-1.7,4.5-4.4,4.5c-2.7,0-4.4-1.7-4.4-4.5v-9.4c0-2.8,1.7-4.5,4.4-4.5
			C1091.5,130.3,1093.2,132,1093.2,134.8z M1087.1,134.9v9.3c0,1.3,0.6,2.1,1.7,2.1c1.1,0,1.7-0.7,1.7-2.1v-9.3
			c0-1.3-0.6-2.1-1.7-2.1C1087.7,132.8,1087.1,133.5,1087.1,134.9z"/>
		<path class="st0" d="M1107.6,134.3v0.5l-2.6,0.3v-0.7c0-1-0.5-1.6-1.4-1.6s-1.4,0.5-1.4,1.6v0.2c0,1.1,0.5,1.9,2.3,3.5
			c2.5,2.1,3.4,3.6,3.4,5.7v0.9c0,2.6-1.5,4-4.2,4c-2.7,0-4.2-1.5-4.2-4v-1.2l2.6-0.3v1.3c0,1.1,0.5,1.7,1.5,1.7s1.5-0.6,1.5-1.7
			V144c0-1.1-0.5-2-2.4-3.6c-2.5-2.1-3.3-3.6-3.3-5.7v-0.4c0-2.6,1.5-4,4.1-4C1106.2,130.3,1107.6,131.7,1107.6,134.3z"/>
		<path class="st0" d="M1109.6,148.5v-17.9h2.7v17.9H1109.6z"/>
		<path class="st0" d="M1123.7,134.8v9.4c0,2.8-1.7,4.5-4.4,4.5c-2.7,0-4.4-1.7-4.4-4.5v-9.4c0-2.8,1.7-4.5,4.4-4.5
			C1122.1,130.3,1123.7,132,1123.7,134.8z M1117.7,134.9v9.3c0,1.3,0.6,2.1,1.7,2.1s1.7-0.7,1.7-2.1v-9.3c0-1.3-0.6-2.1-1.7-2.1
			C1118.3,132.8,1117.7,133.5,1117.7,134.9z"/>
		<path class="st0" d="M1132.5,148.5l-3.6-11.9h-0.1v11.9h-2.6v-17.9h3l3.2,10.7h0.1v-10.7h2.6v17.9H1132.5z"/>
		<path class="st0" d="M1171,134.8v9.4c0,2.8-1.7,4.5-4.4,4.5s-4.4-1.7-4.4-4.5v-9.4c0-2.8,1.7-4.5,4.4-4.5
			C1169.3,130.3,1171,132,1171,134.8z M1164.9,134.9v9.3c0,1.3,0.6,2.1,1.7,2.1s1.7-0.7,1.7-2.1v-9.3c0-1.3-0.6-2.1-1.7-2.1
			C1165.5,132.8,1164.9,133.5,1164.9,134.9z"/>
		<path class="st0" d="M1181.1,134.4v0.7c0,1.7-0.5,3.3-2.2,6l-3,4.8h5.3v2.6h-8.4v-2.3l4-6.5c1.3-2,1.6-3.3,1.6-4.7v-0.4
			c0-1.2-0.5-1.8-1.5-1.8s-1.5,0.6-1.5,2.1v0.9l-2.6-0.1v-1.2c0-2.6,1.6-4.2,4.2-4.2S1181.1,131.8,1181.1,134.4z"/>
		<path class="st0" d="M1185.6,148.5h-2.8l5.1-15.3h-5.6v-2.7h8.4v2.4L1185.6,148.5z"/>
		<path class="st0" d="M1204.4,134.7v1c0,1.7-0.6,2.8-2,3.4v0.1c1.4,0.6,2.2,1.9,2.2,3.8v1.4c0,2.8-1.6,4.4-4.4,4.4
			c-2.8,0-4.4-1.6-4.4-4.3v-1.1l2.6-0.1v0.9c0,1.5,0.5,2.1,1.7,2.1c1.2,0,1.7-0.7,1.7-2.1v-1.4c0-1.6-0.6-2.3-2-2.3h-1.1V138h1.1
			c1.3,0,1.8-0.7,1.8-2.2v-1c0-1.3-0.6-2-1.6-2c-1.1,0-1.6,0.7-1.6,2.1v0.9l-2.6-0.1v-1.1c0-2.7,1.6-4.3,4.3-4.3
			C1202.8,130.3,1204.4,131.9,1204.4,134.7z"/>
		<path class="st0" d="M1214.4,134.4v0.7c0,1.7-0.5,3.3-2.2,6l-3,4.8h5.3v2.6h-8.4v-2.3l4-6.5c1.3-2,1.6-3.3,1.6-4.7v-0.4
			c0-1.2-0.5-1.8-1.5-1.8s-1.5,0.6-1.5,2.1v0.9l-2.6-0.1v-1.2c0-2.6,1.6-4.2,4.2-4.2C1212.8,130.3,1214.4,131.8,1214.4,134.4z"/>
		<path class="st0" d="M1224.1,134.4v0.7c0,1.7-0.5,3.3-2.2,6l-3,4.8h5.3v2.6h-8.4v-2.3l4-6.5c1.3-2,1.6-3.3,1.6-4.7v-0.4
			c0-1.2-0.5-1.8-1.5-1.8s-1.5,0.6-1.5,2.1v0.9l-2.6-0.1v-1.2c0-2.6,1.6-4.2,4.2-4.2S1224.1,131.8,1224.1,134.4z"/>
		<path class="st0" d="M1238.8,134.4v0.7c0,1.7-0.5,3.3-2.2,6l-3,4.8h5.3v2.6h-8.4v-2.3l4-6.5c1.3-2,1.6-3.3,1.6-4.7v-0.4
			c0-1.2-0.5-1.8-1.5-1.8s-1.5,0.6-1.5,2.1v0.9l-2.6-0.1v-1.2c0-2.6,1.6-4.2,4.2-4.2C1237.3,130.3,1238.8,131.8,1238.8,134.4z"/>
		<path class="st0" d="M1243.3,148.5h-2.8l5.1-15.3h-5.6v-2.7h8.4v2.4L1243.3,148.5z"/>
		<path class="st0" d="M1262.4,134.7v1c0,1.7-0.6,2.8-1.9,3.4v0.1c1.4,0.6,2.1,1.9,2.1,3.8v1.4c0,2.8-1.7,4.4-4.5,4.4
			c-2.8,0-4.5-1.6-4.5-4.4V143c0-1.9,0.7-3.3,2.1-3.8v-0.1c-1.3-0.5-1.9-1.7-1.9-3.4v-1c0-2.8,1.6-4.4,4.3-4.4
			C1260.8,130.3,1262.4,131.9,1262.4,134.7z M1256.3,142.5v1.6c0,1.3,0.7,2.1,1.8,2.1s1.8-0.7,1.8-2.1v-1.6c0-1.3-0.7-2.1-1.8-2.1
			S1256.3,141.2,1256.3,142.5z M1256.4,134.7v1.3c0,1.2,0.6,1.9,1.6,1.9s1.6-0.7,1.6-1.9v-1.3c0-1.2-0.6-1.9-1.6-1.9
			S1256.4,133.5,1256.4,134.7z"/>
		<path class="st0" d="M1272.9,134.7v1c0,1.7-0.6,2.8-1.9,3.4v0.1c1.4,0.6,2.1,1.9,2.1,3.8v1.4c0,2.8-1.7,4.4-4.5,4.4
			c-2.8,0-4.5-1.6-4.5-4.4V143c0-1.9,0.7-3.3,2.1-3.8v-0.1c-1.3-0.5-1.9-1.7-1.9-3.4v-1c0-2.8,1.6-4.4,4.3-4.4
			C1271.3,130.3,1272.9,131.9,1272.9,134.7z M1266.8,142.5v1.6c0,1.3,0.7,2.1,1.8,2.1s1.8-0.7,1.8-2.1v-1.6c0-1.3-0.7-2.1-1.8-2.1
			C1267.5,140.5,1266.8,141.2,1266.8,142.5z M1267,134.7v1.3c0,1.2,0.6,1.9,1.6,1.9s1.6-0.7,1.6-1.9v-1.3c0-1.2-0.6-1.9-1.6-1.9
			S1267,133.5,1267,134.7z"/>
		<path class="st0" d="M1308.2,134.8v9.4c0,2.8-1.7,4.5-4.4,4.5c-2.7,0-4.4-1.7-4.4-4.5v-9.4c0-2.8,1.7-4.5,4.4-4.5
			C1306.5,130.3,1308.2,132,1308.2,134.8z M1302.1,134.9v9.3c0,1.3,0.6,2.1,1.7,2.1c1.1,0,1.7-0.7,1.7-2.1v-9.3
			c0-1.3-0.6-2.1-1.7-2.1C1302.7,132.8,1302.1,133.5,1302.1,134.9z"/>
		<path class="st0" d="M1313.1,148.5h-2.8l5.1-15.3h-5.6v-2.7h8.4v2.4L1313.1,148.5z"/>
		<path class="st0" d="M1319.4,144.5v-0.8l2.6-0.1v0.6c0,1.4,0.5,2,1.6,2s1.6-0.6,1.6-1.8v-3.7h-0.1c-0.4,0.5-1.2,1-2.4,1
			c-2,0-3.6-1.4-3.6-4.4v-2.4c0-2.8,1.7-4.5,4.4-4.5s4.3,1.7,4.3,4.5v9.6c0,2.7-1.6,4.3-4.3,4.3
			C1321,148.7,1319.4,147.2,1319.4,144.5z M1325.2,137.1v-2.2c0-1.3-0.6-2.1-1.6-2.1c-1.1,0-1.6,0.7-1.6,2.1v2.2
			c0,1.3,0.6,2.1,1.6,2.1C1324.6,139.1,1325.2,138.4,1325.2,137.1z"/>
		<path class="st0" d="M1343,134.4v0.7c0,1.7-0.5,3.3-2.2,6l-3,4.8h5.3v2.6h-8.4v-2.3l4-6.5c1.3-2,1.6-3.3,1.6-4.7v-0.4
			c0-1.2-0.5-1.8-1.5-1.8s-1.5,0.6-1.5,2.1v0.9l-2.6-0.1v-1.2c0-2.6,1.6-4.2,4.2-4.2C1341.5,130.3,1343,131.8,1343,134.4z"/>
		<path class="st0" d="M1352.8,134.4v0.7c0,1.7-0.5,3.3-2.2,6l-3,4.8h5.3v2.6h-8.4v-2.3l4-6.5c1.3-2,1.6-3.3,1.6-4.7v-0.4
			c0-1.2-0.5-1.8-1.5-1.8s-1.5,0.6-1.5,2.1v0.9l-2.6-0.1v-1.2c0-2.6,1.6-4.2,4.2-4.2C1351.3,130.3,1352.8,131.8,1352.8,134.4z"/>
		<path class="st0" d="M1357.8,148.5v-13.8h-3.7v-1.9c2.2-0.2,4-0.9,4.6-2.3h1.9v17.9h-2.8V148.5z"/>
		<path class="st0" d="M1377,134.8v9.4c0,2.8-1.7,4.5-4.4,4.5c-2.7,0-4.4-1.7-4.4-4.5v-9.4c0-2.8,1.7-4.5,4.4-4.5
			C1375.3,130.3,1377,132,1377,134.8z M1370.9,134.9v9.3c0,1.3,0.6,2.1,1.7,2.1s1.7-0.7,1.7-2.1v-9.3c0-1.3-0.6-2.1-1.7-2.1
			C1371.5,132.8,1370.9,133.5,1370.9,134.9z"/>
		<path class="st0" d="M1387.2,134.4v0.7c0,1.7-0.5,3.3-2.2,6l-3,4.8h5.3v2.6h-8.4v-2.3l4-6.5c1.3-2,1.6-3.3,1.6-4.7v-0.4
			c0-1.2-0.5-1.8-1.5-1.8s-1.5,0.6-1.5,2.1v0.9l-2.6-0.1v-1.2c0-2.6,1.6-4.2,4.2-4.2C1385.7,130.3,1387.2,131.8,1387.2,134.4z"/>
		<path class="st0" d="M1396.3,148.5h-2.8l5.1-15.3h-5.6v-2.7h8.4v2.4L1396.3,148.5z"/>
		<path class="st0" d="M1405.5,148.5h-2.8l5.1-15.3h-5.7v-2.7h8.4v2.4L1405.5,148.5z"/>
		<path class="st0" d="M1435.9,148.5v-17.9h2.7v17.9H1435.9z"/>
		<path class="st0" d="M1447.8,148.5l-3.6-11.9h-0.1v11.9h-2.6v-17.9h3l3.2,10.7h0.1v-10.7h2.6v17.9H1447.8z"/>
		<path class="st0" d="M1456.1,133.1v5.1h3.8v2.5h-3.8v7.8h-2.7v-17.9h7.5v2.5L1456.1,133.1L1456.1,133.1z"/>
		<path class="st0" d="M1471.1,134.8v9.4c0,2.8-1.7,4.5-4.4,4.5c-2.7,0-4.4-1.7-4.4-4.5v-9.4c0-2.8,1.7-4.5,4.4-4.5
			C1469.4,130.3,1471.1,132,1471.1,134.8z M1465,134.9v9.3c0,1.3,0.6,2.1,1.7,2.1c1.1,0,1.7-0.7,1.7-2.1v-9.3c0-1.3-0.6-2.1-1.7-2.1
			C1465.6,132.8,1465,133.5,1465,134.9z"/>
		<path class="st0" d="M1490.4,138.7c0,3.4-1.5,5.6-4.2,5.6c-1.3,0-2.2-0.5-2.6-1.5h-0.1c-0.6,1.1-1.5,1.5-2.7,1.5
			c-1.9,0-3-1.2-3-3.4v-2.5c0-2.3,1.1-3.5,3-3.5c1.1,0,1.9,0.5,2.5,1.4h0.1l0.1-1.1h1.9v5.6c0,0.9,0.3,1.4,1,1.4
			c1.1,0,1.7-1.3,1.7-3.2c0-4-2.6-6.4-6.2-6.4c-4,0-6.5,2.8-6.5,7.3c0,4.1,2.7,6.8,6.8,6.8c1.5,0,3-0.4,4.1-1.2l0.8,2
			c-1.3,0.9-3.1,1.4-5,1.4c-5.4,0-9.2-3.7-9.2-9c0-5.7,3.6-9.5,8.9-9.5C1486.9,130.3,1490.4,133.6,1490.4,138.7z M1480.4,138.5v2
			c0,1.1,0.4,1.5,1.2,1.5c0.7,0,1.2-0.4,1.5-1.3v-2.6c-0.4-0.9-0.8-1.3-1.5-1.3C1480.8,137,1480.4,137.5,1480.4,138.5z"/>
		<path class="st0" d="M1501.4,148.5V136h-0.1l-2.3,9.9h-1.6l-2.3-9.9h-0.1v12.5h-2.6v-17.9h3.6l2.1,9.6h0.1l2.1-9.6h3.7v17.9
			H1501.4z"/>
		<path class="st0" d="M1513,148.5l-0.6-4.1h-3l-0.6,4.1h-2.7l3.1-17.9h3.5l3.1,17.9H1513z M1509.8,142h2.3l-1.1-7.6h-0.1
			L1509.8,142z"/>
		<path class="st0" d="M1521.5,130.5c2.8,0,4.3,1.6,4.3,4.5v0.3c0,2-0.6,3.2-2,3.7v0.1c1.7,0.5,2.4,1.8,2.4,4.2v0.6
			c0,2.9-1.6,4.5-4.5,4.5h-4v-17.9L1521.5,130.5L1521.5,130.5z M1520.4,138h0.8c1.3,0,1.8-0.7,1.8-2.2v-0.6c0-1.5-0.5-2.1-1.7-2.1
			h-1v4.9H1520.4z M1520.4,146h1.2c1.3,0,1.9-0.7,1.9-2.2v-1c0-1.6-0.6-2.3-2-2.3h-1.1V146L1520.4,146z"/>
		<path class="st0" d="M1535.7,134.3v0.5l-2.6,0.2v-0.7c0-1-0.5-1.6-1.4-1.6s-1.4,0.5-1.4,1.6v0.2c0,1.1,0.5,1.9,2.3,3.5
			c2.5,2.1,3.4,3.6,3.4,5.7v0.9c0,2.6-1.5,4-4.2,4c-2.7,0-4.2-1.5-4.2-4v-1.2l2.6-0.3v1.3c0,1.1,0.5,1.7,1.5,1.7s1.5-0.6,1.5-1.7
			V144c0-1.1-0.5-2-2.4-3.6c-2.5-2.1-3.3-3.6-3.3-5.7v-0.4c0-2.6,1.5-4,4.1-4C1534.3,130.3,1535.7,131.7,1535.7,134.3z"/>
		<path class="st0" d="M1546.3,134.8v9.4c0,2.8-1.7,4.5-4.4,4.5c-2.7,0-4.4-1.7-4.4-4.5v-9.4c0-2.8,1.7-4.5,4.4-4.5
			C1544.6,130.3,1546.3,132,1546.3,134.8z M1540.2,134.9v9.3c0,1.3,0.6,2.1,1.7,2.1c1.1,0,1.7-0.7,1.7-2.1v-9.3
			c0-1.3-0.6-2.1-1.7-2.1C1540.8,132.8,1540.2,133.5,1540.2,134.9z"/>
		<path class="st0" d="M1556.2,145.9v2.6h-7.3v-17.9h2.7V146h4.6V145.9z"/>
		<path class="st0" d="M1565.2,134.3v0.5l-2.6,0.3v-0.7c0-1-0.5-1.6-1.4-1.6s-1.4,0.5-1.4,1.6v0.2c0,1.1,0.5,1.9,2.3,3.5
			c2.5,2.1,3.4,3.6,3.4,5.7v0.9c0,2.6-1.5,4-4.2,4c-2.7,0-4.2-1.5-4.2-4v-1.2l2.6-0.3v1.3c0,1.1,0.5,1.7,1.5,1.7s1.5-0.6,1.5-1.7
			V144c0-1.1-0.5-2-2.4-3.6c-2.5-2.1-3.3-3.6-3.3-5.7v-0.4c0-2.6,1.5-4,4.1-4S1565.2,131.7,1565.2,134.3z"/>
		<path class="st0" d="M1567.4,148.5v-2.9h2.9v2.9H1567.4z"/>
		<path class="st0" d="M1581.1,134.6v1.6l-2.6,0.1v-1.5c0-1.4-0.5-2.1-1.5-2.1s-1.5,0.6-1.5,1.8v9.8c0,1.2,0.5,1.8,1.5,1.8
			s1.5-0.6,1.5-2.1v-2l2.6,0.1v2.2c0,2.7-1.6,4.3-4.2,4.3s-4.2-1.6-4.2-4.3v-9.8c0-2.7,1.5-4.3,4.2-4.3
			C1579.5,130.3,1581.1,131.9,1581.1,134.6z"/>
		<path class="st0" d="M1589.3,148.5v-7.8h-3.2v7.8h-2.7v-17.9h2.7v7.6h3.2v-7.6h2.7v17.9H1589.3z"/>
	</g>
	<path class="st0" d="M1149.6,142c1,0,1.9-0.9,1.9-2v-0.4c0-1.1-0.8-2.1-2-2.1h-0.4c-1.1,0-2.1,0.8-2.1,2v0.4c0,1.1,0.8,2.1,1.9,2.1
		H1149.6z"/>
	<path class="st0" d="M1286.2,142c1,0,1.9-0.9,1.9-2v-0.4c0-1.1-0.8-2.1-2-2.1h-0.4c-1.1,0-2.1,0.8-2.1,2v0.4c0,1.1,0.8,2.1,1.9,2.1
		H1286.2z"/>
	<path class="st0" d="M1422.7,142c1,0,1.9-0.9,1.9-2v-0.4c0-1.1-0.8-2.1-2-2.1h-0.4c-1.1,0-2.1,0.8-2.1,2v0.4c0,1.1,0.8,2.1,1.9,2.1
		H1422.7z"/>
	<path class="st0" d="M1042.8,142c1,0,1.9-0.9,1.9-2v-0.4c0-1.1-0.8-2.1-2-2.1h-0.4c-1.1,0-2.1,0.8-2.1,2v0.4c0,1.1,0.8,2.1,1.9,2.1
		H1042.8z"/>
</g>
<rect x="116.6" y="2" class="st0" width="15.5" height="145.8"/>
<rect x="144.5" y="2" class="st0" width="15.5" height="145.8"/>
<polygon class="st1" points="66.1,71.3 22.1,2 0,2 56.3,87.7 56.3,147.8 75.8,147.8 75.8,87.7 75.9,87.7 85.6,72.9 85.6,40.6 "/>
<polygon class="st0" points="232.4,78 220.9,78 220.9,43.6 205,2 217.2,2 226.8,28.9 227,28.9 236.3,2 248.2,2 232.4,43.7 "/>
<polygon class="st0" points="261.8,78 249.1,2 260.7,2 269.5,60.1 269.6,60.1 278,2 289.6,2 276.8,78 "/>
<g>
	<path class="st0" d="M333.4,20.1v39.8c0,11.9-7.1,19.2-18.5,19.2c-11.5,0-18.5-7.3-18.5-19.2V20.1c0-11.9,7.1-19.2,18.5-19.2
		C326.2,0.9,333.4,8.2,333.4,20.1 M307.6,20.2v39.6c0,5.7,2.5,8.7,7.1,8.7c4.6,0,7.1-3,7.1-8.7V20.2c0-5.7-2.5-8.7-7.1-8.7
		C310.1,11.5,307.6,14.6,307.6,20.2"/>
	<polygon class="st0" points="370.7,78 355.6,27.6 355.4,27.6 355.4,78 344.4,78 344.4,2 357.3,2 370.8,47.3 371.1,47.3 371.1,2 
		381.9,2 381.9,78 	"/>
	<polygon class="st0" points="452.3,78 452.3,25.2 452,25.2 442.5,67.1 435.7,67.1 426,25.2 425.9,25.2 425.9,78 415,78 415,2 
		430.2,2 439.2,42.8 439.3,42.8 448.3,2 463.8,2 463.8,78 	"/>
	<path class="st0" d="M501.3,78l-2.5-17.3h-12.7L483.6,78h-11.5L485.2,2h14.7L513,78H501.3z M487.6,50.4h9.7l-4.7-32.1h-0.3
		L487.6,50.4z"/>
	<path class="st0" d="M537.4,2c11.9,0,18.4,6.8,18.4,19.2v1.4c0,8.4-2.5,13.4-8.6,15.5v0.3c7.2,2.2,10.2,7.9,10.2,17.8v2.6
		c0,12.4-6.8,19.2-19.1,19.2h-17V2H537.4z M532.8,33.4h3.6c5.5,0,7.9-2.8,7.9-9.3v-2.5c0-6.2-2.4-9-7.3-9h-4.1L532.8,33.4
		L532.8,33.4z M532.8,67.4h5c5.5,0,8-2.9,8-9.4v-4.3c0-6.8-2.5-9.8-8.6-9.8h-4.4L532.8,67.4L532.8,67.4z"/>
	<rect x="566.6" y="2" class="st0" width="11.5" height="76.1"/>
	<polygon class="st0" points="621.3,67.1 621.3,78 590.5,78 590.5,2 602,2 602,67.1 	"/>
	<polygon class="st0" points="659.4,67.1 659.4,78 628.7,78 628.7,2 640.2,2 640.2,67.1 	"/>
	<path class="st0" d="M691.9,78l-2.5-17.3h-12.7L674.2,78h-11.5L675.8,2h14.7L703.6,78H691.9z M678.2,50.4h9.7l-4.7-32.1h-0.3
		L678.2,50.4z"/>
	<path class="st0" d="M727.7,45.8h-5.4V78h-11.5V2h16.6c12.4,0,19.1,6.8,19.1,19.2v5.4c0,8-2.8,13.7-8.2,16.7L748.9,78h-12.2
		L727.7,45.8z M722.3,35.2h4.7c5.5,0,8-2.9,8-9.4v-3.9c0-6.4-2.5-9.4-8-9.4h-4.7V35.2z"/>
	<path class="st0" d="M773.9,2C786.4,2,793,8.7,793,21.2v37.6c0,12.4-6.8,19.2-19.1,19.2h-16.5V2H773.9z M768.8,67.4h4.6
		c5.5,0,8-2.9,8-9.4V22c0-6.4-2.5-9.4-8-9.4h-4.6V67.4z"/>
	<path class="st0" d="M222,117.3v0.3c0,3.6-1.4,5.9-5.9,10.4l3.9,6.1h0.1v-5.7l5,0.3v6.2c0,2.2-0.3,4.1-0.8,5.7l4.7,7.1H222
		l-1.1-1.8c-1.7,1.5-3.9,2.4-6.5,2.4c-5.8,0-9.5-3.3-9.5-9.4v-1.4c0-3.5,1.1-6.4,4.1-10c-2.6-4.4-3.5-6.9-3.5-10v-0.3
		c0-5.5,2.9-8.4,8.2-8.4C219.1,109,222,112.1,222,117.3 M212.2,132.4c-1.1,2.1-1.5,3.5-1.5,5.1v0.8c0,3.2,1.7,4.6,4,4.6
		c1.4,0,2.5-0.4,3.3-1.4L212.2,132.4L212.2,132.4z M211.2,117.6v0.3c0,1.5,0.6,3,1.9,5.8h0.1c2.5-2.8,3.2-4.1,3.2-5.9v-0.3
		c0-1.9-1-3.2-2.6-3.2C212.2,114.3,211.2,115.4,211.2,117.6"/>
	<polygon class="st0" points="248.3,114.8 248.3,125.8 256.5,125.8 256.5,131 248.3,131 248.3,147.8 242.5,147.8 242.5,109.6 
		258.5,109.6 258.5,114.8 	"/>
	<rect x="262.3" y="109.6" class="st0" width="5.8" height="38.3"/>
	<polygon class="st0" points="289.8,142.4 289.8,147.8 274.3,147.8 274.3,109.6 280.1,109.6 280.1,142.4 	"/>
	<path class="st0" d="M309,117.6v1l-5.5,0.6v-1.4c0-2.2-1.1-3.3-2.9-3.3c-1.9,0-2.9,1.1-2.9,3.3v0.4c0,2.2,1,4.1,4.8,7.5
		c5.3,4.4,7.3,7.6,7.3,12.3v1.9c0,5.5-3.2,8.6-9,8.6c-5.7,0-9-3.2-9-8.6v-2.6l5.5-0.6v2.8c0,2.4,1.1,3.6,3.3,3.6s3.3-1.2,3.3-3.6
		v-1.2c0-2.4-1.1-4.3-5-7.6c-5.3-4.4-7.1-7.6-7.1-12.2v-0.8c0-5.5,3.2-8.6,8.6-8.6C306,109,309,112.1,309,117.6"/>
	<path class="st0" d="M337.9,117.6v1l-5.5,0.6v-1.4c0-2.2-1.1-3.3-2.9-3.3c-1.9,0-2.9,1.1-2.9,3.3v0.4c0,2.2,1,4.1,4.8,7.5
		c5.3,4.4,7.3,7.6,7.3,12.3v1.9c0,5.5-3.2,8.6-9,8.6c-5.7,0-9-3.2-9-8.6v-2.6l5.5-0.6v2.8c0,2.4,1.1,3.6,3.3,3.6s3.3-1.2,3.3-3.6
		v-1.2c0-2.4-1.1-4.3-5-7.6c-5.3-4.4-7.1-7.6-7.1-12.2v-0.8c0-5.5,3.2-8.6,8.6-8.6C334.7,109,337.9,112.1,337.9,117.6"/>
	<path class="st0" d="M354.7,147.8l-1.2-8.7h-6.4l-1.2,8.7H340l6.6-38.3h7.3l6.6,38.3C360.6,147.8,354.7,147.8,354.7,147.8z
		 M347.9,133.8h4.8l-2.4-16.2h-0.1L347.9,133.8z"/>
	<path class="st0" d="M412.5,131.6h-2.6v16.2H404v-38.3h8.4c6.2,0,9.7,3.5,9.7,9.7v2.8c0,4-1.4,6.9-4.1,8.4l5.3,17.4h-6.1
		L412.5,131.6z M409.9,126.2h2.4c2.8,0,4-1.5,4-4.7v-1.9c0-3.2-1.2-4.7-4-4.7h-2.4V126.2z"/>
	<polygon class="st0" points="433.4,114.8 433.4,125.6 441.8,125.6 441.8,131 433.4,131 433.4,142.4 443.9,142.4 443.9,147.8 
		427.4,147.8 427.4,109.4 443.9,109.4 443.9,114.8 	"/>
	<polygon class="st0" points="453.1,147.8 446.6,109.4 452.6,109.4 456.9,138.6 457,138.6 461.3,109.4 467.1,109.4 460.6,147.8 	"/>
	<polygon class="st0" points="477.1,114.8 477.1,125.6 485.7,125.6 485.7,131 477.1,131 477.1,142.4 487.6,142.4 487.6,147.8 
		471.3,147.8 471.3,109.4 487.6,109.4 487.6,114.8 	"/>
	<polygon class="st0" points="502,114.8 502,147.8 496.2,147.8 496.2,114.8 489.9,114.8 489.9,109.4 508.2,109.4 508.2,114.8 	"/>
	<polygon class="st0" points="517.6,114.8 517.6,125.6 526.2,125.6 526.2,131 517.6,131 517.6,142.4 528.1,142.4 528.1,147.8 
		511.8,147.8 511.8,109.4 528.1,109.4 528.1,114.8 	"/>
	<polygon class="st0" points="551.9,147.8 551.9,121.2 551.8,121.2 546.9,142.4 543.5,142.4 538.8,121.2 538.6,121.2 538.6,147.8 
		533.1,147.8 533.1,109.4 540.7,109.4 545.3,130.1 545.4,130.1 549.8,109.4 557.7,109.4 557.7,147.8 	"/>
	<polygon class="st0" points="569.8,114.8 569.8,125.6 578.3,125.6 578.3,131 569.8,131 569.8,142.4 580.3,142.4 580.3,147.8 
		563.9,147.8 563.9,109.4 580.3,109.4 580.3,114.8 	"/>
	<polygon class="st0" points="598.4,147.8 590.8,122.3 590.8,122.3 590.8,147.8 585.2,147.8 585.2,109.4 591.7,109.4 598.5,132.3 
		598.7,132.3 598.7,109.4 604.2,109.4 604.2,147.8 	"/>
	<polygon class="st0" points="619.8,114.8 619.8,147.8 614,147.8 614,114.8 607.8,114.8 607.8,109.4 626,109.4 626,114.8 	"/>
	<path class="st0" d="M645.1,117.5v1l-5.5,0.6v-1.4c0-2.2-1.1-3.3-2.9-3.3c-1.9,0-2.9,1.1-2.9,3.3v0.6c0,2.2,1,4.1,4.8,7.5
		c5.3,4.4,7.3,7.6,7.3,12.3v1.9c0,5.5-3.2,8.6-9,8.6c-5.8,0-9-3.2-9-8.6v-2.6l5.5-0.6v2.8c0,2.4,1.1,3.6,3.3,3.6s3.3-1.2,3.3-3.6
		v-1.2c0-2.4-1.1-4.3-5-7.6c-5.3-4.6-7.2-7.6-7.2-12.2v-0.8c0-5.5,3.2-8.6,8.7-8.6C642,108.9,645.1,111.9,645.1,117.5"/>
	<path class="st0" d="M667.4,109.4c6.2,0,9.7,3.5,9.7,9.7v19c0,6.4-3.5,9.7-9.7,9.7h-8.3v-38.3H667.4z M664.9,142.4h2.4
		c2.8,0,4-1.5,4-4.7v-18.1c0-3.2-1.2-4.7-4-4.7h-2.4V142.4z"/>
	<polygon class="st0" points="688.6,114.8 688.6,125.6 697,125.6 697,131 688.6,131 688.6,142.4 699.1,142.4 699.1,147.8 
		682.8,147.8 682.8,109.4 699.1,109.4 699.1,114.8 	"/>
	<path class="st0" d="M729.4,117.5v1l-5.5,0.6v-1.4c0-2.2-1.1-3.3-2.9-3.3c-1.9,0-2.9,1.1-2.9,3.3v0.6c0,2.2,1,4.1,4.8,7.5
		c5.3,4.4,7.3,7.6,7.3,12.3v1.9c0,5.5-3.2,8.6-9,8.6c-5.8,0-9-3.2-9-8.6v-2.6l5.5-0.6v2.8c0,2.4,1.1,3.6,3.3,3.6
		c2.2,0,3.3-1.2,3.3-3.6v-1.2c0-2.4-1.1-4.3-5-7.6c-5.3-4.6-7.2-7.6-7.2-12.2v-0.8c0-5.5,3.2-8.6,8.7-8.6
		C726.2,108.9,729.4,111.9,729.4,117.5"/>
	<path class="st0" d="M751.9,118.6v20.1c0,6.1-3.6,9.7-9.4,9.7s-9.4-3.7-9.4-9.7v-20.1c0-6.1,3.6-9.7,9.4-9.7
		S751.9,112.5,751.9,118.6 M738.9,118.6v19.9c0,2.9,1.2,4.4,3.6,4.4c2.4,0,3.6-1.5,3.6-4.4v-19.9c0-2.9-1.2-4.4-3.6-4.4
		C740.2,114.3,738.9,115.8,738.9,118.6"/>
	<polygon class="st0" points="772.9,142.4 772.9,147.8 757.5,147.8 757.5,109.4 763.3,109.4 763.3,142.4 	"/>
	<path class="st0" d="M792.3,117.5v1l-5.5,0.6v-1.4c0-2.2-1.1-3.3-2.9-3.3c-1.8,0-2.9,1.1-2.9,3.3v0.6c0,2.2,1,4.1,4.8,7.5
		c5.3,4.4,7.3,7.6,7.3,12.3v1.9c0,5.5-3.2,8.6-9,8.6s-9-3.2-9-8.6v-2.6l5.5-0.6v2.8c0,2.4,1.1,3.6,3.3,3.6c2.2,0,3.3-1.2,3.3-3.6
		v-1.2c0-2.4-1.1-4.3-5-7.6c-5.3-4.6-7.2-7.6-7.2-12.2v-0.8c0-5.5,3.2-8.6,8.7-8.6C789.1,108.9,792.3,111.9,792.3,117.5"/>
	<rect x="380.1" y="109.4" class="st0" width="3.5" height="38.3"/>
</g>
<g>
	<g id="XMLID_2_">
		<g>
			<path class="st0" d="M103.9,110.1c-0.1-1.2,0.1-2.5,0.3-3.7c0-1.7-0.1-3.5-0.1-5.3c0.1-1.8-0.3-3.7-0.1-5.7c0-0.3,0-0.6,0-0.8
				s0-0.6,0-0.8c0-0.8,0-1.5,0-2.2c0-0.3,0-0.4,0-0.7c0-1.9,0-3.7,0-5.7c0-0.3,0-0.6,0-1c0-1.2,0-2.4,0-3.5c0-0.3,0-0.6,0-0.8
				s0-0.6,0-0.8c0-0.3,0-0.6,0-0.8c0-1.2,0-2.5,0.1-3.7c0-0.3,0-0.4,0-0.7c0-0.7,0.1-1.4,0.1-2.1v62.7c-0.1-2.2-0.1-4.4,0-6.8
				c0-1.8-0.1-3.7-0.1-5.5c0-0.3,0-0.6,0-1c0-1,0-1.8,0-2.6c0-0.3,0-0.6,0-1c0-0.3,0-0.4,0-0.7C104,114.7,103.9,112.5,103.9,110.1z"
				/>
			<path class="st0" d="M104.2,3.6c0-0.6,0-1.1-0.1-1.7h0.1V3.6z"/>
			<path class="st0" d="M104,44.7c-0.1-1.1-0.4-2.1-0.3-3.2c0.1-1.7,0.3-3.3,0.3-5c0-0.3,0-0.4,0-0.7s0-0.6,0-0.8
				c0-0.7-0.1-1.5-0.1-2.2c0-0.3,0-0.6,0-0.7c-0.1-1-0.1-1.9,0-2.9c0-0.3,0-0.6,0.1-0.8c0.1-0.3,0.1-0.6,0.1-1v13.4c0,0.4,0,1,0,1.4
				V48c-0.1,0.8-0.1,1.8,0,2.8c0,0.3,0,0.6,0,0.7c0,0,0,0.1,0,0.3v15.5c0-0.6,0-1.1-0.1-1.7c0-0.3,0-0.4,0-0.7c0-0.3,0-0.4,0-0.7
				v-0.6v-1.2v-0.6c0-1,0-2.1,0-2.9c0-0.3,0-0.6,0-0.8c0-1.4,0.1-2.9,0-4.3c0-0.3,0-0.6,0-0.8c-0.1-0.7-0.3-1.5-0.3-2.2
				c0-0.3,0-0.6,0-0.7c0-0.3,0-0.7,0-1c0-0.3,0-0.7,0-1c0-0.1,0-0.3,0-0.6c0-0.1,0-0.3,0-0.6c0-0.3,0-0.4,0-0.7s0-0.4,0-0.7
				C104,45.1,104,44.9,104,44.7z"/>
			<path class="st0" d="M103.7,15.2c-0.3-2.8-0.1-5.3,0.4-7.6c0-0.3,0-0.7,0-1c0-0.7,0-1.5,0-2.2v4.1c-0.3,2.1-0.7,3.9,0,5.9
				c0,0.3,0,0.6,0,1c0,0.1,0,0.4,0,0.6v7.1c-0.3-1.7-0.1-3.3-0.1-5.3c-0.1-0.7-0.3-1.4-0.3-1.8C103.7,15.8,103.7,15.5,103.7,15.2z"
				/>
			<path class="st0" d="M104,147.8c-0.1-2.5-0.7-5.3,0.1-7.6c0-0.1,0.1-0.4,0.1-0.6v1.5c-0.3,1.7-0.1,3.5,0,5.1v1.5
				C104.3,147.8,104,147.8,104,147.8z"/>
			<path class="st0" d="M102.9,34.2c-0.7-2.4-0.6-4.7,0.4-6.8c0-0.3,0.1-0.4,0.1-0.7c0-0.4,0-0.8,0-1.2c-0.3-1-0.6-2.1-0.4-2.9
				c0.1-2.5-0.4-4.8-0.3-7.2c0-0.1,0-0.3,0-0.4c0-0.1,0-0.4,0-0.6c0.6-2.5,0.4-5.1,0.3-7.7c0-0.3,0-0.6,0-0.8c0-1.2-0.1-2.6-0.1-3.9
				h0.4c0.1,1.7,0.3,3.2,0.3,4.8c0,0.3,0,0.4,0,0.6c-0.1,2.6-0.3,5.3-0.6,7.9c0,0.3,0,0.4,0,0.7c0,0.7,0,1.4,0.1,2.1
				c0.3,2.4-0.1,4.7,0.4,6.8c0.1,0.8,0.1,1.5,0,2.2c0,0.3-0.1,0.6-0.3,0.8c-1.1,1.7-0.8,3.7-0.3,5.7c0,0.3,0,0.4,0,0.7
				c0,0.1,0,0.4,0,0.6c0,0.3,0,0.6,0,0.8c0,2.1-0.4,4.3-0.4,6.4c0.1,1.1,0.4,2.2,0.6,3.3c0,0.1,0,0.4,0,0.7c0,0.3,0,0.4,0,0.7
				c-0.1,1.4-0.3,2.9-0.3,4.1c0,0.3,0,0.6,0,0.8c0.1,1.4,0.3,2.8,0.1,4.1c-0.1,3.3,0,6.6,0,9.8c0,0.4,0,0.7,0,1
				c0.7,2.2,0.3,4.6-0.1,6.8c0,0.3,0,0.6,0,0.8c-0.1,3.5-0.3,7.1-0.1,10.5c0,0.3,0,0.6,0,0.7c-0.3,1.8,0.4,3.5,0,5.4
				c0,0.1,0,0.4,0,0.6c0,0.7,0,1.4,0,1.9c0,0.3,0,0.6,0,0.7c0,0.6,0,1,0,1.5c0,0.3,0,0.6,0,0.8c0.4,6.6,0.1,13.6,0.1,20.2
				c0,0.3,0,0.6,0,0.8c0,3.3,0.1,6.6,0.3,9.8c0.1,1.2-0.4,2.4-0.3,3.6c0.1,3,0.3,5.8,0.1,8.7c0,0.3,0,0.6,0,0.8
				c-0.1,2.4-0.3,4.8-0.1,7.2c0,0.1,0,0.1,0,0.3h-0.3v-0.1c-0.1-2.5,0-5.1,0-7.6c0-0.3,0-0.6,0-0.8c0-2.9-0.1-5.8-0.3-8.9
				c0-0.7,0.3-1.5,0.3-2.2c0-3.9,0-7.6,0-11.5c0-0.3,0-0.6,0-0.8c-0.1-6.4,0.3-12.9-0.3-19.1c0-0.3,0-0.4,0-0.7c0-0.4,0-0.8,0-1.2
				c0-1.1,0-2.2,0-3.2c0-0.1,0-0.4,0.1-0.6c0.1-1.4,0-2.9-0.3-4.3c-0.1-0.6,0.1-1.4,0.3-2.1c0-0.3,0-0.6,0-1c0-3.3,0.1-6.8,0.1-10.1
				c0-0.3,0-0.7,0-1c0.3-1.9,0.4-3.6,0-5.4c0-0.1,0-0.3,0-0.6c0-5.4,0-10.8-0.1-16.2c0-0.3,0-0.7,0-1c0-0.4,0-0.8,0.1-1.2
				c0-0.3,0-0.4,0-0.7c0-0.7,0.1-1.4,0-2.1c-0.1-1.7-0.6-3.3-0.4-5c0.1-1.5,0.3-2.9,0.3-4.3c0-0.3,0-0.4,0-0.7s0-0.4,0-0.7
				C102.9,34.6,102.9,34.5,102.9,34.2z"/>
			<path class="st0" d="M101.4,100.2C101.4,100.3,101.4,100.3,101.4,100.2C101.4,100.3,101.4,100.3,101.4,100.2z"/>
			<path class="st0" d="M101.4,100.2L101.4,100.2L101.4,100.2z"/>
			<path class="st0" d="M101.3,99.9c0,0.1,0.1,0.1,0.1,0.3l0,0l0,0l0,0l0,0l0,0c0,0.1,0,0.3,0,0.4
				C101.4,100.5,101.4,100.2,101.3,99.9z"/>
			<path class="st0" d="M101.3,99.9L101.3,99.9L101.3,99.9z"/>
			<path class="st0" d="M101.3,99.9L101.3,99.9L101.3,99.9c0,0,0.1,0.1,0.1,0.3C101.4,100,101.3,100,101.3,99.9L101.3,99.9z"/>
			<path class="st0" d="M101.3,99.9L101.3,99.9L101.3,99.9L101.3,99.9z"/>
			<path class="st0" d="M101.3,86.9c-0.3-0.8,0.1-1.7,0.1-2.5c0.1-0.3,0.1-0.7,0.1-1c0-2.8-0.1-5.5,0-8.3c0.1-0.8,0.3-1.5,0.3-2.4
				c0.1-6.2,0-12.4,0-18.7c0-0.4-0.1-1.2-0.1-1.7c-0.1-4.1-0.1-8.4-0.3-12.6c0-1,0.3-1.9,0.3-2.9c0-0.1,0-0.4,0-0.6
				c0-0.3,0-0.6,0-0.7c0-0.1,0-0.6,0-0.7c0.1-2.6,0.1-5.4,0.4-8c0-0.3,0-0.6-0.1-1c-0.3-4-0.3-7.7-0.3-11.6c0-0.3,0-0.7,0.1-1
				c0.7-1.7,0.3-3.3,0-5.3c0-0.3,0-0.6,0-0.8c0-1.5,0-2.9-0.1-4.4c0-0.3,0-0.6,0-0.8h0.3c0.3,1.7,0.4,3.5,0.4,5.1c0,0.1,0,0.4,0,0.6
				c0.6,2.5,0.6,4.3-0.3,6.6c0,0.3,0,0.6,0,0.8c-0.1,3.6-0.1,7.2,0.3,10.9c0,0.3,0,0.6,0,0.7c-0.6,2.5-0.4,5-0.4,7.6
				c0,0.3,0,0.6,0,0.7c0,0.4,0,1,0,1.4c0,0.3,0,0.6,0,0.8c0,1.1-0.1,2.4-0.1,3.5c-0.1,6.4,0.6,13,0.3,19.5c-0.1,4.1,0.4,8.4,0,12.6
				c0,0.8-0.3,1.4-0.3,2.2c0,2.8,0,5.5,0,8.2c0,0.3-0.1,0.6-0.1,0.8c-0.1,0.4-0.3,0.7-0.3,1c0,2.4,1.4,4,0.6,6.2c0,0.3,0,0.6,0,1
				c0,1.5,0,3,0,4.4c0,2.5,0.1,5,0.1,7.5c-0.1,7.7,0.1,15.4,0,23.1c0,0.6-0.1,1.4-0.3,2.1c-0.3,2.9,0.7,5.5,0.4,8.4
				c0,0.6-0.1,1.1-0.1,1.7c0,0.3,0,0.6,0,0.8c0.1,2.4,0,4.7-0.1,7.1v0.1h-0.3c0-0.1,0-0.4,0-0.6c0.1-1.9,0.4-4.1,0.1-6.1
				c0-0.3,0-0.6,0-1c0-1.1,0-2.4,0-3.5c0-2.9-0.4-6.1-0.3-9.1c0.3-8,0-16,0.1-24.1c0-0.4,0-1,0-1.4c0-0.3,0-0.6,0-1
				c0-0.1,0-0.4,0-0.7c0-0.4,0-0.6,0-1.1c-0.1-1.4-0.1-2.8-0.1-4.1c0-1,0-1.8,0.1-2.8c0-0.3,0-0.6,0.1-1
				C102.5,89.9,101.8,88.3,101.3,86.9z"/>
			<path class="st0" d="M101,102.5C101,102.5,101,102.7,101,102.5C101,102.7,101,102.5,101,102.5z"/>
			<path class="st0" d="M101,102.7L101,102.7L101,102.7z"/>
			<path class="st0" d="M101,95.8c0,0.6,0,1-0.1,1.4c0-0.1,0.1-0.3,0.1-0.4l0,0C101,96.3,101,96,101,95.8z"/>
			<path class="st0" d="M100.8,99.4L100.8,99.4C101,99.4,101,99.4,100.8,99.4c0.1,0.1,0.1,0.1,0.1,0.1l0.1,0.1l0,0v0.1l0,0l0,0
				C101.1,99.6,101,99.5,100.8,99.4z"/>
			<path class="st0" d="M100.8,95.3L100.8,95.3L100.8,95.3z"/>
			<path class="st0" d="M100.8,99.4L100.8,99.4L100.8,99.4z"/>
			<path class="st0" d="M100.8,95.2L100.8,95.2L100.8,95.2z"/>
			<path class="st0" d="M100.8,99.4L100.8,99.4L100.8,99.4z"/>
			<path class="st0" d="M100.7,94.9c0-0.1,0-0.1,0-0.3C100.7,94.8,100.7,94.8,100.7,94.9z"/>
			<path class="st0" d="M100.7,94.6L100.7,94.6L100.7,94.6z"/>
			<path class="st0" d="M100.7,94.5L100.7,94.5L100.7,94.5z"/>
			<path class="st0" d="M101,95.6c0-1-0.3-2.2-0.4-3.3C100.8,93.4,101,94.5,101,95.6z"/>
			<path class="st0" d="M100.8,96.6c0,0.4-0.3,0.7-0.6,1c0.4-0.7,0.6-1.4,0.4-2.2C101,95.8,101,96.3,100.8,96.6
				C101,96.6,100.8,96.6,100.8,96.6z"/>
			<path class="st0" d="M100.7,101.4c0-0.4,0-0.7-0.1-1.1c0.1,0.1,0.3,0.4,0.3,0.7C100.7,101.1,100.7,101.3,100.7,101.4z"/>
			<path class="st0" d="M100.3,105.2c0.1-0.3,0.3-0.6,0.4-0.8c0.1-0.3,0.1-0.4,0.3-0.7s0.1-0.4,0.3-0.7c0-0.3,0.1-0.4,0.1-0.7
				c0,0.3,0,0.4-0.1,0.6c0,0.3-0.1,0.4-0.1,0.7c-0.1,0.4-0.3,0.8-0.6,1.2C100.4,105,100.4,105,100.3,105.2L100.3,105.2z"/>
			<path class="st0" d="M100.4,100.7L100.4,100.7L100.4,100.7z"/>
			<path class="st0" d="M100.4,99.1L100.4,99.1L100.4,99.1z"/>
			<path class="st0" d="M100.4,97.6C100.4,97.7,100.4,97.7,100.4,97.6C100.4,97.7,100.4,97.7,100.4,97.6z"/>
			<path class="st0" d="M100.1,130.3c-0.1-1.7,0.4-3.5,0.4-5.1c0-3.7-0.1-7.3-0.1-10.9c0-0.3,0-0.6,0-0.8c0-2.5-0.1-5,0.1-7.6
				c0-0.1,0-0.4,0-0.6c0.4-0.6,0.6-1.1,0.7-1.8c0-0.1,0.1-0.4,0.1-0.6s0-0.3,0-0.4l0,0l0,0c0,0,0,0,0-0.1c0-0.6,0.1-1.1,0.1-1.7
				v-0.1c0-0.1,0-0.1,0-0.3l0,0c0-0.1-0.1-0.4-0.1-0.6c0.3,0.4,0.3,1,0.3,1.5c0,0.6-0.1,1.1-0.1,1.7c0,0.1-0.1,0.4-0.1,0.6
				s-0.1,0.4-0.1,0.6c-0.1,0.6-0.3,0.8-0.4,1.1c-0.1,0.3-0.1,0.4-0.1,0.7c-0.3,2.6,0.1,5.1-0.1,7.7c0,0.3,0,0.6,0,0.8
				c-0.1,3.7,0.3,7.2,0.1,11.1c-0.3,3.6-0.6,7.3,0.3,10.8c0.1,0.4,0.1,1.2,0,1.7c-0.7,3.2-0.4,6.6-0.4,10h-0.1c0-1.7-0.1-3.3,0-5
				c0-0.3,0-0.6,0-0.8s0-0.6,0-0.8c-0.1-1.7,0.6-3.3,0.3-5C100.3,134.2,100.3,132.4,100.1,130.3z"/>
			<path class="st0" d="M100.3,100.6L100.3,100.6C100.4,100.6,100.4,100.6,100.3,100.6C100.4,100.6,100.3,100.6,100.3,100.6z"/>
			<path class="st0" d="M100.8,100.6c0.1,0.8-0.3,1.7-0.6,2.4C100.6,102.3,100.8,101.4,100.8,100.6z"/>
			<path class="st0" d="M100.7,94.5c-0.1-0.4-0.3-1-0.4-1.4C100.4,93.5,100.6,94,100.7,94.5z"/>
			<path class="st0" d="M100.3,97.7c0,0.1-0.1,0.1-0.1,0.3c0,0,0,0-0.1,0C100.1,97.8,100.3,97.8,100.3,97.7L100.3,97.7L100.3,97.7z"
				/>
			<path class="st0" d="M100.3,44.3c0-1.1-0.1-2.4-0.1-3.5c0.1-1.5,0.1-3.2,0.1-4.7c0-0.3,0-0.6,0-0.8c0-0.7,0-1.4,0-2.1
				c0-0.3,0-0.6,0-0.7c0-1.2,0.1-2.4,0-3.5c0-0.3,0-0.6,0-0.8c0-0.3,0-0.6,0-1c0.1-2.6,0.1-5.4,0-8.2c0-0.3,0-0.6,0-0.8
				c0-2.1-0.1-4.1,0-6.2V9.3c0-0.3,0-0.4,0-0.7c0-2.2,0.1-4.4,0.1-6.6h0.3c0,2.5-0.3,4.8-0.3,7.3c0,0.3,0,0.4,0,0.7v2.2
				c-0.1,2.2,0,4.6,0,6.8c0,0.3,0,0.6,0,0.8c0.1,2.6,0,5.3,0,7.7c0,0.3,0,0.6,0,1c0.7,1.5,0.6,3.2,0,4.7c0,0.3,0,0.6,0,0.8
				c0,0.6,0,1.1,0,1.7c0,0.3,0,0.6,0,0.8c0,1.1-0.1,2.2-0.1,3.3c-0.1,1.4,0.1,2.9,0.1,4.3c0,0.3,0,0.6,0,0.8c0,0.3,0,0.6,0,0.8v0.6
				c0,2.8,0.1,5.5,0.1,8.4c0.1,5.8-0.1,11.3,0,17c0,0.8-0.1,1.7-0.3,2.6c-0.3,2.8,0.1,5.4,0.1,8.2c0,0.3,0,0.7,0,1c0,0.3,0,0.6,0,1
				c-0.4,1.9,0.3,3.7,0.4,5.7c0,0.3,0,0.4-0.1,0.7c-0.1,0.4-0.1,1-0.1,1.4c-0.1-0.4-0.1-0.8-0.3-1.1c0-0.3,0-0.6,0.1-0.7
				c0-0.1,0-0.4,0-0.7c-0.3-1.7-0.4-3.2-0.3-5c0-0.3,0-0.6,0-0.8c0-0.1,0-0.3,0-0.6c0-0.1,0-0.3,0-0.6c-0.3-3.5-0.1-7.1,0-10.5
				c0.3-5.9,0.3-11.9,0.1-18c-0.1-2.5-0.4-5-0.3-7.6V46c0-0.1,0-0.4,0-0.6C100.3,44.9,100.3,44.6,100.3,44.3z"/>
			<path class="st0" d="M100.1,103.1c0,0.1,0,0.1-0.1,0.3C100.1,103.2,100.1,103.2,100.1,103.1z"/>
			<path class="st0" d="M100.6,104.5c-0.1,0.1-0.3,0.4-0.4,0.6C100.3,104.9,100.4,104.6,100.6,104.5c0.1-0.3,0.3-0.6,0.3-0.8
				s0.1-0.6,0.3-0.7c0.1-0.7,0.4-1.5,0.4-2.2c0-0.1,0-0.3,0-0.4v0.1v0.1c0,0.6,0,1.1-0.1,1.7c0,0.3-0.1,0.6-0.3,0.8
				s-0.1,0.6-0.3,0.7C100.7,104.1,100.7,104.2,100.6,104.5z"/>
			<path class="st0" d="M100,92.3c0,0.1,0,0.1,0.1,0.3C100,92.4,100,92.3,100,92.3z"/>
			<path class="st0" d="M100.1,98.8c-0.1,0-0.3-0.1-0.4-0.1c0.3,0,0.7,0,0.8,0.1c0.3,0.1,0.6,0.4,0.7,0.7c-0.1-0.1-0.1-0.3-0.3-0.3
				l0,0l0,0l-0.1-0.1l0,0C100.6,98.9,100.4,98.9,100.1,98.8C100.3,98.8,100.3,98.8,100.1,98.8z"/>
			<path class="st0" d="M100.8,100.3c-0.1-0.6-0.4-0.8-1.2-1c0.8-0.3,1.5,0.1,1.7,1.1c0,0.3,0,0.4,0,0.7c0-0.6-0.1-1.1-0.6-1.7
				C100.7,99.8,100.8,100,100.8,100.3z"/>
			<path class="st0" d="M100.7,101.4c0,0.7-0.3,1.4-0.8,1.9C100,102.7,100.4,102.1,100.7,101.4z"/>
			<path class="st0" d="M99.7,103.4L99.7,103.4L99.7,103.4z"/>
			<path class="st0" d="M99.7,98.8h-0.1C99.6,98.7,99.7,98.7,99.7,98.8z"/>
			<path class="st0" d="M99.6,56.1c0.1-4-0.3-7.9-0.1-12c0-0.3,0-0.6,0-0.8s0-0.6,0-0.8s0-0.6,0-0.8c0.1-2.9,0.1-6.1,0-9
				c0-0.3,0-0.6,0-0.8c0.3-4.4,0-8.9,0-13.3c0-0.3,0-0.6,0-0.8s0-0.4,0-0.7c-0.1-3.2,0-6.2,0.1-9.3c0.3-2.1,0-4-0.1-5.9h0.3
				c0.1,1.8,0.3,3.7,0.3,5.4c-0.1,3.5-0.4,6.8-0.3,10.4c0,0.3,0,0.6,0,0.8c0,4.3,0.3,8.9,0,13.3c0,0.3,0,0.6,0,0.8
				c0,0.1,0,0.4,0,0.6c0.3,2.8,0.1,5.5,0,8.4c0,0.3,0,0.6,0,0.8s0,0.6,0,0.8c0,0.3,0,0.6,0,0.8c0,3.9,0.1,7.7,0.1,11.5
				c0,2.4-0.3,4.7,0,7.2c0,0.3,0,0.6,0,0.8c0,0.3,0,0.6,0,0.8c0,0.3,0,0.6,0,0.8c0,2.4,0,4.6,0.1,6.9c0,0.3,0,0.6,0,1
				c0,3.6,0,7.2,0,10.8c0,0.3,0,0.7,0,1c0,1.4,0,2.9,0,4.4c0,0.3,0,0.6,0,0.8s0,0.6,0,0.8c0,0.4,0.1,1,0.3,1.5
				c-0.1-0.6-0.3-1.1-0.4-1.5c0-0.3,0-0.6,0-0.8s0-0.6,0-0.8c0-1.5,0-2.9,0-4.4c0-0.3,0-0.7,0-1c0-3.6,0-7.2,0-10.8c0-0.3,0-0.6,0-1
				c0-2.4,0-4.6,0-6.9c0-0.3,0-0.6,0-0.8c0-0.3,0-0.6,0-0.8c0-0.3,0-0.6,0-0.8C99.5,60.3,99.5,58.1,99.6,56.1z"/>
			<path class="st0" d="M100.4,97.8c-0.3,0.4-0.7,0.6-1.2,0.8c0.4-0.1,0.7-0.4,1-0.7c0.3-0.1,0.4-0.4,0.6-0.6
				C100.6,97.6,100.6,97.7,100.4,97.8z"/>
			<path class="st0" d="M100.3,100.6c-0.3,0.4-0.4,1.1-0.8,1.7c0.4-0.6,0.4-1.4,0.6-1.9C100.1,100.3,100.3,100.5,100.3,100.6z"/>
			<path class="st0" d="M99.3,147.8c0-2.9,0.3-5.9,0.4-8.9c0-0.3,0-0.6,0-1c0-1.2,0-2.5-0.1-3.6c0-0.3,0-0.7,0-1V132
				c0-0.3,0-0.4,0-0.7c0.1-0.8,0.1-1.4,0.1-2.2c0-0.3,0-0.6,0-0.8c0-0.3,0-0.6,0-0.7c0-0.4,0-0.7,0-1.1c0-0.1,0-0.4,0-0.6
				c-0.1-0.8,0-1.4,0-2.2c0-0.3,0-0.4,0-0.7c0-1.1,0-2.2,0.1-3.2c0-0.3,0-0.6,0-0.8c0-1.4,0-2.9,0.1-4.3c0-0.3,0-0.6,0-0.8
				c0.1-2.8-0.1-5.5,0.6-8.3c0.1-0.1,0.1-0.3,0.3-0.4c-0.8,2.8-0.4,5.8-0.6,8.7c0,0.3,0,0.6,0,0.8c0,1.4,0,2.9,0,4.3
				c0,0.3,0,0.6,0,0.8c-0.1,3-0.1,5.7,0.3,8.6c0.1,1-0.3,1.9-0.1,2.8c0,0.3,0,0.4,0,0.7c0,0.4,0,1,0,1.4v1c0,1.1,0.1,2.4,0.1,3.5
				c0,0.3,0,0.6,0,0.8s0,0.6,0,0.8c-0.1,2.6-0.4,5.5-0.3,8.3h-1V147.8z"/>
			<path class="st0" d="M99.5,102.3L99.5,102.3L99.5,102.3z"/>
			<path class="st0" d="M99.2,98.2L99.2,98.2c0,0,0.1,0,0.3-0.1C99.3,98.2,99.3,98.2,99.2,98.2z"/>
			<path class="st0" d="M99.2,102.5L99.2,102.5L99.2,102.5z"/>
			<path class="st0" d="M99,102.7C99,102.5,99.2,102.5,99,102.7C99.2,102.5,99,102.5,99,102.7z"/>
			<path class="st0" d="M100.1,104.6c-0.3,0.4-0.7,0.8-1.1,1.2c0.1-0.1,0.3-0.4,0.4-0.6l0,0c0-0.1,0.1-0.1,0.1-0.3
				c0.1-0.3,0.4-0.6,0.6-0.7c0.1-0.3,0.3-0.4,0.4-0.7c0.1-0.3,0.1-0.4,0.3-0.7c0-0.1,0.1-0.1,0.1-0.3c0,0.3-0.1,0.4-0.1,0.7
				c-0.1,0.3-0.1,0.4-0.3,0.7C100.4,104.2,100.3,104.5,100.1,104.6z"/>
			<path class="st0" d="M99.5,98c-0.1,0-0.3,0.1-0.6,0.1c0.3-0.3,0.6-0.4,0.8-0.8c0.3-0.4,0.3-0.7,0.3-1.1
				C100.3,97.1,100.1,97.8,99.5,98z"/>
			<path class="st0" d="M99,102.7L99,102.7L99,102.7z"/>
			<path class="st0" d="M99.3,104.6c-0.1,0.1-0.3,0.3-0.4,0.3c0.3-0.1,0.4-0.6,0.7-0.8c0.1-0.3,0.3-0.4,0.4-0.7c0,0,0,0,0-0.1
				c0,0.1-0.1,0.3-0.1,0.4C99.7,104.1,99.6,104.3,99.3,104.6z"/>
			<path class="st0" d="M99,105.9C99,105.9,99,106,99,105.9C99,106,99,105.9,99,105.9z"/>
			<path class="st0" d="M98.9,93.7c0.6,1,1.1,1.8,1.1,2.6C99.9,95.5,99.3,94.5,98.9,93.7z"/>
			<path class="st0" d="M99.3,104.2c-0.1,0.1-0.4,0.1-0.6,0.1C98.9,104.3,99,104.2,99.3,104.2c0.1-0.3,0.4-0.4,0.6-0.7
				c0,0,0,0,0,0.1C99.7,103.8,99.5,104.1,99.3,104.2z"/>
			<path class="st0" d="M98.5,23.7c-0.6-1.4,0-2.9,0.1-4.6c0-0.3,0-0.6,0-0.8c0-3.9,0.3-7.7,0.1-11.6c0-1.5,0-3,0-4.7H99
				c0.1,2.1,0.4,4,0.1,5.9c-0.3,3-0.1,6.2-0.1,9.3c0,0.3,0,0.6,0,0.8c0,0.6,0,1,0,1.5c0,0.3,0,0.6,0,0.8c0,0.6,0,1.1,0,1.7
				c0,0.3,0,0.6,0,0.8c0,2.5,0.1,5.1,0.1,7.7c0,0.3,0,0.6,0,0.8c0,1.7,0,3.3,0,4.8c0,6.4-0.1,12.9,0,19.2c0,2.4-0.4,4.7-0.1,7.2
				c0,0.3,0,0.6,0,0.8c0,0.3,0,0.6,0,0.8c-0.1,1.5-0.1,3,0,4.6c0,0.3,0,0.6,0,0.8c0,3,0,5.9,0,9.1c0,0.3,0,0.6,0,0.7
				c0,0.7,0,1.5,0,2.2c0,0.3,0,0.7,0,1c0,0.6,0,1.2,0,1.8c0,0.1,0,0.4,0,0.6c0,1.1,0,2.2,0,3.3c0,0.3,0,0.6,0,0.8s0,0.6,0,0.8
				s0.1,0.6,0.1,0.8c0.6,2.1,2.4,5,1.1,6.8l0,0c0,0.1-0.1,0.1-0.1,0.3c0,0,0,0,0,0.1c0,0-0.1,0-0.1,0.1c-0.1,0.1-0.4,0.1-0.7,0.1
				c0.1,0,0.1,0,0.3-0.1c0.3-0.1,0.4-0.3,0.6-0.4c1.5-1.7-0.6-4.4-1.1-6.8c-0.1-0.3-0.1-0.6-0.1-0.8s-0.1-0.6-0.1-0.8
				c0-0.3,0-0.4,0-0.7c0-1.2,0-2.5,0-3.7c0-0.3,0-0.4,0-0.7c0-0.1,0-0.4,0-0.7c0-0.6,0-0.8,0-1.4c0-0.3,0-0.4,0-0.7s0-0.4,0-0.7
				v-0.4c0-3.7,0.3-7.5,0-11.2c0-0.3,0-0.4,0-0.7c0-1.4-0.1-2.8,0-4.1c0-0.3,0-0.6,0-0.8c0-0.3,0-0.6,0-0.8
				c-0.1-2.4,0.1-4.4,0.1-6.8c0.1-2.8-0.4-5.8-0.3-8.7c0-3.2,0.1-6.5,0.1-9.7c0-0.3,0-0.6,0-0.8c0-0.6,0-1.2,0-1.8
				c0-0.3,0-0.6,0-0.8c0-1.5,0-2.9,0-4.4c0-0.1,0-0.4,0-0.6c0-0.7,0-1.2,0-1.9c0-1-0.1-1.8-0.1-2.8C98.5,24.2,98.5,24,98.5,23.7z"/>
			<path class="st0" d="M98.8,101.3L98.8,101.3L98.8,101.3L98.8,101.3z"/>
			<path class="st0" d="M98.8,101.3L98.8,101.3L98.8,101.3z"/>
			<path class="st0" d="M98.6,101.1L98.6,101.1L98.6,101.1z"/>
			<path class="st0" d="M98.6,99.2c0.6-0.3,1.2-0.4,1.8-0.3C99.9,98.9,99.3,99.1,98.6,99.2z"/>
			<path class="st0" d="M98.6,99.4C98.6,99.4,98.6,99.2,98.6,99.4C98.6,99.2,98.6,99.4,98.6,99.4z"/>
			<path class="st0" d="M98.6,101.1c-0.3-0.3-0.3-0.7,0-1c0.6-0.4,1.5-0.6,1.8,0v0.1c-0.4-0.3-1-0.4-1.5,0
				C98.8,100.6,98.6,100.9,98.6,101.1z"/>
			<path class="st0" d="M98.5,105C98.5,105,98.6,105,98.5,105C98.6,105,98.6,105,98.5,105L98.5,105z"/>
			<path class="st0" d="M98.3,105L98.3,105C98.3,105,98.5,105,98.3,105C98.5,105,98.5,105,98.3,105z"/>
			<path class="st0" d="M98.6,128.4c-1-2.4-1-4.4-0.3-6.9c0-0.3,0-0.6,0-0.7c0-0.8,0.1-1.8,0.1-2.6c0-0.3,0-0.6,0-0.8
				c0-0.6,0-1.1,0-1.8c0-0.3,0-0.6,0-0.8c0.6-3-0.4-6.8,1.4-9.5c0,0,0,0,0-0.1c-1.4,2.9-0.8,6.4-1.1,9.4c0,0.3,0,0.6,0,0.8
				c0,1.1,0,2.2-0.1,3.3c0,0.3,0,0.6,0,1c0,0.4-0.1,1-0.1,1.4c0,0.3,0,0.4,0,0.7c-0.4,2.5-1.1,4.3,0.1,6.2c0.1,0.3,0.1,0.4,0.3,0.7
				c0,0.1,0,0.4,0,0.6c0,0.7-0.1,1.4-0.1,2.1c0,0.3,0,0.6,0,0.7c0,0.4,0,1,0,1.4c0,0.3,0,0.7,0,1c0,0.6,0.1,1.2,0.1,1.8
				c0,0.3,0,0.6,0,1c0,3.5-0.3,7.1-0.3,10.7h-0.4c0-3.9,0.3-7.7,0.3-11.6c0-0.3,0-0.6,0-0.8c0-0.6,0-1.1-0.1-1.7v-1
				c0-0.1,0-0.4,0-0.7s0-0.4,0-0.7s0-0.4,0-0.6s0-0.4,0.1-0.6c0-0.3,0.1-0.6,0.1-0.8C98.8,129,98.8,128.7,98.6,128.4z"/>
			<path class="st0" d="M97.9,105.7h0.1c0,0.1,0.1,0.1,0.1,0.3C98.1,106,98.1,105.9,97.9,105.7z"/>
			<path class="st0" d="M98.9,102.5c-0.4,0-0.7-0.1-1-0.4c0.6,0.3,1.2,0.4,1.5-0.4c-0.3,0-0.6-0.3-0.7-0.4c0.3-0.1,0.6-0.3,0.7-0.1
				C100,101.6,99.5,102.3,98.9,102.5z"/>
			<path class="st0" d="M98.1,102.7C98.1,102.7,97.9,102.7,98.1,102.7C98.1,102.5,98.1,102.7,98.1,102.7c0.4,0.1,0.6,0.1,0.8,0
				C98.8,102.8,98.5,102.8,98.1,102.7z"/>
			<path class="st0" d="M97.9,103.8L97.9,103.8L97.9,103.8L97.9,103.8z"/>
			<path class="st0" d="M97.9,102.5L97.9,102.5L97.9,102.5z"/>
			<path class="st0" d="M97.9,103.8L97.9,103.8L97.9,103.8z"/>
			<path class="st0" d="M97.9,102.5L97.9,102.5L97.9,102.5z"/>
			<path class="st0" d="M97.9,102C97.9,102,97.9,102.1,97.9,102C97.9,102.1,97.9,102,97.9,102z"/>
			<path class="st0" d="M98.1,105.9c-0.1-0.3-0.4-0.4-0.6-0.6c0.1,0.1,0.4,0.3,0.6,0.4c0.7,0.4,1.2-0.6,1.8-1.1
				c0,0.3-0.1,0.4-0.3,0.6c0,0.1-0.1,0.1-0.1,0.3l0,0C99,105.7,98.6,105.9,98.1,105.9z"/>
			<path class="st0" d="M97.5,105.2L97.5,105.2L97.5,105.2z"/>
			<path class="st0" d="M97.4,102.5C97.4,102.5,97.4,102.4,97.4,102.5c0.1,0.4,0.6,0.8,1.1,1c0.3,0,0.4,0,0.7,0
				c-0.1,0.1-0.3,0.3-0.4,0.4h-0.1l0,0l0,0c-0.3,0-0.4-0.1-0.6-0.1l0,0l0,0l0,0C97.7,103.4,97.5,102.9,97.4,102.5z"/>
			<path class="st0" d="M97.4,100.9c0-0.6,0.3-1.1,0.7-1.4c0.1-0.1,0.3-0.1,0.4-0.1c-0.3,0.1-0.7,0.4-0.8,0.8
				C97.5,100.3,97.4,100.6,97.4,100.9z"/>
			<path class="st0" d="M97.7,101.8c-0.1-0.1-0.3-0.4-0.3-0.7l0,0c0.1,0.3,0.3,0.6,0.6,0.7C97.8,102,97.8,102,97.7,101.8z"/>
			<path class="st0" d="M97.4,100.9L97.4,100.9L97.4,100.9z"/>
			<path class="st0" d="M97.4,101.1V101C97.4,101.1,97.4,101.1,97.4,101.1z"/>
			<path class="st0" d="M97.4,102.4L97.4,102.4L97.4,102.4z"/>
			<path class="st0" d="M97.4,102.4C97.4,102.3,97.4,102.3,97.4,102.4C97.4,102.3,97.4,102.3,97.4,102.4z"/>
			<path class="st0" d="M97.4,102.3L97.4,102.3L97.4,102.3z"/>
			<path class="st0" d="M97.2,102.1L97.2,102.1L97.2,102.1z"/>
			<path class="st0" d="M97.9,103.8c-0.3-0.1-0.6-0.4-0.7-0.7C97.5,103.2,97.8,103.5,97.9,103.8z"/>
			<path class="st0" d="M97.2,102.9L97.2,102.9C97.2,103.1,97.2,102.9,97.2,102.9z"/>
			<path class="st0" d="M98.6,98.4c-0.6,0.3-1.1,0.7-1.5,1c0.4-0.4,0.8-0.7,1.2-1c0.1-0.1,0.3-0.1,0.6-0.3
				C98.9,98.2,98.8,98.2,98.6,98.4z"/>
			<path class="st0" d="M97.2,102C97.2,101.8,97.2,101.8,97.2,102C97.2,101.8,97.2,101.8,97.2,102z"/>
			<path class="st0" d="M97.5,136.4c-0.3-1.8-0.7-3.6-0.3-5.4c0-0.3,0-0.6,0-1c0-3.9,0-7.7,0.1-11.6c0.1-1.2,0-2.5-0.1-3.7
				c0-0.3,0-0.6,0-0.8c-0.1-2.1,0.8-3.9,0.7-5.9c0-0.7,0.4-1.4,1-1.9c-0.4,0.6-0.7,1.1-0.7,1.4c-0.1,2.2-0.8,4.6-0.7,6.9
				c0,0.3,0,0.6,0,0.8c0.3,5.1-0.1,10.1-0.1,15.2c0,0.3,0,0.6,0,0.8c-0.4,1.8,0,3.5,0.4,5.4c0.1,0.8-0.1,1.5-0.1,2.4
				c0,0.3,0,0.4,0,0.7c0,1.4,0.1,2.6,0.1,4c0,1.4-0.1,2.8-0.1,4.1h-0.3v-0.6c0.1-1.2,0.1-2.5,0.1-3.7s0-2.4-0.1-3.6c0-0.3,0-0.6,0-1
				C97.5,138.1,97.5,137.4,97.5,136.4z"/>
			<path class="st0" d="M97.1,102.9C97.2,102.9,97.2,102.9,97.1,102.9L97.1,102.9z"/>
			<path class="st0" d="M97.2,101.8C97.2,101.8,97.1,101.8,97.2,101.8L97.2,101.8z"/>
			<path class="st0" d="M97.2,101.7c-0.7-1.9,1.5-3.2,2.9-2.9c0,0,0,0,0.1,0s0.4,0.1,0.6,0.1l0,0l0.1,0.1l0,0l0,0
				c0.1,0.3,0.3,0.6,0.4,0.8l0,0c0,0.1,0,0.1,0,0.3V100l0,0l0,0l0,0l0,0l0,0c0-0.1,0-0.3-0.1-0.3v-0.1l0,0l-0.1-0.1c0,0,0,0-0.1-0.1
				l0,0c-0.1-0.1-0.3-0.3-0.4-0.4c-1.4-0.6-3.7,0.4-3.2,2.5c0,0.3,0.1,0.4,0.1,0.7c0.1,0.1,0.3,0.1,0.3,0.3c-0.1,0-0.1-0.1-0.3-0.1
				C97.4,102.1,97.2,101.8,97.2,101.7z"/>
			<path class="st0" d="M98.5,104.5c-0.8,0.3-1.1-0.4-1.4-1.1c0.4,0.6,1,1,1.5,1h0.1C98.6,104.5,98.5,104.5,98.5,104.5z"/>
			<path class="st0" d="M97.7,8.6c-0.1-1.8-1-3.7-0.7-5.9c0-0.3,0-0.6,0-0.8h0.3c0,0.3,0,0.4,0,0.7s0,0.4,0,0.7c0,0.4,0,0.7-0.1,1.2
				c0,1.4,1,2.4,0.8,3.7c0,3.7-0.4,7.5-0.3,11.2c0,0.3,0,0.4,0,0.7c-0.3,4.7-0.3,9.1-0.1,13.7c0,0.1,0,0.4,0,0.7s0,0.4,0,0.7
				c-0.3,2.8,0,5.3,0.4,7.9c0.3,1.2-0.3,2.5-0.4,3.7c0,0.3,0,0.6,0,0.8c0,1.7,0,3.3,0,5c0,0.3,0,0.6,0,0.8c0,0.7,0,1.4,0,2.1
				c0,0.3,0,0.4,0,0.7c-0.1,1.9,0.4,3.9,0.3,5.7c0,0.3,0,0.6-0.1,0.7c-0.4,1.7,0,3.5-0.3,5.4c0,0.3,0,0.6,0,0.8c0,0.4,0,0.7,0,1.1
				c0,0.1,0,0.4,0,0.6c-0.4,4.4,0.3,9,0.1,13.4c0,0.3,0,0.6,0,0.8c0,0.3,0,0.6,0,0.8c0,0.3,0,0.6,0,0.8c0.1,0.7,0.1,1.2,0.3,1.9
				c0,0.3,0,0.4,0,0.7s0,0.6,0,0.8c0,0.3,0.1,0.6,0.1,0.8c0,0.7,0.3,1.4,0.4,2.2c0.1,0.3,0.1,0.4,0.3,0.7c-0.4-0.7-0.8-1.4-1.1-2.2
				c-0.1-0.3-0.1-0.6-0.1-0.8s0-0.6,0-0.8c0-0.1,0-0.4,0-0.6c0-0.6,0-1.1-0.1-1.7c0-0.3,0-0.6,0-1c0-1.2,0-2.5-0.1-3.7
				c0-0.3,0-0.6,0-0.7c0-0.4,0-1,0-1.5c0-0.3,0-0.4,0-0.7c0-1.2,0-2.5-0.1-3.7c0-0.3,0-0.6,0-0.7c0-1.7,0-3.2,0.1-4.7
				c0-0.1,0-0.4,0-0.6c0-0.4,0-0.7,0-1.1c0-0.3,0-0.6,0-0.8c0.1-2.2-0.3-4.7,0.3-6.8c0-0.3,0-0.6,0-0.8c0-1.5-0.3-3.2-0.4-4.7
				c0-0.3,0-0.6,0-0.8c0-0.3,0-0.6,0-0.8c0-2.2,0.1-4.4,0.1-6.6c0-0.3,0-0.6,0-0.8c0.1-1.2,0.4-2.2,0.4-3.3
				c-0.1-2.9-0.8-5.5-0.4-8.7c0-0.3,0-0.6,0-0.8c-0.1-3.2-0.1-6.5,0-9.7c0-0.1,0-0.4,0-0.6s0-0.4,0-0.6c0.1-0.7,0.1-1.4,0.1-2.1
				c0-0.3,0-0.4,0-0.7C97.5,16.6,97.8,12.5,97.7,8.6z"/>
			<path class="st0" d="M97.8,99.1c-0.4,0.3-0.8,0.6-1.1,0.8c0.1-0.1,0.3-0.4,0.4-0.6l0,0c0.4-0.4,1-0.7,1.5-1c0.1,0,0.3,0,0.4,0
				l0,0l0,0c-0.4,0.3-0.8,0.4-1.2,0.6C97.9,98.9,97.9,98.9,97.8,99.1C97.9,98.9,97.9,98.9,97.8,99.1C97.8,98.9,97.8,98.9,97.8,99.1z
				"/>
			<path class="st0" d="M96.7,99.9L96.7,99.9L96.7,99.9z"/>
			<path class="st0" d="M96.7,102.4c0,0.1,0.1,0.3,0.1,0.3c0.3,0.8,1,1.2,1.7,1.2l0,0l0,0c0.1,0,0.1,0,0.1,0c0.1,0,0.3-0.1,0.4-0.1
				c0.6-0.8,1.4-1.8,1.2-2.9c0.3,0.8-0.4,1.8-0.7,2.6c-0.1,0.1-0.3,0.4-0.4,0.6c-0.1,0.1-0.4,0.3-0.6,0.3c-1.1,0.1-1.7-0.7-1.8-1.4
				C96.8,102.7,96.8,102.5,96.7,102.4z"/>
			<path class="st0" d="M96.7,99.9L96.7,99.9L96.7,99.9z"/>
			<path class="st0" d="M96.7,102.4L96.7,102.4L96.7,102.4z"/>
			<path class="st0" d="M96.7,102.3L96.7,102.3L96.7,102.3z"/>
			<path class="st0" d="M96.7,101c0-0.4,0-0.8,0.3-1.1l0,0l0,0c0.1-0.1,0.3-0.3,0.3-0.4c0,0,0,0,0.1-0.1c0,0,0.1-0.1,0.3-0.1l0,0
				c0.4-0.3,1.1-0.4,1.7-0.6c-0.1,0-0.1,0.1-0.1,0.1c0.1,0,0.1,0,0.3,0c-0.1,0-0.3,0-0.3,0c-0.4,0.1-0.8,0.4-1.2,0.7
				c-0.4,0.4-0.7,1.1-0.6,1.8c0,0.1,0,0.3,0.1,0.4c0-0.1-0.1-0.3-0.1-0.6c-0.1-0.7,0.1-1.2,0.4-1.7C97.1,99.9,96.7,100.3,96.7,101z"
				/>
			<path class="st0" d="M96.7,101.8c0-0.3,0-0.4,0-0.7c0,0.1,0,0.1,0,0.3s0,0.4,0.1,0.6c0,0.3,0.1,0.6,0.3,0.8c0,0,0,0,0,0.1
				c-0.1-0.1-0.1-0.3-0.3-0.4C96.8,102.3,96.7,102,96.7,101.8z"/>
			<path class="st0" d="M96.7,102.1C96.7,102.3,96.7,102.3,96.7,102.1C96.7,102.3,96.7,102.3,96.7,102.1z"/>
			<path class="st0" d="M96.5,102.1L96.5,102.1L96.5,102.1z"/>
			<path class="st0" d="M96.4,101.4c-0.1-1.1,0.6-1.8,1.4-2.4l0,0l0,0c0,0,0,0,0.1,0c0.4-0.3,0.8-0.4,1.2-0.6c0.3,0,0.4-0.1,0.7-0.1
				c-0.6,0.4-1.5,0.7-2.4,1.1l0,0c-0.1,0-0.1,0.1-0.3,0.1c0,0,0,0-0.1,0.1s-0.3,0.3-0.3,0.4l0,0l0,0
				C96.5,100.3,96.4,100.7,96.4,101.4c0.1,0.3,0.1,0.4,0.1,0.7V102C96.5,101.7,96.4,101.6,96.4,101.4z"/>
			<path class="st0" d="M97.5,105.2c-0.6-0.4-0.8-1.1-1-1.8C96.7,104.1,97.1,104.6,97.5,105.2z"/>
			<path class="st0" d="M96.4,103.4C96.4,103.4,96.4,103.2,96.4,103.4C96.4,103.2,96.4,103.4,96.4,103.4z"/>
			<path class="st0" d="M96.4,100.5L96.4,100.5L96.4,100.5z"/>
			<path class="st0" d="M96.4,103.2L96.4,103.2L96.4,103.2z"/>
			<path class="st0" d="M96.4,99.8L96.4,99.8L96.4,99.8z"/>
			<path class="st0" d="M96.4,99.9L96.4,99.9L96.4,99.9z"/>
			<path class="st0" d="M96.3,101.3c0-0.3,0.1-0.6,0.1-0.8c-0.1,0.3-0.1,0.6,0,1c0,0.1,0.1,0.4,0.1,0.6c0.1,0.3,0.1,0.6,0.3,0.8
				c0,0.1,0.1,0.3,0.1,0.4c-0.3-0.4-0.4-0.7-0.6-1.1c0-0.3-0.1-0.4-0.1-0.7C96.3,101.6,96.3,101.4,96.3,101.3
				C96.3,101.4,96.3,101.3,96.3,101.3z"/>
			<path class="st0" d="M97.1,99.4c-0.4,0.3-0.7,0.6-0.8,1c0.1-0.4,0.3-0.7,0.6-1.1c0.1-0.1,0.3-0.4,0.6-0.6
				c0.4-0.3,0.8-0.3,1.1-0.4C97.9,98.7,97.5,98.9,97.1,99.4L97.1,99.4z"/>
			<path class="st0" d="M96.3,102.8L96.3,102.8L96.3,102.8z"/>
			<path class="st0" d="M96.1,101.8c-0.1-0.6,0-1.1,0.1-1.5c0.1-0.4,0.6-0.7,0.8-1c-0.1,0.1-0.3,0.3-0.4,0.6l0,0l0,0l0,0
				c-0.1,0.1-0.1,0.3-0.3,0.4l0,0l0,0l0,0c-0.1,0.3-0.1,0.6-0.1,0.8l0,0C96.3,101.6,96.3,101.7,96.1,101.8c0.3,0.3,0.3,0.4,0.4,0.7
				c0.4,1.1,0.7,2.2,1.8,2.5c-1-0.1-1.7-1.2-1.9-2.5C96.3,102.3,96.1,102,96.1,101.8z"/>
			<path class="st0" d="M96.3,138.2c-0.1-2.1-0.3-3.9-0.1-5.9c0-0.3,0-0.6,0-0.7c0-1.4,0-2.8,0.1-4v-5c0-0.1,0-0.4,0-0.6
				c0.1-2.8,0.1-5.4,0.1-8c0-0.3,0-0.6,0-0.8c0.6-3,0-5.9,0.1-8.9c0.7,0.3,1,1.1,1.5,1.7c-0.6-0.1-1.1-0.6-1.5-1.1
				c0.8,2.9,0.4,5.9,0.1,9c0,0.3,0,0.6,0,0.8c0.1,2.8,0.1,5.3-0.1,8v4.4c0,1.4,0,2.9,0,4.3c0,0.3,0,0.4,0,0.6
				c-0.4,2.4,0.1,4.7,0.1,6.9c0,0.3,0,0.4,0,0.7c0,0.4,0,0.8,0,1.4c0,0.1,0,0.4,0,0.6c0,1.7,0,3.3-0.1,5c0,0.1,0,0.3,0,0.6v1h-0.3
				v-1.5c0-1.1,0.1-2.4,0.1-3.5c0-0.3,0-0.6,0-0.8s0-0.6,0-1c0-0.7,0-1.4,0-2.2C96.3,138.6,96.3,138.4,96.3,138.2z"/>
			<path class="st0" d="M96,2h0.3c0,0.4,0.1,0.8,0.1,1.2c0,0.1,0,0.3,0,0.6c-0.3,1.8,0.3,3.7,0.4,5.5c0,4.3,0.1,8.7-0.3,13
				c0,0.1,0,0.4,0,0.6v2.2c0,0.4,0,1,0,1.4c0,1-0.3,1.9-0.1,2.8c0,0.6,0,1,0,1.4c0,1.4,0.1,2.9,0.1,4.3c0,0.3,0,0.6,0,0.8
				c-0.3,3.7,0.7,7.1,0,10.7c0,0.1,0,0.4,0,0.6v0.8c0.1,2.6,0,5.3,0,7.9c0,0.3,0,0.6,0,0.8c0,1.1,0.1,2.2,0.1,3.3c0,0.3,0,0.6,0,0.8
				c-0.4,2.5,0.4,5,0,7.5c0,0.3,0,0.6,0,0.8c0,1.4,0,2.8-0.1,4.1c0,0.3,0,0.6,0,0.8c0,3.6,0,7.2,0.1,10.8c0.1,1.1-0.1,2.4-0.1,3.3
				c0,0.3,0,0.4,0,0.6c0,0.3,0,0.4,0,0.6c0,0.3,0,0.4,0,0.6c0,0.3,0.1,0.6,0.1,0.8c0.1,2.2,2.1,3.6,2.8,5.7c0.1,0.3,0,0.7-0.1,0.8
				c-0.7,0.3-1.4,0.7-1.9,1.2c-0.1,0.1-0.4,0.3-0.6,0.6c-0.1,0.1-0.3,0.4-0.4,0.6c0.4-1,1.4-1.8,2.1-2.6c1.2-1.7-1.5-3.5-1.9-5.4
				c0-0.3-0.1-0.6-0.1-0.8c0-0.6-0.1-1-0.1-1.5c0-0.3,0-0.6,0-0.8c0-0.3,0-0.6,0-0.8c0-1.4,0.3-2.6,0.1-4c-0.3-3.2-0.3-6.4-0.1-9.4
				c0-0.3,0-0.6,0-0.8c0-1.2,0-2.4,0.1-3.6c0-0.3,0-0.6,0-1c0.4-2.8-0.3-5.5,0.1-8.2c0-0.3,0-0.6,0-1c0-1,0-1.8-0.1-2.8v-0.8
				c0-2.5,0-5,0-7.5c0-0.3,0-0.4,0-0.7v-1.4c0-0.3,0-0.4,0-0.7c0-1,0.3-1.9,0.3-2.8c0-2.6-0.4-5.1-0.3-7.9c0-0.3,0-0.6,0-0.8
				c0-0.8-0.1-1.7-0.1-2.4c0-0.4,0-1,0-1.4c0-0.6,0-1,0-1.4c0.1-1.4,0.1-2.9,0.1-4.3v-1.1v-1.1c0-0.1,0-0.4,0-0.6
				c0.3-4.8,0.6-9.5,0.1-14.2c-0.1-1.4-0.3-2.8-0.3-4.1c0-0.3,0-0.6,0-0.8C96,2.7,96,2.4,96,2z"/>
			<path class="st0" d="M96,101.3c0-0.3,0-0.6,0.1-0.8c-0.1,0.4-0.1,0.7-0.1,1.1c0,0.3,0,0.6,0.1,0.7c0,0.1,0.1,0.3,0.1,0.4
				c-0.1-0.3-0.1-0.4-0.3-0.7C96,101.8,96,101.6,96,101.3z"/>
			<path class="st0" d="M95.3,12.3c-0.6-2.5-1.1-4.4-0.4-7.1c0-0.3,0-0.6,0-0.8c0-0.8,0.1-1.5,0.1-2.4h0.4v0.1
				c0,0.8-0.1,1.7-0.1,2.5c0,0.1,0,0.3,0,0.6c-0.8,2.5-0.7,4.6,0.6,6.6c0.1,0.3,0,0.6-0.1,0.7c-0.1,0.3-0.3,0.4-0.3,0.6
				c-0.1,0.1-0.1,0.4-0.1,0.7c-0.1,2.2-0.1,4.6,0,6.8c0,0.6,0,1.1,0.1,1.7c0,1.5,0,3,0,4.6c0,0.3,0,0.4,0,0.7
				c0.1,2.2-0.3,4.1-0.3,6.4c0,0.3,0,0.6,0,0.7c0,0.1,0,0.6,0,0.7c0.3,2.2,0.8,4.4,0.6,6.6c-0.3,1.4-0.4,2.8-0.4,4.1
				c0,0.1,0,0.3,0,0.4c0,0.3,0,0.6,0,1c0,0.3,0,0.6,0,1c0,0.3,0,0.6,0,0.8c0,1,0,2.1,0,3c0,0.3,0,0.6,0,0.8c0,0.3,0,0.6,0,0.8
				c0,0.3,0,0.6,0,0.8c0,0.8,0,1.5,0,2.4c0,0.3,0,0.6,0,1c0,1.4,0,2.8,0,4.3c0,0.3,0,0.6,0,0.8c0,1.1,0,2.1,0,3.2c0,0.3,0,0.6,0,0.8
				c0,0.4,0,1.1,0,1.5c0,0.1,0,0.4,0,0.6c0,0.8,0,1.7,0,2.5c0,0.3,0,0.6,0,0.8c0,0.8,0,1.8,0,2.8c0,0.4,0,1,0,1.4c0,0.4,0,1,0,1.4
				c0,0.3,0,0.6,0,0.8c0,1,0,1.9,0,3c0,0.1,0,0.4,0,0.6c0,0.3,0,0.6,0,0.8c0,0.6,0,1.1,0,1.5c0,1.5,0,3.2,0,4.8c0,0.3,0,0.6,0,0.8
				s0,0.6,0,0.8c-0.1,1.2,0.8,2.5,1.2,3.6c0.1,0.6,0.4,1.1,0.3,1.8c-0.6,1.7-1.5,3.2-1.4,5.1c0,0.1,0,0.4,0,0.6s0,0.4,0,0.6
				c0,0.3,0,0.6,0,0.8c0.1,2.5-0.3,5-0.1,7.5c0,0.4,0,0.7,0.1,1c0,0.3,0,0.6,0,0.8c0,1.1,0,2.2,0,3.3c0,0.3,0,0.6,0,0.8
				c0,1.1,0,2.2,0,3.3c0,0.3,0,0.6,0,0.8c0,2.2,0,4.4,0,6.6c0,0.3,0,0.7,0,1c0,5.7,0.3,11.5-0.1,17.3c0,0.4,0,1,0,1.4H95
				c0-4.3,0.3-8.4,0.3-12.7c-0.1-1.2-0.1-2.6-0.1-3.9c0.1-1.1,0.1-2.2,0.1-3.3c0-0.3,0-0.4,0-0.7c0-1.7-0.1-3.3-0.1-4.8
				c0-0.3,0-0.4,0-0.7c-0.3-1.5-0.6-3-0.1-4.7c0-0.3,0-0.6,0-0.8c0-0.8,0-1.5,0-2.4c0-0.3,0-0.6,0-0.8c0-0.6-0.1-1.1-0.1-1.7
				c0-0.3,0-0.6,0-0.8c-0.1-2.1,0.1-4,0.3-6.1c0-0.3,0-0.6,0-1c0-0.3,0-0.4,0-0.7s0-0.4,0-0.7c-0.1-2.1,1.4-3.7,1.2-5.7
				c-0.1-1.5-1.4-2.9-1.4-4.6c0-0.3,0-0.6,0-0.8s0-0.6,0-0.8c0-1.9,0-3.9,0.1-5.8c0-0.3,0-0.4,0-0.7c0-0.4,0-1,0-1.4
				c0-0.3,0-0.4,0-0.7c0-1.2,0-2.4,0-3.6c0-0.3,0-0.6,0-0.8c0-0.3,0-0.6,0-1c0-3.7,0-7.3,0-11.1c0-0.3,0-0.4,0-0.7
				c0-0.3,0-0.4,0-0.7s0-0.4,0-0.7c0-1.9,0-4.1,0.1-6.1c0-0.3,0-0.6,0-0.7c0-0.3,0-0.6,0-0.8c0-1.5,0-2.9,0.1-4.3
				c0-0.3,0-0.6,0.1-0.7c0-0.3,0.1-0.6,0.1-0.7c0-0.3,0-0.6,0-0.7c0-0.3,0-0.4,0-0.7c0-1-0.6-2.1-0.6-3.2c0-0.3,0-0.6,0-0.8
				s0-0.6,0-0.8s0.1-0.6,0.1-0.8c0-1.7,0.3-3,0-4.7c0-0.3,0-0.6,0-0.7c-0.1-1.1-0.1-2.4-0.1-3.5c0-0.4,0-0.8,0-1.1
				c0-1,0.3-1.7,0.1-2.6c0-0.4,0-0.8,0.1-1.4c0-0.3,0-0.6,0-0.8c0-0.8,0-1.7,0-2.5c0-0.3,0-0.6,0-0.7c0-0.3,0-0.6,0-0.7
				c0-0.3,0-0.6,0-0.7c-0.1-2.9-0.1-5.8,0-8.9c0-0.3,0-0.6,0-0.7c0-0.1,0.1-0.4,0.1-0.6C95.2,12.6,95.3,12.5,95.3,12.3z"/>
			<path class="st0" d="M94.5,22.7c-0.4-2.5-0.4-5.1-0.3-7.7c0-0.3,0-0.6,0-0.8c0-0.3,0-0.6,0-0.8c0-0.3,0-0.7,0-0.8
				c0.1-2.5,0.1-5,0.1-7.5c0-0.3,0-0.6,0-0.8s0-0.4,0-0.7s0-0.4,0-0.7s0-0.6,0-0.8h0.4c0,0.7,0,1.2,0,1.9c0,0.3,0,0.6,0,0.8
				c0,1.5-0.4,2.9-0.4,4.3c0.1,1.2,0.7,2.5,0.3,3.6c0,0.1,0,0.4,0,0.7s0,0.6,0,0.8c0,2.9-0.1,5.8,0.1,8.7c0,0.3,0,0.6,0,0.8
				c0,0.3,0,0.6,0,0.8s0,0.6,0,0.8c0,1.1,0,2.1,0,3.2c0,0.3,0,0.6,0,0.8c0,0.4-0.1,0.8-0.1,1.4c0,0.4,0,0.8,0,1.4s0,0.8,0,1.4
				c0,1.4,0.1,2.6,0.1,4c0,0.3,0,0.6,0,0.8c0.1,1.4,0,2.8-0.1,3.9c0,0.3,0,0.6-0.1,0.8c0,0.3-0.1,0.6-0.1,0.8c0,0.3,0,0.6,0,0.8
				c0,1.7,0.8,3,0.7,5c0,0.3,0,0.6,0,0.8c0,0.3,0,0.6,0,0.8c-0.4,4.3-0.6,8.6-0.4,12.9c0,0.3,0,0.4,0,0.7s0,0.4,0,0.7s0,0.4,0,0.7
				c0,8.3-0.1,16.7-0.1,25c0,0.3,0,0.6,0,1c0.1,1,1.1,2.4,1.2,3.7c0.3,2.1-1.2,4-1,6.1c0,0.1,0,0.4,0,0.6s0,0.4,0,0.6
				c0,0.3,0,0.6,0,0.8c0,2.1-0.3,4-0.1,6.1c0,0.3,0,0.4,0,0.7c0,0.7,0.1,1.4,0.1,2.1c0,0.3,0,0.7,0,1c0,0.6,0,1.1,0,1.7
				c0,0.3,0,0.6,0,0.8c-0.4,2.1-0.4,3.6,0,5.7c0,0.3,0,0.6,0,0.8c0,1.4,0,2.6,0,4c0,0.3,0,0.7,0,1c0,0.8-0.1,1.9-0.1,2.9
				c-0.1,1.5,0.1,3.2,0.1,4.7c0,4.1-0.3,8.3-0.3,12.4h-0.4c0-3.6,0.1-7.2,0.3-10.8c0.1-2.2-0.4-4.6-0.3-6.8c0.1-0.8,0.1-1.5,0.1-2.4
				c0-0.3,0-0.6,0-1c0-1.1,0-2.2,0-3.3c0-0.3,0-0.6,0-0.8c-0.6-2.4-0.7-4.4,0-6.5c0-0.3,0-0.7,0-1c0-0.6,0-1.1,0-1.7
				c0-0.3,0-0.6,0-0.8c0-0.6-0.1-1.2-0.1-1.8s0-1.1,0-1.7c0-0.6,0-1.1,0-1.7c0-0.6,0-1.1,0.1-1.7c0-0.6,0-1.1,0-1.7
				c0-0.8,0-1.8-0.1-2.8c0-0.1,0-0.4,0-0.6c0.4-2.8,0.8-5.5,0-8.3c0-0.3,0-0.7,0-1c0.4-14.7-0.3-29.2,0.6-43.8
				c0-0.8-0.4-1.9-0.4-2.6c0-0.6,0-1.1,0-1.7c0-0.3,0-0.6,0-0.8c0-0.6,0-1.1,0-1.5c0-1.1,0-2.1,0-3c0-0.6,0-1,0-1.5
				c0-2.5-0.1-5.1,0.1-7.6c0-0.3,0-0.6,0-0.8c0-1.4,0.1-2.6,0.1-4c0-0.3,0-0.6,0-0.8C94.5,23.3,94.5,23,94.5,22.7z"/>
			<path class="st0" d="M93.1,23.1c-0.3-1.8-0.4-3.7-0.4-5.7c0-0.6,0-1,0-1.5c0-0.8,0-1.5,0-2.4c0-0.3,0-0.6,0-0.8s0-0.4,0-0.7
				s0-0.4,0-0.7c0.6-1.9,0.6-3.9,0.3-5.8c0-0.3,0-0.6,0-0.8c0-0.8,0-1.8,0-2.8h0.4v0.1c0,0.3,0,0.6,0,0.8c0,0.7,0,1.2,0,1.9
				c0,0.3,0,0.4,0,0.7c0.7,2.2,0.3,4-0.1,6.1c0,0.3,0,0.4,0,0.7c0,0.8,0,1.7,0.1,2.5c0,0.3,0,0.4,0,0.7c0,2.4,0,4.7,0.1,6.9
				c0,0.6,0,1.1,0,1.7c-0.1,1.7-0.3,3.3-0.3,4.8c0,0.3,0,0.6,0,0.8c-0.1,4,0.3,8.2,0.1,12.2c0,0.3,0,0.6,0,0.8c0,0.8,0,1.7,0,2.5
				c0,0.8,0.3,1.5,0.4,2.4c0.1,1.7-0.1,3.3-0.4,4.8c-0.3,4.7-0.1,9.3-0.1,13.8c0,0.3,0,0.7,0,1c-0.1,1.5-0.3,3,0,4.6
				c0,0.3,0,0.6,0,1c0,2.5,0,4.8,0,7.3c-0.1,2.6,0.1,5.3,0.1,7.9c0,1.1,0,2.5-0.1,3.7c0,0.3,0,0.6-0.1,0.8c0,2.9,0.3,5.7,0.1,8.4
				c0,0.3,0,0.6,0,0.7c0,0.3,0,0.6,0.1,0.7c0,0.8,0.3,1.4,0.3,2.2c0,0.3,0,0.6,0,0.7c0,0.3,0,0.6,0,0.8c0,0.8-0.1,1.7-0.3,2.4
				c0,0.3,0,0.6-0.1,0.8c-0.1,1.5-0.1,3.2-0.1,4.7c0,0.3,0,0.4,0,0.7s0,0.4,0,0.7c0.1,2.4-0.1,4.8,0,7.2c0,0.1,0,0.3,0,0.6
				c0,0.1,0,0.3,0,0.4c0,0.3,0,0.6,0,0.8s0,0.6,0,0.8s0,0.6,0,0.8c-0.1,4.8,0,9.8-0.1,14.7c0,2.2-0.1,4.4,0,6.6h-0.3
				c-0.1-4.3,0.1-8.6,0-12.9v-2.8c-0.1-1,0-1.7,0.1-2.6c0.1-1.1-0.1-2.2-0.1-3.3c0-0.3,0-0.6,0-0.8c0-0.6,0-1.1,0-1.7
				c0-0.3,0-0.6,0-0.8c0.1-2.5,0.4-5,0-7.2c0-0.3,0-0.6,0-0.8c0-2.2-0.1-4.4,0.3-6.6c0-0.3,0-0.4,0.1-0.7c0-0.3,0-0.4,0.1-0.7
				c0.1-0.4,0.1-1,0.1-1.4c-0.3-1.9-0.4-3.9-0.6-5.7c0-0.3,0-0.6,0-0.8c0-1.7,0-3.3-0.1-4.8c0-0.6,0.1-1.1,0.1-1.8
				c0.3-4.7,0.1-9.5,0.1-14.2c0-0.4,0-1.1,0.1-1.7c0.1-1.1,0-2.1-0.1-3c0-0.3,0-0.4-0.1-0.7c-0.4-1.9,0-4,0.1-5.9c0-0.3,0-0.6,0-0.8
				c0-0.3,0-0.6,0-0.8s0-0.6,0-0.7c0-0.3,0-0.6,0-0.7c0-1.9-0.1-3.6-0.1-5.4c-0.1-0.7,0.1-1.4,0.1-2.1c0-2.5,0.4-4.8,0.4-7.3
				c0.1-1.2-0.4-2.5-0.4-3.6c0-0.8,0-1.7,0-2.5c0-0.3,0-0.6,0-0.8c0-3.9,0-7.6,0-11.5c0-0.3,0-0.6,0-0.8c0-1.9,0.1-3.9,0.3-5.7
				C93.2,23.7,93.2,23.4,93.1,23.1z"/>
			<path class="st0" d="M90.9,15.2c-0.3-2.8-0.1-5.3,0.4-7.6c0-0.3,0-0.7,0-1c0-1.5,0-3.2,0-4.7l0,0c0.1,1.5,0.1,2.9,0.1,4.4
				c0,0.3,0,0.6,0,0.8c-0.3,2.8-1,4.8-0.3,7.3c0,0.3,0,0.6,0,1c0.1,4,0.7,8.6,0.3,12.6c0,0.3,0,0.6,0,0.8c-0.1,2.9,0,5.9-0.1,9
				c0,0.3,0,0.6,0,0.8c0,0.3,0,0.6,0,0.8c0,0.3,0,0.6,0,0.8c0,0.8,0,1.7,0,2.4c0,0.3,0,0.6,0,0.8c0,0.6,0,1.1,0,1.5
				c0,0.3,0,0.6,0,0.8s0,0.4,0,0.7c0,0.3,0,0.4,0,0.7c0,0.3,0,0.4,0,0.7c-0.1,1-0.3,1.9-0.1,2.9c0,0.3,0,0.6,0,0.7
				c0,0.3,0,0.6,0.1,0.7c0.4,0.8,0.1,1.8,0.3,2.8c0,0.3,0,0.4,0,0.7c0,1.4,0,2.6-0.1,3.9v4c0,0.3,0,0.7,0,1c0,0.3,0,0.6,0,0.7
				c0,0.3,0,0.6,0,0.7c0.3,2.5,0,5.1,0,7.6c0,0.1,0,0.4,0,0.6c0,0.6,0,1.1,0,1.5c0,0.3,0,0.4,0,0.7c0,0.3,0,0.4,0,0.7
				c0,1.7,0,3-0.1,4.4c0,0.3,0,0.4,0,0.7c0,0.3,0,0.6,0,0.7c0,0.3,0,0.6,0,0.7c0,2.9,0,5.9,0,9c0,0.3,0,0.6,0,0.7c0,1.2,0,2.5,0,3.7
				c0.1,4.8,0,9.8,0.1,14.7c0,1.7,0,3.3-0.1,5c0,0.1,0,0.4,0,0.6c0.3,1.4,0,2.8,0,4.3c0,0.3,0,0.6,0,1c0.1,3.6,0.1,6.8,0,10.4
				c-0.1,1.2,0.3,2.4,0.4,3.6c0,1.1-0.1,2.2-0.3,3.3c0,0.3-0.1,0.6-0.1,0.8c-0.6,2.2-0.1,4.7,0,6.9c0,0.1,0,0.1,0,0.3H91
				c-0.1-2.5-0.7-5.3,0.1-7.6c0-0.3,0.1-0.4,0.1-0.7c0.1-1.1,0.3-2.2,0.1-3.2c-0.4-2.9-0.3-5.5-0.1-8.6c0-1.8-0.1-3.7-0.1-5.5
				c0-0.3,0-0.6,0-1c0-1,0-1.8,0-2.6c0-0.3,0-0.6,0-1c0-0.3,0-0.4,0-0.7c0.1-2.4,0-4.6,0-6.9c-0.1-1.2,0.1-2.5,0.3-3.7
				c0-1.7-0.1-3.5-0.1-5.3c0.1-1.8-0.3-3.7-0.1-5.7c0-0.3,0-0.6,0-0.8s0-0.6,0-0.8c0-0.8,0-1.5,0-2.2c0-0.3,0-0.4,0-0.7
				c0-1.9,0-3.7,0-5.7c0-0.3,0-0.6,0-1c0-1.2,0-2.4,0-3.5c0-0.3,0-0.6,0-0.8c0-0.3,0-0.6,0-0.8c0-0.3,0-0.6,0-0.8
				c0-1.2,0-2.5,0.1-3.7c0-0.3,0-0.4,0-0.7c0.1-2.8,0.3-5.5,0-8.3c0-0.3,0-0.4,0-0.7c0-0.3,0-0.4,0-0.7v-0.6v-1.2c0-0.1,0-0.4,0-0.6
				c0-1,0-2.1,0-2.9c0-0.3,0-0.6,0-0.8c0.1-1.4,0.1-2.9,0-4.3c0-0.3,0-0.6,0-0.8c-0.1-0.7-0.3-1.5-0.3-2.2c0-0.3,0-0.6,0-0.7
				c0-0.3,0-0.7,0-1s0-0.7,0-1c0-0.1,0-0.3,0-0.6c0-0.1,0-0.3,0-0.6c0-0.3,0-0.4,0-0.7c0-0.3,0-0.4,0-0.7c0-0.1,0-0.4,0-0.7
				c-0.1-1.1-0.3-2.1-0.3-3.2c0-1.7,0.3-3.3,0.3-5c0-0.3,0-0.4,0-0.7c0-0.3,0-0.6,0-0.8c0-0.7-0.1-1.5-0.1-2.2c0-0.3,0-0.6-0.1-0.7
				c-0.1-1-0.1-1.9,0-2.9c0-0.3,0-0.6,0.1-0.8c0.3-1.4,0.6-2.8,0.3-4.1c-0.4-2.1-0.3-4-0.4-6.2c-0.1-0.7-0.3-1.4-0.3-1.8
				C90.9,15.8,90.9,15.5,90.9,15.2z"/>
			<path class="st0" d="M89.8,86.6c-0.1-0.6,0.1-1.4,0.3-2.1c0-0.3,0-0.6,0-1c0-3.3,0-6.8,0.1-10.1c0-0.3,0-0.7,0-1
				c0.3-1.9,0.4-3.6,0-5.4c0-0.1,0-0.3,0-0.6c0-5.4,0-10.8-0.1-16.2c0-0.3,0-0.7,0-1c0-0.4,0-0.8,0-1.2c0-0.3,0-0.4,0-0.7
				c0-0.7,0.1-1.4,0-2.1c-0.1-1.7-0.6-3.3-0.4-5c0.1-1.5,0.3-2.9,0.3-4.3c0-0.3,0-0.4,0-0.7s0-0.4,0-0.7c0-0.3,0-0.4,0-0.7
				c-0.7-2.4-0.6-4.7,0.4-6.8c0-0.3,0.1-0.4,0.1-0.7c0-0.4,0.1-0.8,0-1.2c-0.3-1-0.6-2.1-0.4-2.9c0.1-2.5-0.4-4.8-0.3-7.2
				c0-0.1,0-0.3,0-0.4s0-0.4,0-0.6c0.6-2.5,0.4-5.1,0.3-7.7c0-0.3,0-0.6,0-0.8c0-1.2-0.1-2.6-0.1-3.9h0.4c0.1,1.7,0.3,3.2,0.3,4.8
				c0,0.3,0,0.4,0,0.6c0,2.6-0.3,5.3-0.6,7.9c0,0.3,0,0.4,0,0.7c0,0.7,0,1.4,0.1,2.1c0.3,2.4-0.1,4.7,0.4,6.8c0.1,0.8,0.1,1.5,0,2.2
				c0,0.3-0.1,0.6-0.3,0.8c-1.1,1.7-0.8,3.7-0.3,5.7c0,0.3,0,0.4,0,0.7c0,0.1,0,0.4,0,0.6c0,0.3,0,0.6,0,0.8c0,2.1-0.4,4.3-0.4,6.4
				c0.1,1.1,0.4,2.2,0.6,3.3c0,0.1,0,0.4,0,0.7s0,0.4,0,0.7c-0.1,1.4-0.3,2.9-0.3,4.1c0,0.3,0,0.6,0,0.8c0.1,1.4,0.3,2.8,0.1,4.1
				c-0.1,3.3,0,6.6,0,9.8c0,0.4,0,0.7,0,1c0.7,2.2,0.3,4.6-0.1,6.8c0,0.3,0,0.6,0,0.8c-0.1,3.5-0.3,7.1-0.1,10.5c0,0.3,0,0.6,0,0.7
				c-0.3,1.8,0.4,3.5,0,5.4c0,0.1,0,0.4,0,0.6c0,0.7,0,1.4,0,1.9c0,0.3,0,0.6,0,0.7c0,0.6,0,1,0,1.5c0,0.3,0,0.6,0,0.8
				c0.4,6.6,0.1,13.6,0.1,20.2c0,0.3,0,0.6,0,0.8c0,3.3,0.1,6.6,0.3,9.8c0.1,1.2-0.4,2.4-0.4,3.6c0.1,3,0.3,5.8,0.1,8.7
				c0,0.3,0,0.6,0,0.8c-0.1,2.4-0.3,4.8-0.1,7.2c0,0.1,0,0.1,0,0.3h-0.3v-0.1c0-2.5,0-5.1,0.1-7.6c0-0.3,0-0.6,0-0.8
				c0-2.9-0.1-5.8-0.3-8.9c0-0.7,0.3-1.5,0.3-2.2c0-3.9,0-7.6,0-11.5c0-0.3,0-0.6,0-0.8c-0.1-6.4,0.3-12.9-0.3-19.1
				c0-0.3,0-0.4,0-0.7c0-0.4,0-0.8,0-1.2c0-1.1,0-2.2,0-3.2c0-0.1,0-0.4,0.1-0.6C90.2,89.5,90,88,89.8,86.6z"/>
			<path class="st0" d="M88.7,95.3c0-1,0-1.8,0-2.8c0-0.3,0-0.6,0.1-1c0.6-1.4,0.3-2.8-0.3-4v-1c0.3,1.8,1.1,3.2,0.4,5.1
				c0,0.3,0,0.6-0.1,1c0,1.5,0,3,0.1,4.4c0,2.5,0.1,5,0.1,7.5c-0.1,7.7,0.1,15.4,0,23.1c0,0.6-0.1,1.4-0.3,2.1
				c-0.3,2.9,0.7,5.5,0.4,8.4c0,0.6-0.1,1.1-0.1,1.7c0,0.3,0,0.6,0,0.8c0.1,2.4,0,4.7-0.1,7.1v0.1h-0.3c0-0.1,0-0.4,0-0.6
				c0.1-1.9,0.4-4.1,0.1-6.1c0-0.3,0-0.6,0-1c0-1.1,0-2.4,0-3.5c0-2.9-0.4-6.1-0.3-9.1c0.4-8,0-16,0.1-24.1
				C88.9,100.7,88.7,98.1,88.7,95.3z"/>
			<path class="st0" d="M88.7,75.1c0.1-0.8,0.3-1.5,0.3-2.4c0.1-6.2,0-12.4,0-18.7c0-0.4-0.1-1.2-0.1-1.7c0-3.7-0.1-7.3-0.3-11.1
				v-2.1c0-0.7,0.3-1.5,0.3-2.4c0-0.1,0-0.4,0-0.6c0-0.3,0-0.6,0-0.7c0-0.3,0-0.6,0-0.7c0.1-2.6,0.1-5.4,0.4-8c0-0.3,0-0.6-0.1-1
				c-0.3-4-0.3-7.7-0.3-11.6c0-0.3,0-0.7,0.1-1c0.7-1.7,0.3-3.3,0-5.3c0-0.3,0-0.6,0-0.8c0-1.5,0-2.9-0.1-4.4c0-0.3,0-0.6,0-0.8h0.3
				c0.1,1.8,0.1,3.6,0.1,5.3c0,0.1,0,0.4,0,0.6c0.8,2.4,0.8,4.1,0,6.5c0,0.3,0,0.6,0,0.8c-0.1,3.6-0.1,7.2,0.3,10.9
				c0,0.3,0,0.6,0,0.7c-0.4,2.5-0.4,5-0.4,7.6c0,0.3,0,0.6,0,0.7c0,0.4,0,1,0,1.4c0,0.3,0,0.6,0,0.8c0,1.1,0,2.4-0.1,3.5
				c-0.1,6.4,0.6,13,0.3,19.5c-0.1,4.1,0.4,8.4,0,12.6c0,0.8-0.3,1.4-0.3,2.2c0,2.8,0,5.5,0,8.2c0,0.3-0.1,0.6-0.1,0.8
				c0,0.1,0,0.3-0.1,0.4v-1.1c0-0.1,0-0.3,0-0.4c0-0.7,0-1.4,0-2.1v-3C88.7,77.2,88.7,76.1,88.7,75.1z"/>
		</g>
	</g>
</g>
</svg>
