<?xml version="1.0" encoding="utf-8"?>
<!-- Generator: Adobe Illustrator 21.1.0, SVG Export Plug-In . SVG Version: 6.00 Build 0)  -->
<svg version="1.1" id="Calque_1" xmlns="http://www.w3.org/2000/svg" xmlns:xlink="http://www.w3.org/1999/xlink" x="0px" y="0px"
	 viewBox="0 0 488.3 595.2" style="enable-background:new 0 0 488.3 595.2;" xml:space="preserve">
<style type="text/css">
	.st0{fill:#1E1E1C;}
	.st1{fill:#A8D3AF;}
	.st2{fill:none;}
	.st3{fill:#010202;}
</style>
<g>
	<rect x="355.7" y="0" class="st0" width="47.3" height="444.9"/>
	<rect x="441" y="0.1" class="st0" width="47.3" height="444.9"/>
	<polygon class="st1" points="201.6,211.6 67.5,0 0,0 171.7,261.9 171.7,445 231.5,445 231.5,261.7 231.6,261.8 261.2,216.5 
		261.2,117.7 	"/>
	<g>
		<path class="st2" d="M304.1,418.1c0-0.9,0-1.8,0-2.8c0-3.7-0.1-7.4-0.4-11.1c0-1,0-2,0-2.9v-4.4c0-0.7,0-1.5,0-2.2
			c0.5-2.4,0.5-4.3,0.2-6.6c0-0.8,0-1.6,0-2.4c0-0.8,0-1.6-0.1-2.3c-0.1-1.1-0.1-2.2-0.2-3.2c0-0.5-0.1-1-0.1-1.5
			c-0.4-2.4-0.2-4.3-0.1-6.9c0-0.6,0-1.3,0-1.9c0-3.3,0-6.5,0.3-9.9c0-0.9,0-1.7,0.1-2.6c0.1-4.4,0.2-8.8,0.2-13.2
			c0-0.9,0-1.7,0-2.6c0.5-8.6-0.4-16.8,1.6-25.5c0.2-0.4,0.4-0.7,0.7-1.1c0-0.1,0-0.1,0-0.2c0.4-0.8,0.8-1.6,1.1-2.3
			c0.3-0.7,0.5-1.3,0.8-2c0.2-0.7,0.4-1.4,0.6-2.1c0.2-0.6,0.3-1.3,0.5-2c0-0.1,0-0.1,0-0.2c0-0.1,0-0.2,0-0.3
			c-0.2,0.9-0.4,1.7-0.7,2.5c-0.2,0.8-0.5,1.5-0.8,2.2c-0.3,0.7-0.7,1.5-1.1,2.1c-0.4,0.6-0.8,1.2-1.2,1.8c0,0-0.1,0.1-0.1,0.1
			c-4.2,9.1-2.4,19.5-3.3,28.8c0,0.8,0,1.6,0,2.5c-0.1,3.3-0.2,6.6-0.2,10c0,0.9,0,1.9-0.1,2.8c-0.2,1.5-0.3,3-0.3,4.4
			c0,0.7,0,1.5-0.1,2.2c-1.4,7.5-3.5,13.2,0.3,19.2c0.2,0.7,0.5,1.5,0.7,2.2c0,0.6,0,1.1,0,1.6c-0.1,2.1-0.4,4.1-0.5,6.5
			c0,0.7,0,1.5,0,2.2c0,1.5,0,2.9,0,4.4c0,1,0,1.9,0,2.9c0.2,1.8,0.3,3.6,0.4,5.5c0,0.9,0.1,1.8,0.1,2.7c0,10.7-0.9,21.6-0.9,32.3
			h1.5C302.8,435.9,303.8,426.8,304.1,418.1z"/>
		<path class="st2" d="M306.1,429.9c0-0.9,0-1.8,0-2.6c0-0.9,0-1.8,0-2.6c-0.2-5.2,1.9-10,0.8-15.2c-1-5.7-1-11.4-1.3-17.5
			c-0.5-5.2,1-10.4,1-15.6c0-11.4-0.6-22.2-0.6-33.3c0-0.9,0-1.9,0-2.8c0.1-7.7-0.3-15.4,0.5-23.1c0-0.6,0-1.3,0-1.9
			c1-1.8,1.7-3.6,2.2-5.4c0.1-0.6,0.3-1.2,0.4-1.9c0-0.5,0-1,0-1.5c0,0,0,0,0,0.1c-0.1,0.7-0.2,1.3-0.2,1.9c-0.2,0.7-0.3,1.4-0.6,2
			c-0.4,1.3-1,2.6-1.7,3.8c-0.2,0.3-0.3,0.5-0.5,0.8c-2.6,8.5-1.3,17.5-1.7,26.5c0,0.9,0,1.7,0,2.6c0,4.4-0.1,8.8-0.1,13.2
			c0,0.9,0,1.7,0,2.6c-0.4,9.2-0.6,17.3,0.7,26.3c0.3,2.8-0.8,5.7-0.6,8.5c0,0.7,0,1.5,0,2.2c0,1.5,0,2.9,0,4.4v2.9
			c0.1,3.4,0.3,7.1,0.3,10.5c0,0.8,0,1.7,0,2.5c0,0.8,0,1.6,0,2.5c-0.3,8.2-1.1,16.9-0.9,25.3h2.5
			C306.1,439.9,305.8,434.9,306.1,429.9z"/>
		<path class="st2" d="M300.7,311.2C300.7,311.2,300.7,311.2,300.7,311.2c-0.6,0-1.1-0.2-1.6-0.5c0,0,0,0,0,0.1c0,0,0-0.1-0.1-0.1
			c-1-0.6-1.7-1.5-2.3-2.4c-0.3-0.4-0.6-0.8-0.8-1.3c-0.3-0.7-0.6-1.5-0.8-2.3c-0.2-0.8-0.2-1.6-0.1-2.3c-0.2-1.6,0.1-2.7,0.7-3.6
			c-0.9,1.2-1.5,2.7-1.2,4.8c0.1,0.7,0.2,1.4,0.4,2.1c0,0.1,0.1,0.1,0.1,0.2c0.2,0.6,0.4,1.2,0.8,1.8
			C296.5,310,298.5,311.4,300.7,311.2z"/>
		<path class="st2" d="M318,440.3v-15.6C317.1,429.8,317.6,435.2,318,440.3z"/>
		<path class="st2" d="M316,16.7c-0.2,7.9-1,16-1.5,24.1c0,0.7,0,1.4,0,2.1c0,2.1,0.2,4.3,0.6,6.4c0.8,7.1-0.3,14.2,1.3,20.9
			c0.5,2.4,0.3,4.6-0.1,6.9c-0.2,0.9-0.4,1.8-0.6,2.6c-3.4,5.2-2.4,11.3-0.8,17.3c0,0.6,0.1,1.4,0.2,2.1c0,0.6,0.1,1.3,0.1,1.9
			c0,0.8,0,1.6,0,2.4c-0.2,6.4-1.2,12.9-1.2,19.3c0.3,3.3,1.3,6.6,1.6,10c0,0.6,0,1.3-0.1,1.9c0,0.7-0.1,1.3-0.1,2
			c-0.6,4.1-0.8,8.9-0.7,12.9c0.1,0.8,0.1,1.7,0.2,2.5c0.3,4.1,0.8,8.3,0.5,12.4c-0.5,10.1-0.1,20.1,0.2,30c0.1,1,0.1,2,0.2,3
			c2.2,6.8,0.9,13.9-0.3,20.6c0,0.8-0.1,1.6-0.1,2.4c-0.4,10.6-0.7,21.3-0.5,31.9c0,0.8,0,1.6-0.1,2.2c-0.7,5.6,1.4,10.8,0.2,16.4
			c0,0.5,0,1.1,0,1.6c0,2.1,0,4.1-0.1,5.9c0,0.8,0,1.5-0.1,2.3c0,1.5-0.1,3.1-0.1,4.6c0,0.8-0.1,1.6-0.1,2.4
			c1.3,20.3,0.3,41.2,0.5,61.6c0,0.8,0,1.7,0,2.5c0.1,10,0.4,20,0.8,30.2c0.3,3.8-1.3,7.1-1,10.9c0.6,9.1,0.9,17.6,0.6,26.5
			c0,0.9-0.1,1.8-0.1,2.7c-0.5,7.3-0.8,14.9-0.3,22c0,0.3,0,0.6,0,0.9h2.3c-0.6-7.8-1.9-15.9,0.3-23.2c0.1-0.6,0.2-1.1,0.3-1.7
			v-15.5c-0.5-6.9-0.3-13.5-0.1-20.7c0-5.7-0.5-11.4-0.5-16.9c0-0.9,0-1.8,0-2.7c0-2.7-0.1-5.5-0.1-8.2c0-0.9,0-1.8,0-2.8
			c0-0.7,0-1.3-0.1-2c0.5-7.2-0.1-13.9-0.1-21c-0.3-3.8,0.5-7.6,0.8-11.4c0-5.2-0.5-10.4-0.3-16.1c0.5-5.7-0.8-11.4-0.5-17.2
			c0.1-0.9,0.1-1.7,0.1-2.5c0-0.8,0.1-1.6,0.1-2.4c0-2.4,0-4.6,0-6.9c0-0.7,0-1.4,0-2.1c0-5.8,0-11.5-0.1-17.3
			c0-0.9-0.1-1.9-0.1-2.8c-0.1-3.6-0.1-7.2-0.1-10.8c0-0.9,0-1.8,0-2.7c0-0.9,0-1.8,0-2.7c0-0.9,0-1.8,0-2.7
			c0.1-3.7,0.2-7.5,0.3-11.2c0-0.7,0-1.5,0.1-2.2c0.1-2.1,0.2-4.2,0.3-6.3V199c-0.1-1.7-0.2-3.4-0.3-5.2c0-0.7-0.1-1.4-0.1-2
			c0-0.7-0.1-1.3-0.1-2V188v-3.6v-1.8c-0.1-3-0.1-6.3,0.1-9c0-0.9,0.1-1.8,0.1-2.7c0.2-4.4,0.3-8.8,0.2-13.2c0-0.9-0.1-1.8-0.1-2.6
			c-0.5-2.3-0.7-4.6-0.7-6.9c0-0.8,0-1.5,0-2.3c0-0.9,0.1-1.9,0.2-2.9c0-0.8,0-2.2,0.2-3.1c0-0.5,0.1-1,0.1-1.5c0-0.5,0-1,0.1-1.5
			c0-0.7,0.1-1.5,0.1-2.2c0-0.7,0-1.5,0-2.2c0-0.7-0.1-1.3-0.2-2c-0.4-3.2-1-6.3-0.9-9.6c0.2-5.1,0.7-10.2,0.9-15.2
			c0-0.7,0-1.4,0.1-2.2c0-0.8,0-1.6,0-2.5c-0.2-2.2-0.3-4.5-0.4-6.7c-0.1-0.8-0.1-1.5-0.2-2.3c-0.4-2.9-0.4-5.8,0.1-8.7
			c0.1-0.9,0.2-1.8,0.4-2.7c0.1-0.9,0.3-1.8,0.5-2.8V64.7c-0.6-5.1-0.4-10.3-0.6-15.8c-0.3-1.9-0.8-4.3-0.8-5.7c0-0.9,0-1.7,0-2.6
			c-0.8-8.2-0.3-15.8,1.1-23.3c0-0.8,0.1-1.9,0.2-2.9C318,12,318,9.7,318,7.5V5.1c0-1.7-0.2-3.4-0.3-5.1h-2.4c0.5,5,0.8,9.9,0.8,15
			C316,15.6,316,16.2,316,16.7z"/>
		<path class="st2" d="M317.8,38.5c0,0.8,0.1,1.9,0.1,2.7c0,0.6,0,1.2,0.1,1.8V20.3C317,26.6,316,32.2,317.8,38.5z"/>
		<path class="st2" d="M318,122.8v-4.1C317.9,120.1,317.9,121.5,318,122.8z"/>
		<path class="st2" d="M308.8,298.3c0,0.1,0.1,0.1,0.1,0.2C308.8,298.4,308.8,298.4,308.8,298.3z"/>
		<path class="st2" d="M312.3,17.7c1.7,7.4,1.7,13.1-0.5,20.4c0,0.9-0.1,1.8-0.1,2.8c-0.3,11-0.3,22,1,33.1c0.1,0.7,0,1.6-0.1,2.3
			c-1.5,7.7-1.2,15.3-1.2,23.2c0,0.8,0,1.5,0,2.2c0,1.5-0.1,3-0.1,4.4c0,0.9,0,1.8-0.1,2.7c-0.1,3.6-0.2,7.1-0.3,10.7
			c-0.5,19.4,1.6,39.8,0.8,59.7c-0.5,12.8,1,25.6,0,38.4c0,2.4-0.8,4.3-0.8,6.6c0,8.4,0,16.7-0.1,25c0,0.9-0.2,1.8-0.6,2.7
			c-0.2,1.1-0.7,2.1-0.7,3c0,7.1,4.2,12.3,1.5,19.1c-0.2,1-0.2,1.9-0.2,2.8c0,4.6,0.1,9.1,0.2,13.7c0,7.6,0.5,15.2,0.5,22.7
			c-0.5,23.7,0.5,46.9,0,70.6c0,1.9-0.5,4.3-0.8,6.2c-0.8,9,2.1,17.1,1.3,25.6c-0.1,1.7-0.2,3.3-0.3,4.9c0,0.8-0.1,1.6-0.1,2.5
			c0.5,7.3,0.2,14.4-0.3,21.5c0,0.2,0,0.3,0,0.5h2.8c0-0.1,0-0.2,0-0.4c-0.2-7.7,0-15.7,0.2-23.4c0-0.8,0-1.7,0-2.5
			c0.1-9-0.4-17.8-0.8-27.3c0-1.9,0.8-4.7,0.8-6.6c-0.1-11.7-0.2-23.3-0.2-35c0-0.9,0-1.8,0-2.6c-0.4-19.3,0.7-39.2-0.7-58.4
			c0-0.7-0.1-1.4-0.1-2c-0.1-1.3-0.1-2.6,0-3.9c0.1-3.3,0.1-6.6,0.2-9.8c0.1-0.5,0.1-1.1,0.3-1.7c0.6-4,0.1-8.8-0.7-13.1
			c-0.3-1.9,0.3-4.3,0.7-6.3c0-0.9,0-1.9,0-2.8c0.1-10.3,0.2-20.6,0.3-30.9c0-1,0.1-2,0.1-3c0.9-5.8,1.4-11,0.1-16.5
			c0-0.5,0-1-0.1-1.6c0-16.4-0.1-32.8-0.3-49.2c0-1,0-1.9,0-2.9c0-1.4,0-2.4,0.2-3.9c0-0.7,0.1-1.4,0.2-2.1c0.2-2.1,0.3-4.2,0.2-6.3
			c-0.5-5.2-1.6-10-1.3-15.2c0.5-4.6,0.8-8.8,1-13c0-0.7,0.1-1.4,0.1-2.1c0-0.7,0-1.4-0.1-2c0-0.7,0-1.4-0.1-2
			c-2-7.3-1.7-14.4,1.1-20.6c0.1-0.7,0.3-1.3,0.3-1.9c0.2-1.3,0.2-2.5-0.1-3.8c-0.8-2.8-1.6-6.2-1.3-9c0.5-7.6-1.3-14.7-0.8-21.8
			c0-0.5,0.1-0.9,0.1-1.3c0.1-0.6,0.1-1.1,0.2-1.7c1.8-7.8,1.3-15.4,0.8-23.6c0-0.9,0-1.8,0-2.7C314.4,8,314.2,4,314,0h-2.4
			c0.4,5.4,0.6,10.8,0.6,16.1C312.3,16.7,312.3,17.2,312.3,17.7z"/>
		<path class="st2" d="M306.7,296.3c-4.1-1.8-11.3,1.4-9.6,7.5c0.1,0.7,0.3,1.4,0.6,2c0.4,0.3,0.7,0.6,1,0.9
			c0.2,0.2,0.4,0.4,0.7,0.5c1.4,0.6,2.5,0.3,3.4-0.4c0.1-0.1,0.2-0.1,0.3-0.2c0.1-0.1,0.1-0.1,0.2-0.2c1.4-1.6,1.8-4.6,2.1-6.5
			c0.4,0.3,0.6,0.7,0.9,1c0,0,0-0.1,0.1-0.1c0,0.1,0,0.3,0.1,0.4c1.2,2.6-1.2,5.9-2.2,8.3c-0.3,0.6-0.7,1.1-1.2,1.6
			c-0.5,0.4-1,0.8-1.7,1c-3.2,0.5-5-2.3-5.7-4.5c-0.3-0.6-0.5-1.2-0.7-1.9c-0.1-0.2-0.2-0.4-0.3-0.7c-0.2-0.5-0.3-1.1-0.3-1.7
			c-0.4-3.7,1.9-5.9,4.8-7.7c-1.6,0.8-3.1,1.9-4,3.2c-0.3,0.5-0.5,1-0.7,1.5c-0.3,1-0.4,2.1-0.1,3.4c0.1,0.6,0.2,1.1,0.3,1.7
			c0.2,0.9,0.5,1.7,0.8,2.6c0.2,0.5,0.4,1,0.6,1.6c1.1,1.6,2.7,2.8,4.8,2.8c0.2,0,0.5-0.1,0.7-0.1c0.3-0.2,0.7-0.4,1-0.7
			c0.7-0.6,1.4-1.3,2-2.1c0.8-2.1,2-4,2.7-6.1c0.1-1.1,0-2.3-0.4-3.4c-1.1-1-3-1.1-4.6,0.2c-0.8,0.8-1.3,1.7-1,2.5
			c0,0,0.1,0.1,0.1,0.1c0.9-0.4,1.7-0.9,2.2-0.4c1.8,1.4,0,3.6-1.8,4.1c-1.2,0-2.1-0.5-2.8-1.2c-0.3-0.2-0.6-0.4-0.8-0.6
			c-0.7-0.8-1-1.7-1-2.7c0-1.7,0.8-3.8,2.3-4.5c0.4-0.2,0.9-0.4,1.3-0.6c2.2-1.3,4.8-1.6,6.4-0.3c0.5,0.3,0.8,0.6,1.2,0.9
			C307.9,297.1,307.4,296.6,306.7,296.3z"/>
		<path class="st2" d="M301.2,406.7c-0.1-1.7-0.2-3.5-0.3-5.2v-2.9c0-0.7,0-1.3,0-1.9c0-0.7,0-1.3,0-1.9c0-0.6,0.1-1.2,0.1-1.9
			c0.1-0.6,0.1-1.2,0.2-1.9c0.2-0.8,0.3-1.7,0.3-2.5c-0.1-0.9-0.3-1.8-0.5-2.6c-3.1-7.2-3.1-13.4-0.8-20.9c0-0.7,0.1-1.5,0.1-2.2
			c0.1-2.7,0.2-5.4,0.5-8c0-0.9,0-1.8,0.1-2.6c0-1.8,0.1-3.5,0.1-5.3c0-0.9,0-1.8,0.1-2.7c1.6-9.4-1.2-20.7,4.2-29
			c0.1-0.1,0.2-0.3,0.3-0.4c0.4-0.7,0.8-1.3,1.1-2c0.4-0.7,0.7-1.5,1-2.2c0.3-0.7,0.5-1.5,0.8-2.3c0.3-2.3,1-4.7,1.1-6.9
			c-0.1-0.9-0.2-1.8-0.5-2.6c-0.4-0.8-1-1.5-1.8-2c-1.5-1.1-4-0.7-6.4,0.3c-1,0.6-2,1.4-2.7,2.4c-0.6,1-0.9,1.9-1,2.7
			c0,0.3,0,0.6,0.1,0.9c0.4,0.9,1,1.7,1.7,2.4c1.5,0.9,3.9,1.2,4.7-1c-0.8-0.2-1.6-0.7-2.2-1.4c0,0,0,0-0.1,0c0-0.1,0-0.1,0-0.2
			c-0.7-0.9-0.9-2,0-3c1.8-1.4,4.5-1.8,5.4,0c0,0.1,0,0.2,0.1,0.3c0.5,0.5,0.8,1.1,0.8,2c-0.1,0.5-0.2,0.9-0.4,1.4
			c-0.2,2.1-1,4.2-2.6,6c0,0,0,0,0,0c0,0.1-0.1,0.2-0.1,0.2c-0.2,0.9-0.8,1.6-1.5,2c-0.4,0.3-0.9,0.5-1.4,0.6
			c-0.4,0.2-0.8,0.4-1.2,0.6c-2.5,0.7-3.5-1.3-4.3-3.3c-0.8-1.1-1.3-2.4-1.7-3.7c-0.2-0.7-0.3-1.4-0.4-2c-0.1-0.3-0.1-0.5-0.1-0.8
			c0,0.5-0.1,0.9,0,1.4c0.3,0.6,0.5,1.3,0.7,2c1.1,3.3,2,6.7,5.5,7.6c0.2,0,0.5,0.1,0.7,0.1c0.1,0,0.1,0,0.2,0c0.4,0,0.7-0.1,1-0.2
			c0.9-0.5,1.5-1.5,2.1-2.4c0.5-0.7,1-1.4,1.4-2.2c0.1-0.2,0.3-0.6,0.4-0.8c1.2-2.7,2.2-5.5,2-8.3c-0.4-1.6-1.4-2.9-3.8-3.2
			c2.7-0.9,4.5,0.4,5,3.2c0,0.8,0,1.6,0,2.4c0,0.3,0,0.7-0.1,1c-0.1,1.1-0.3,2.1-0.6,3.1c-0.2,0.9-0.4,1.7-0.6,2.4
			c-0.2,0.7-0.5,1.4-0.9,2c-0.3,0.6-0.7,1.3-1.2,1.8c-1.1,1.4-2.4,2.7-3.5,4.1c-1.1,1.6-2,3.1-2.2,4.2c-0.4,6.8-2.7,14-2.3,21.1
			c0,0.9,0.1,1.7,0.1,2.6c0.6,15.4-0.2,30.9-0.4,46.4c0,0.9-0.1,1.8-0.2,2.7c-1.2,5.5,0.1,10.7,1.1,16.4c0.3,2.4-0.3,4.7-0.6,7.2
			c0,0.7,0,1.3,0.1,2c0.2,4,0.5,8.2,0.3,12.1c-0.2,4.2-0.3,8.5-0.4,12.8h2.7c-0.1-11.9,0.7-23.6,0.9-35.6
			C301.2,408.5,301.2,407.6,301.2,406.7z"/>
		<path class="st2" d="M307.6,296.4c1.1,0.9,1.6,2.1,1.9,3.5c-0.1-0.6-0.2-1.2-0.4-1.8C308.7,297.4,308.3,296.8,307.6,296.4z"/>
		<path class="st2" d="M298.1,297.6c-1.3,1.3-2.1,3.2-1.8,5.7c0.1,0.7,0.2,1.3,0.4,2c0,0.2,0.1,0.3,0.2,0.5c0.7,1.9,1.8,3.8,3.6,4.2
			c0.6,0.2,1.3,0.2,2.1-0.1c-0.3,0.3-0.7,0.9-1.2,1.2c0.4-0.1,0.9-0.3,1.3-0.5c1.6-2.4,4.6-5.5,3.5-9.3c0-0.1-0.1-0.2-0.1-0.3
			c-0.8,1.6-1.6,4-2.9,5.5c-0.1,0.1-0.1,0.1-0.2,0.2c-0.1,0.1-0.2,0.1-0.3,0.2c-0.8,0.7-1.9,1.1-3.5,0.6c-0.2-0.2-0.4-0.4-0.7-0.6
			c-0.3-0.2-0.6-0.4-0.9-0.7c-0.5-0.5-0.8-1.1-1.1-1.6c-2-6,4.9-9.9,9.3-8.8c-0.7-0.2-1.4-0.3-2.1-0.4c-0.1,0-0.2,0-0.3,0
			c-0.1,0-0.2,0-0.3,0c-0.4,0-0.9,0.1-1.3,0.2C300.7,296.2,299.4,296.8,298.1,297.6z"/>
		<path class="st2" d="M297.3,432.2c-0.1-3.7-0.1-7.3-0.2-11c0-0.9,0-1.8,0-2.7c0.5-2.9,0.7-5.3,0.5-8.1c-0.8-5.7-2.1-10.9-0.8-16.6
			c0-0.9,0-1.8,0-2.7c0-11.9,0.1-23.8,0.5-35.6c0.2-4,0.1-7.6-0.2-11.5c0-0.8-0.1-1.6-0.2-2.4c-0.6-6.3,2.6-11.7,2.2-18
			c0-2.1,1.4-4.1,3.1-6.1c0.4-0.6,0.9-1.3,1.4-1.9c-1.1,1.3-2.7,1.7-4.3,1.4c0.2,0.2,0.4,0.5,0.6,0.7c-0.4-0.2-0.8-0.5-1.1-0.8
			c-1.7-0.4-3.5-1.6-4.8-3.3c2.7,9,1.4,18.1,0.4,27.3c0,0.8,0.1,1.7,0.1,2.5c0.3,8.2,0.2,16.2-0.2,24.5v13.6c0,4.3-0.1,8.8-0.2,13
			c0,0.6,0,1.2-0.1,1.8c-1.3,7.1,0.6,14.2,0.6,21.1c0.1,0.7,0.1,1.3,0.2,2c0.1,1.4,0.1,2.7-0.1,4.1c0,0.6-0.1,1.1-0.1,1.7
			c0.1,5.1,0.1,10.1-0.3,15.2c0,0.5,0,1,0,1.5v3.1h2.5v-1.5C297.3,439.8,297.3,436,297.3,432.2z"/>
		<path class="st2" d="M304.9,313.1c-0.2,0.6-0.5,1.1-0.7,1.6c0.6-0.7,1.2-1.5,1.7-2.1c0.5-0.7,0.8-1.4,1.2-2.2
			c0.3-0.7,0.5-1.4,0.8-2.1c0.2-0.4,0.3-0.9,0.4-1.3c0.2-1,0.5-2.1,0.6-3.1c0-0.3,0-0.7,0.1-1c0-1.9-0.3-3.7-1.8-5.1
			c0.4,0.9,0.5,1.8,0.6,2.8c0.6,2.5-0.7,5.9-2,8.3c-0.3,0.7-0.6,1.4-0.9,2.1c-0.5,0.9-1,1.8-1.7,2.5c-0.4,0.4-0.8,0.7-1.3,0.9
			c-0.3,0.2-0.6,0.2-1,0.2c0,0,0,0-0.1,0c0,0-0.1,0-0.1,0c-0.1,0-0.2,0-0.4,0c-0.1,0-0.2-0.1-0.3-0.1c-3-0.5-5.1-4-6.1-7.4
			c-0.2-0.7-0.4-1.5-0.5-2.2c-0.4-1.8-0.1-3.3,0.4-4.5c0.3-1.1,0.8-2.2,1.5-3.2c-0.5,0.6-1,1.2-1.3,1.9c-0.1,0.3-0.3,0.6-0.4,0.9
			c0,0.1-0.1,0.2-0.1,0.3c-0.4,1.2-0.6,2.5-0.5,3.9c0.1,0.8,0.2,1.5,0.4,2.3c0.2,0.7,0.4,1.4,0.6,2.2c0,0,0,0.1,0,0.1
			c0.9,2.6,2.1,4.7,3.6,6.6c0.5,0.5,1.1,0.9,1.8,1.2C301.8,317.6,303.1,314.4,304.9,313.1z"/>
		<path class="st2" d="M295.6,305.1c0.2,0.9,0.5,1.7,0.8,2.6c0.1,0.2,0.2,0.3,0.3,0.5c0.7,0.8,1.7,1.6,2.3,2.4c0,0,0,0,0,0
			c-0.9-1.3-1.3-2.7-1.7-3.9c-0.2-0.4-0.3-0.8-0.4-1.2c0-0.1-0.1-0.2-0.1-0.3c0,0,0-0.1,0-0.1c0-0.1-0.1-0.2-0.1-0.3
			c-0.2-0.7-0.3-1.3-0.4-2c-0.3-2.1,0.4-3.8,1.5-5.1c-1.5,1-2.5,2.4-2.7,4.5c0,0.4,0.1,0.8,0.2,1.2
			C295.3,304.1,295.4,304.6,295.6,305.1z"/>
		<path class="st2" d="M271.6,216.1c0.3-18.9,0-37.9,0-56.9c0-1.4-0.3-3.8-0.3-5.2c-0.2-11.2-0.5-22.5-0.7-33.7v112.3
			c0-3.1,0-6.3,0.2-9.4C271.1,220.8,271.6,218.5,271.6,216.1z"/>
		<path class="st2" d="M271.6,104.8c0-0.8,0-1.5,0-2.3c0-0.8,0-1.5,0-2.3c0.3-8.2,0.3-16.3,1.1-24.3c-0.1-0.8-0.2-1.9-0.2-2.9
			c-0.9-12-0.9-23.7-0.8-35.4c0.1-1,0.1-2,0.3-3c2-5.1,0.7-10.3-0.1-15.8c0-0.9,0-1.8,0-2.7c0-4.5-0.1-9-0.2-13.6
			c0-0.8-0.1-1.6-0.1-2.4h-0.8v113.9c0.2-2.3,0.7-4.8,0.9-7.3C271.6,106,271.6,105.4,271.6,104.8z"/>
		<path class="st2" d="M276.8,16.7c-0.2,7.9-1,16-1.5,24.1c0,0.7,0,1.4,0,2.1c0,2.1,0.2,4.3,0.6,6.4c0.8,7.1-0.3,14.2,1.3,20.9
			c0.5,2.4,0.3,4.6-0.1,6.9c-0.2,0.9-0.4,1.8-0.6,2.6c-3.4,5.2-2.4,11.3-0.8,17.3c0,0.6,0.1,1.4,0.2,2.1c0,0.6,0.1,1.3,0.1,1.9
			c0,0.8,0,1.6,0,2.4c-0.2,6.4-1.2,12.9-1.2,19.3c0.3,3.3,1.3,6.6,1.6,10c0,0.6,0,1.3-0.1,1.9c0,0.7-0.1,1.3-0.2,2
			c-0.6,4.1-0.8,8.9-0.7,12.9c0,0.8,0.1,1.7,0.2,2.5c0.3,4.1,0.8,8.3,0.5,12.4c-0.5,10.1-0.1,20.1,0.2,30c0.1,1,0.1,2,0.2,3
			c2.2,6.8,0.9,13.9-0.3,20.6c0,0.8-0.1,1.6-0.1,2.4c-0.4,10.6-0.7,21.3-0.5,31.9c0,0.8,0,1.6-0.1,2.2c-0.7,5.6,1.4,10.8,0.2,16.4
			c0,0.5,0,1.1,0,1.6c0,2.1,0,4.1-0.1,5.9c0,0.8,0,1.5-0.1,2.3c0,1.5-0.1,3.1-0.1,4.6c0,0.8-0.1,1.6-0.1,2.4
			c1.3,20.3,0.3,41.2,0.5,61.6c0,0.8,0,1.7,0,2.5c0.1,10,0.4,20,0.8,30.2c0.3,3.8-1.3,7.1-1,10.9c0.6,9.1,0.8,17.6,0.6,26.5
			c0,0.9-0.1,1.8-0.1,2.7c-0.5,7.3-0.8,14.9-0.3,22c0,0.3,0,0.6,0,0.9h2.3c-0.6-7.8-1.9-15.9,0.3-23.2c0.1-0.6,0.3-1.3,0.4-1.9
			c0.6-3.3,0.8-6.8,0.4-9.9c-1-9-0.8-17.1-0.5-26.1c0-5.7-0.5-11.4-0.5-16.9c0-0.9,0-1.8,0-2.7c0-2.7-0.1-5.5-0.1-8.2
			c0-0.9,0-1.8,0-2.8c0-0.7,0-1.3-0.1-2c0.5-7.2-0.1-13.9-0.1-21c-0.3-3.8,0.5-7.6,0.8-11.4c0-5.2-0.5-10.4-0.3-16.1
			c0.5-5.7-0.8-11.4-0.5-17.2c0.1-0.9,0.1-1.7,0.1-2.5c0-0.8,0.1-1.6,0.1-2.4c0-2.4,0-4.6,0-6.9c0-0.7,0-1.4,0-2.1
			c0-5.8,0-11.5-0.1-17.3c0-0.9-0.1-1.9-0.1-2.8c-0.1-3.6-0.1-7.2-0.1-10.8c0-0.9,0-1.8,0-2.7c0-0.9,0-1.8,0-2.7
			c0-0.9,0-1.8,0.1-2.7c0.1-3.7,0.2-7.5,0.3-11.2c0-0.7,0-1.5,0.1-2.2c0.5-8.5,0.8-17,0-25.5c0-0.7-0.1-1.4-0.1-2
			c0-0.7-0.1-1.3-0.1-2V188v-3.6c0-0.6,0-1.2,0-1.8c-0.1-3-0.1-6.3,0.1-9c0-0.9,0.1-1.8,0.1-2.7c0.2-4.4,0.3-8.8,0.2-13.2
			c0-0.9-0.1-1.8-0.1-2.6c-0.5-2.3-0.7-4.6-0.7-6.9c0-0.8,0-1.5,0-2.3c0.1-0.9,0.1-1.9,0.2-2.9c0-0.8,0-2.2,0.2-3.1
			c0-0.5,0.1-1,0.1-1.5c0-0.5,0-1,0.1-1.5c0-0.7,0.1-1.5,0.1-2.2c0-0.7,0-1.5,0-2.2c0-0.7-0.1-1.3-0.2-2c-0.4-3.2-1-6.3-0.9-9.6
			c0.2-5.1,0.7-10.2,0.9-15.2c0-0.7,0.1-1.4,0.1-2.2c0-0.8,0-1.6,0-2.5c-0.2-2.2-0.3-4.5-0.4-6.7c-0.1-0.8-0.1-1.5-0.2-2.3
			c-0.4-2.9-0.4-5.8,0.1-8.7c0.1-0.9,0.2-1.8,0.4-2.7c0.7-4.2,1.7-8.5,0.9-12.8c-1.3-6.2-0.8-12.3-1-18.9c-0.3-1.9-0.8-4.3-0.8-5.7
			c0-0.9,0-1.7,0.1-2.6c-0.8-8.2-0.3-15.8,1.1-23.3c0-0.8,0.1-1.9,0.2-2.9c0.2-4.8,0.1-9.6-0.2-14.3H276c0.5,5,0.8,9.9,0.8,15
			C276.8,15.6,276.8,16.2,276.8,16.7z"/>
		<path class="st2" d="M271.8,274c-0.2,1-0.2,1.9-0.2,2.8c0,4.6,0.1,9.1,0.2,13.7c0,7.6,0.5,15.2,0.5,22.7
			c-0.5,23.7,0.5,46.9,0,70.6c0,1.9-0.5,4.3-0.8,6.2c-0.8,9,2.1,17.1,1.3,25.6c-0.1,1.7-0.2,3.3-0.3,4.9c0,0.8-0.1,1.6-0.1,2.5
			c0.4,7.3,0.2,14.4-0.3,21.5c0,0.2,0,0.3,0,0.5h2.8c0-0.1,0-0.2,0-0.4c-0.2-7.7,0-15.7,0.2-23.4c0-0.8,0-1.7,0-2.5
			c0.1-9-0.4-17.8-0.8-27.3c0-1.9,0.8-4.7,0.8-6.6c-0.1-11.7-0.2-23.3-0.2-35c0-0.9,0-1.8,0-2.6c-0.4-19.3,0.7-39.2-0.7-58.4
			c0-0.7-0.1-1.4-0.1-2c-0.1-1.3-0.1-2.6,0-3.9c0.1-3.3,0.1-6.6,0.2-9.8c0.1-0.5,0.1-1.1,0.3-1.7c0.6-4,0.1-8.8-0.7-13.1
			c-0.3-1.9,0.3-4.3,0.7-6.3c0-0.9,0-1.9,0.1-2.8c0.1-10.3,0.2-20.6,0.3-30.9c0-1,0.1-2,0.1-3c0.9-5.8,1.4-11,0.1-16.5
			c0-0.5,0-1-0.1-1.6c0-16.4-0.1-32.8-0.3-49.2c0-1,0-1.9,0-2.9c0-1.4,0-2.4,0.2-3.9c0-0.7,0.1-1.4,0.2-2.1c0.2-2.1,0.3-4.2,0.2-6.3
			c-0.5-5.2-1.6-10-1.3-15.2c0.5-4.6,0.8-8.8,1-13c0-0.7,0.1-1.4,0.1-2.1c0-0.7,0-1.4-0.1-2c0-0.7,0-1.4-0.1-2
			c-2-7.3-1.7-14.4,1.1-20.6c0.1-0.7,0.3-1.3,0.3-1.9c0.2-1.3,0.2-2.5-0.1-3.8c-0.8-2.8-1.6-6.2-1.3-9c0.5-7.6-1.3-14.7-0.8-21.8
			c0-0.5,0.1-0.9,0.1-1.3c0.1-0.6,0.1-1.1,0.2-1.7c1.8-7.8,1.3-15.4,0.8-23.6c0-0.9,0-1.8,0-2.7C275.2,8,275,4,274.8,0h-2.4
			c0.4,5.4,0.6,10.8,0.6,16.1c0,0.6,0.1,1.1,0.1,1.6c1.7,7.4,1.7,13.1-0.5,20.4c0,0.9-0.1,1.8-0.1,2.8c-0.3,11-0.3,22,1,33.1
			c0.1,0.7,0,1.6-0.1,2.3c-1.5,7.7-1.2,15.3-1.2,23.2c0,0.8,0,1.5,0,2.2c0,1.5-0.1,3-0.1,4.4c0,0.9,0,1.8-0.1,2.7
			c-0.1,3.6-0.2,7.1-0.3,10.7c-0.5,19.4,1.6,39.8,0.8,59.7c-0.5,12.8,1,25.6,0,38.4c0,2.4-0.8,4.3-0.8,6.6c0,8.4,0,16.7,0,25
			c0,0.9-0.2,1.8-0.6,2.7c-0.1,0.5-0.2,0.9-0.3,1.3v5.3C271.6,264,274,268.5,271.8,274z"/>
		<path class="st2" d="M271.3,443.3c0.5-6,1.3-12.6,0.4-18.6c0-0.9,0-1.9,0-2.7c0.1-3.6,0.1-7.1,0.1-10.7c0-9-1-18.5-0.8-27.9
			c1-24.6,0-48.8,0.3-73.4c0.3-8.5-0.8-16.6-0.5-25.1c0.1-2.8,0.2-5.6,0.2-8.3c0-0.9,0-1.9,0.3-2.8c1.9-4.1,0.7-8.3-0.7-12.1v183.3
			h0.7C271.3,444.4,271.3,443.9,271.3,443.3z"/>
		<path class="st2" d="M306.6,22.2c0,0.7,0,1.4,0,2.1v6.7c-0.3,6.8-0.1,13.7,0,20.6c0,0.9,0,1.7,0,2.6c0.5,7.8,0.2,15.9,0,23.6
			c0,0.9,0,1.8,0.2,2.8c1.9,4.6,1.6,9.8,0.1,14.5c-0.1,0.9-0.1,1.8-0.1,2.6c0,1.6,0,3.3,0.1,4.9c0,0.8,0,1.6-0.1,2.5
			c-0.1,3.3-0.3,6.6-0.6,10c-0.5,4.3,0.5,9,0.4,13.2c0,0.9,0,1.8-0.1,2.7c0,0.9-0.1,1.8-0.1,2.7v1.8c-0.2,8.5,0.6,17.1,0.6,25.6
			c0.3,17.5-0.5,34.6,0,52.1c0,2.4-0.5,5.2-1,8.1c-0.8,8.5,0.3,16.6,0.5,24.9c0,0.9,0,1.9,0,2.8c0,0.9,0,1.9-0.1,2.8
			c-1.5,6,0.9,11.2,1.2,17.4c0,0.7-0.1,1.4-0.3,2.1c-0.3,1.3-0.3,2.7-0.3,4.1c0.7,3.6,1.3,7.3,1.2,10.8c0,1.5-0.1,2.9-0.6,4.2
			c0,0,0,0,0,0.1c-0.1,0.2-0.2,0.5-0.3,0.7c-0.2,0.5-0.4,1.1-0.6,1.6c-0.7,1.2-2.2,1.9-3.9,2.4c-0.2,0.1-0.4,0.2-0.6,0.3
			c0.4-0.1,0.7-0.1,1.1-0.1c0.1,0,0.2,0,0.3,0c0.1,0,0.2,0,0.3,0c1.1,0,2.3,0.2,3.2,0.6c1,0.5,1.6,1.3,1.9,2.2
			c1.4,2.6,1.1,6.3,0.4,9.5c-0.1,0.6-0.2,1.2-0.4,1.8c-0.1,0.6-0.3,1.2-0.5,1.7c-0.5,1.5-0.8,2.5-1,3.3c-0.2,0.8-0.3,1.4-0.5,2
			c-0.9,7.9,0.5,15.6-0.4,23.6c0,0.9-0.1,1.8-0.1,2.6c-0.3,11.5,1,22.1,0.5,33.6c-0.8,10.9-1.6,22.3,0.8,33.2c0.3,1.4,0.3,3.8,0,5.2
			c-2,9.9-1.4,20.1-1.1,30.3h3.7c0-0.5,0-1.1,0-1.6c0.5-6,1.3-12.6,0.4-18.6c0-0.9,0-1.9,0-2.7c0.1-3.6,0.1-7.1,0.1-10.7
			c0-9-1-18.5-0.8-27.9c1-24.6,0-48.8,0.3-73.4c0-1.4,0.1-2.8,0-4.2c0-1.4-0.1-2.8-0.1-5.1c-0.1-1.2-0.1-1.8-0.1-3.2
			c-0.2-4.1-0.4-8.3-0.3-12.6c0.1-2.8,0.2-5.6,0.2-8.3c0-0.9,0.1-1.9,0.3-2.8c2.3-5,0-10.2-1.6-14.4c-0.8-2.4,0.3-5.2,0.6-7.8
			c0.3-1,0.3-1.9,0.3-2.9c-0.1-8.4-0.2-16.9,0.1-25.4c0.3-2.4,0.8-4.7,0.8-7.1c0.3-18.9,0-37.9,0-56.9c0-1.4-0.3-3.8-0.3-5.2
			c-0.3-12.8-0.5-25.6-0.8-38.4c0-2.8,0.7-5.9,1-9c0-0.6,0.1-1.3,0.1-1.9c0-0.8,0-1.5,0-2.3c0-0.8,0-1.5,0-2.3
			c0.3-8.2,0.3-16.3,1.1-24.3c-0.1-0.8-0.2-1.9-0.2-2.9c-0.9-12-0.9-23.7-0.8-35.4c0.1-1,0.1-2,0.3-3c2-5.1,0.7-10.3-0.1-15.8
			c0-0.9,0-1.8,0-2.7c0-4.5-0.1-9-0.2-13.6c0-0.8-0.1-1.6-0.1-2.4h-3.5C307.3,7.4,306.5,14.7,306.6,22.2z"/>
		<path class="st2" d="M279.3,16c-0.9,8.2-3,14.9-0.7,22.5c0,0.8,0.1,1.9,0.1,2.7c0.3,12.3,2.3,26.1,0.8,38.5
			c-0.1,0.9-0.2,1.7-0.2,2.6c-0.5,9-0.2,18.1-0.4,27.4c0,0.8,0,1.6-0.1,2.4c0,0.8,0,1.6,0,2.4c0,0.8,0,1.6,0,2.4
			c-0.1,2.6-0.1,5,0,7.1c0,0.8,0,1.6,0,2.4c0,1.6,0,3.2,0.1,4.8c0,0.8,0,1.6,0,2.4c0,0.7,0,1.4,0,2.2c0,0.7,0,1.4,0,2.1
			c0,0.7-0.1,1.4-0.1,2.2c-0.3,2.9-0.7,6-0.3,9c0,0.7,0.1,1.5,0.1,2.2c0.1,0.7,0.1,1.5,0.2,2.2c1.1,2.5,0.3,5.4,0.7,8.3
			c0,0.7,0,1.3,0,2c0,4-0.2,8-0.4,11.9v12c0,1,0,1.9,0,2.9c0,0.8,0.1,1.5,0.1,2.3c0,0.8,0.1,1.8,0.1,2.3c0.7,7.6-0.1,15.7,0.1,23.1
			c0,0.5,0,1.2,0,1.8c0,1.6,0,3.2-0.1,4.8c0,0.7,0,1.4,0,2.2c0,0.7,0,1.5,0,2.2c-0.1,4.9,0.2,9.1-0.3,13.7c0,0.7,0,1.4,0,2.2
			c0,0.8,0.1,1.5,0.1,2.3c0,0.8,0,1.5,0.1,2.3c-0.2,9.1,0.1,18.1-0.2,27.3c0,0.8,0,1.5,0,2.3c-0.1,3.8-0.1,7.5,0,11.3
			c0.3,14.7,0,29.9,0.3,44.5c0,5.2,0,10-0.2,15.1c0,0.6,0,1.2,0,1.9c1,4.4,0.2,8.6,0.2,13c0,0.9,0,1.9,0,2.8
			c0.2,10.9,0.2,20.8,0,31.7c-0.3,3.8,0.8,7.1,1,10.9c0.1,3.6-0.3,6.9-0.8,10.1c-0.1,0.8-0.3,1.7-0.4,2.6
			c-1.7,6.7-0.4,14.3-0.1,21.2c0,0.2,0,0.4,0,0.7h4.5c-0.2-13.2,0.4-26.2,0.1-39.3v-8.5c-0.3-2.8,0-5.2,0.5-8.1
			c0.3-3.3-0.5-6.6-0.4-10c0-0.8,0-1.6,0-2.5c0-1.6,0-3.3,0-4.9c0-0.8,0-1.8,0-2.6c0.5-7.5,1.2-15,0-21.9c0-0.9,0-1.7,0-2.5
			c0-6.8-0.5-13.6,0.7-20.1c0.1-0.7,0.2-1.4,0.3-2c0.1-0.7,0.2-1.4,0.2-2.1c0.3-1.4,0.5-2.8,0.3-4.3c-0.9-5.9-1.5-11.7-1.8-17.5
			c0-0.8,0-1.7-0.1-2.5c-0.1-5.1-0.1-10.1-0.2-14.9c0.1-1.8,0.2-3.6,0.3-5.4c0.6-14.5,0.2-29.2,0.2-43.5c0-1.4,0-3.3,0.3-5.2
			c0.5-3.3,0-6.3-0.3-9.4c-0.1-0.7-0.1-1.4-0.2-2.1c-1.3-6,0-12.2,0.5-18.3c0-0.8,0-1.6,0-2.5c0-0.8,0-1.7,0.1-2.5
			c0-0.8,0.1-1.5,0.1-2.3c0-0.8,0-1.5,0-2.2c-0.2-5.7-0.4-10.9-0.4-16.6c-0.3-1.9,0.3-4.3,0.3-6.2c0-7.6,1-14.7,1-22.3
			c0.3-3.8-1.3-7.6-1.3-10.9c0-2.5,0-5,0-7.5c0-0.8,0-1.7,0-2.5c0.1-11.8,0.1-23.1,0.2-34.8c0-0.8,0-1.6,0.1-2.5
			c0.1-5.8,0.4-11.6,0.7-17.4c-0.1-0.7-0.2-1.5-0.3-2.2c-0.8-5.8-1.3-11.4-1.2-17.4c0-1.5,0.1-3.1,0.2-4.7c-0.4-2.4-0.2-4.8-0.2-7.3
			c0-0.8,0-1.6,0-2.4c0-0.7,0-1.4,0.1-2.1c0-0.7,0-1.4,0.1-2.1c1.6-6,1.9-11.7,0.7-17.9c0-0.9,0-1.7,0-2.6c-0.1-2.7-0.1-5.5-0.2-8.3
			h-5c0.4,4.4,0.6,8.9,0.5,13.4C279.3,14.3,279.3,15.1,279.3,16z"/>
		<path class="st2" d="M270.7,242.1v8c0-0.5,0.1-1,0.1-1.5C270.7,246.4,270.7,244.3,270.7,242.1z"/>
		<path class="st2" d="M302.7,18c-0.8,9.5-0.5,18.9-0.4,28.3c0,0.8,0,1.6-0.1,2.3c-0.1,1.6-0.1,3.1-0.2,4.7c0,0.9-0.1,1.8-0.1,2.7
			c0,1.9,0,3.3,0,5.2c0,0.9,0,1.7,0.1,2.6c0.2,7.8,0.6,15.5,0.4,23.4c0,0.9-0.1,1.8-0.1,2.6c-0.1,4.9,0.2,10.1,0.2,14.8
			c0,19.4-0.5,39.3,0,58.8c0,7.1-1,14.2-0.3,22c0,0.8,0,1.7-0.1,2.5c0,0.9,0,1.7-0.1,2.6c-0.4,4.5-0.3,9.2-0.1,13.9
			c0,0.8,0,1.6,0.1,2.3c0.1,9.3,0.1,18.3,0.1,27.9c0,0.8,0,1.5,0,2.3c0,2.3,0,4.6,0,6.9c0,1,0,1.9,0,2.9c0,1.8,0.1,3.6,0.1,5.4
			c0,0.6,0,1.2,0,1.8c0,3.3-0.1,6.6-0.1,9.9c0,0.8,0,1.6,0,2.5c0,0.9,0,1.7,0.1,2.6c0.1,0.9,0.3,1.7,0.5,2.6
			c1.7,6.3,7,15.1,3.4,20.6c0.1-0.1,0.2-0.1,0.2-0.1c1.7-2.2,1.8-5,1.3-7.9c-0.5-2.3-1.3-4.9-2-7.3c-0.6-2.1-1.3-4.1-1.6-6.1
			c-0.1-0.8-0.2-1.5-0.2-2.3c0-0.9,0-1.8,0-2.7c0-4.5,0-8.9,0-13.4c0-1,0-1.9,0-2.9c0-10.9,0-21.9,0-32.8c0-0.9,0-1.8,0-2.7
			c-0.1-7.3-0.1-13.9,0-21.1c0-0.8,0-1.7,0-2.5c0-0.8,0-1.7,0.1-2.5c0-0.8,0-1.7,0.1-2.5c-0.5-7.1-0.5-13.7,0-20.4
			c0.5-12.3-0.8-24.2-0.2-36.5c0-0.8,0-1.7,0-2.5c0-0.8,0-1.7,0-2.5c0-0.8,0-1.7,0-2.5c0.7-9,0.7-18.5,0-27.3c0-0.8,0-1.6,0-2.3
			c0.7-13.5-0.1-27.2,0-40.3c0-0.9,0-1.7,0-2.6c0-0.7,0-1.4,0-2.1c-0.4-9.7-0.2-19.2,0.6-28.2c0.8-6.1,0-12-0.6-18H302
			C302.7,6.1,303.2,12.1,302.7,18z"/>
		<path class="st2" d="M305.3,16.6c-0.5,10.4-1.3,20.9-1,31.7c0,0.9,0,1.7-0.1,2.6c0,13.1,0.8,26.8,0.1,40.3c0,0.8,0,1.6,0,2.3
			c0,0.6,0,1.2,0,1.7c0.9,8.5,0.4,17-0.1,25.6c0,0.8,0,1.7,0,2.5c0,0.8,0,1.7,0,2.5c0,0.8,0,1.7,0,2.5c0.1,11.9,0.6,23.7,0.3,35.1
			c0,7.1-0.8,14.2-0.2,21.8c0,0.8,0,1.7-0.1,2.5c0,0.8,0,1.7,0,2.5c0,0.8,0,1.7,0,2.5c0.1,7.2,0.1,13.9,0.2,21.1c0,0.9,0,1.8,0,2.7
			c0,10.9,0,21.9,0,32.8c0,1,0,1.9,0,2.9c0.2,4.4,0.1,8.9,0,13.4c0,0.9,0,1.8,0,2.7c0,0.8,0,1.6,0.1,2.4c0.1,1.8,0.6,3.9,1.2,6
			c0.8,2.5,1.6,5,2,7.3c0.7,3.4,0.7,6.3-1.3,7.9c-0.2,0.2-0.3,0.4-0.5,0.6c-0.1,0.1-0.2,0.1-0.2,0.2c-0.1,0.1-0.1,0.2-0.2,0.3
			c-0.1,0.1-0.3,0.2-0.5,0.3c-1.9,1.3-4.9,2.1-7.1,3.6c1.5-0.9,3.4-1.3,5.1-1.9c1.1-0.6,2.2-1.2,3-2c0.7-0.6,1.2-1.3,1.6-2
			c0.1-0.2,0.2-0.4,0.3-0.7c0,0,0,0,0-0.1c0.4-1.3,0.6-2.7,0.6-4.2c-0.1-3.3-1-7.1-1.2-10.8c-0.2-1.2-0.4-2.4-0.6-3.6
			c0-0.8,0.1-1.5,0.3-2.3c0.1-0.6,0.2-1.2,0.2-1.9c-0.8-5.2-1.3-9.9-0.7-15.3c0-0.9,0-1.8,0-2.7c0-0.5,0-1,0-1.5c0-0.5,0-1,0-1.5
			c-0.8-10.7-0.3-21.6-0.1-32c0.8-18,0.8-36.5,0.5-55c-0.3-7.6-1.3-15.2-0.7-23.4v-2.6c0-0.6,0-1.2,0-1.8c0-0.9,0-1.8,0-2.6
			c-0.1-3.2-0.6-7-0.3-10.3c0.3-4.8,0.4-9.7,0.4-14.5c0-0.8,0-1.6,0-2.4c0-2.2,0-4.3-0.1-6.4c0-0.7,0-1.5,0-2.2
			c0.2-3.8,0.5-7.1-0.1-10.7c-0.1-0.9-0.1-1.7-0.1-2.5c0-0.9,0-1.9,0-2.8c0.4-8.2,0.4-16.7,0.1-24.7c0-0.9,0-1.8,0-2.7
			c-0.1-6.3-0.2-12.6,0.1-18.9v-8.8c0-0.7,0-1.4,0-2.1c0.1-6.8,0.5-13.5,0.4-20.2h-1.7C305.2,5.7,305.6,11.3,305.3,16.6z"/>
		<path class="st2" d="M296.5,4.4c0,1.4,0,2.3-0.3,3.7c0,4.3,2.9,7.1,2.6,11.4c0,11.4-1.3,22.7-0.6,34c0,0.7-0.1,1.3-0.1,2
			c-0.8,14.2-1,28-0.4,41.8c0,0.6,0,1.3,0,1.9c0,0.6,0,1.3,0,1.9c-0.9,8.4,0.2,16,1.5,24c0.8,3.8-0.8,7.6-1.2,11.5
			c-0.1,0.8-0.1,1.6-0.1,2.5c0,5.1-0.1,10.2-0.1,15.3c0,0.8,0,1.7,0,2.5c0,2.1-0.1,4.3-0.1,6.4c0,0.7,0,1.4,0,2.1
			c-0.3,5.8,1.1,11.6,0.9,17.4c0,0.8-0.1,1.5-0.3,2.2c-1.2,5,0.1,10.7-0.6,16.5c0,0.8-0.1,1.6-0.1,2.4c0,1.2,0,2.3,0,3.5
			c0,0.6,0,1.2,0,1.7c-1.2,13.5,0.7,27.2,0.3,41c0,0.8,0,1.6,0,2.5c0,0.8,0,1.6,0,2.5c0,0.9,0,1.8,0,2.7c0.3,1.9,0.6,3.9,0.8,5.9
			c0.1,0.7,0.1,1.3,0.1,2c0.1,0.9,0.1,1.7,0.2,2.6c0.1,0.9,0.2,1.7,0.3,2.6c0.1,2.1,1,4.3,1.5,6.6c0.2,0.7,0.6,1.5,1,2.3
			c1.8,2.9,3.6,5.7,3.6,8.5c0.6,2.4,0.4,4.3-1.9,5.1c-0.5,0.1-1,0.3-1.5,0.5c-0.3,0.2-0.5,0.4-0.8,0.5c0.5-0.1,1-0.1,1.4-0.2
			c0.3-0.1,0.6-0.3,0.8-0.4c0.7-0.4,1.4-0.8,1.9-1.3c4.5-5-1.8-13.5-3.5-20.7c-0.2-0.8-0.4-1.7-0.5-2.5c-0.1-0.9-0.2-1.7-0.3-2.6
			c0-0.7,0-1.5,0-2.2c0-3.7,0-7.4,0.1-11.2c0-0.7,0-1.3,0-2c0-0.7,0-1.3,0-2c0-1.6,0-2.6-0.1-4c0-0.7,0-1.3-0.1-2
			c0-0.7-0.1-1.3-0.1-2v-1.5c0.2-11.6,0.6-22.9-0.2-34.2c0-0.7-0.1-1.4-0.1-2.1c-0.2-4.1-0.3-8.3,0-12.5c0-0.8,0-1.7,0.1-2.5
			c0-0.8,0-1.7,0.1-2.5c-0.3-7,0.3-13.6,0.5-20.8c0.3-8.5-1-17.5-0.8-26.5c0.1-9.9,0.3-19.8,0.4-29.7c0-0.9,0-1.8,0-2.7
			c0.1-1.7,0.1-3.6,0.1-5.4c0-0.9,0-1.8,0-2.7c0.1-4.5,0.1-9,0.2-13.5c0-0.6,0.1-1.3,0.1-1.9c0.1-1.9,0.1-3.8,0-5.7
			c0-2.9-0.3-5.6-0.6-8.3c-0.1-0.7-0.2-1.5-0.2-2.2c-1.8-4.2,0-9,0.4-13.8c0-0.9,0-1.8,0-2.7c0-11.8,0.7-23.7,0.5-35.6
			c-0.2-4.6,0-9.4-0.2-14.3h-4.5c0,0.7,0,1.5,0,2.2C296.7,2.9,296.6,3.6,296.5,4.4z"/>
		<path class="st2" d="M285.1,3.1c0,2,0,3.9-0.1,5.9c0,0.7,0,1.4,0,2.1c1.9,6.5,0.9,12.2-0.7,18.7c0,0.6-0.1,1.4,0,2.1
			c0.1,2.5,0.2,5.1,0.3,7.6c0,0.7,0.1,1.5,0.1,2.2c-0.1,7.3,0.1,14.2,0.4,21.2c0.1,1.8,0.2,3.5,0.2,5.3c-0.5,5-0.7,9.9-0.8,14.9
			c0,0.8,0,1.7,0,2.5c-0.3,12.1,0.6,24.9,0.5,37.3c0,0.8,0,1.6,0,2.5c0,2.5,0,4.9-0.1,7.4c0,2.4,1,4.7,1.3,7.1
			c0.3,5.2-0.5,10-1,14.7c-0.7,14.2-0.6,28.3-0.5,42.3c0,0.9,0,1.9,0,2.8c-0.4,4.6-0.9,9.3,0.1,14c0,0.9,0,1.9,0,2.8
			c0,7.5,0,14.9-0.2,22.4c-0.3,8.1,0.3,16.1,0.3,24.2c0,3.6,0,7.4-0.3,11.4c0,0.8-0.1,1.6-0.2,2.4c0.1,8.7,1,17.3,0.4,25.7
			c0,0.8,0,1.6,0.1,2.3c0,0.8,0.1,1.5,0.2,2.3c0.1,2.3,0.8,4.2,0.9,6.7c0.1,0.8,0.1,1.5,0.2,2.3c0,0.8,0,1.5,0,2.3
			c-0.2,2.5-0.5,4.9-0.7,7.3c-0.1,0.8-0.2,1.6-0.2,2.4c-0.4,4.5-0.4,9.7-0.4,14.3c0,0.7,0,1.4,0,2c0,0.7,0,1.4,0,2.3
			c0.3,7.2-0.5,14.8-0.1,22c0,0.5,0,1,0,1.7c0,0.5,0,0.9,0,1.4c0,0.9,0,1.8,0,2.7c0,0.9,0,1.8,0,2.7c0,0.9,0,1.8,0,2.7
			c-0.5,14.8,0,30-0.5,44.7c-0.2,6.8-0.3,13.6-0.1,20.3h3.4c-0.1-11.1,0.3-22.1,0.9-33.1c0.3-6.6-1-13.7-0.8-20.8
			c0.3-2.4,0.3-4.7,0.4-7c0-0.9,0-1.9,0-2.8c0-3.4,0-6.8,0-10.1c0-0.9,0-1.7,0-2.6c-1.7-7.3-2.2-13.4-0.2-20c0-1,0.1-2,0.1-2.8
			c0-1.7,0-3.4,0-5.1c0-0.9,0-1.8,0-2.7c0-1.8-0.5-3.7-0.5-5.6c0-1.7,0.1-3.3,0.2-4.9c0.1-1.6,0.2-3.3,0.2-4.9
			c0.1-1.6,0.1-3.2,0.2-4.9c0-1.6,0.1-3.2,0.1-4.9c0-2.7-0.1-5.5-0.4-8.3c0-0.6-0.1-1.1-0.1-1.7c1.5-8.6,2.4-16.7,0.1-25.2
			c0-1,0-2-0.1-3c1.3-44.7-0.9-89.2,1.7-133.7c0-2.4-1-5.7-1.3-8.1c-0.1-1.7-0.1-3.3-0.2-5c0-0.8-0.1-1.7-0.1-2.5
			c0.1-1.6,0.1-3.2,0.2-4.7c0.1-3.4,0.1-6.2,0-9.4c0-1.6-0.1-3.1-0.1-4.7c-0.2-7.8-0.4-15.5,0.2-23.3c0-0.8,0-1.6,0.1-2.5
			c0.1-4.1,0.3-8.2,0.4-12.2c0-0.8,0-1.5,0-2.3c0-0.9-0.1-1.7-0.1-2.6c-1.1-7.6-1.3-15.6-0.7-23.6c0-0.9,0-1.7,0-2.6
			c0-0.9-0.1-1.7-0.1-2.5c0-0.8,0-2,0-2.6c0.5-7.5,0.5-15.1,0.4-22.7c0-0.8,0.1-1.8,0.1-2.6c0-0.7,0-1.4,0-2.1c0-0.7,0-1.5,0-2.2
			c0-0.9,0.1-1.7,0.1-2.6h-3.1c0,0.2,0,0.3,0,0.5C285.1,1.3,285.1,2.2,285.1,3.1z"/>
		<path class="st2" d="M294,5.4c-0.9,5.6,0.9,11.2,1.2,16.9c0,13.3,0.3,26.5-0.7,39.8c0,0.6-0.1,1.2-0.1,1.7v6.7c0,1.5,0,2.9,0,4.4
			c0.1,2.9-0.8,5.7-0.4,8.6c0,1.5,0,2.9,0,4.4c0.1,4.4,0.2,8.8,0.4,13.1c0,0.8,0.1,1.7,0.1,2.5c-0.8,11.2,2.1,21.7,0,32.5
			c0,0.6,0,1.2,0,1.8v2.4c0.2,7.9,0,16-0.1,24c0,0.9,0,1.8,0,2.7c0.2,3.4,0.3,6.8,0.4,10.2c0,0.8,0,1.7,0,2.5c-1,7.6,1,15.2,0,22.7
			c-0.1,0.9-0.2,1.7-0.2,2.6c-0.1,4.2-0.2,8.5-0.2,12.8c0,0.9,0,1.9,0,2.8c-0.1,11,0.1,22,0.5,33.1c0.3,3.3-0.3,7.1-0.3,10.3
			c0,0.6,0,1.2,0.1,1.9c0,0.6,0.1,1.2,0.1,1.8c0.1,0.6,0.1,1.2,0.2,1.8c0.2,0.8,0.4,1.7,0.5,2.6c0.6,6.8,6.4,10.9,8.3,17.2
			c0.4,0.9,0,2.3-0.5,2.7c-2.2,1-4.3,2.2-6.1,3.7c1.1-0.6,2.3-0.9,3.5-1.1c0.5-0.2,1-0.5,1.5-0.7c1-0.7,1.8-1.4,2.4-2.3
			c0.7-1.1,1-2.2,1-3.3c-0.7-2.6-2.4-5.8-3.6-8.5c-1.3-2.1-2.7-4.3-3.4-6.6c-0.2-0.8-0.4-1.6-0.5-2.4c-0.1-0.8-0.2-1.6-0.2-2.4
			c0-0.6,0-1.2-0.1-1.8c0-1.8-0.1-3.5-0.4-5.1c-0.1-0.9-0.1-1.8-0.2-2.8c-0.1-3.7-0.2-7.5-0.3-11.2c0-0.8,0-1.5-0.1-2.3
			c0-1.4,0-2.8-0.1-4.5c0-0.7,0-1.5-0.1-2.2c-0.1-3.7-0.2-7.5-0.2-11.2c0-0.8,0-1.5,0-2.2c-0.1-4.9-0.1-9.7,0.2-14.5
			c0-0.6,0-1.1,0-1.7c0-1.1,0-2.3,0-3.4c0-0.9,0-1.7,0.1-2.7c0.6-6.8-1-14.3,0.8-20.6c0-0.8,0.1-1.6,0-2.4c-0.1-4.8-1-9.5-1.1-14.3
			c0-0.8,0.1-1.6,0.1-2.5c0-0.8,0-1.7,0-2.5c0-6.7,0.5-13.5,0.6-20.3c0-0.8,0-1.7,0-2.5c0.2-3.7,1.3-7,1.3-10.3
			c-0.3-9-2.3-17.1-1.3-26.5c0-0.9-0.1-1.8-0.1-2.7c-0.3-9.9-0.4-19.8,0-29.8c0-0.6,0-1.1,0-1.7c0-0.6,0-1.1,0-1.7
			c0.2-2.1,0.4-4.2,0.5-6.3c0-0.7,0.1-1.4,0.1-2.2c0.1-11.6,1.1-23.9,0.6-35.8c-0.5-5.7-2.9-11.4-2-18c-0.1-0.8-0.1-1.6-0.2-2.4
			h-2.2c0.1,1.3,0.3,2.5,0.4,3.8C294,4.3,294.1,4.8,294,5.4z"/>
		<path class="st2" d="M289.2,8.3c-0.1,4.5-1.2,8.8-1.2,13c0.3,3.8,2.1,7.6,0.9,11.2c-0.2,0.5-0.1,1.3-0.1,2.1
			c0,0.8,0.1,1.6,0.1,2.4c0.2,9-0.4,17.5,0.4,26.4c0,0.8,0,1.6,0,2.4c0,0.8,0,1.6,0,2.4c0,0.8,0,1.6-0.1,2.3c0,3.3,0,6.5,0,9.8
			c0,0.8,0,1.6,0,2.4c-0.2,1.3-0.3,2.7-0.4,4c-0.1,1.3-0.1,2.7-0.1,4c0,1.3,0,2.7,0,4c0.1,4,0.4,8.1,0.6,12.1c0,0.8,0.1,1.6,0.1,2.4
			c0.4,4-0.1,8.2-0.2,12c-0.1,0.8-0.2,1.6-0.3,2.4c-0.1,0.8-0.2,1.6-0.4,2.4c0,0.8,0,1.6-0.1,2.4c0,5.2,2.3,9.5,2.1,15.4
			c0,0.9,0,1.7-0.1,2.6c0,0.8-0.1,1.7-0.1,2.5c-1.1,13.2-1.6,26-1.3,39.3c0,0.7,0.1,1.5,0.1,2.2c0,0.7,0,1.4,0.1,2.1
			c0,0.7,0,1.4,0,2.1c0.1,25.4-0.4,51-0.4,76.5c0,0.9,0,1.9,0,2.8c-0.3,4.9,2.9,9,3.3,13.5c0.9,6.3-3.6,12.2-2.9,18.6
			c0,0.6,0,1.2,0,1.8c0,0.6,0,1.2,0,1.8c0,0.8,0,1.5,0,2.3c0.1,6.3-0.8,12.2-0.4,18.6c0,0.7,0,1.4,0,2.1c0.1,2.1,0.2,4.3,0.3,6.5
			c0,0.9,0,1.9,0,2.8c0,1.6,0,3.3,0,4.9c0,0.8,0,1.6,0,2.5c-1.4,6.3-1.4,11.1,0,17.2c0,0.8,0,1.6,0,2.5c0,4.1,0,8.2-0.1,12.3
			c0,1,0,1.9,0,2.9c0,2.7-0.3,6-0.5,8.8c-0.3,4.7,0.5,9.5,0.5,14.2c0.2,12.6-0.7,25.2-0.6,37.9h0.8c-0.1-13,0.9-25.8,0.9-38.8
			c-0.3-3.8-0.5-8.1-0.5-11.9c0.3-3.3,0.5-6.6,0.5-10.2c0-0.7,0-1.4,0-2.1c-0.1-5-0.2-10-0.2-14.9c0-0.7,0-1.4,0-2.1
			c-0.8-4.7-1.6-9.5-0.4-14.2c0-0.8,0.1-1.7,0.1-2.5c0-2.4,0-4.8,0-7.2c0-0.9,0-1.8,0-2.7c-0.2-1.8-0.3-3.5-0.3-5.2
			c0-0.9,0-1.7,0-2.6c-0.4-6.5,0.6-12.4,0.7-18.6c0-0.9,0-1.8,0-2.7c0-0.7,0-1.4,0-2c0-0.7,0-1.4,0-2.1c-0.6-6.4,4.3-11.3,3.9-17.2
			c-0.4-4.5-4.1-9-4.4-13.9c0-0.8,0-1.6,0-2.3c0-0.8,0-1.6,0-2.4c0-6.1,0-11.7,0.2-17.7c0-0.6,0-1.3,0-2c0-1.4,0-2.7,0-4.1
			c0-0.7,0-1.4,0-2.1c-0.1-3.9-0.1-7.2,0-11c0-0.9,0-1.7,0-2.6c0-0.9,0-1.8,0-2.8c0.1-11.2-0.1-22.6,0.2-33.9c0-0.7,0-1.4,0-2.2
			c0-0.7,0-1.4-0.1-2.2c0-0.7,0-1.4,0-2.2c0.1-5.9,0.1-12.6,0.2-18.6c0-0.8,0-1.5,0-2.3c0-0.8,0-1.5,0-2.3c0.1-4.5-0.2-8.8,0.5-13.3
			c0.1-0.7,0.2-1.5,0.3-2.2c0.1-0.8,0.2-1.5,0.3-2.3c0.1-0.8,0.1-1.6,0.1-2.3c0-0.7-0.1-1.5-0.2-2.2c-0.2-3.1-1.5-6.4-1.5-9.7
			c0-0.8,0-1.7-0.1-2.5c0-0.8,0-1.7,0-2.5c0.1-0.8,0.3-1.6,0.4-2.4c0.2-5,0.7-9.2-0.1-14.2c-0.1-0.8-0.1-1.6-0.2-2.4
			c-0.3-3.5-0.6-7-0.5-10.5c0-1.2,0.1-2.3,0.2-3.5c0-2.8,1-5.2,0.3-8.2c0-1.3,0.1-2.7,0.3-4.1c0-0.8,0-1.7,0-2.5
			c0-2.5-0.1-5-0.2-7.5c0-0.7,0-1.5,0.1-2.3c0-0.7,0-1.5,0.1-2.2c0-0.7,0-1.5,0.1-2.2c-0.4-8.9-0.7-17.9-0.1-27.2
			c0-0.8,0-1.5-0.1-2.3c0.2-0.5,0.4-1.1,0.6-1.6c0.2-0.6,0.4-1.1,0.5-1.7c-1.6-7.8-3.4-13.5-1.5-21.6c0-0.9,0.1-1.8,0.1-2.7
			c0.1-2.4,0.3-4.9,0.5-7.3h-0.6c0,2,0,3.9-0.1,5.9C289.3,6.7,289.3,7.5,289.2,8.3z"/>
		<path class="st2" d="M290.9,8.1c0,0.5-0.1,1-0.1,1.5c-2.7,7.5-2.2,14.1,1.5,20.3c0.3,0.9,0.1,1.7-0.2,2.3
			c-0.3,0.6-0.7,1.2-0.9,1.8c-0.4,0.6-0.3,1.4-0.3,2.2c-0.3,6.7-0.3,13.8,0,20.7c0.1,1.7,0.2,3.4,0.3,5.2c0.2,4.7,0.4,9.4,0.5,14.1
			c0,0.7,0,1.3,0,2c0.2,6.6-0.7,12.8-0.8,19.6c0,0.7,0,1.5,0.1,2.2c0,0.7,0.1,1.5,0.2,2.2c0.8,6.8,2.7,13.5,1.8,20.1
			c-0.9,4.3-1.4,8.5-1.1,12.7c0,0.5,0,0.9,0,1.3c0,0.9,0,1.7,0,2.8c0,0.9,0.1,1.8,0.1,2.8c0,0.9,0.1,1.8,0.1,2.8
			c0.1,3,0,6.1-0.2,9.3c0,0.8-0.1,1.6-0.1,2.4c0,0.8-0.1,1.6-0.1,2.4c0,0.8-0.1,1.6-0.1,2.4c-0.1,2.4-0.1,4.8-0.1,7.2
			c0,1-0.1,1.9-0.1,2.8c0.2,4.4-0.1,8.7,0,13.1c0,0.8,0,1.6,0,2.4c0.1,3.2,0.2,6.4,0.1,9.7c0,0.8-0.1,1.7-0.1,2.5
			c0.1,1.3,0.1,3.2,0,4.6c0,0.6,0,1.3,0,1.9c0,2.5,0,4.9,0,7.4c0,0.9,0,1.8,0,2.7c-0.1,2.6-0.1,5.5-0.1,8.4c0,1.4,0,2.8-0.1,4.2
			c0,1.4,0,2.8-0.1,4.2c0,0.9,0,1.8,0,2.7c0,3,0,6.1,0,9.1c0,0.6,0,1.2,0,1.8c0,0.9,0,1.8,0,2.7c0,1.6,0,3.2-0.1,4.8
			c-0.1,4.9-0.2,9.9-0.2,14.8c0,0.8,0,1.6,0,2.5c0,0.8,0,1.6,0,2.4c-0.3,3.9,2.4,7.5,3.8,11.1c0.5,1.8,1.4,3.6,0.9,5.4
			c-1.8,5-4.5,9.9-4.4,15.6c0,0.6,0,1.2,0.1,1.9c0,0.6,0,1.2,0,1.9c0,0.8,0,1.7,0,2.5c0.2,7.5-0.7,15.2-0.5,22.9
			c0,1.1,0.1,2.1,0.2,3.1c0,0.9,0,1.8,0,2.7c0,3.3,0,6.7,0,10c0,0.8,0,1.7,0,2.5c-0.2,3.3-0.2,6.6,0,10c0,0.8,0,1.7,0,2.5
			c0,6.7,0,13.4,0,20.2c0,0.9,0,1.9-0.1,2.8c-0.1,17.5,0.6,35-0.4,52.6c-0.1,1.4-0.1,2.8,0,4.2h3.2v-4.7c0-3.3,0.6-7.1,0.3-10.5
			c0-0.9,0-1.7,0-2.6c0-0.9,0.1-1.8,0.2-2.9c0.2-2.2,0.1-4.4-0.1-6.5c-0.1-0.7-0.1-1.4-0.2-2.1c-0.4-6.3-0.9-11.9-0.5-18
			c0.1-0.8,0.1-1.5,0.1-2.2c0-4.1,0.1-8.3,0.3-12.5v-15.2c0-0.6,0-1.2,0-1.8c0.5-8.4,0.6-16.4,0.2-24.7c0-0.8-0.1-1.6-0.1-2.5
			c1.7-9.1-0.1-18.2,0.3-27.2c2.3,0.8,3,3.4,4.8,5.1c0.2,0,0.3,0.1,0.5,0.1c-0.6-0.6-1.1-1.2-1.6-1.8c-1.8-1.6-2.8-4.1-3.6-6.6
			c0,0,0,0,0,0c0,0,0,0,0-0.1c-0.3-1-0.6-1.9-0.9-2.8c-0.2-0.9-0.2-1.7-0.2-2.6c0-1.1,0.3-2,0.6-2.9c0-0.1,0.1-0.2,0.1-0.3
			c0.1-0.3,0.2-0.6,0.4-0.9c1.4-3.1,4.1-5.7,6.3-8.4c3.6-5-4.5-10.4-5.8-16.4c-0.1-0.8-0.2-1.5-0.3-2.3c-0.1-1.6-0.3-3.1-0.5-4.7
			c0-0.9-0.1-1.7-0.1-2.6c0-0.9-0.1-1.7-0.1-2.6c0-4.1,0.8-7.9,0.3-12.2c-0.7-9.7-0.7-19.3-0.6-28.9c0-0.9,0-1.7,0.1-2.6
			c0.1-3.6,0.1-7.3,0.2-11c0-0.9,0-1.8,0.1-2.8c1.5-8.3-0.8-16.8,0.3-25.1c0-0.9,0-1.8,0-2.8c-0.1-2.8-0.1-5.5-0.3-8.3v-2.5
			c0-7.6,0-15.3,0-22.9c0-0.7,0-1.4,0-2.1v-4.1c0-0.7,0-1.4,0-2c0-3,0.8-5.8,0.8-8.7c0-8.1-1.3-15.6-0.7-23.9c0-0.8-0.1-1.6-0.1-2.4
			c-0.1-2.4-0.3-4.9-0.5-7.3c-0.1-1.4-0.1-2.9,0-4.3c0-1.5,0.1-2.9,0.1-4.4c0.3-4.1,0.3-8.8,0.4-13.2v-3.3v-3.3c0-0.5,0-1.1,0-1.6
			c0.8-14.8,1.8-29,0.5-43.7c-0.5-4.3-0.8-8.5-0.8-12.7c0-0.8-0.1-1.6-0.1-2.3c-0.1-1.1-0.1-2.3-0.2-3.4h-1.6c0,0.2,0,0.4,0,0.5
			C291.3,3.1,291.1,5.6,290.9,8.1z"/>
		<path class="st2" d="M317.8,149c0,0.7,0.1,1.5,0.1,2.2c0,0.2,0.1,0.4,0.1,0.7v-11.2C317.7,143.4,317.4,146.3,317.8,149z"/>
		<path class="st2" d="M296.8,297.7c0.1-0.1,0.2-0.1,0.2-0.2C297,297.5,296.9,297.6,296.8,297.7z"/>
		<path class="st0" d="M307.6,284.2c-0.4-2.4-1.2-4.8-2-7.3C306.3,279.3,307.1,281.8,307.6,284.2z"/>
		<path class="st0" d="M303.3,306.4c-0.1,0.1-0.1,0.1-0.2,0.2C303.2,306.6,303.2,306.5,303.3,306.4z"/>
		<path class="st0" d="M303.1,306.6c-0.1,0.1-0.2,0.1-0.3,0.2C302.9,306.8,303,306.7,303.1,306.6z"/>
		<path class="st0" d="M303.5,293.6c-0.3,0.1-0.5,0.3-0.8,0.4c0.1,0,0.1,0,0.2,0C303.1,293.8,303.3,293.7,303.5,293.6z"/>
		<path class="st0" d="M294.4,303.5c0,0.6,0.2,1.1,0.3,1.7c0.1,0.2,0.2,0.5,0.3,0.7c0-0.1,0-0.1-0.1-0.2c-0.2-0.7-0.3-1.4-0.4-2.1
			c-0.3-2.1,0.3-3.6,1.2-4.8c0.3-0.4,0.6-0.8,1-1.1c0.1-0.1,0.2-0.1,0.2-0.2c0.2-0.1,0.4-0.3,0.7-0.4c2.3-1.5,5.2-2.3,7.1-3.6
			c-0.5,0.2-1.2,0.4-2,0.5c-1.1,0.6-2.4,1.2-3.7,1.8C296.3,297.5,293.9,299.8,294.4,303.5z"/>
		<path class="st0" d="M304.5,18c-0.8,9-1,18.5-0.6,28.2c0,0.7,0,1.4,0,2.1c0,0.9,0,1.7,0,2.6c-0.1,13.1,0.7,26.8,0,40.3
			c0,0.8,0,1.6,0,2.3c0.7,8.8,0.7,18.3,0,27.3c0,0.8,0,1.7,0,2.5c0,0.8,0,1.7,0,2.5c0,0.8,0,1.7,0,2.5c-0.5,12.4,0.8,24.2,0.2,36.5
			c-0.5,6.6-0.5,13.3,0,20.4c0,0.8,0,1.7-0.1,2.5c0,0.8,0,1.7-0.1,2.5c0,0.8,0,1.7,0,2.5c-0.1,7.2-0.1,13.9,0,21.1
			c0,0.9,0,1.8,0,2.7c0,10.9,0,21.9,0,32.8c0,1,0,1.9,0,2.9c0.1,4.4,0.1,8.9,0,13.4c0,0.9,0,1.8,0,2.7c0,0.8,0.1,1.5,0.2,2.3
			c0.3,1.9,1,4,1.6,6.1c-0.6-2.1-1.1-4.2-1.2-6c-0.1-0.8-0.1-1.6-0.1-2.4c0-0.9,0-1.8,0-2.7c0.1-4.5,0.1-9,0-13.4c0-1,0-1.9,0-2.9
			c0-10.9,0-21.9,0-32.8c0-0.9,0-1.8,0-2.7c-0.1-7.3-0.1-13.9-0.2-21.1c0-0.8,0-1.7,0-2.5c0-0.8,0-1.7,0-2.5c0-0.8,0-1.7,0.1-2.5
			c-0.6-7.6,0.2-14.7,0.2-21.8c0.3-11.4-0.3-23.2-0.3-35.1c0-0.8,0-1.7,0-2.5c0-0.8,0-1.7,0-2.5c0-0.8,0-1.7,0-2.5
			c0.5-8.6,1-17.1,0.1-25.6c0-0.6,0-1.2,0-1.7c0-0.8,0-1.6,0-2.3c0.6-13.5-0.2-27.2-0.1-40.3c0-0.9,0-1.7,0.1-2.6
			c-0.3-10.8,0.5-21.3,1-31.7c0.4-5.4-0.1-11-0.6-16.6h-0.8C304.5,6,305.2,11.9,304.5,18z"/>
		<path class="st0" d="M307.6,284.2c0.5,3,0.3,5.7-1.3,7.9C308.3,290.5,308.3,287.5,307.6,284.2z"/>
		<path class="st0" d="M306.3,292.1c-0.1,0.1-0.2,0.1-0.2,0.1c-0.1,0.2-0.3,0.4-0.5,0.6c0.1-0.1,0.2-0.1,0.2-0.2
			C306,292.5,306.1,292.3,306.3,292.1z"/>
		<path class="st0" d="M299.4,307.3c-0.3-0.1-0.5-0.4-0.7-0.5c0.2,0.2,0.4,0.5,0.7,0.6c1.5,0.5,2.6,0.2,3.5-0.6
			C302,307.6,300.9,307.9,299.4,307.3z"/>
		<path class="st0" d="M301.3,312.1c0.7-0.2,1.2-0.6,1.7-1c0.5-0.4,0.9-1,1.2-1.6c1-2.4,3.4-5.7,2.2-8.3c1,3.9-1.9,6.9-3.5,9.3
			c-0.4,0.2-0.9,0.4-1.3,0.5c-0.2,0.1-0.4,0.2-0.6,0.2c-0.1,0-0.1,0-0.2,0c0,0,0,0,0,0c-2.2,0.1-4.1-1.2-4.9-3.6
			c-0.3-0.6-0.5-1.2-0.8-1.8c0.2,0.6,0.4,1.3,0.7,1.9C296.3,309.9,298.1,312.6,301.3,312.1z"/>
		<path class="st0" d="M303.3,306.4c1.3-1.4,2.2-3.9,2.9-5.5c-0.2-0.4-0.5-0.7-0.9-1C305.1,301.9,304.6,304.8,303.3,306.4z"/>
		<path class="st0" d="M306.2,301c0.1,0.1,0.1,0.2,0.1,0.3c0-0.1,0-0.3-0.1-0.4C306.3,300.9,306.2,300.9,306.2,301z"/>
		<path class="st0" d="M304.7,419.6c0-0.8,0-1.6,0-2.5c0-0.8,0-1.7,0-2.5c0-3.3-0.3-7.1-0.3-10.5v-2.9c0-1.5,0-2.9,0-4.4
			c0-0.7,0-1.5,0-2.2c-0.2-2.8,0.8-5.6,0.6-8.5c-1.3-9-1-17-0.7-26.3c0-0.9,0-1.7,0-2.6c0-4.4,0.1-8.8,0.1-13.2c0-0.9,0-1.8,0-2.6
			c0.4-9-0.9-18,1.7-26.5c-0.2,0.3-0.4,0.7-0.7,1.1c-2,8.7-1.1,16.8-1.6,25.5c0,0.8,0,1.7,0,2.6c0,4.4-0.1,8.8-0.2,13.2
			c0,0.9,0,1.7-0.1,2.6c-0.3,3.4-0.3,6.7-0.3,9.9c0,0.7,0,1.3,0,1.9c0,2.6-0.3,4.5,0.1,6.9c0,0.5,0.1,1,0.1,1.5
			c0.1,1,0.1,2.1,0.2,3.2c0,0.8,0,1.6,0.1,2.3c0,0.8,0,1.6,0,2.4c0.3,2.4,0.3,4.3-0.2,6.6c0,0.7,0,1.4,0,2.2v4.4c0,1,0,1.9,0,2.9
			c0.3,3.7,0.4,7.4,0.4,11.1c0,0.9,0,1.8,0,2.8c-0.3,8.8-1.3,17.9-1.1,26.9h0.8C303.6,436.4,304.4,427.8,304.7,419.6z"/>
		<path class="st0" d="M309,298.8c0.3,0.8,0.5,1.7,0.5,2.6c0-0.4,0-0.8-0.1-1.2C309.4,299.7,309.2,299.2,309,298.8z"/>
		<path class="st0" d="M308.1,310.5c-0.2,0.7-0.5,1.4-0.8,2c-0.3,0.8-0.7,1.6-1.1,2.3c0,0,0,0.1,0,0.2c0.2-0.3,0.3-0.5,0.5-0.8
			c0.7-1.2,1.3-2.5,1.7-3.8c0.2-0.7,0.4-1.3,0.6-2c0.1-0.6,0.2-1.2,0.2-1.9c-0.2,0.7-0.3,1.4-0.5,2
			C308.6,309.1,308.4,309.8,308.1,310.5z"/>
		<path class="st0" d="M307.6,296.3c-0.5-0.3-1-0.5-1.6-0.7c-4.4-1.1-11.3,2.8-9.3,8.8c0.2,0.6,0.6,1.1,1.1,1.6
			c0.3,0.3,0.6,0.5,0.9,0.7c-0.3-0.3-0.6-0.7-1-0.9c-0.2-0.6-0.4-1.3-0.6-2c-1.7-6.1,5.5-9.3,9.6-7.5c0.7,0.3,1.2,0.8,1.6,1.4
			c0.2,0.2,0.3,0.4,0.4,0.6c0,0.1,0.1,0.1,0.1,0.2c0.3,0.5,0.5,1.1,0.6,1.7c0.1,0.3,0.1,0.6,0.1,0.8c0-0.4,0-0.8-0.1-1.2
			C309.3,298.5,308.7,297.3,307.6,296.3C307.6,296.3,307.6,296.3,307.6,296.3z"/>
		<path class="st0" d="M309.3,306.4c0,0,0-0.1,0-0.1C309.3,306.3,309.2,306.4,309.3,306.4C309.2,306.4,309.2,306.4,309.3,306.4z"/>
		<path class="st0" d="M302.6,311.8c-0.3,0.3-0.7,0.5-1,0.7c0.5-0.1,1-0.3,1.4-0.6c0.7-0.4,1.2-1.1,1.5-2c0-0.1,0.1-0.1,0.1-0.2
			C304.1,310.5,303.4,311.2,302.6,311.8z"/>
		<path class="st0" d="M302.3,409.9c-0.1-1.8-0.2-3.6-0.4-5.5c0-1,0-2,0-2.9c0-1.5,0-2.9,0-4.4c0-0.7,0-1.5,0-2.2
			c0.1-2.3,0.4-4.4,0.5-6.5c0-0.5,0-1,0-1.6c-0.2-0.7-0.5-1.5-0.7-2.2c-3.8-6-1.7-11.7-0.3-19.2c0-0.7,0-1.5,0.1-2.2
			c0.1-1.5,0.2-2.9,0.3-4.4c0-0.9,0.1-1.8,0.1-2.8c0.1-3.3,0.2-6.6,0.2-10c0-0.8,0-1.7,0-2.5c0.9-9.3-0.9-19.7,3.3-28.8
			c0,0,0.1-0.1,0.1-0.1c-0.1,0.1-0.2,0.3-0.3,0.4c-5.3,8.4-2.6,19.7-4.2,29c0,0.9,0,1.8-0.1,2.7c0,1.8-0.1,3.5-0.1,5.3
			c0,0.9,0,1.8-0.1,2.6c-0.2,2.7-0.4,5.4-0.5,8c0,0.7-0.1,1.5-0.1,2.2c-2.3,7.5-2.3,13.7,0.8,20.9c0.2,0.9,0.4,1.8,0.5,2.6
			c-0.1,0.8-0.2,1.7-0.3,2.5c-0.1,0.6-0.1,1.2-0.2,1.9c-0.1,0.6-0.1,1.2-0.1,1.9c0,0.7,0,1.3,0,1.9c0,0.7,0,1.3,0,1.9v2.9
			c0.1,1.7,0.2,3.5,0.3,5.2c0,0.9,0.1,1.7,0.1,2.6c-0.1,12-0.9,23.7-0.9,35.6h1.1c0-10.7,0.9-21.6,0.9-32.3
			C302.4,411.7,302.3,410.8,302.3,409.9z"/>
		<path class="st0" d="M295.1,299c0.9-1.4,2.4-2.4,4-3.2c1.2-0.7,2.5-1.2,3.7-1.8c-0.1,0-0.1,0-0.2,0c-0.5,0.1-0.9,0.1-1.4,0.2
			c-1.6,1-3.3,1.9-4.8,3.1C296,297.8,295.5,298.4,295.1,299z"/>
		<path class="st0" d="M307.2,303.6c0.2-0.5,0.3-0.9,0.4-1.4c0-0.8-0.3-1.5-0.8-2C307.2,301.3,307.3,302.5,307.2,303.6z"/>
		<path class="st0" d="M300.8,297.1c2.4-1,4.8-1.5,6.4-0.3C305.6,295.6,303,295.8,300.8,297.1z"/>
		<path class="st0" d="M304.6,309.6c1.6-1.8,2.5-3.9,2.6-6C306.6,305.6,305.3,307.5,304.6,309.6
			C304.6,309.7,304.6,309.6,304.6,309.6z"/>
		<path class="st0" d="M297.2,302.2c0.1-0.8,0.4-1.7,1-2.7c0.7-1,1.7-1.8,2.7-2.4c-0.4,0.2-0.9,0.4-1.3,0.6
			C298,298.5,297.1,300.5,297.2,302.2z"/>
		<path class="st0" d="M300.9,49.9c0,0.9,0,1.8,0,2.7c-0.3,4.8-2.2,9.5-0.4,13.8c0.1,0.7,0.2,1.5,0.2,2.2c0.2,2.7,0.6,5.4,0.6,8.3
			c0.1,2,0.1,3.8,0,5.7c0,0.6,0,1.3-0.1,1.9c-0.1,4.5-0.1,9-0.2,13.5c0,0.9,0,1.8,0,2.7c0,1.8,0,3.7-0.1,5.4c0,0.9,0,1.8,0,2.7
			c-0.1,9.9-0.3,19.8-0.4,29.7c-0.3,9,1,18,0.8,26.5c-0.3,7.1-0.8,13.7-0.5,20.8c0,0.8,0,1.7-0.1,2.5c0,0.8,0,1.7-0.1,2.5
			c-0.4,4.2-0.2,8.4,0,12.5c0,0.7,0.1,1.4,0.1,2.1c0.8,11.3,0.3,22.7,0.2,34.2v1.5c0,0.7,0.1,1.3,0.1,2c0,0.7,0,1.3,0.1,2
			c0,1.5,0,2.4,0.1,4c0,0.7,0,1.3,0,2c0,0.7,0,1.3,0,2c0,3.8-0.1,7.5-0.1,11.2c0,0.7,0,1.5,0,2.2c0,0.9,0.1,1.7,0.3,2.6
			c0.1,0.8,0.3,1.7,0.5,2.5c1.7,7.2,8,15.7,3.5,20.7c-0.5,0.5-1.1,0.9-1.9,1.3c-0.2,0.1-0.4,0.2-0.6,0.4c0.8-0.1,1.5-0.3,2-0.5
			c0.2-0.1,0.4-0.1,0.5-0.3c0.1-0.1,0.1-0.2,0.2-0.3c0.2-0.2,0.3-0.4,0.5-0.6c3.6-5.5-1.7-14.3-3.4-20.6c-0.2-0.9-0.4-1.7-0.5-2.6
			c-0.1-0.9-0.2-1.7-0.1-2.6c0-0.8,0-1.7,0-2.5c0-3.3,0-6.6,0.1-9.9c0-0.6,0-1.2,0-1.8c0-1.8,0-3.6-0.1-5.4c0-1,0-1.9,0-2.9
			c0-2.3,0-4.6,0-6.9c0-0.8,0-1.5,0-2.3c0-9.6,0-18.6-0.1-27.9c0-0.8-0.1-1.6-0.1-2.3c-0.2-4.7-0.3-9.4,0.1-13.9
			c0-0.9,0-1.7,0.1-2.6c0-0.8,0-1.7,0.1-2.5c-0.8-7.8,0.3-14.9,0.3-22c-0.5-19.4,0-39.3,0-58.8c0-4.7-0.3-10-0.2-14.8
			c0-0.9,0.1-1.8,0.1-2.6c0.2-7.9-0.3-15.6-0.4-23.4c0-0.9,0-1.7-0.1-2.6c0.1-2,0.1-3.4,0-5.2c0-0.9,0.1-1.8,0.1-2.7
			c0.1-1.6,0.1-3.1,0.2-4.7c0-0.8,0.1-1.6,0.1-2.3c-0.1-9.3-0.4-18.8,0.4-28.3c0.6-5.9,0-11.9-0.6-18h-0.9c0.2,4.9,0,9.7,0.2,14.3
			C301.6,26.1,300.9,38,300.9,49.9z"/>
		<path class="st0" d="M302.2,300.4c1.6-1.2,3.5-1.2,4.6-0.2c0-0.1,0-0.2-0.1-0.3c-0.9-1.8-3.6-1.4-5.4,0c-1,1-0.7,2.1,0,3
			C301,302.1,301.4,301.2,302.2,300.4z"/>
		<path class="st0" d="M298.1,304.9c0.2,0.2,0.5,0.4,0.8,0.6c-0.7-0.7-1.2-1.5-1.7-2.4c-0.1-0.3,0-0.6-0.1-0.9
			C297.1,303.3,297.4,304.2,298.1,304.9z"/>
		<path class="st0" d="M301.3,303.1C301.3,303.1,301.4,303.1,301.3,303.1c0-0.1,0-0.1,0-0.2C301.3,303,301.3,303.1,301.3,303.1z"/>
		<path class="st0" d="M296.1,309.8c0.8,1.9,1.9,4,4.3,3.3c0.4-0.1,0.8-0.3,1.2-0.6c-0.2,0.1-0.5,0.1-0.7,0.1
			C298.8,312.6,297.2,311.5,296.1,309.8z"/>
		<path class="st0" d="M294.6,305.6c-0.1-0.6-0.3-1.1-0.3-1.7c-0.3-1.3-0.2-2.4,0.1-3.4c-0.3,0.9-0.5,1.8-0.6,2.8
			c0,0.3,0,0.5,0.1,0.8c0.1,0.7,0.2,1.4,0.4,2c0.4,1.3,1,2.6,1.7,3.7c-0.2-0.5-0.4-1.1-0.6-1.6C295.1,307.3,294.9,306.5,294.6,305.6
			z"/>
		<path class="st0" d="M301.8,306.7c1.8-0.5,3.6-2.7,1.8-4.1c-0.4-0.4-1.3,0-2.2,0.4c0.6,0.7,1.4,1.2,2.2,1.4c-0.8,2.3-3.1,2-4.7,1
			C299.7,306.2,300.6,306.7,301.8,306.7z"/>
		<path class="st0" d="M296.5,297.3c1.1-1.2,2.5-2.2,4.1-3c-1.2,0.2-2.5,0.5-3.5,1.1c-0.6,0.5-1.1,1-1.5,1.5c-0.7,1-1.3,2.1-1.5,3.2
			C294.5,299.1,295.4,298.1,296.5,297.3z"/>
		<path class="st0" d="M309.5,301.4c0,2.2-0.8,4.6-1.1,6.9c-0.2,0.8-0.5,1.5-0.8,2.3c-0.3,0.8-0.6,1.5-1,2.2c-0.3,0.7-0.7,1.3-1.1,2
			c0.4-0.6,0.8-1.2,1.2-1.8c0.4-0.7,0.8-1.4,1.1-2.1c0.3-0.7,0.6-1.5,0.8-2.2c0.3-0.8,0.5-1.7,0.7-2.5c0.1-1.6,0.3-3.3,0.3-4.9
			c0-0.3-0.1-0.6-0.1-0.8C309.5,300.6,309.5,301,309.5,301.4z"/>
		<path class="st0" d="M308.9,298.5c0-0.1-0.1-0.1-0.1-0.2c-0.1-0.2-0.2-0.4-0.4-0.6c-0.3-0.3-0.7-0.6-1.2-0.9
			c0.8,0.5,1.4,1.2,1.8,2c0.2,0.4,0.4,0.9,0.5,1.4C309.4,299.6,309.2,299,308.9,298.5z"/>
		<path class="st0" d="M304.9,310.8c0.3-0.7,0.6-1.4,0.9-2.1c-0.1,0.3-0.3,0.6-0.4,0.8c-0.4,0.7-0.8,1.5-1.4,2.2
			c-0.6,0.9-1.2,1.9-2.1,2.4c0.5-0.2,0.9-0.5,1.3-0.9C303.9,312.6,304.5,311.7,304.9,310.8z"/>
		<path class="st0" d="M300.9,314.4c-0.1,0-0.1,0-0.2,0C300.8,314.4,300.8,314.4,300.9,314.4C300.9,314.4,300.9,314.4,300.9,314.4z"
			/>
		<path class="st0" d="M298.1,20.4c0.5,11.8-0.5,24.2-0.6,35.8c0,0.7-0.1,1.5-0.1,2.2c-0.1,2.1-0.2,4.2-0.5,6.3c0,0.6,0,1.1,0,1.7
			c0,0.6,0,1.1,0,1.7c-0.4,10-0.3,19.9,0,29.8c0,0.9,0.1,1.8,0.1,2.7c-1,9.5,1.1,17.5,1.3,26.5c0,3.3-1,6.6-1.3,10.3
			c0,0.8,0,1.7,0,2.5c0,6.8-0.5,13.5-0.6,20.3c0,0.8,0,1.7,0,2.5c0,0.9-0.1,1.7-0.1,2.5c0.1,4.8,1,9.5,1.1,14.3c0,0.8,0,1.6,0,2.4
			c-1.7,6.3-0.2,13.9-0.8,20.6c0,0.9-0.1,1.8-0.1,2.7c0,1.2,0,2.3,0,3.4c0,0.6,0,1.1,0,1.7c-0.3,4.8-0.3,9.6-0.2,14.5
			c0,0.7,0,1.5,0,2.2c0,3.7,0.1,7.5,0.2,11.2c0,0.8,0,1.5,0.1,2.2c0.1,1.7,0.1,3.1,0.1,4.5c0,0.7,0,1.5,0.1,2.3
			c0.1,3.7,0.2,7.5,0.3,11.2c0,0.9,0.1,1.8,0.2,2.8c0.3,1.6,0.4,3.3,0.4,5.1c0,0.6,0,1.2,0.1,1.8c0,0.8,0.1,1.6,0.2,2.4
			c0.1,0.8,0.3,1.6,0.5,2.4c0.7,2.3,2,4.5,3.4,6.6c-0.4-0.8-0.7-1.6-1-2.3c-0.5-2.3-1.4-4.5-1.5-6.6c-0.1-0.8-0.2-1.7-0.3-2.6
			c-0.1-0.9-0.2-1.7-0.2-2.6c0-0.7-0.1-1.3-0.1-2c-0.2-2-0.4-3.9-0.8-5.9c0-0.9,0-1.8,0-2.7c0-0.8,0-1.6,0-2.5c0-0.8,0-1.6,0-2.5
			c0.4-13.8-1.5-27.5-0.3-41c0-0.6,0-1.2,0-1.7c0-1.2,0-2.3,0-3.5c0-0.8,0-1.6,0.1-2.4c0.7-5.8-0.6-11.5,0.6-16.5
			c0.2-0.7,0.3-1.4,0.3-2.2c0.2-5.8-1.2-11.6-0.9-17.4c0-0.7,0-1.4,0-2.1c0-2.1,0-4.3,0.1-6.4c0-0.8,0-1.7,0-2.5
			c0-5.1,0.1-10.1,0.1-15.3c0-0.8,0-1.7,0.1-2.5c0.5-3.9,2-7.7,1.2-11.5c-1.3-8.1-2.3-15.6-1.5-24c0-0.7,0-1.3,0-1.9
			c0-0.6,0-1.3,0-1.9c-0.6-13.8-0.4-27.6,0.4-41.8c0.1-0.6,0.1-1.3,0.1-2c-0.7-11.3,0.6-22.7,0.6-34c0.3-4.3-2.6-7.1-2.6-11.4
			c0.3-1.4,0.3-2.4,0.3-3.7c0.1-0.7,0.1-1.5,0.1-2.2c0-0.8,0-1.5,0-2.2h-0.8c0,0.8,0.1,1.6,0.2,2.4C295.2,9,297.6,14.7,298.1,20.4z"
			/>
		<path class="st0" d="M300.8,314.4c-0.2,0-0.5-0.1-0.7-0.1c0.1,0,0.2,0.1,0.3,0.1C300.5,314.4,300.6,314.4,300.8,314.4z"/>
		<path class="st0" d="M307.8,300.5c0.2,2.8-0.8,5.6-2,8.3C307.1,306.4,308.3,303,307.8,300.5z"/>
		<path class="st0" d="M309,302.8c0,0.3,0,0.7-0.1,1C308.9,303.5,308.9,303.2,309,302.8z"/>
		<path class="st0" d="M300.9,314.4c0.4,0,0.7-0.1,1-0.2C301.6,314.3,301.3,314.4,300.9,314.4z"/>
		<path class="st0" d="M307.1,310.4c-0.3,0.8-0.7,1.5-1.2,2.2c-0.5,0.6-1.1,1.3-1.7,2.1c-0.2,0.3-0.4,0.6-0.6,0.8
			c-0.5,0.6-1,1.3-1.4,1.9c1.2-1.4,2.5-2.7,3.5-4.1c0.4-0.6,0.8-1.2,1.2-1.8c0.3-0.6,0.6-1.3,0.9-2c0.2-0.8,0.4-1.6,0.6-2.4
			c-0.1,0.4-0.3,0.9-0.4,1.3C307.6,309,307.4,309.7,307.1,310.4z"/>
		<path class="st0" d="M305.4,288.1c0,1.1-0.3,2.2-1,3.3c-0.6,0.9-1.5,1.6-2.4,2.3c0.5-0.2,1-0.4,1.5-0.5
			C305.8,292.4,306,290.5,305.4,288.1z"/>
		<path class="st0" d="M308.9,303.8c-0.1,1.1-0.3,2.1-0.6,3.1C308.6,306,308.8,304.9,308.9,303.8z"/>
		<path class="st0" d="M301.8,279.6c1.2,2.7,2.9,5.8,3.6,8.5C305.4,285.3,303.6,282.5,301.8,279.6z"/>
		<path class="st0" d="M295.1,299c0.4-0.6,0.8-1.2,1.3-1.7c-1.1,0.8-2,1.8-2.5,2.9c-0.6,1.2-0.8,2.7-0.4,4.5
			c0.1,0.7,0.3,1.5,0.5,2.2c1,3.4,3.1,6.8,6.1,7.4c-3.5-0.9-4.4-4.3-5.5-7.6c-0.2-0.7-0.5-1.3-0.7-2c-0.1-0.5,0-1,0-1.4
			c0-1,0.2-1.9,0.6-2.8C294.6,300,294.9,299.5,295.1,299z"/>
		<path class="st0" d="M309,302.8c0-0.8,0-1.6,0-2.4c-0.5-2.7-2.3-4.1-5-3.2c2.3,0.3,3.4,1.6,3.8,3.2c-0.1-0.9-0.2-1.8-0.6-2.8
			C308.6,299.1,309,300.9,309,302.8z"/>
		<path class="st0" d="M297.8,420c0-0.7-0.1-1.4-0.1-2c0.3-2.4,0.8-4.8,0.6-7.2c-1-5.7-2.3-10.9-1.1-16.4c0.1-0.9,0.1-1.8,0.2-2.7
			c0.2-15.5,1.1-31,0.4-46.4c0-0.9-0.1-1.7-0.1-2.6c-0.4-7.1,1.9-14.3,2.3-21.1c0.2-1.1,1.1-2.6,2.2-4.2c-1.7,2-3.1,3.9-3.1,6.1
			c0.5,6.3-2.7,11.7-2.2,18c0.1,0.8,0.1,1.6,0.2,2.4c0.3,4,0.4,7.6,0.2,11.5c-0.4,11.9-0.5,23.8-0.5,35.6c0,0.9,0,1.8,0,2.7
			c-1.3,5.7,0,10.9,0.8,16.6c0.3,2.8,0,5.2-0.5,8.1c0,0.9,0,1.8,0,2.7c0.1,3.7,0.1,7.3,0.2,11c0,3.8,0,7.6-0.4,11.2v1.5h0.8
			c0.1-4.3,0.3-8.6,0.4-12.8C298.3,428.3,298,424.1,297.8,420z"/>
		<path class="st0" d="M301.2,294.2c0.3-0.2,0.5-0.3,0.8-0.5c-0.5,0.2-1,0.4-1.5,0.7c-1.5,0.8-2.9,1.7-4.1,3
			C297.9,296.2,299.7,295.2,301.2,294.2z"/>
		<path class="st0" d="M293.7,299.8c0.1-0.3,0.2-0.6,0.4-0.9C294,299.2,293.9,299.5,293.7,299.8z"/>
		<path class="st0" d="M303.6,315.5c0.2-0.2,0.4-0.5,0.6-0.8c0.3-0.5,0.5-1,0.7-1.6c-1.8,1.4-3.2,4.5-5.4,3.2
			c-0.7-0.3-1.3-0.7-1.8-1.2c0.5,0.6,1,1.2,1.6,1.8C300.9,317.2,302.4,316.8,303.6,315.5z"/>
		<path class="st0" d="M297.7,315c-1.5-1.9-2.7-4-3.6-6.6C294.9,310.9,295.9,313.4,297.7,315z"/>
		<path class="st0" d="M293.1,303.9c-0.1-1.4,0.1-2.7,0.5-3.9c-0.3,0.9-0.6,1.8-0.6,2.9c-0.1,0.9,0,1.8,0.2,2.6
			c0.3,0.9,0.6,1.8,0.9,2.8c-0.2-0.7-0.4-1.4-0.6-2.2C293.3,305.5,293.2,304.7,293.1,303.9z"/>
		<path class="st0" d="M299.3,316.9c-0.2,0-0.3,0-0.5-0.1c0.3,0.3,0.7,0.6,1.1,0.8C299.7,317.3,299.5,317.1,299.3,316.9z"/>
		<path class="st0" d="M293.6,300.1c0-0.1,0.1-0.2,0.1-0.3C293.7,299.9,293.7,300,293.6,300.1z"/>
		<path class="st0" d="M294.1,308.4C294.1,308.4,294.1,308.4,294.1,308.4C294.1,308.4,294.1,308.4,294.1,308.4
			C294.1,308.4,294.1,308.4,294.1,308.4z"/>
		<path class="st0" d="M294.4,440.3c0.4-5.1,0.4-10.1,0.3-15.2c0-0.5,0.1-1.1,0.1-1.7c0.2-1.4,0.2-2.7,0.1-4.1c0-0.7-0.1-1.3-0.2-2
			c0-7-1.8-14.1-0.6-21.1c0-0.6,0-1.2,0.1-1.8c0.1-4.2,0.2-8.8,0.2-13v-13.6c0.5-8.3,0.6-16.3,0.2-24.5c0-0.8-0.1-1.6-0.1-2.5
			c0.9-9.2,2.3-18.2-0.4-27.3c1.3,1.7,3,2.8,4.8,3.3c-1.8-1.6-2.5-4.3-4.8-5.1c-0.4,9,1.4,18.1-0.3,27.2c0,0.8,0,1.6,0.1,2.5
			c0.3,8.2,0.2,16.2-0.2,24.7c0,0.6,0,1.2,0,1.8V383c-0.2,4.1-0.3,8.3-0.3,12.5c0,0.7,0,1.4-0.1,2.2c-0.4,6.1,0.1,11.8,0.5,18
			c0,0.6,0.1,1.3,0.2,2.1c0.2,2.1,0.3,4.3,0.1,6.5c-0.1,1.1-0.2,2-0.2,2.9c0,0.9,0,1.7,0,2.6c0.3,3.3-0.3,7.1-0.3,10.5v4.7h0.8v-3.1
			C294.4,441.3,294.4,440.8,294.4,440.3z"/>
		<path class="st0" d="M293.4,5.8c0,4.2,0.3,8.5,0.8,12.7c1.3,14.7,0.3,28.9-0.5,43.7c0,0.6,0,1.1,0,1.6v3.3v3.3
			c-0.1,4.4-0.1,9.1-0.4,13.2c0,1.5-0.1,2.9-0.1,4.4c0,1.5,0,2.9,0,4.3c0.2,2.4,0.3,4.9,0.5,7.3c0,0.8,0.1,1.6,0.1,2.4
			c-0.6,8.3,0.7,15.8,0.7,23.9c0,2.8-0.8,5.7-0.8,8.7c0,0.7,0,1.4,0,2v4.1c0,0.7,0,1.4,0,2.1c0,7.6,0,15.4,0,22.9v2.5
			c0.1,2.7,0.2,5.5,0.3,8.3c0,0.9,0,1.8,0,2.8c-1.1,8.2,1.3,16.8-0.3,25.1c0,0.9-0.1,1.8-0.1,2.8c-0.1,3.7-0.2,7.4-0.2,11
			c0,0.9-0.1,1.8-0.1,2.6c-0.1,9.5-0.1,19.1,0.6,28.9c0.5,4.3-0.3,8.1-0.3,12.2c0,0.9,0.1,1.7,0.1,2.6c0,0.9,0.1,1.7,0.1,2.6
			c0.2,1.6,0.4,3.1,0.5,4.7c0.1,0.8,0.1,1.6,0.3,2.3c1.2,6,9.4,11.4,5.8,16.4c-2.1,2.7-4.8,5.3-6.3,8.4c0.4-0.7,0.8-1.3,1.3-1.9
			c0.5-0.5,1-1,1.5-1.5c1.8-1.5,3.9-2.7,6.1-3.7c0.5-0.4,0.9-1.8,0.5-2.7c-1.8-6.3-7.7-10.4-8.3-17.2c-0.2-0.9-0.3-1.7-0.5-2.6
			c-0.1-0.6-0.1-1.2-0.2-1.8c0-0.6-0.1-1.2-0.1-1.8c0-0.6-0.1-1.2-0.1-1.9c0-3.2,0.5-7,0.3-10.3c-0.4-11.1-0.5-22.1-0.5-33.1
			c0-0.9,0-1.8,0-2.8c0-4.3,0.1-8.6,0.2-12.8c0-0.9,0.1-1.7,0.2-2.6c1-7.5-1.1-15.1,0-22.7c0-0.8,0-1.7,0-2.5
			c-0.1-3.4-0.2-6.8-0.4-10.2c0-0.9,0-1.8,0-2.7c0.1-8,0.3-16.1,0.1-24v-2.4c0-0.6,0-1.2,0-1.8c2.1-10.9-0.7-21.3,0-32.5
			c0-0.8,0-1.7-0.1-2.5c-0.2-4.4-0.3-8.7-0.4-13.1c0-1.5,0-2.9,0-4.4c-0.4-2.8,0.5-5.7,0.4-8.6c0-1.4,0.1-2.9,0-4.4v-6.7
			c0-0.6,0.1-1.2,0.1-1.7c1-13.2,0.7-26.5,0.7-39.8c-0.3-5.7-2.1-11.4-1.2-16.9c0-0.5,0-1,0-1.6c-0.1-1.3-0.2-2.5-0.4-3.8H293
			c0.1,1.1,0.1,2.3,0.2,3.4C293.3,4.2,293.3,5,293.4,5.8z"/>
		<path class="st0" d="M289.5,10c-1.9,8.1-0.1,13.8,1.5,21.6c-0.1,0.6-0.3,1.1-0.5,1.7c-0.2,0.6-0.4,1.1-0.6,1.6
			c0,0.8,0,1.5,0.1,2.3c-0.5,9.4-0.3,18.3,0.1,27.2c0,0.7-0.1,1.5-0.1,2.2c0,0.7,0,1.5-0.1,2.2c0,0.8-0.1,1.6-0.1,2.3
			c0.1,2.5,0.1,5,0.2,7.5c0,0.8,0,1.7,0,2.5c-0.2,1.4-0.3,2.8-0.3,4.1c0.7,3-0.3,5.3-0.3,8.2c-0.1,1.2-0.2,2.3-0.2,3.5
			c0,3.5,0.2,7,0.5,10.5c0.1,0.8,0.1,1.6,0.2,2.4c0.8,4.9,0.4,9.2,0.1,14.2c-0.1,0.8-0.2,1.6-0.4,2.4c0,0.8,0,1.7,0,2.5
			c0,0.8,0,1.7,0.1,2.5c0,3.3,1.3,6.6,1.5,9.7c0.1,0.7,0.1,1.4,0.2,2.2c0,0.7,0,1.5-0.1,2.3c-0.1,0.8-0.2,1.5-0.3,2.3
			c-0.1,0.8-0.2,1.5-0.3,2.2c-0.7,4.5-0.4,8.8-0.5,13.3c0,0.8,0,1.5,0,2.3c0,0.8,0,1.5,0,2.3c-0.1,6-0.1,12.7-0.2,18.6
			c0,0.7,0,1.5,0,2.2c0,0.7,0,1.4,0.1,2.2c0,0.7,0,1.4,0,2.2c-0.3,11.3,0,22.7-0.2,33.9c0,1,0,1.9,0,2.8c0,0.9,0,1.8,0,2.6
			c-0.1,3.8-0.1,7.1,0,11c0,0.7,0,1.4,0,2.1c0,1.4,0,2.7,0,4.1c0,0.7,0,1.4,0,2c-0.3,5.9-0.3,11.6-0.2,17.7c0,0.8,0,1.6,0,2.4
			c0,0.8,0,1.6,0,2.3c0.3,4.9,3.9,9.4,4.4,13.9c0.5,5.9-4.5,10.8-3.9,17.2c0,0.7,0,1.4,0,2.1c0,0.7,0,1.4,0,2c0,0.9,0,1.8,0,2.7
			c-0.1,6.3-1,12.1-0.7,18.6c0,0.9,0,1.8,0,2.6c0,1.7,0.2,3.5,0.3,5.2c0,0.9,0,1.8,0,2.7c0,2.4,0,4.8,0,7.2c0,0.8-0.1,1.7-0.1,2.5
			c-1.2,4.8-0.4,9.5,0.4,14.2c0,0.7,0,1.4,0,2.1c0,5,0.2,10,0.2,14.9c0,0.7,0,1.4,0,2.1c0,3.6-0.3,6.9-0.5,10.2
			c0,3.8,0.3,8.1,0.5,11.9c0,13.1-1,25.8-0.9,38.8h0.9c-0.1-1.4-0.1-2.8,0-4.2c1-17.5,0.3-35.1,0.4-52.6c0-0.9,0.1-1.9,0.1-2.8
			c0-6.7,0-13.4,0-20.2c0-0.8,0-1.7,0-2.5c-0.2-3.4-0.2-6.8,0-10c0-0.8,0-1.7,0-2.5c0-3.3,0-6.7,0-10c0-0.9,0-1.8,0-2.7
			c-0.1-0.9-0.2-2-0.2-3.1c-0.2-7.7,0.7-15.4,0.5-22.9c0-0.8,0-1.7,0-2.5c0-0.6,0-1.2,0-1.9c0-0.6,0-1.2-0.1-1.9
			c-0.2-5.6,2.6-10.6,4.4-15.6c0.5-1.8-0.4-3.6-0.9-5.4c-1.4-3.6-4.1-7.2-3.8-11.1c0-0.8,0-1.6,0-2.4c0-0.8,0-1.6,0-2.5
			c0-4.9,0.1-9.9,0.2-14.8c0-1.6,0.1-3.2,0.1-4.8c0-0.9,0-1.8,0-2.7c0-0.6,0-1.2,0-1.8c0-3,0-6.1,0-9.1c0-0.9,0-1.8,0-2.7
			c0-1.4,0-2.8,0.1-4.2c0-1.4,0-2.8,0.1-4.2c0-2.9,0-5.7,0.1-8.4c0-0.9,0-1.8,0-2.7c0-2.5,0-4.9,0-7.4c0-0.6,0-1.2,0-1.9
			c0.1-1.4,0.1-3.3,0-4.6c0-0.8,0.1-1.7,0.1-2.5c0.1-3.3,0-6.5-0.1-9.7c0-0.8,0-1.6,0-2.4c-0.1-4.4,0.1-8.7,0-13.1
			c0-0.9,0-1.8,0.1-2.8c-0.1-2.4,0-4.8,0.1-7.2c0-0.8,0.1-1.6,0.1-2.4c0-0.8,0.1-1.6,0.1-2.4c0-0.8,0.1-1.6,0.1-2.4
			c0.2-3.1,0.3-6.3,0.2-9.3c0-0.9-0.1-1.8-0.1-2.8c0-0.9-0.1-1.8-0.1-2.8c0-1,0-1.9,0-2.8c0-0.4,0-0.9,0-1.3
			c-0.3-4.1,0.1-8.4,1.1-12.7c1-6.6-0.9-13.3-1.8-20.1c-0.1-0.7-0.1-1.5-0.2-2.2c0-0.7-0.1-1.5-0.1-2.2c0.1-6.8,1.1-13,0.8-19.6
			c0-0.7,0-1.3,0-2c-0.1-4.7-0.2-9.4-0.5-14.1c-0.1-1.8-0.2-3.5-0.3-5.2c-0.3-6.9-0.3-14,0-20.7c0-0.8,0-1.6,0.3-2.2
			c0.2-0.6,0.6-1.2,0.9-1.8c0.3-0.6,0.5-1.3,0.2-2.3c-3.7-6.2-4.2-12.8-1.5-20.3c0-0.5,0.1-1,0.1-1.5c0.2-2.5,0.4-5,0.6-7.6
			c0-0.2,0-0.4,0-0.5h-1.4c-0.2,2.4-0.4,4.8-0.5,7.3C289.5,8.1,289.5,9,289.5,10z"/>
		<path class="st0" d="M288.1,4.8c0,0.7,0,1.4,0,2.1c0,0.8,0,1.8-0.1,2.6c0.1,7.6,0.1,15.2-0.4,22.7c0,0.7,0,1.8,0,2.6
			c0,0.8,0,1.6,0.1,2.5c0,0.9,0,1.7,0,2.6c-0.6,8-0.4,16,0.7,23.6c0.1,0.8,0.1,1.7,0.1,2.6c0,0.8,0,1.6,0,2.3
			c-0.1,4.1-0.3,8.2-0.4,12.2c0,0.8,0,1.6-0.1,2.5c-0.6,7.8-0.4,15.5-0.2,23.3c0,1.6,0.1,3.1,0.1,4.7c0.1,3.2,0.1,6,0,9.4
			c0,1.6-0.1,3.1-0.2,4.7c0,0.8,0,1.7,0.1,2.5c0.1,1.7,0.1,3.3,0.2,5c0.3,2.4,1.3,5.7,1.3,8.1c-2.6,44.5-0.4,89-1.7,133.7
			c0,1,0,2,0.1,3c2.3,8.5,1.4,16.6-0.1,25.2c0,0.6,0.1,1.1,0.1,1.7c0.3,2.8,0.4,5.5,0.4,8.3c0,1.6,0,3.3-0.1,4.9
			c0,1.6-0.1,3.2-0.2,4.9c-0.1,1.6-0.1,3.2-0.2,4.9c-0.1,1.6-0.1,3.3-0.2,4.9c0,1.9,0.5,3.8,0.5,5.6c0,0.9,0,1.8,0,2.7
			c0,1.7,0,3.4,0,5.1c0,0.8,0,1.9-0.1,2.8c-2,6.5-1.5,12.7,0.2,20c0,0.9,0,1.7,0,2.6c0,3.4,0,6.8,0,10.1c0,0.9,0,1.9,0,2.8
			c-0.2,2.3-0.2,4.7-0.4,7c-0.3,7.1,1,14.2,0.8,20.8c-0.6,11-1,22.1-0.9,33.1h1.1c-0.1-12.7,0.8-25.3,0.6-37.9
			c0-4.7-0.8-9.5-0.5-14.2c0.3-2.8,0.5-6.2,0.5-8.8c0-1,0-1.9,0-2.9c0-4.1,0-8.2,0.1-12.3c0-0.8,0-1.6,0-2.5
			c-1.4-6.2-1.4-10.9,0-17.2c0-0.8,0-1.7,0-2.5c0-1.6,0-3.3,0-4.9c0-0.9,0-1.9,0-2.8c-0.1-2.2-0.2-4.3-0.3-6.5c0-0.7,0-1.4,0-2.1
			c-0.4-6.4,0.5-12.3,0.4-18.6c0-0.8,0-1.6,0-2.3c0-0.6,0-1.2,0-1.8c0-0.6,0-1.2,0-1.8c-0.8-6.4,3.8-12.2,2.9-18.6
			c-0.5-4.5-3.6-8.6-3.3-13.5c0-0.9,0-1.9,0-2.8c-0.1-25.5,0.4-51.1,0.4-76.5c0-0.7,0-1.4,0-2.1c0-0.7,0-1.4-0.1-2.1
			c0-0.7-0.1-1.5-0.1-2.2c-0.3-13.3,0.2-26.1,1.3-39.3c0.1-0.8,0.1-1.6,0.1-2.5c0-0.8,0.1-1.7,0.1-2.6c0.2-5.9-2.1-10.2-2.1-15.4
			c0-0.8,0-1.6,0.1-2.4c0.1-0.8,0.3-1.6,0.4-2.4c0.1-0.8,0.2-1.6,0.3-2.4c0.1-3.8,0.6-8,0.2-12c0-0.8-0.1-1.6-0.1-2.4
			c-0.2-4-0.5-8.1-0.6-12.1c0-1.4-0.1-2.7,0-4c0-1.4,0-2.7,0.1-4c0.1-1.4,0.2-2.7,0.4-4c0-0.8,0-1.6,0-2.4c0-3.2,0-6.5,0-9.8
			c0-0.8,0-1.5,0.1-2.3c0-0.8,0-1.6,0-2.4c0-0.8,0-1.6,0-2.4c-0.8-8.8-0.3-17.4-0.4-26.4c0-0.8-0.1-1.6-0.1-2.4
			c0-0.8-0.1-1.6,0.1-2.1c1.2-3.6-0.6-7.4-0.9-11.2c0-4.3,1-8.5,1.2-13c0.1-0.8,0.1-1.6,0.1-2.4c0.1-2,0.1-3.9,0.1-5.9h-1.3
			c0,0.9-0.1,1.7-0.1,2.6C288.1,3.3,288.1,4,288.1,4.8z"/>
		<path class="st0" d="M283.9,10.9c1.2,6.2,1,11.9-0.7,17.9c0,0.7-0.1,1.4-0.1,2.1c0,0.7,0,1.4-0.1,2.1c0,0.8,0,1.6,0,2.4
			c0,2.5-0.3,4.9,0.2,7.3c-0.1,1.6-0.2,3.2-0.2,4.7c-0.1,6,0.5,11.6,1.2,17.4c0.1,0.7,0.2,1.5,0.3,2.2c-0.3,5.8-0.5,11.7-0.7,17.4
			c0,0.8,0,1.7-0.1,2.5c-0.1,11.7-0.1,23.1-0.2,34.8c0,0.8,0,1.7,0,2.5c0,2.5,0,5,0,7.5c0,3.3,1.6,7.1,1.3,10.9c0,7.6-1,14.7-1,22.3
			c0,1.9-0.5,4.3-0.3,6.2c0,5.7,0.3,10.9,0.4,16.6c0,0.7,0,1.5,0,2.2c0,0.8,0,1.5-0.1,2.3c0,0.9-0.1,1.7-0.1,2.5c0,0.8,0,1.7,0,2.5
			c-0.5,6.1-1.8,12.2-0.5,18.3c0.1,0.7,0.1,1.4,0.2,2.1c0.3,3.1,0.8,6.2,0.3,9.4c-0.3,1.9-0.3,3.8-0.3,5.2c0,14.3,0.4,29-0.2,43.5
			c-0.1,1.8-0.2,3.6-0.3,5.4c0.1,4.8,0.1,9.8,0.2,14.9c0,0.8,0,1.7,0.1,2.5c0.3,5.8,0.9,11.6,1.8,17.5c0.3,1.4,0,2.8-0.3,4.3
			c-0.1,0.7-0.1,1.4-0.2,2.1c-0.1,0.7-0.2,1.4-0.3,2c-1.2,6.5-0.7,13.3-0.7,20.1c0,0.8,0,1.6,0,2.5c1.2,6.9,0.4,14.5,0,21.9
			c0,0.8,0,1.8,0,2.6c0,1.6,0,3.3,0,4.9c0,0.8,0,1.6,0,2.5c-0.1,3.4,0.7,6.7,0.4,10c-0.5,2.8-0.8,5.2-0.5,8.1v8.5
			c0.2,13.1-0.4,26.1-0.1,39.3h0.8c-0.2-6.8,0-13.5,0.1-20.3c0.5-14.7,0-29.9,0.5-44.7c0-0.9,0-1.8,0-2.7c0-0.9,0-1.8,0-2.7
			c0-0.9,0-1.8,0-2.7c0-0.5,0-0.9,0-1.4c0-0.7,0-1.2,0-1.7c-0.4-7.2,0.4-14.8,0.1-22c0-0.9,0-1.6,0-2.3c0-0.7,0-1.4,0-2
			c0-4.5,0-9.8,0.4-14.3c0.1-0.8,0.2-1.6,0.2-2.4c0.3-2.4,0.5-4.8,0.7-7.3c0-0.8,0-1.6,0-2.3c0-0.8-0.1-1.5-0.2-2.3
			c-0.1-2.5-0.9-4.4-0.9-6.7c-0.1-0.8-0.2-1.5-0.2-2.3c0-0.8,0-1.6-0.1-2.3c0.6-8.4-0.3-17-0.4-25.7c0.1-0.8,0.1-1.6,0.2-2.4
			c0.3-4,0.3-7.8,0.3-11.4c0-8-0.5-16.1-0.3-24.2c0.2-7.5,0.2-14.9,0.2-22.4c0-0.9,0-1.9,0-2.8c-1-4.7-0.5-9.4-0.1-14
			c0-0.9,0-1.9,0-2.8c-0.1-14-0.2-28.1,0.5-42.3c0.5-4.7,1.3-9.5,1-14.7c-0.3-2.4-1.3-4.7-1.3-7.1c0.1-2.5,0.1-4.9,0.1-7.4
			c0-0.8,0-1.6,0-2.5c0.1-12.4-0.8-25.2-0.5-37.3c0-0.8,0-1.7,0-2.5c0.1-5,0.3-10,0.8-14.9c0-1.7-0.1-3.5-0.2-5.3
			c-0.3-7-0.5-13.9-0.4-21.2c0-0.7-0.1-1.4-0.1-2.2c-0.1-2.5-0.2-5.1-0.3-7.6c0-0.6,0-1.4,0-2.1c1.5-6.5,2.6-12.2,0.7-18.7
			c0-0.8,0-1.4,0-2.1c0.1-2,0.1-3.9,0.1-5.9c0-0.9,0-1.7,0-2.6c0-0.2,0-0.3,0-0.5h-1.3c0,2.8,0.1,5.6,0.2,8.3
			C284,9.2,283.9,10.1,283.9,10.9z"/>
		<path class="st0" d="M278.7,14.3c0,1-0.1,2-0.2,2.9c-1.4,7.5-1.9,15.1-1.1,23.3c0,0.9,0,1.8-0.1,2.6c0,1.4,0.5,3.8,0.8,5.7
			c0.3,6.6-0.3,12.8,1,18.9c0.8,4.3-0.3,8.5-0.9,12.8c-0.2,0.9-0.3,1.8-0.4,2.7c-0.5,3-0.5,5.8-0.1,8.7c0.1,0.8,0.1,1.5,0.2,2.3
			c0.1,2.2,0.3,4.5,0.4,6.7c0,0.8,0,1.6,0,2.5c0,0.7,0,1.4-0.1,2.2c-0.2,5-0.7,10.1-0.9,15.2c-0.2,3.3,0.5,6.3,0.9,9.6
			c0.1,0.7,0.1,1.3,0.2,2c0,0.7,0,1.5,0,2.2c0,0.8-0.1,1.5-0.1,2.2c0,0.5,0,1-0.1,1.5c0,0.5-0.1,1-0.1,1.5c-0.2,0.9-0.2,2.3-0.2,3.1
			c-0.1,1-0.1,2-0.2,2.9c0,0.8,0,1.5,0,2.3c0,2.3,0.2,4.6,0.7,6.9c0.1,0.9,0.1,1.8,0.1,2.6c0.1,4.4,0,8.8-0.2,13.2
			c0,0.9-0.1,1.8-0.1,2.7c-0.2,2.7-0.2,6-0.1,9c0,0.6,0,1.2,0,1.8v3.6v1.8c0,0.7,0.1,1.3,0.1,2c0,0.7,0.1,1.4,0.1,2
			c0.8,8.5,0.5,17.1,0,25.5c0,0.7,0,1.5-0.1,2.2c-0.1,3.7-0.2,7.5-0.3,11.2c0,0.9,0,1.8-0.1,2.7c0,0.9,0,1.8,0,2.7
			c0,0.9,0,1.8,0,2.7c0,3.6,0,7.2,0.1,10.8c0,1,0,1.9,0.1,2.8c0,5.7,0,11.4,0.1,17.3c0,0.7,0,1.4,0,2.1c0,2.2,0,4.5,0,6.9
			c0,0.8-0.1,1.6-0.1,2.4c0,0.8-0.1,1.7-0.1,2.5c-0.3,5.8,1,11.5,0.5,17.2c-0.3,5.7,0.3,10.9,0.3,16.1c-0.3,3.8-1,7.6-0.8,11.4
			c0,7.1,0.5,13.7,0.1,21c0,0.7,0,1.3,0.1,2c0,0.9,0,1.8,0,2.8c0,2.7,0.1,5.5,0.1,8.2c0,0.9,0,1.8,0,2.7c0,5.5,0.5,11.2,0.5,16.9
			c-0.3,9-0.5,17,0.5,26.1c0.4,3.2,0.1,6.6-0.4,9.9c-0.1,0.7-0.2,1.3-0.4,1.9c-2.3,7.3-0.9,15.4-0.3,23.2h0.9c0-0.2,0-0.4,0-0.7
			c-0.3-6.9-1.6-14.5,0.1-21.2c0.1-0.9,0.3-1.7,0.4-2.6c0.5-3.3,0.9-6.6,0.8-10.1c-0.3-3.8-1.3-7.1-1-10.9c0.3-10.9,0.3-20.8,0-31.7
			c0-0.9,0-1.9,0-2.8c0-4.4,0.8-8.6-0.2-13c0-0.6-0.1-1.3,0-1.9c0.2-5.1,0.2-9.9,0.2-15.1c-0.3-14.7,0-29.8-0.3-44.5
			c-0.1-3.8-0.1-7.5,0-11.3c0-0.8,0-1.5,0-2.3c0.3-9.2,0-18.2,0.2-27.3c0-0.8,0-1.5-0.1-2.3c0-0.8-0.1-1.5-0.1-2.3
			c0-0.7,0-1.5,0-2.2c0.5-4.6,0.2-8.8,0.3-13.7c0-0.7,0-1.5,0-2.2c0-0.7,0-1.5,0-2.2c0.1-1.6,0.1-3.2,0.1-4.8c0-0.6,0-1.3,0-1.8
			c-0.3-7.4,0.5-15.5-0.1-23.1c0-0.5,0-1.6-0.1-2.3c0-0.8-0.1-1.5-0.1-2.3c0-1,0-1.9,0-2.9v-12c0.3-3.9,0.4-7.9,0.4-11.9
			c0-0.7,0-1.3,0-2c-0.4-2.9,0.4-5.7-0.7-8.3c-0.1-0.7-0.2-1.5-0.2-2.2c-0.1-0.7-0.1-1.5-0.1-2.2c-0.4-3,0-6,0.3-9
			c0.1-0.7,0.1-1.5,0.1-2.2c0-0.7,0-1.4,0-2.1c0-0.7,0-1.4,0-2.2c0-0.8,0-1.6,0-2.4c0-1.6,0-3.2-0.1-4.8c0-0.8,0-1.6,0-2.4
			c-0.1-2.2-0.1-4.5,0-7.1c0-0.8,0-1.6,0-2.4c0-0.8,0-1.6,0-2.4c0-0.8,0-1.6,0.1-2.4c0.2-9.2-0.1-18.4,0.4-27.4
			c0-0.8,0.1-1.7,0.2-2.6c1.5-12.4-0.6-26.2-0.8-38.5c0-0.8-0.1-1.9-0.1-2.7c-2.3-7.7-0.2-14.3,0.7-22.5c0-0.8,0-1.7,0.1-2.5
			c0.1-4.5-0.1-9-0.5-13.4h-0.4C278.7,4.7,278.8,9.5,278.7,14.3z"/>
		<path class="st0" d="M275.3,14.6c0.5,8.2,1,15.8-0.8,23.6c-0.1,0.6-0.1,1.2-0.2,1.7c0,0.4-0.1,0.9-0.1,1.3
			c-0.5,7.1,1.3,14.2,0.8,21.8c-0.3,2.8,0.5,6.2,1.3,9c0.3,1.3,0.2,2.5,0.1,3.8c-0.1,0.6-0.2,1.3-0.3,1.9
			c-2.8,6.1-3.1,13.2-1.1,20.6c0,0.7,0,1.4,0.1,2c0,0.7,0,1.4,0.1,2c0,0.7,0,1.4-0.1,2.1c-0.2,4.2-0.5,8.5-1,13
			c-0.3,5.2,0.8,10,1.3,15.2c0.1,2.1,0,4.3-0.2,6.3c-0.1,0.7-0.1,1.4-0.2,2.1c-0.2,1.6-0.2,2.5-0.2,3.9c0,1,0,1.9,0,2.9
			c0.3,16.4,0.4,32.8,0.3,49.2c0.1,0.6,0.1,1.2,0.1,1.6c1.3,5.5,0.8,10.7-0.1,16.5c0,0.9-0.1,2-0.1,3c-0.1,10.3-0.2,20.6-0.3,30.9
			c0,0.9,0,1.9-0.1,2.8c-0.5,2.1-1,4.4-0.7,6.3c0.8,4.3,1.3,9,0.7,13.1c-0.1,0.6-0.2,1.2-0.3,1.7c-0.1,3.3-0.1,6.6-0.2,9.8
			c-0.1,1.3,0,2.6,0,3.9c0,0.6,0.1,1.3,0.1,2c1.4,19.2,0.3,39.1,0.7,58.4c0,0.8,0,1.7,0,2.6c0,11.7,0.1,23.3,0.2,35
			c0,1.9-0.8,4.7-0.8,6.6c0.4,9.4,0.8,18.2,0.8,27.3c0,0.8,0,1.6,0,2.5c-0.2,7.7-0.5,15.8-0.2,23.4c0,0.1,0,0.2,0,0.4h0.8
			c0-0.3,0-0.6,0-0.9c-0.5-7.1-0.2-14.7,0.3-22c0-0.9,0.1-1.8,0.1-2.7c0.3-8.9,0-17.3-0.6-26.5c-0.3-3.8,1.3-7.1,1-10.9
			c-0.5-10.1-0.7-20.2-0.8-30.2c0-0.8,0-1.7,0-2.5c-0.2-20.4,0.8-41.3-0.5-61.6c0.1-0.8,0.1-1.6,0.1-2.4c0-1.6,0.1-3.1,0.1-4.6
			c0-0.8,0-1.5,0.1-2.3c0-1.7,0-3.8,0.1-5.9c0-0.5,0-1,0-1.6c1.2-5.6-0.9-10.8-0.2-16.4c0.1-0.6,0.2-1.3,0.1-2.2
			c-0.2-10.6,0.1-21.3,0.5-31.9c0-0.8,0.1-1.6,0.1-2.4c1.2-6.7,2.5-13.9,0.3-20.6c-0.1-1.1-0.1-2-0.2-3c-0.3-9.9-0.7-19.8-0.2-30
			c0.3-4.1-0.2-8.3-0.5-12.4c-0.1-0.8-0.1-1.7-0.2-2.5c-0.1-4,0.2-8.8,0.7-12.9c0.1-0.7,0.1-1.3,0.2-2c0-0.7,0.1-1.3,0.1-1.9
			c-0.3-3.3-1.3-6.6-1.6-10c0-6.4,1-12.9,1.2-19.3c0-0.8,0-1.6,0-2.4c0-0.6-0.1-1.3-0.1-1.9c-0.1-0.7-0.2-1.5-0.2-2.1
			c-1.6-6-2.7-12.2,0.8-17.3c0.2-0.8,0.5-1.8,0.6-2.6c0.4-2.3,0.6-4.5,0.1-6.9c-1.6-6.6-0.5-13.7-1.3-20.9c-0.4-2.1-0.5-4.3-0.6-6.4
			c0-0.7,0-1.4,0-2.1c0.5-8.1,1.3-16.1,1.5-24.1c0-0.5,0-1.1,0-1.8c0-5-0.3-10-0.8-15h-1.3c0.3,4,0.5,8,0.5,11.9
			C275.3,12.8,275.3,13.7,275.3,14.6z"/>
		<path class="st0" d="M271.6,249.2c0-8.3,0-16.7,0-25c0-2.4,0.8-4.3,0.8-6.6c1-12.8-0.5-25.6,0-38.4c0.8-19.9-1.3-40.3-0.8-59.7
			c0.1-3.6,0.2-7.1,0.3-10.7c0-0.9,0-1.8,0.1-2.7c0.1-1.5,0.1-3,0.1-4.4c0-0.7,0-1.5,0-2.2c0-7.9-0.3-15.5,1.2-23.2
			c0.1-0.7,0.1-1.6,0.1-2.3c-1.3-11.2-1.3-22.2-1-33.1c0-0.9,0.1-1.8,0.1-2.8c2.2-7.2,2.2-12.9,0.5-20.4c0-0.5,0-1-0.1-1.6
			c0-5.4-0.2-10.7-0.6-16.1h-0.9c0,0.8,0.1,1.6,0.1,2.4c0.1,4.6,0.2,9.1,0.2,13.6c0,0.9,0,1.8,0,2.7c0.8,5.5,2.1,10.7,0.1,15.8
			c-0.1,1.1-0.2,2.1-0.3,3c-0.1,11.7-0.1,23.4,0.8,35.4c0.1,1,0.1,2.1,0.2,2.9c-0.8,8-0.8,16.1-1.1,24.3c0,0.8,0,1.5,0,2.3
			c0,0.8,0,1.5,0,2.3c0,0.6,0,1.3-0.1,1.9c-0.2,2.5-0.7,5-0.9,7.3v6.4c0.2,11.2,0.5,22.5,0.7,33.7c0,1.4,0.3,3.8,0.3,5.2
			c0,19,0.3,37.9,0,56.9c0,2.4-0.5,4.7-0.8,7.1c-0.1,3.1-0.1,6.3-0.2,9.4v9.5c0,2.2,0,4.3,0.1,6.5c0,0.5,0,1-0.1,1.5v3.1
			c0.1-0.4,0.3-0.8,0.3-1.3C271.3,251,271.5,250.1,271.6,249.2z"/>
		<path class="st0" d="M271.4,273.7c-0.3,1-0.3,1.9-0.3,2.8c0,2.8-0.1,5.6-0.2,8.3c-0.3,8.5,0.8,16.6,0.5,25.1
			c-0.3,24.6,0.8,48.8-0.3,73.4c-0.3,9.5,0.8,18.9,0.8,27.9c0,3.6,0,7.1-0.1,10.7c0,0.9,0,1.8,0,2.7c0.9,6,0.1,12.6-0.4,18.6
			c0,0.5,0,1.1,0,1.6h0.8c0-0.1,0-0.3,0-0.5c0.5-7.1,0.8-14.2,0.3-21.5c0-0.8,0.1-1.6,0.1-2.5c0.1-1.6,0.2-3.3,0.3-4.9
			c0.8-8.5-2.1-16.6-1.3-25.6c0.3-1.9,0.8-4.3,0.8-6.2c0.5-23.7-0.5-46.9,0-70.6c0-7.6-0.5-15.2-0.5-22.7c-0.1-4.5-0.2-9.1-0.2-13.7
			c0-0.9,0-1.8,0.2-2.8c2.2-5.5-0.2-10.1-1.2-15.5v3C272,265.3,273.3,269.6,271.4,273.7z"/>
		<path class="st0" d="M317.3,444.9h0.7v-4.6c-0.4-5.2-0.9-10.6,0-15.6V420c-0.1,0.6-0.2,1.2-0.3,1.7
			C315.4,429,316.7,437.2,317.3,444.9z"/>
		<path class="st0" d="M317.6,221.6c-0.1,3.7-0.2,7.5-0.3,11.2c0,0.9,0,1.8,0,2.7c0,0.9,0,1.8,0,2.7c0,0.9,0,1.8,0,2.7
			c0,3.6,0,7.2,0.1,10.8c0,1,0,1.9,0.1,2.8c0,5.7,0,11.4,0.1,17.3c0,0.7,0,1.4,0,2.1c0,2.2,0,4.5,0,6.9c0,0.8-0.1,1.6-0.1,2.4
			c0,0.8-0.1,1.7-0.1,2.5c-0.3,5.8,1,11.5,0.5,17.2c-0.3,5.7,0.3,10.9,0.3,16.1c-0.3,3.8-1,7.6-0.8,11.4c0,7.1,0.5,13.7,0.1,21
			c0,0.7,0,1.3,0.1,2c0,0.9,0,1.8,0,2.8c0,2.7,0.1,5.5,0.1,8.2c0,0.9,0,1.8,0,2.7c0,5.5,0.5,11.2,0.5,16.9
			c-0.2,7.2-0.4,13.8,0.1,20.7V213.1c-0.1,2.1-0.2,4.2-0.3,6.3C317.6,220.1,317.6,220.8,317.6,221.6z"/>
		<path class="st0" d="M317.1,83.3c-0.5,3-0.5,5.8-0.1,8.7c0.1,0.8,0.1,1.5,0.2,2.3c0.1,2.2,0.3,4.5,0.4,6.7c0,0.8,0,1.6,0,2.5
			c0,0.7,0,1.4-0.1,2.2c-0.2,5-0.7,10.1-0.9,15.2c-0.2,3.3,0.5,6.3,0.9,9.6c0.1,0.7,0.1,1.3,0.2,2c0,0.7,0,1.5,0,2.2
			c0,0.8-0.1,1.5-0.1,2.2c0,0.5,0,1-0.1,1.5c0,0.5-0.1,1-0.1,1.5c-0.2,0.9-0.2,2.3-0.2,3.1c-0.1,1-0.1,2-0.2,2.9c0,0.8,0,1.5,0,2.3
			c0,2.3,0.2,4.6,0.7,6.9c0.1,0.9,0.1,1.8,0.1,2.6c0.1,4.4,0,8.8-0.2,13.2c0,0.9-0.1,1.8-0.1,2.7c-0.2,2.7-0.2,6-0.1,9v1.8v3.6v1.8
			c0,0.7,0.1,1.3,0.1,2c0,0.7,0.1,1.4,0.1,2c0.2,1.7,0.2,3.4,0.3,5.2v-47.2c0-0.2-0.1-0.4-0.1-0.7c-0.1-0.7-0.1-1.5-0.1-2.2
			c-0.4-2.7-0.1-5.6,0.2-8.3v-17.9c0-1.3,0-2.7,0-4.1V77.8c-0.2,0.9-0.3,1.9-0.5,2.8C317.3,81.5,317.2,82.4,317.1,83.3z"/>
		<path class="st0" d="M317.7,17.2c-1.4,7.5-1.9,15.1-1.1,23.3c0,0.9,0,1.8,0,2.6c0,1.4,0.5,3.8,0.8,5.7c0.2,5.5,0,10.7,0.6,15.8
			V43.1c0-0.6,0-1.2-0.1-1.8c0-0.8-0.1-1.9-0.1-2.7c-1.9-6.3-0.8-11.9,0.1-18.2V7.5c0,2.3,0,4.6-0.1,6.9
			C317.8,15.3,317.8,16.4,317.7,17.2z"/>
		<path class="st0" d="M318,0h-0.3c0.1,1.7,0.2,3.4,0.3,5.1V0z"/>
		<path class="st0" d="M314.5,14.6c0.5,8.2,1,15.8-0.8,23.6c-0.1,0.6-0.1,1.2-0.2,1.7c0,0.4-0.1,0.9-0.1,1.3
			c-0.5,7.1,1.3,14.2,0.8,21.8c-0.3,2.8,0.5,6.2,1.3,9c0.3,1.3,0.2,2.5,0.1,3.8c-0.1,0.6-0.2,1.3-0.3,1.9
			c-2.8,6.1-3.1,13.2-1.1,20.6c0,0.7,0,1.4,0.1,2c0,0.7,0,1.4,0.1,2c0,0.7,0,1.4-0.1,2.1c-0.2,4.2-0.5,8.5-1,13
			c-0.3,5.2,0.8,10,1.3,15.2c0.1,2.1,0,4.3-0.2,6.3c-0.1,0.7-0.1,1.4-0.2,2.1c-0.2,1.6-0.2,2.5-0.2,3.9c0,1,0,1.9,0,2.9
			c0.3,16.4,0.4,32.8,0.3,49.2c0.1,0.6,0.1,1.2,0.1,1.6c1.3,5.5,0.8,10.7-0.1,16.5c0,0.9-0.1,2-0.1,3c-0.1,10.3-0.2,20.6-0.3,30.9
			c0,0.9,0,1.9,0,2.8c-0.5,2.1-1,4.4-0.7,6.3c0.8,4.3,1.3,9,0.7,13.1c-0.1,0.6-0.2,1.2-0.3,1.7c0,3.3-0.1,6.6-0.2,9.8
			c-0.1,1.3,0,2.6,0,3.9c0,0.6,0.1,1.3,0.1,2c1.4,19.2,0.3,39.1,0.7,58.4c0,0.8,0,1.7,0,2.6c0,11.7,0.1,23.3,0.2,35
			c0,1.9-0.8,4.7-0.8,6.6c0.4,9.4,0.8,18.2,0.8,27.3c0,0.8,0,1.6,0,2.5c-0.2,7.7-0.5,15.8-0.2,23.4c0,0.1,0,0.2,0,0.4h0.8
			c0-0.3,0-0.6,0-0.9c-0.5-7.1-0.2-14.7,0.3-22c0-0.9,0.1-1.8,0.1-2.7c0.3-8.9,0-17.3-0.6-26.5c-0.3-3.8,1.3-7.1,1-10.9
			c-0.5-10.1-0.7-20.2-0.8-30.2c0-0.8,0-1.7,0-2.5c-0.2-20.4,0.8-41.3-0.5-61.6c0.1-0.8,0.1-1.6,0.1-2.4c0-1.6,0.1-3.1,0.1-4.6
			c0-0.8,0-1.5,0.1-2.3c0-1.7,0-3.8,0.1-5.9c0-0.5,0-1,0-1.6c1.2-5.6-0.9-10.8-0.2-16.4c0.1-0.6,0.2-1.3,0.1-2.2
			c-0.2-10.6,0.1-21.3,0.5-31.9c0-0.8,0.1-1.6,0.1-2.4c1.2-6.7,2.5-13.9,0.3-20.6c-0.1-1.1-0.1-2-0.2-3c-0.3-9.9-0.7-19.8-0.2-30
			c0.3-4.1-0.2-8.3-0.5-12.4c-0.1-0.8-0.1-1.7-0.2-2.5c-0.1-4,0.2-8.8,0.7-12.9c0.1-0.7,0.1-1.3,0.1-2c0-0.7,0.1-1.3,0.1-1.9
			c-0.3-3.3-1.3-6.6-1.6-10c0-6.4,1-12.9,1.2-19.3c0-0.8,0-1.6,0-2.4c-0.1-0.6-0.1-1.3-0.1-1.9c-0.1-0.7-0.2-1.5-0.2-2.1
			c-1.6-6-2.7-12.2,0.8-17.3c0.2-0.8,0.5-1.8,0.6-2.6c0.4-2.3,0.6-4.5,0.1-6.9c-1.6-6.6-0.5-13.7-1.3-20.9c-0.4-2.1-0.5-4.3-0.6-6.4
			c0-0.7,0-1.4,0-2.1c0.5-8.1,1.3-16.1,1.5-24.1c0-0.5,0-1.1,0-1.8c0-5-0.3-10-0.8-15H314c0.3,4,0.5,8,0.5,11.9
			C314.5,12.8,314.5,13.7,314.5,14.6z"/>
		<path class="st0" d="M311.1,16c0,0.9,0,1.8,0,2.7c0.8,5.5,2.1,10.7,0.1,15.8c-0.1,1.1-0.2,2.1-0.3,3c-0.1,11.7-0.1,23.4,0.8,35.4
			c0.1,1,0.1,2.1,0.2,2.9c-0.8,8-0.8,16.1-1.1,24.3c0,0.8,0,1.5,0,2.3c0,0.8,0,1.5,0,2.3c0,0.6,0,1.3-0.1,1.9c-0.2,3.2-1,6.2-1,9
			c0.3,12.8,0.5,25.6,0.8,38.4c0,1.4,0.3,3.8,0.3,5.2c0,19,0.3,37.9,0,56.9c0,2.4-0.5,4.7-0.8,7.1c-0.3,8.5-0.3,17-0.1,25.4
			c0,0.9,0,1.9-0.3,2.9c-0.4,2.6-1.4,5.4-0.6,7.8c1.6,4.3,3.9,9.5,1.6,14.4c-0.3,1-0.3,1.9-0.3,2.8c0,2.8-0.1,5.6-0.2,8.3
			c-0.1,4.3,0.1,8.4,0.3,12.6c0.1,1.4,0.1,2,0.1,3.2c0.1,2.3,0.1,3.7,0.1,5.1c0,1.4,0,2.8,0,4.2c-0.3,24.6,0.8,48.8-0.3,73.4
			c-0.3,9.5,0.8,18.9,0.8,27.9c0,3.6-0.1,7.1-0.1,10.7c0,0.9,0,1.8,0,2.7c0.9,6,0.1,12.6-0.4,18.6c0,0.5,0,1.1,0,1.6h0.8
			c0-0.1,0-0.3,0-0.5c0.5-7.1,0.8-14.2,0.3-21.5c0-0.8,0.1-1.6,0.1-2.5c0.1-1.6,0.2-3.3,0.3-4.9c0.8-8.5-2.1-16.6-1.3-25.6
			c0.3-1.9,0.8-4.3,0.8-6.2c0.5-23.7-0.5-46.9,0-70.6c0-7.6-0.5-15.2-0.5-22.7c-0.1-4.5-0.2-9.1-0.2-13.7c0-0.9,0-1.8,0.2-2.8
			c2.7-6.7-1.5-11.9-1.5-19.1c0-1,0.5-1.9,0.7-3c0.3-0.9,0.5-1.8,0.6-2.7c0-8.3,0.1-16.7,0.1-25c0-2.4,0.8-4.3,0.8-6.6
			c1-12.8-0.5-25.6,0-38.4c0.8-19.9-1.3-40.3-0.8-59.7c0.1-3.6,0.2-7.1,0.3-10.7c0-0.9,0-1.8,0.1-2.7c0.1-1.5,0.1-3,0.1-4.4
			c0-0.7,0-1.5,0-2.2c0-7.9-0.3-15.5,1.2-23.2c0.1-0.7,0.1-1.6,0.1-2.3c-1.3-11.2-1.3-22.2-1-33.1c0-0.9,0.1-1.8,0.1-2.8
			c2.2-7.2,2.2-12.9,0.5-20.4c0-0.5,0-1-0.1-1.6c0-5.4-0.2-10.7-0.6-16.1h-0.9c0,0.8,0.1,1.6,0.1,2.4C311,7,311.1,11.5,311.1,16z"/>
		<path class="st0" d="M295.9,306.9c0.1,0.5,0.4,0.9,0.8,1.3c-0.1-0.2-0.2-0.3-0.3-0.5c-0.3-0.9-0.6-1.7-0.8-2.6
			c-0.1-0.5-0.3-1-0.3-1.6c-0.1-0.4-0.1-0.8-0.2-1.2c-0.1,0.7-0.1,1.4,0.1,2.3C295.3,305.4,295.6,306.2,295.9,306.9z"/>
		<path class="st0" d="M308,414.6c0.3-1.4,0.3-3.8,0-5.2c-2.3-10.9-1.6-22.3-0.8-33.2c0.4-11.6-0.9-22.2-0.5-33.6
			c0-0.9,0.1-1.8,0.1-2.6c0.9-8-0.5-15.7,0.4-23.6c0.1-0.6,0.2-1.2,0.5-2c0.2-0.8,0.5-1.8,1-3.3c0.2-0.6,0.3-1.1,0.5-1.7
			c0.1-0.6,0.3-1.2,0.4-1.8c0.7-3.2,1-6.9-0.4-9.5c0.2,0.6,0.4,1.2,0.4,1.8c0,0.4,0.1,0.8,0.1,1.2c0,1.6-0.2,3.3-0.3,4.9
			c0,0.1,0,0.2,0,0.3c0,0,0,0.1,0,0.1c0,0.5,0,1,0,1.5c-0.1,0.6-0.2,1.3-0.4,1.9c-0.4,1.9-1.1,3.7-2.2,5.4c0,0.6,0,1.3,0,1.9
			c-0.9,7.7-0.4,15.3-0.5,23.1c0,0.9,0,1.8,0,2.8c0,11.1,0.6,21.9,0.6,33.3c0,5.2-1.6,10.4-1,15.6c0.3,6.2,0.3,11.8,1.3,17.5
			c1,5.2-1,9.9-0.8,15.2c0,0.9,0,1.8,0,2.6c0,0.9,0,1.8,0,2.6c-0.3,5,0,10,0.1,15h0.6C306.6,434.7,306,424.5,308,414.6z"/>
		<path class="st0" d="M299,310.7c0.5,0.3,1,0.5,1.7,0.5c0.1,0,0.1,0,0.2,0c0.2,0,0.4-0.1,0.6-0.2c0.5-0.3,0.8-0.9,1.2-1.2
			c-0.8,0.2-1.5,0.2-2.1,0.1c-1.8-0.5-2.9-2.3-3.6-4.2c0.1,0.4,0.3,0.8,0.4,1.2C297.7,308.1,298.1,309.4,299,310.7z"/>
		<path class="st0" d="M296.7,308.3c0.6,1,1.3,1.9,2.3,2.4C298.4,309.8,297.4,309.1,296.7,308.3z"/>
		<path class="st0" d="M303.7,295.3c0.1,0,0.2,0,0.3,0C303.9,295.3,303.8,295.3,303.7,295.3z"/>
		<path class="st0" d="M306,20.2c0,0.7,0,1.4,0,2.1v8.8c-0.3,6.2-0.2,12.5-0.1,18.9c0,0.9,0,1.8,0,2.7c0.3,8,0.3,16.6-0.1,24.7
			c0,0.9,0,1.8,0,2.8c0,0.8,0,1.6,0.1,2.5c0.5,3.6,0.2,7,0.1,10.7c0,0.7,0,1.5,0,2.2c0.1,2.1,0.1,4.3,0.1,6.4c0,0.8,0,1.6,0,2.4
			c0,4.8-0.1,9.7-0.4,14.5c-0.3,3.3,0.3,7.1,0.3,10.3c0,0.9,0,1.8,0,2.6c0,0.6,0,1.2,0,1.8v2.6c-0.6,8.3,0.5,15.8,0.7,23.4
			c0.3,18.5,0.3,37-0.5,55c-0.3,10.4-0.8,21.3,0.1,32c0,0.5,0,1,0,1.5c0,0.5,0,1,0,1.5c0,0.9,0,1.8,0,2.7
			c-0.6,5.4-0.1,10.1,0.7,15.3c0,0.7-0.1,1.3-0.2,1.9c-0.2,0.7-0.3,1.5-0.3,2.3c0.2,1.2,0.4,2.3,0.6,3.6c0-1.4,0-2.8,0.3-4.1
			c0.2-0.7,0.3-1.4,0.3-2.1c-0.3-6.2-2.6-11.4-1.2-17.4c0-0.9,0-1.9,0.1-2.8c0-0.9,0-1.9,0-2.8c-0.2-8.3-1.3-16.3-0.5-24.9
			c0.5-2.8,1-5.7,1-8.1c-0.5-17.5,0.3-34.6,0-52.1c0-8.5-0.8-17.1-0.6-25.6v-1.8c0-0.9,0.1-1.8,0.1-2.7c0-0.9,0.1-1.8,0.1-2.7
			c0.1-4.2-0.9-9-0.4-13.2c0.3-3.3,0.5-6.7,0.6-10c0-0.8,0-1.7,0.1-2.5c-0.1-1.6-0.1-3.3-0.1-4.9c0-0.8,0.1-1.7,0.1-2.6
			c1.5-4.7,1.7-9.9-0.1-14.5c-0.2-1.1-0.2-2-0.2-2.8c0.2-7.7,0.5-15.8,0-23.6c0-0.9,0-1.7,0-2.6c-0.1-6.9-0.4-13.8,0-20.6v-6.7
			c0-0.7,0-1.4,0-2.1c-0.2-7.5,0.7-14.8,0.6-22.2h-0.9C306.5,6.7,306.1,13.4,306,20.2z"/>
		<path class="st0" d="M296.9,305.7c0-0.2-0.1-0.3-0.2-0.5c0,0,0,0.1,0,0.1C296.8,305.5,296.9,305.6,296.9,305.7z"/>
		<path class="st0" d="M299,310.8C299,310.8,299,310.8,299,310.8C299,310.7,299,310.7,299,310.8C299,310.7,299,310.8,299,310.8z"/>
		<path class="st0" d="M303.4,295.3c0.1,0,0.2,0,0.3,0C303.6,295.3,303.5,295.3,303.4,295.3z"/>
		<path class="st0" d="M307.6,290.5C307.7,290.5,307.7,290.4,307.6,290.5C307.7,290.4,307.7,290.5,307.6,290.5z"/>
		<path class="st0" d="M307.7,290.4c0.5-1.3,0.7-2.7,0.6-4.2C308.2,287.7,308.1,289.1,307.7,290.4z"/>
		<path class="st0" d="M307.1,275.4c0.1,3.7,1.1,7.5,1.2,10.8C308.4,282.8,307.8,279,307.1,275.4z"/>
		<path class="st0" d="M306.7,292.7c0.3-0.5,0.5-1,0.6-1.6c-0.4,0.7-0.9,1.4-1.6,2c-0.8,0.8-1.8,1.4-3,2
			C304.6,294.6,306.1,293.9,306.7,292.7z"/>
		<path class="st0" d="M307.4,291.1c0.1-0.2,0.2-0.4,0.3-0.7C307.6,290.7,307.5,290.9,307.4,291.1z"/>
		<path class="st0" d="M296.8,297.7c-0.4,0.3-0.8,0.7-1,1.1c-0.6,0.9-0.9,2.1-0.7,3.6c0.2-2.1,1.2-3.4,2.7-4.5
			c-1.1,1.3-1.8,2.9-1.5,5.1c0.1,0.7,0.2,1.3,0.4,2c0,0.1,0.1,0.2,0.1,0.3c-0.2-0.6-0.3-1.3-0.4-2c-0.3-2.5,0.5-4.4,1.8-5.7
			c1.2-0.8,2.6-1.4,3.9-2.1c0.4-0.1,0.9-0.2,1.3-0.2c-0.4,0-0.8,0.1-1.1,0.1c0.2-0.1,0.4-0.2,0.6-0.3c-1.7,0.6-3.6,1-5.1,1.9
			c-0.2,0.1-0.4,0.3-0.7,0.4C297,297.5,296.9,297.6,296.8,297.7z"/>
		<path class="st0" d="M307.6,296.3C307.6,296.3,307.6,296.3,307.6,296.3c0.7,0.5,1.1,1.1,1.5,1.7c-0.4-0.9-1-1.6-1.9-2.2
			c-0.9-0.4-2-0.6-3.2-0.6c0.7,0,1.4,0.2,2.1,0.4C306.6,295.9,307.1,296,307.6,296.3z"/>
	</g>
</g>
<polygon class="st3" points="23.4,536.9 13.9,536.9 13.9,508.3 0.6,473.8 10.7,473.8 18.7,496.2 18.9,496.2 26.6,473.8 36.5,473.8 
	23.4,508.4 "/>
<polygon class="st3" points="47.8,536.9 37.2,473.8 46.9,473.8 54,521.9 54.2,521.9 61.2,473.8 70.8,473.8 60.2,536.9 "/>
<g>
	<path class="st3" d="M107,488.9v33c0,9.9-5.9,15.9-15.4,15.9c-9.6,0-15.4-6-15.4-15.9v-33c0-9.9,5.9-15.9,15.4-15.9
		C101.2,472.9,107,479,107,488.9 M85.8,489v32.8c0,4.7,2.1,7.2,5.9,7.2s5.9-2.5,5.9-7.2V489c0-4.7-2.1-7.2-5.9-7.2
		S85.8,484.3,85.8,489"/>
	<polygon class="st3" points="138,536.9 125.5,495.1 125.3,495.1 125.3,536.9 116.3,536.9 116.3,473.8 126.9,473.8 138.2,511.4 
		138.4,511.4 138.4,473.8 147.4,473.8 147.4,536.9 	"/>
	<polygon class="st3" points="205.7,536.9 205.7,493.1 205.5,493.1 197.6,527.9 191.9,527.9 184,493.1 183.8,493.1 183.8,536.9 
		174.8,536.9 174.8,473.8 187.3,473.8 194.8,507.7 195,507.7 202.3,473.8 215.2,473.8 215.2,536.9 	"/>
	<path class="st3" d="M246.3,536.9l-2.1-14.3h-10.5l-2.1,14.3h-9.6l10.9-63.1h12.2l10.9,63.1H246.3z M235,513.9h8l-3.9-26.6h-0.3
		L235,513.9z"/>
	<path class="st3" d="M276.2,473.8c9.9,0,15.2,5.6,15.2,15.9v1.2c0,7-2.1,11.2-7.1,12.9v0.2c5.9,1.8,8.5,6.5,8.5,14.8v2.2
		c0,10.4-5.6,15.9-15.9,15.9h-14.1v-63.1H276.2z M272.4,499.9h3c4.6,0,6.5-2.3,6.5-7.7v-2.1c0-5.1-1.9-7.5-6-7.5h-3.4V499.9z
		 M272.4,528.1h4.1c4.6,0,6.7-2.4,6.7-7.8v-3.5c0-5.6-2.1-8.1-7.1-8.1h-3.7V528.1z"/>
	<rect x="300.5" y="473.8" class="st3" width="9.5" height="63.1"/>
	<polygon class="st3" points="345.8,527.9 345.8,536.9 320.3,536.9 320.3,473.8 329.8,473.8 329.8,527.9 	"/>
	<polygon class="st3" points="377.4,527.9 377.4,536.9 351.9,536.9 351.9,473.8 361.5,473.8 361.5,527.9 	"/>
	<path class="st3" d="M404.4,536.9l-2.1-14.3h-10.5l-2.1,14.3h-9.6l10.9-63.1h12.2l10.9,63.1H404.4z M393,513.9h8l-3.9-26.6h-0.3
		L393,513.9z"/>
	<path class="st3" d="M434,510.2h-4.4v26.7H420v-63.1h13.8c10.3,0,15.9,5.6,15.9,15.9v4.5c0,6.7-2.3,11.4-6.8,13.9l8.7,28.7h-10.1
		L434,510.2z M429.6,501.4h3.9c4.6,0,6.7-2.4,6.7-7.7v-3.2c0-5.3-2.1-7.8-6.7-7.8h-3.9V501.4z"/>
	<path class="st3" d="M472.3,473.8c10.3,0,15.9,5.6,15.9,15.9V521c0,10.4-5.6,15.9-15.9,15.9h-13.7v-63.1H472.3z M468.1,528.1h3.8
		c4.6,0,6.7-2.4,6.7-7.8v-29.9c0-5.3-2.1-7.7-6.7-7.7h-3.8V528.1z"/>
	<path class="st3" d="M14.7,569.4v0.2c0,3-1.2,4.9-4.9,8.7l3.3,5.1h0.1v-4.7l4.2,0.2v5.2c0,1.8-0.2,3.4-0.7,4.7l3.9,5.8h-5.7
		l-0.9-1.5c-1.4,1.3-3.2,1.9-5.4,1.9c-4.8,0-7.9-2.7-7.9-7.7v-1.1c0-2.9,0.9-5.3,3.5-8.2c-2.2-3.6-2.9-5.7-2.9-8.2v-0.3
		c0-4.6,2.4-7,6.8-7C12.4,562.5,14.7,565.1,14.7,569.4 M6.6,582c-0.9,1.7-1.2,2.9-1.2,4.3v0.7c0,2.6,1.4,3.8,3.3,3.8
		c1.1,0,2.1-0.4,2.8-1.1L6.6,582L6.6,582z M5.8,569.7v0.2c0,1.3,0.4,2.5,1.6,4.8h0.1c2-2.3,2.7-3.4,2.7-4.9v-0.2
		c0-1.6-0.8-2.6-2.2-2.6C6.7,567,5.8,567.9,5.8,569.7"/>
	<polygon class="st3" points="36.5,567.4 36.5,576.4 43.3,576.4 43.3,580.9 36.5,580.9 36.5,594.7 31.7,594.7 31.7,563 45,563 
		45,567.4 	"/>
	<rect x="48.2" y="563" class="st3" width="4.8" height="31.7"/>
	<polygon class="st3" points="71,590.2 71,594.7 58.1,594.7 58.1,563 62.9,563 62.9,590.2 	"/>
	<path class="st3" d="M86.9,569.7v0.8l-4.6,0.5v-1.2c0-1.8-0.9-2.8-2.4-2.8c-1.6,0-2.4,1-2.4,2.8v0.4c0,1.9,0.8,3.4,4,6.2
		c4.4,3.7,6,6.3,6,10.2v1.6c0,4.5-2.7,7.1-7.4,7.1c-4.8,0-7.4-2.6-7.4-7.1v-2.1l4.6-0.5v2.3c0,2,0.9,3,2.7,3c1.8,0,2.7-1,2.7-3v-1
		c0-2-1-3.6-4.2-6.3c-4.4-3.7-5.9-6.3-5.9-10.1v-0.7c0-4.5,2.6-7.1,7.2-7.1C84.3,562.5,86.9,565.1,86.9,569.7"/>
	<path class="st3" d="M110.8,569.7v0.8l-4.6,0.5v-1.2c0-1.8-0.9-2.8-2.4-2.8c-1.6,0-2.4,1-2.4,2.8v0.4c0,1.9,0.8,3.4,4,6.2
		c4.4,3.7,6,6.3,6,10.2v1.6c0,4.5-2.7,7.1-7.4,7.1c-4.8,0-7.4-2.6-7.4-7.1v-2.1l4.6-0.5v2.3c0,2,0.9,3,2.7,3c1.8,0,2.7-1,2.7-3v-1
		c0-2-1-3.6-4.2-6.3c-4.4-3.7-5.9-6.3-5.9-10.1v-0.7c0-4.5,2.6-7.1,7.2-7.1C108.2,562.5,110.8,565.1,110.8,569.7"/>
	<path class="st3" d="M124.8,594.7l-1-7.2h-5.3l-1,7.2h-4.8l5.5-31.7h6.1l5.5,31.7H124.8z M119.1,583.2h4l-1.9-13.4H121L119.1,583.2
		z"/>
	<path class="st3" d="M172.7,581.3h-2.2v13.5h-4.8v-31.8h7c5.2,0,8,2.8,8,8v2.3c0,3.4-1.2,5.7-3.4,7l4.4,14.5h-5.1L172.7,581.3z
		 M170.5,576.8h2c2.3,0,3.4-1.2,3.4-3.9v-1.6c0-2.7-1-3.9-3.4-3.9h-2V576.8z"/>
	<polygon class="st3" points="189.9,567.4 189.9,576.4 197,576.4 197,580.8 189.9,580.8 189.9,590.3 198.7,590.3 198.7,594.7 
		185.1,594.7 185.1,562.9 198.7,562.9 198.7,567.4 	"/>
	<polygon class="st3" points="206.4,594.7 201,562.9 205.9,562.9 209.5,587.2 209.6,587.2 213.2,562.9 218,562.9 212.6,594.7 	"/>
	<polygon class="st3" points="226.2,567.4 226.2,576.4 233.3,576.4 233.3,580.8 226.2,580.8 226.2,590.3 235,590.3 235,594.7 
		221.4,594.7 221.4,562.9 235,562.9 235,567.4 	"/>
	<polygon class="st3" points="246.9,567.4 246.9,594.7 242.1,594.7 242.1,567.4 236.9,567.4 236.9,562.9 252,562.9 252,567.4 	"/>
	<polygon class="st3" points="259.9,567.4 259.9,576.4 266.9,576.4 266.9,580.8 259.9,580.8 259.9,590.3 268.6,590.3 268.6,594.7 
		255.1,594.7 255.1,562.9 268.6,562.9 268.6,567.4 	"/>
	<polygon class="st3" points="288.3,594.7 288.3,572.6 288.2,572.6 284.2,590.2 281.3,590.2 277.3,572.6 277.2,572.6 277.2,594.7 
		272.7,594.7 272.7,562.9 279,562.9 282.8,580 282.9,580 286.6,562.9 293.1,562.9 293.1,594.7 	"/>
	<polygon class="st3" points="303.1,567.4 303.1,576.4 310.1,576.4 310.1,580.8 303.1,580.8 303.1,590.3 311.8,590.3 311.8,594.7 
		298.3,594.7 298.3,562.9 311.8,562.9 311.8,567.4 	"/>
	<polygon class="st3" points="326.9,594.7 320.5,573.6 320.4,573.6 320.4,594.7 315.9,594.7 315.9,562.9 321.3,562.9 326.9,581.9 
		327,581.9 327,562.9 331.6,562.9 331.6,594.7 	"/>
	<polygon class="st3" points="344.6,567.4 344.6,594.7 339.8,594.7 339.8,567.4 334.6,567.4 334.6,562.9 349.7,562.9 349.7,567.4 	
		"/>
	<path class="st3" d="M365.5,569.6v0.8l-4.6,0.5v-1.2c0-1.8-0.9-2.8-2.5-2.8c-1.6,0-2.5,1-2.5,2.8v0.4c0,1.9,0.8,3.5,4,6.2
		c4.4,3.7,6,6.4,6,10.2v1.6c0,4.5-2.7,7.1-7.5,7.1c-4.8,0-7.5-2.6-7.5-7.1v-2.1l4.6-0.5v2.3c0,2,0.9,3,2.7,3s2.7-1,2.7-3v-1
		c0-2-1-3.6-4.2-6.3c-4.4-3.7-5.9-6.4-5.9-10.1v-0.7c0-4.5,2.6-7.1,7.2-7.1C362.9,562.5,365.5,565,365.5,569.6"/>
	<path class="st3" d="M384.1,562.9c5.2,0,8,2.8,8,8v15.7c0,5.2-2.8,8-8,8h-6.9v-31.8H384.1z M382,590.3h1.9c2.3,0,3.4-1.2,3.4-3.9
		v-15.1c0-2.7-1-3.9-3.4-3.9H382V590.3z"/>
	<polygon class="st3" points="401.6,567.4 401.6,576.4 408.6,576.4 408.6,580.8 401.6,580.8 401.6,590.3 410.3,590.3 410.3,594.7 
		396.7,594.7 396.7,562.9 410.3,562.9 410.3,567.4 	"/>
	<path class="st3" d="M435.4,569.6v0.8l-4.6,0.5v-1.2c0-1.8-0.9-2.8-2.5-2.8c-1.6,0-2.5,1-2.5,2.8v0.4c0,1.9,0.8,3.5,4,6.2
		c4.4,3.7,6,6.4,6,10.2v1.6c0,4.5-2.7,7.1-7.5,7.1c-4.8,0-7.5-2.6-7.5-7.1v-2.1l4.6-0.5v2.3c0,2,0.9,3,2.7,3c1.8,0,2.7-1,2.7-3v-1
		c0-2-1-3.6-4.2-6.3c-4.4-3.7-5.9-6.4-5.9-10.1v-0.7c0-4.5,2.6-7.1,7.2-7.1C432.8,562.5,435.4,565,435.4,569.6"/>
	<path class="st3" d="M454,570.5v16.6c0,5-3,8-7.8,8c-4.8,0-7.8-3-7.8-8v-16.6c0-5,3-8,7.8-8C451.1,562.5,454,565.5,454,570.5
		 M443.3,570.5v16.5c0,2.4,1,3.6,3,3.6c1.9,0,3-1.3,3-3.6v-16.5c0-2.4-1-3.6-3-3.6C444.4,566.9,443.3,568.2,443.3,570.5"/>
	<polygon class="st3" points="471.6,590.2 471.6,594.7 458.7,594.7 458.7,562.9 463.5,562.9 463.5,590.2 	"/>
	<path class="st3" d="M487.6,569.6v0.8l-4.6,0.5v-1.2c0-1.8-0.9-2.8-2.5-2.8c-1.6,0-2.5,1-2.5,2.8v0.4c0,1.9,0.8,3.5,4,6.2
		c4.4,3.7,6,6.4,6,10.2v1.6c0,4.5-2.7,7.1-7.5,7.1c-4.8,0-7.5-2.6-7.5-7.1v-2.1l4.6-0.5v2.3c0,2,0.9,3,2.7,3c1.8,0,2.7-1,2.7-3v-1
		c0-2-1-3.6-4.2-6.3c-4.4-3.7-5.9-6.4-5.9-10.1v-0.7c0-4.5,2.6-7.1,7.2-7.1C485,562.5,487.6,565,487.6,569.6"/>
	<rect x="145.8" y="563" class="st3" width="2.9" height="31.7"/>
</g>
</svg>
