<?xml version="1.0" encoding="utf-8"?>
<!-- Generator: Adobe Illustrator 16.0.0, SVG Export Plug-In . SVG Version: 6.00 Build 0)  -->
<!DOCTYPE svg PUBLIC "-//W3C//DTD SVG 1.1//EN" "http://www.w3.org/Graphics/SVG/1.1/DTD/svg11.dtd">
<svg version="1.1" id="Layer_1" xmlns="http://www.w3.org/2000/svg" xmlns:xlink="http://www.w3.org/1999/xlink" x="0px" y="0px"
	 width="248.555px" height="64.178px" viewBox="0 0 248.555 64.178" enable-background="new 0 0 248.555 64.178"
	 xml:space="preserve">
<g>
	<g>
		<path fill-rule="evenodd" clip-rule="evenodd" fill="#FFFFFF" d="M-122.849,60.26c-29.271,0.102-49.892-28.76-49.896-57.623
			C-143.881,2.632-123.26,31.493-122.849,60.26L-122.849,60.26z"/>
		<path fill-rule="evenodd" clip-rule="evenodd" d="M-148.001,31.498V23.25l0,0c0.567,0,1.032,3.705,1.032,8.248
			s-0.462,8.245-1.03,8.245s-1.032-3.702-1.032-8.245c-0.002-4.543,0.46-8.248,1.03-8.248V31.498L-148.001,31.498z"/>
	</g>
	<g>
		<path fill-rule="evenodd" clip-rule="evenodd" fill="#FFFFFF" d="M-102.836,60.391c29.059-0.041,49.672-28.907,49.669-57.77
			C-82.031,2.627-102.645,31.49-102.836,60.391L-102.836,60.391z"/>
		<ellipse fill-rule="evenodd" clip-rule="evenodd" cx="-77.905" cy="31.487" rx="1.031" ry="8.247"/>
	</g>
</g>
<g>
	<polygon fill-rule="evenodd" clip-rule="evenodd" fill="#FFFFFF" points="222.211,64.146 222.202,0.004 248.545,0 248.547,14.891 
		231.368,14.893 231.37,24.057 246.26,24.055 246.262,38.943 231.372,38.945 231.372,49.254 248.553,49.252 248.555,64.143 
		222.211,64.146 	"/>
	<polygon fill-rule="evenodd" clip-rule="evenodd" fill="#FFFFFF" points="199.303,64.148 190.141,64.15 190.133,0.009 
		199.295,0.008 208.463,32.076 208.458,0.006 217.622,0.005 217.631,64.146 208.467,64.148 199.299,32.078 199.303,64.148 	"/>
	<path fill-rule="evenodd" clip-rule="evenodd" fill="#FFFFFF" d="M167.229,27.502l4.58-0.001c4.582-0.001,4.582-3.386,4.582-5.728
		c0-2.34-0.004-5.728-4.582-5.727h-4.582L167.229,27.502 M158.061,0.014l13.744-0.002c13.746-0.002,13.746,11.453,13.748,16.033
		c0,4.582,1.146,14.891-5.725,18.327c6.873,3.435,5.729,10.308,5.729,13.743c0,3.437,0.002,6.925,0.002,11.455
		c0,2.289,1.146,3.436,2.291,4.58l-9.162,0.001c-2.291,0-2.291-2.29-2.291-4.58c-0.002-4.582-0.002-8.019-0.002-11.454
		c0-4.582-1.148-6.873-4.584-6.872l-4.58,0.001l0.002,22.906l-9.162,0.002L158.061,0.014"/>
	<path fill-rule="evenodd" clip-rule="evenodd" fill="#FFFFFF" d="M153.487,38.957c0,11.454-3.711,25.199-13.742,25.201
		c-11.453,0.001-13.746-16.035-13.748-25.197l-0.006-38.943l9.164-0.001l0.006,38.942c0,4.581,0,11.455,4.582,11.454
		s4.58-6.873,4.58-11.455l-0.006-38.942l9.164-0.002L153.487,38.957L153.487,38.957z"/>
	<polygon fill-rule="evenodd" clip-rule="evenodd" fill="#FFFFFF" points="103.338,16.021 93.924,16.059 93.92,0.022 121.411,0.019 
		121.413,16.055 112.249,16.057 112.256,64.162 103.092,64.162 103.338,16.021 	"/>
	<path fill-rule="evenodd" clip-rule="evenodd" fill="#FFFFFF" d="M93.122,38.934c0,4.582-3.773,25.23-12.936,25.232
		c-0.715,0-3.924,0-4.582,0C66.44,64.168,63.002,44.983,63,32.098c-0.002-9.949,3.432-32.071,12.594-32.072
		c0.771,0,3.861-0.001,4.582-0.001C89.34,0.023,92.778,20.926,92.78,25.221l-9.164,0.002c0-4.582-1.146-11.454-5.729-11.453
		c-4.582,0-5.725,13.744-5.725,18.326c0.002,4.581,1.148,18.326,5.73,18.326s5.725-6.873,5.725-11.455L93.122,38.934L93.122,38.934z
		"/>
	<path fill-rule="evenodd" clip-rule="evenodd" fill="#FFFFFF" d="M43.533,64.171C34.37,64.172,30.932,43.557,30.93,32.102
		c-0.002-11.452,3.432-32.069,12.595-32.07c0.979,0,3.741-0.001,4.581-0.001c9.163-0.001,12.602,20.614,12.604,32.067
		C60.59,43.414,57.278,64.169,48.114,64.17C45.822,64.171,45.824,64.171,43.533,64.171 M45.822,50.426
		c4.581,0,5.725-13.744,5.724-18.326c0-4.581-1.147-18.325-5.729-18.324c-4.582,0-5.726,13.745-5.725,18.325
		C40.094,36.683,41.24,50.428,45.822,50.426"/>
	<polygon fill-rule="evenodd" clip-rule="evenodd" fill="#FFFFFF" points="9.291,64.082 0.01,64.178 0,0.035 9.163,0.034 
		18.33,32.104 18.326,0.033 27.489,0.031 27.498,64.174 18.335,64.175 9.168,32.105 9.291,64.082 	"/>
</g>
<g>
	<text transform="matrix(1 -1.000000e-004 1.000000e-004 1 4.0137 86.9438)" font-family="'Myriad-Roman'" font-size="20.0248">TECHNIQUES DU SPECT</text>
	
		<text transform="matrix(1 -1.000000e-004 1.000000e-004 1 4.0137 86.9438)" fill="none" stroke="#000000" font-family="'Myriad-Roman'" font-size="20.0248">TECHNIQUES DU SPECT</text>
	<text transform="matrix(1 -1.000000e-004 1.000000e-004 1 198.1509 86.9243)" font-family="'Myriad-Roman'" font-size="20.0248">A</text>
	
		<text transform="matrix(1 -1.000000e-004 1.000000e-004 1 198.1509 86.9243)" fill="none" stroke="#000000" font-family="'Myriad-Roman'" font-size="20.0248">A</text>
	<text transform="matrix(1 -1.000000e-004 1.000000e-004 1 210.106 86.9224)" font-family="'Myriad-Roman'" font-size="20.0248">CLE</text>
	
		<text transform="matrix(1 -1.000000e-004 1.000000e-004 1 210.106 86.9224)" fill="none" stroke="#000000" font-family="'Myriad-Roman'" font-size="20.0248">CLE</text>
</g>
</svg>
