<?xml version="1.0" encoding="utf-8"?>
<!-- Generator: Adobe Illustrator 16.0.0, SVG Export Plug-In . SVG Version: 6.00 Build 0)  -->
<!DOCTYPE svg PUBLIC "-//W3C//DTD SVG 1.1//EN" "http://www.w3.org/Graphics/SVG/1.1/DTD/svg11.dtd">
<svg version="1.1" id="Layer_1" xmlns="http://www.w3.org/2000/svg" xmlns:xlink="http://www.w3.org/1999/xlink" x="0px" y="0px"
	 width="423.333px" height="61.5px" viewBox="0 0 423.333 61.5" enable-background="new 0 0 423.333 61.5" xml:space="preserve">
<g>
	<g>
		<path fill-rule="evenodd" clip-rule="evenodd" fill="#FFFFFF" d="M51.663,59.304C22.392,59.406,1.771,30.544,1.768,1.681
			C30.631,1.676,51.252,30.538,51.663,59.304L51.663,59.304z"/>
		<path fill-rule="evenodd" clip-rule="evenodd" d="M26.511,30.542v-8.248l0,0c0.567,0,1.032,3.705,1.032,8.248
			s-0.462,8.245-1.03,8.245s-1.032-3.702-1.032-8.245c-0.002-4.543,0.46-8.248,1.03-8.248V30.542L26.511,30.542z"/>
	</g>
	<g>
		<path fill-rule="evenodd" clip-rule="evenodd" fill="#FFFFFF" d="M71.676,59.435c29.059-0.041,49.672-28.907,49.669-57.77
			C92.481,1.671,71.867,30.535,71.676,59.435L71.676,59.435z"/>
		<ellipse fill-rule="evenodd" clip-rule="evenodd" cx="96.608" cy="30.531" rx="1.031" ry="8.247"/>
	</g>
</g>
<g>
	<polygon fill-rule="evenodd" clip-rule="evenodd" fill="#FFFFFF" points="396.724,63.191 396.714,-0.952 423.058,-0.956 
		423.06,13.935 405.88,13.937 405.882,23.101 420.772,23.099 420.774,37.988 405.884,37.99 405.884,48.298 423.065,48.296 
		423.067,63.187 396.724,63.191 	"/>
	<polygon fill-rule="evenodd" clip-rule="evenodd" fill="#FFFFFF" points="373.815,63.193 364.653,63.195 364.646,-0.947 
		373.808,-0.948 382.976,31.121 382.97,-0.95 392.134,-0.951 392.144,63.191 382.979,63.193 373.812,31.123 373.815,63.193 	"/>
	<path fill-rule="evenodd" clip-rule="evenodd" fill="#FFFFFF" d="M341.741,26.546l4.58-0.001c4.582-0.001,4.582-3.386,4.582-5.728
		c0-2.34-0.004-5.728-4.582-5.727h-4.582L341.741,26.546 M332.573-0.942l13.744-0.002c13.746-0.002,13.746,11.453,13.748,16.033
		c0,4.582,1.146,14.891-5.725,18.327c6.873,3.435,5.729,10.308,5.729,13.743c0,3.437,0.002,6.925,0.002,11.455
		c0,2.289,1.146,3.436,2.291,4.58l-9.162,0.001c-2.291,0-2.291-2.29-2.291-4.58c-0.002-4.582-0.002-8.019-0.002-11.454
		c0-4.582-1.148-6.873-4.584-6.872l-4.58,0.001l0.002,22.906l-9.162,0.002L332.573-0.942"/>
	<path fill-rule="evenodd" clip-rule="evenodd" fill="#FFFFFF" d="M327.999,38.001c0,11.454-3.711,25.199-13.742,25.201
		c-11.453,0.001-13.746-16.035-13.748-25.197l-0.006-38.943l9.164-0.001l0.006,38.942c0,4.581,0,11.455,4.582,11.454
		s4.58-6.873,4.58-11.455L318.829-0.94l9.164-0.002L327.999,38.001L327.999,38.001z"/>
	<polygon fill-rule="evenodd" clip-rule="evenodd" fill="#FFFFFF" points="277.851,15.066 268.437,15.103 268.433,-0.933 
		295.923,-0.937 295.925,15.099 286.761,15.101 286.769,63.207 277.604,63.207 277.851,15.066 	"/>
	<path fill-rule="evenodd" clip-rule="evenodd" fill="#FFFFFF" d="M267.634,37.978c0,4.582-3.773,25.23-12.936,25.232
		c-0.715,0-3.924,0-4.582,0c-9.164,0.002-12.602-19.183-12.604-32.068c-0.002-9.949,3.432-32.071,12.594-32.072
		c0.771,0,3.861-0.001,4.582-0.001c9.164-0.001,12.602,20.901,12.604,25.196l-9.164,0.002c0-4.582-1.146-11.454-5.729-11.453
		c-4.582,0-5.725,13.744-5.725,18.326c0.002,4.581,1.148,18.326,5.73,18.326s5.725-6.873,5.725-11.455L267.634,37.978
		L267.634,37.978z"/>
	<path fill-rule="evenodd" clip-rule="evenodd" fill="#FFFFFF" d="M218.045,63.215c-9.163,0.001-12.602-20.614-12.604-32.069
		c-0.002-11.452,3.432-32.069,12.595-32.07c0.979,0,3.741-0.001,4.581-0.001c9.163-0.001,12.602,20.614,12.604,32.067
		c-0.119,11.316-3.432,32.071-12.595,32.072C220.334,63.215,220.336,63.215,218.045,63.215 M220.334,49.47
		c4.581,0,5.725-13.744,5.724-18.326c0-4.581-1.147-18.325-5.729-18.324c-4.582,0-5.726,13.745-5.725,18.325
		C214.606,35.727,215.752,49.472,220.334,49.47"/>
	<polygon fill-rule="evenodd" clip-rule="evenodd" fill="#FFFFFF" points="183.803,63.126 174.522,63.222 174.512,-0.92 
		183.675,-0.921 192.842,31.148 192.838,-0.922 202.001,-0.924 202.01,63.218 192.847,63.219 183.68,31.15 183.803,63.126 	"/>
</g>
<g>
	<text transform="matrix(1 -1.000000e-004 1.000000e-004 1 178.5259 85.9883)" font-family="'Myriad-Roman'" font-size="20.0248">TECHNIQUES DU SPECT</text>
	
		<text transform="matrix(1 -1.000000e-004 1.000000e-004 1 178.5259 85.9883)" fill="none" stroke="#000000" font-family="'Myriad-Roman'" font-size="20.0248">TECHNIQUES DU SPECT</text>
	<text transform="matrix(1 -1.000000e-004 1.000000e-004 1 372.6631 85.9688)" font-family="'Myriad-Roman'" font-size="20.0248">A</text>
	
		<text transform="matrix(1 -1.000000e-004 1.000000e-004 1 372.6631 85.9688)" fill="none" stroke="#000000" font-family="'Myriad-Roman'" font-size="20.0248">A</text>
	<text transform="matrix(1 -1.000000e-004 1.000000e-004 1 384.6182 85.9668)" font-family="'Myriad-Roman'" font-size="20.0248">CLE</text>
	
		<text transform="matrix(1 -1.000000e-004 1.000000e-004 1 384.6182 85.9668)" fill="none" stroke="#000000" font-family="'Myriad-Roman'" font-size="20.0248">CLE</text>
</g>
</svg>
