<?xml version="1.0" encoding="utf-8"?>
<!-- Generator: Adobe Illustrator 21.1.0, SVG Export Plug-In . SVG Version: 6.00 Build 0)  -->
<svg version="1.1" id="Calque_1" xmlns="http://www.w3.org/2000/svg" xmlns:xlink="http://www.w3.org/1999/xlink" x="0px" y="0px"
	 viewBox="0 0 479.5 136.8" style="enable-background:new 0 0 479.5 136.8;" xml:space="preserve">
<g>
	<g>
		<path d="M15.5,119.6c0,3.1,0,5.9,0,8.9c-2.3,0.5-4.4,0.2-6.5,0.3c-0.5-2.1-0.7-64.1-0.3-73.4c2.2,0,4.3,0,6.7,0
			c0,9.6,0,19.2,0,28.8c0.9,0,1.2-0.6,1.6-1.1c7.7-8.1,17.1-10.7,27.6-7.5c10.3,3.1,16.8,10.4,18.8,21c2.3,12.1-1.7,21.9-11.7,29.1
			c-9.5,6.7-25.2,6.6-34.2-4.1C17,121,16.5,120.2,15.5,119.6z M35.7,123.5c1.8,0,3.5-0.1,5.1-0.5c12.5-3,19.4-16.4,14.8-28.6
			c-3.4-9-11.8-14.6-21.4-13.7c-7.4,0.6-16.2,5.4-18.6,16.1c-0.6,2.7-0.7,5.5-0.4,8.3C16.3,114.9,25.1,123.8,35.7,123.5z"/>
		<path d="M266.8,102.7c-15.9,0-31.6,0-47.3,0c-0.9,7.4,4.1,16.7,12.3,19.8c5.3,2,10.6,1.8,15.9-0.3c4.7-1.8,6.4-3.5,11.8-10.9
			c1.9,0.9,3.8,1.7,5.6,3.1c-4,8.1-10.1,13.4-19,15.2c-4.5,0.9-9.1,0.8-13.6-0.1c-7.2-1.6-12.4-5.9-16.3-12.1
			c-7.9-12.6-4.3-30.1,7.9-38.6c5.3-3.7,11.3-4.8,17.5-4.4c9.9,0.7,17.3,5.7,22,14.4C266,92.8,267.1,98.4,266.8,102.7z M220,96.8
			c13.1,0,26.1,0,39.1,0c-1.1-8.2-8.9-15-17.4-15.7C230.3,80.2,222.3,87,220,96.8z"/>
		<path d="M137,102.8c-15.9,0-31.7,0-47.4,0c-1.2,6.3,3.4,15.9,11.4,19.4c5.4,2.4,10.8,2.1,16.3,0.2c5.6-2,9.2-6.2,12.2-11.2
			c1.9,1,3.7,2,5.6,2.9c-0.2,1.3-1,2.2-1.6,3.2c-5.4,8.4-13,12.7-23,12.8c-5,0.1-9.9-0.6-14.3-3.1c-7.6-4.4-12.1-11.1-13.5-19.7
			c-1.6-9.5,1-18,7.7-25.2c4.6-4.9,10.4-7.3,17-7.8c5.3-0.4,10.4,0.4,15.1,2.9c7.5,4,12.1,10.2,13.9,18.5
			C136.8,98,136.9,100.2,137,102.8z M90.1,96.8c13.2,0,26.2,0,39.2,0C127.3,86.4,118.5,81,109.6,81C99.4,81,92.2,87.5,90.1,96.8z"/>
		<path d="M473.1,102.7c-16,0-31.7,0-47.4,0c-1.4,6.2,3.5,15.9,11,19.3c5.5,2.5,11,2.3,16.5,0.4c5.7-1.9,9.2-6.1,12.1-11.1
			c1.2,0.2,2.1,0.9,3.1,1.4c0.9,0.5,1.9,0.8,2.7,1.6c-3.5,7.1-8.7,12.2-16.3,14.5c-5.9,1.8-11.8,1.7-17.7,0.1
			c-8-2.2-13.2-7.7-16.4-15c-5.3-11.9-2.1-26.2,8.8-34.7c3.8-3,8.3-4.5,13.1-4.9c8-0.7,15.3,1.1,21.3,6.6c5.4,4.9,8.4,11,9,18.2
			C473,100.3,473,101.4,473.1,102.7z M465.3,96.8c-1.8-10.3-10.8-15.9-20-15.8c-10.1,0.1-17.6,7.2-18.9,15.8
			C439.3,96.8,452.3,96.8,465.3,96.8z"/>
		<path d="M390.4,75.8c2.4-0.1,4.6-0.2,6.6,0.1c0.4,0.7,0.3,1.4,0.3,2c0,8.6,0.1,17.1,0,25.7c0,3.7-0.3,7.3-1.2,10.9
			c-2.3,8.5-7.7,13.6-16.3,15.2c-4.4,0.8-8.8,0.8-13.1-0.3c-8.1-2.1-13-7.5-14.8-15.6c-0.8-3.4-1.1-6.9-1.1-10.5
			c0-8.6,0-17.3,0-25.9c0-0.5-0.1-1,0.4-1.6c2-0.1,4.1-0.1,6.2,0c0.5,0.9,0.3,1.8,0.3,2.7c0,9,0.1,18.1,0,27.1c0,2,0.2,4,0.6,6
			c0.9,5,3.8,8.6,8.5,10.6c4.8,2,9.9,2.1,14.7,0c5.7-2.5,8.5-7.1,8.8-13.2c0.2-3.3,0.2-6.5,0.2-9.8c0-6.9,0-13.8,0-20.6
			C390.4,77.7,390.4,76.9,390.4,75.8z"/>
		<path d="M308.2,114.5c6.1-13.2,11.9-25.9,17.8-38.6c2.4,0,4.7,0,7,0c0,1-0.5,1.6-0.8,2.3c-7.4,16.2-14.9,32.3-22.3,48.5
			c-0.2,0.5-0.4,1-0.7,1.5c-0.5,0.8-1.4,0.7-1.9,0c-0.3-0.4-0.4-0.9-0.6-1.3c-7.7-16.7-15.4-33.4-23-50c-0.1-0.2-0.2-0.4-0.3-0.9
			c2.3-0.4,4.6-0.1,7.1-0.2C296.2,88.5,302.1,101.2,308.2,114.5z"/>
		<path d="M163.5,128.5c-0.6,0.4-1.2,0.2-1.8,0.2c-1.5,0-3,0-4.6,0c0-24.6,0-48.9,0-73.4c2.1-0.3,4.2-0.1,6.3-0.1
			C163.9,57.1,164,125.9,163.5,128.5z"/>
		<path d="M185.4,55.3c2.3,0,4.3,0,6.4,0c0.5,1.9,0.7,67.6,0.2,73.4c-2.1,0.2-4.3,0.2-6.6,0C185.4,104.2,185.4,79.8,185.4,55.3z"/>
		<path d="M13,19.8c3,0,5.7,0,8.4,0c1.4,0,2.9,0.2,4.2,0.7c3.7,1.5,4.9,3.9,4.5,8.6c-1.3,0.3-2.6,0.1-3.8,0.1
			c-0.5-0.6-0.3-1.2-0.3-1.7c-0.2-2.5-1.2-3.7-3.9-4c-2.9-0.3-5.9-0.1-8.9-0.1c-0.5,1.9,0,3.8-0.3,5.7c-1.3,0.4-2.6,0.2-3.9,0.1
			c-0.1-0.3-0.2-0.5-0.2-0.7c0-5.7,0-11.3-0.1-17c0-1.6,0.9-2.3,2.1-2.2c1.5,0,2.2,0.5,2.2,2.1C13,14.1,13,16.8,13,19.8z"/>
		<path d="M455.6,23.4c0,2,0,3.8,0,5.7c-1.5,0.3-2.8,0.2-4.4,0.1c0-2.6,0-5,0-7.5c0-1.3,0.5-1.7,1.7-1.9c1-0.1,1.9,0,2.9,0
			c2.8,0,5.6,0,8.4,0c1.2,0,2.4,0.1,3.5,0.6c3.9,1.5,5.4,4.1,4.9,8.8c-1.3,0.2-2.6,0.1-3.8,0c-0.4-0.7-0.2-1.4-0.3-2
			c-0.2-2.1-1.3-3.4-3.4-3.7C462,23.2,458.9,23.4,455.6,23.4z"/>
		<path d="M314.5,29.3c1.4-2.2,3.1-3.6,4.2-5.6c-0.8-0.5-1.7-0.3-2.4-0.3c-3.1,0-6.2,0-9.3,0c-0.6,0-1.1,0-1.7-0.1
			c-0.9-0.2-1.4-0.7-1.4-1.6c0-0.9,0.4-1.5,1.3-1.7c0.5-0.1,1.1-0.1,1.7-0.1c5.2,0,10.4,0,15.6,0c0.2,0,0.3,0,0.5,0
			c0.9,0,1.8,0,2.3,0.9c0.6,1-0.1,1.8-0.7,2.6c-1.3,1.7-2.7,3.3-4.1,5c-0.5,0.7-1.1,1-2,1C317.2,29.2,316,29.3,314.5,29.3z"/>
		<path d="M86.8,34.6c0.4,4.2,2.4,6.1,6.1,6.3c4.2,0.2,6.4-1.7,7.2-6.3c1.2,0,2.5,0,3.9,0c0.6,2.4-0.2,4.5-1.8,6.3
			c-4.4,4.9-13.2,4.9-17.6,0c-1.6-1.8-2.1-3.4-1.9-6.3C84,34.4,85.3,34.6,86.8,34.6z"/>
		<path d="M381.4,34.5c0.6,4.4,2.7,6.4,6.6,6.4c4,0,6.1-1.9,6.8-6.3c1.3-0.2,2.6-0.1,4,0c0.4,2.7-0.4,4.8-2.2,6.6
			c-4.4,4.6-12.7,4.6-17.1,0c-1.7-1.8-2.5-3.9-2.2-6.4C378.6,34.3,380,34.7,381.4,34.5z"/>
		<path d="M315.1,34.8c-1.6,2-3.1,3.9-4.6,5.8c0.3,0.8,1,0.6,1.5,0.6c3.3,0,6.7,0,10,0c0.6,0,1.1,0,1.7,0c1.1,0.1,1.7,0.6,1.7,1.6
			c0,0.9-0.5,1.6-1.6,1.8c-0.5,0.1-1,0.1-1.4,0.1c-5.3,0-10.5,0-15.8,0c-0.5,0-1,0-1.4-0.1c-1.2-0.3-1.7-1.2-1.1-2.4
			c0.3-0.6,0.7-1.1,1.1-1.6c0.8-1.1,1.7-2.1,2.6-3.2C310.4,34.1,310.4,34.1,315.1,34.8z"/>
		<path d="M86.7,29.2c-1.4,0-2.7,0-4.1,0c-0.3-2.2,0.4-4,1.8-5.5c1.8-2.1,4.2-3.4,7-3.7c3.7-0.4,7.2,0.2,10,2.8
			c1.8,1.7,2.9,3.7,2.6,6.4c-1.3,0-2.6,0-4,0c-0.3-1.8-0.9-3.6-2.7-4.7c-1.5-0.9-3.1-1.2-4.8-1.1C89.2,23.7,87.4,25.5,86.7,29.2z"/>
		<path d="M398.8,29.2c-1.4,0-2.6,0-4,0c-0.4-1.9-1-3.8-2.9-4.8c-1.5-0.8-3-1.1-4.6-1c-3.3,0.3-5.2,2.1-5.8,5.7
			c-1.3,0.3-2.6,0.2-4.1,0.1c-0.4-2.2,0.4-4,1.7-5.5c1.8-2.1,4.2-3.4,7-3.7c3.7-0.4,7.2,0.1,10,2.7C398,24.4,399,26.4,398.8,29.2z"
			/>
		<path d="M171.3,23.5c-2.9,0-5.6,0-8.5,0c0,1.9,0,3.7,0,5.6c-1.4,0.2-2.6,0.2-3.9,0.1c-0.4-2.7-0.1-5.4-0.1-8.1c0-0.6,0.5-1,1-1.1
			c0.5-0.1,1.1-0.1,1.7-0.1c3.8,0,7.7,0,11.5,0c2.6,0,2.8,0.2,2.8,2.9c0,0.8,0,1.6,0,2.4c-0.1,1.3-0.5,1.7-1.7,1.8
			c-1.4,0.1-2.1-0.2-2.4-1.4C171.5,24.9,171.5,24.3,171.3,23.5z"/>
		<path d="M8.6,34.6c1.5,0,2.8,0,4.3,0c0,2.8,0,5.6,0,8.3c0,1.2-0.8,1.7-2.1,1.7c-1.4,0-2.1-0.5-2.1-1.7C8.6,40.2,8.6,37.6,8.6,34.6
			z"/>
		<path d="M26.3,34.6c1.2,0,2.4,0,3.6,0c0.6,0.7,0.3,1.5,0.4,2.3c0,2,0.1,4,0,6c0,1.3-0.7,1.8-2,1.8c-1.3,0-2.2-0.5-2.2-1.6
			c0-2.8-0.3-5.5,0.2-8.3C26.2,34.7,26.2,34.7,26.3,34.6z"/>
		<path d="M238.6,34.6c1.5,0,2.8,0,4.3,0c0,2.8,0,5.6,0,8.3c0,1.2-0.8,1.7-2.1,1.7c-1.3,0-2.1-0.5-2.1-1.7
			C238.5,40.2,238.6,37.6,238.6,34.6z"/>
		<path d="M451.2,34.7c1.6,0,2.8,0,4.3,0c0,2.8,0,5.4,0,8.1c0,1.3-0.8,1.9-2.2,1.9c-1.3,0-2-0.5-2.1-1.8
			C451.2,40.2,451.2,37.5,451.2,34.7z"/>
		<path d="M468.5,34.6c1.5,0,2.8,0,4.3,0c0,2.8,0,5.6,0,8.3c0,1.2-0.8,1.7-2.1,1.7c-1.4,0-2.1-0.5-2.1-1.7
			C468.4,40.2,468.5,37.6,468.5,34.6z"/>
		<path d="M242.6,29.2c-1.3,0-2.5,0-3.7,0c-0.3-1.1-0.5-7.2-0.3-8.1c0.2-1,0.9-1.4,2.2-1.3c1.3,0,2,0.5,2,1.6
			C242.8,24,243.1,26.5,242.6,29.2z"/>
		<path d="M158.8,34.6c1.5-0.1,2.7-0.2,4.1,0.1c0,2.8,0,5.6,0,8.4c0,1.2-0.6,1.5-2,1.6c-1.4,0-2-0.4-2.1-1.7
			C158.7,40.2,158.8,37.5,158.8,34.6z"/>
		<path d="M238.6,11.4c0-1.7,0.8-2.4,2.7-2.1c1,0.2,1.6,0.7,1.6,1.7c0,0.4,0,0.8,0,1.2c-0.1,2-1.6,3-3.4,2.1
			C238.4,13.8,238.6,12.8,238.6,11.4z"/>
	</g>
</g>
</svg>
